<svg width="557" height="350" viewBox="0 0 557 350" fill="none" xmlns="http://www.w3.org/2000/svg">
<g id="issues">
<rect width="557" height="350" fill="white"/>
<g id="file-changes">
<g id="Rectangle 2 Copy" filter="url(#filter0_d)">
<path fill-rule="evenodd" clip-rule="evenodd" d="M30 2H395C409.359 2 421 13.6406 421 28V193C421 207.359 409.359 219 395 219H30C15.6406 219 4 207.359 4 193V28C4 13.6406 15.6406 2 30 2Z" fill="#FFA600"/>
</g>
<g id="attribution copy 5">
<path id="{name}" d="M49.42 86.55C49.532 87.292 49.868 87.922 50.414 88.44C50.974 88.958 51.772 89.21 52.794 89.21C53.774 89.21 54.516 88.972 55.034 88.51C55.552 88.034 55.818 87.502 55.818 86.9C55.818 86.34 55.664 85.878 55.342 85.528C55.034 85.164 54.446 84.87 53.578 84.632C52.584 84.352 51.968 84.156 51.716 84.044C51.478 83.918 51.352 83.764 51.352 83.554C51.352 83.176 51.8 82.868 52.514 82.868C53.424 82.868 53.844 83.302 54.11 84.016L55.622 83.554C55.202 82.098 54.166 81.37 52.5 81.37C51.632 81.37 50.946 81.594 50.442 82.042C49.952 82.49 49.7 83.022 49.7 83.638C49.7 84.744 50.47 85.332 52.192 85.822C52.29 85.85 52.416 85.892 52.598 85.934C53.256 86.116 53.676 86.27 53.886 86.382C54.096 86.48 54.194 86.648 54.194 86.858C54.194 87.376 53.62 87.684 52.724 87.684C51.744 87.684 51.184 87.166 51.058 86.13L49.42 86.55ZM59.0324 89V84.926C59.0324 83.792 59.4524 83.232 60.3064 83.232C60.4884 83.232 60.6704 83.274 60.8804 83.344L61.1604 81.58C60.9504 81.482 60.7264 81.44 60.4884 81.44C59.8304 81.44 59.2424 81.804 58.9624 82.364H58.9344V81.58H57.2124V89H59.0324ZM66.805 86.004C66.651 87.054 66.161 87.572 65.335 87.572C64.285 87.572 63.655 86.788 63.655 85.29C63.655 83.792 64.313 83.008 65.335 83.008C66.105 83.008 66.581 83.456 66.763 84.366L68.457 84.044C68.191 82.42 67.001 81.37 65.335 81.37C64.355 81.37 63.529 81.72 62.857 82.42C62.199 83.106 61.863 84.072 61.863 85.29C61.863 86.522 62.185 87.488 62.829 88.174C63.487 88.86 64.313 89.21 65.321 89.21C67.015 89.21 68.191 88.23 68.527 86.452L66.805 86.004ZM70.1513 89.658L75.1913 79.046L74.0573 78.528L69.0173 89.168L70.1513 89.658ZM81.0597 86.438C80.5697 87.152 80.0797 87.6 79.2397 87.6C78.2457 87.6 77.6577 86.97 77.6017 85.836H82.5857V85.29C82.5857 84.1 82.2637 83.162 81.6197 82.448C80.9897 81.734 80.1777 81.37 79.1837 81.37C78.1897 81.37 77.3777 81.734 76.7197 82.448C76.0757 83.162 75.7537 84.1 75.7537 85.29C75.7537 86.48 76.0757 87.432 76.7337 88.146C77.3917 88.86 78.2317 89.21 79.2677 89.21C80.5557 89.21 81.5777 88.664 82.3337 87.558L81.0597 86.438ZM77.6017 84.478C77.6717 83.624 78.2877 82.966 79.1837 82.966C80.1497 82.966 80.7237 83.526 80.8217 84.478H77.6017ZM85.8703 89V84.464C85.8703 83.61 86.4023 83.05 87.2983 83.05C88.2503 83.05 88.6003 83.568 88.6003 84.59V89H90.4203V84.142C90.4203 82.406 89.4263 81.37 87.7883 81.37C87.0043 81.37 86.2343 81.776 85.8283 82.294H85.8003V81.58H84.0503V89H85.8703ZM96.9141 85.962C96.9141 86.858 96.3121 87.572 95.3181 87.572C94.2541 87.572 93.6381 86.788 93.6381 85.29C93.6381 83.778 94.2541 83.008 95.3181 83.008C96.3121 83.008 96.9141 83.708 96.9141 84.604V85.962ZM98.7341 89V78.78H96.9141V82.294H96.8861L96.7041 82.056C96.4801 81.762 95.7941 81.37 95.0101 81.37C94.1561 81.37 93.4001 81.72 92.7701 82.434C92.1401 83.134 91.8181 84.086 91.8181 85.29C91.8181 86.48 92.1121 87.432 92.6861 88.146C93.2741 88.86 94.0581 89.21 95.0381 89.21C95.4441 89.21 95.8081 89.126 96.1441 88.958C96.4941 88.776 96.7041 88.636 96.7881 88.538C96.8861 88.44 96.9561 88.356 96.9981 88.286H97.0261V89H98.7341ZM102.509 84.52C102.509 83.68 103.139 83.008 104.105 83.008C105.183 83.008 105.925 83.82 105.925 85.29C105.925 86.76 105.169 87.572 104.105 87.572C103.139 87.572 102.509 86.9 102.509 86.046V84.52ZM102.509 92.15V88.286H102.537L102.593 88.384C102.761 88.622 103.363 89.21 104.483 89.21C105.393 89.21 106.163 88.86 106.793 88.16C107.423 87.46 107.745 86.508 107.745 85.29C107.745 84.086 107.409 83.134 106.751 82.434C106.093 81.72 105.337 81.37 104.455 81.37C103.013 81.384 102.453 82.28 102.453 82.294H102.425V81.58H100.689V92.15H102.509ZM110.97 86.984C110.676 86.592 110.522 86.032 110.522 85.29C110.522 84.548 110.676 83.988 110.97 83.596C111.278 83.204 111.684 83.008 112.202 83.008C112.72 83.008 113.126 83.204 113.42 83.61C113.728 84.002 113.882 84.562 113.882 85.29C113.882 86.018 113.728 86.578 113.434 86.984C113.14 87.376 112.72 87.572 112.202 87.572C111.684 87.572 111.264 87.376 110.97 86.984ZM108.73 85.29C108.73 86.522 109.052 87.488 109.71 88.174C110.368 88.86 111.194 89.21 112.202 89.21C113.21 89.21 114.036 88.86 114.694 88.174C115.352 87.488 115.674 86.522 115.674 85.29C115.674 84.072 115.338 83.12 114.666 82.42C113.994 81.72 113.168 81.37 112.202 81.37C111.236 81.37 110.41 81.72 109.738 82.42C109.066 83.12 108.73 84.072 108.73 85.29ZM118.97 89V81.58H117.15V89H118.97ZM118.97 80.502V78.78H117.15V80.502H118.97ZM122.743 89V84.464C122.743 83.61 123.275 83.05 124.171 83.05C125.123 83.05 125.473 83.568 125.473 84.59V89H127.293V84.142C127.293 82.406 126.299 81.37 124.661 81.37C123.877 81.37 123.107 81.776 122.701 82.294H122.673V81.58H120.923V89H122.743ZM129.559 86.354C129.559 87.278 129.741 87.95 130.119 88.37C130.497 88.79 131.183 89 132.177 89H132.947V87.25H132.345C131.547 87.25 131.351 86.97 131.351 86.186V83.12H133.199V81.58H131.323V79.76H129.601V81.58H128.411V83.12H129.559V86.354ZM134.035 86.55C134.147 87.292 134.483 87.922 135.029 88.44C135.589 88.958 136.387 89.21 137.409 89.21C138.389 89.21 139.131 88.972 139.649 88.51C140.167 88.034 140.433 87.502 140.433 86.9C140.433 86.34 140.279 85.878 139.957 85.528C139.649 85.164 139.061 84.87 138.193 84.632C137.199 84.352 136.583 84.156 136.331 84.044C136.093 83.918 135.967 83.764 135.967 83.554C135.967 83.176 136.415 82.868 137.129 82.868C138.039 82.868 138.459 83.302 138.725 84.016L140.237 83.554C139.817 82.098 138.781 81.37 137.115 81.37C136.247 81.37 135.561 81.594 135.057 82.042C134.567 82.49 134.315 83.022 134.315 83.638C134.315 84.744 135.085 85.332 136.807 85.822C136.905 85.85 137.031 85.892 137.213 85.934C137.871 86.116 138.291 86.27 138.501 86.382C138.711 86.48 138.809 86.648 138.809 86.858C138.809 87.376 138.235 87.684 137.339 87.684C136.359 87.684 135.799 87.166 135.673 86.13L134.035 86.55ZM142.052 89.658L147.092 79.046L145.958 78.528L140.918 89.168L142.052 89.658ZM152.96 86.438C152.47 87.152 151.98 87.6 151.14 87.6C150.146 87.6 149.558 86.97 149.502 85.836H154.486V85.29C154.486 84.1 154.164 83.162 153.52 82.448C152.89 81.734 152.078 81.37 151.084 81.37C150.09 81.37 149.278 81.734 148.62 82.448C147.976 83.162 147.654 84.1 147.654 85.29C147.654 86.48 147.976 87.432 148.634 88.146C149.292 88.86 150.132 89.21 151.168 89.21C152.456 89.21 153.478 88.664 154.234 87.558L152.96 86.438ZM149.502 84.478C149.572 83.624 150.188 82.966 151.084 82.966C152.05 82.966 152.624 83.526 152.722 84.478H149.502ZM159.345 89L162.313 81.58H160.451L158.603 86.354H158.575L156.727 81.58H154.837L157.805 89H159.345ZM167.972 86.438C167.482 87.152 166.992 87.6 166.152 87.6C165.158 87.6 164.57 86.97 164.514 85.836H169.498V85.29C169.498 84.1 169.176 83.162 168.532 82.448C167.902 81.734 167.09 81.37 166.096 81.37C165.102 81.37 164.29 81.734 163.632 82.448C162.988 83.162 162.666 84.1 162.666 85.29C162.666 86.48 162.988 87.432 163.646 88.146C164.304 88.86 165.144 89.21 166.18 89.21C167.468 89.21 168.49 88.664 169.246 87.558L167.972 86.438ZM164.514 84.478C164.584 83.624 165.2 82.966 166.096 82.966C167.062 82.966 167.636 83.526 167.734 84.478H164.514ZM172.782 89V84.464C172.782 83.61 173.314 83.05 174.21 83.05C175.162 83.05 175.512 83.568 175.512 84.59V89H177.332V84.142C177.332 82.406 176.338 81.37 174.7 81.37C173.916 81.37 173.146 81.776 172.74 82.294H172.712V81.58H170.962V89H172.782ZM179.598 86.354C179.598 87.278 179.78 87.95 180.158 88.37C180.536 88.79 181.222 89 182.216 89H182.986V87.25H182.384C181.586 87.25 181.39 86.97 181.39 86.186V83.12H183.238V81.58H181.362V79.76H179.64V81.58H178.45V83.12H179.598V86.354ZM184.074 86.55C184.186 87.292 184.522 87.922 185.068 88.44C185.628 88.958 186.426 89.21 187.448 89.21C188.428 89.21 189.17 88.972 189.688 88.51C190.206 88.034 190.472 87.502 190.472 86.9C190.472 86.34 190.318 85.878 189.996 85.528C189.688 85.164 189.1 84.87 188.232 84.632C187.238 84.352 186.622 84.156 186.37 84.044C186.132 83.918 186.006 83.764 186.006 83.554C186.006 83.176 186.454 82.868 187.168 82.868C188.078 82.868 188.498 83.302 188.764 84.016L190.276 83.554C189.856 82.098 188.82 81.37 187.154 81.37C186.286 81.37 185.6 81.594 185.096 82.042C184.606 82.49 184.354 83.022 184.354 83.638C184.354 84.744 185.124 85.332 186.846 85.822C186.944 85.85 187.07 85.892 187.252 85.934C187.91 86.116 188.33 86.27 188.54 86.382C188.75 86.48 188.848 86.648 188.848 86.858C188.848 87.376 188.274 87.684 187.378 87.684C186.398 87.684 185.838 87.166 185.712 86.13L184.074 86.55ZM193.956 89V87.012H191.87V89H193.956ZM197.87 84.52C197.87 83.68 198.5 83.008 199.466 83.008C200.544 83.008 201.286 83.82 201.286 85.29C201.286 86.76 200.53 87.572 199.466 87.572C198.5 87.572 197.87 86.9 197.87 86.046V84.52ZM197.87 92.15V88.286H197.898L197.954 88.384C198.122 88.622 198.724 89.21 199.844 89.21C200.754 89.21 201.524 88.86 202.154 88.16C202.784 87.46 203.106 86.508 203.106 85.29C203.106 84.086 202.77 83.134 202.112 82.434C201.454 81.72 200.698 81.37 199.816 81.37C198.374 81.384 197.814 82.28 197.814 82.294H197.786V81.58H196.05V92.15H197.87ZM206.688 92.15L210.958 81.58H209.11L207.192 86.606H207.164L205.246 81.58H203.398L206.366 88.636L204.882 92.15H206.688Z" fill="white" fill-opacity="0.77992"/>
<g id="file">
<g id="System/Files">
<path id="Rectangle 84" fill-rule="evenodd" clip-rule="evenodd" d="M33.3447 75.5H27.875C26.8395 75.5 26 76.3395 26 77.375V88.625C26 89.6605 26.8395 90.5 27.875 90.5H36.125C37.1605 90.5 38 89.6605 38 88.625V80.1553C38 79.658 37.8025 79.1811 37.4508 78.8295L34.6705 76.0492C34.3189 75.6975 33.842 75.5 33.3447 75.5ZM27.5 77.375C27.5 77.1679 27.6679 77 27.875 77H33.3447C33.4441 77 33.5395 77.0395 33.6098 77.1098L36.3902 79.8902C36.4605 79.9605 36.5 80.0559 36.5 80.1553V88.625C36.5 88.8321 36.3321 89 36.125 89H27.875C27.6679 89 27.5 88.8321 27.5 88.625V77.375Z" fill="white" fill-opacity="0.684301"/>
<path id="Combined Shape" fill-rule="evenodd" clip-rule="evenodd" d="M33.4995 80.0004V77H32V80.5C32 81.0523 32.4477 81.5 33 81.5H36.5V80.0004H33.4995Z" fill="white" fill-opacity="0.7271"/>
<path id="Combined Shape_2" fill-rule="evenodd" clip-rule="evenodd" d="M39 93.5C40.1046 93.5 41 92.6046 41 91.5V80.25C41 79.6977 40.5523 79.25 40 79.25H39.5V91C39.5 91.5523 39.0523 92 38.5 92H29V92.5C29 93.0523 29.4477 93.5 30 93.5H39Z" fill="white" fill-opacity="0.684301"/>
</g>
</g>
</g>
<path id="Path 2" d="M4 57H419.503" stroke="white" stroke-opacity="0.363961"/>
<path id="Path 2 Copy" d="M4 112H419.503" stroke="white" stroke-opacity="0.363961"/>
<path id="Path 2 Copy 2" d="M4 166H419.503" stroke="white" stroke-opacity="0.363961"/>
<g id="attribution copy 6">
<path id="{name}_2" d="M54.432 140.004C54.278 141.054 53.788 141.572 52.962 141.572C51.912 141.572 51.282 140.788 51.282 139.29C51.282 137.792 51.94 137.008 52.962 137.008C53.732 137.008 54.208 137.456 54.39 138.366L56.084 138.044C55.818 136.42 54.628 135.37 52.962 135.37C51.982 135.37 51.156 135.72 50.484 136.42C49.826 137.106 49.49 138.072 49.49 139.29C49.49 140.522 49.812 141.488 50.456 142.174C51.114 142.86 51.94 143.21 52.948 143.21C54.642 143.21 55.818 142.23 56.154 140.452L54.432 140.004ZM59.3042 140.984C59.0102 140.592 58.8562 140.032 58.8562 139.29C58.8562 138.548 59.0102 137.988 59.3042 137.596C59.6122 137.204 60.0182 137.008 60.5362 137.008C61.0542 137.008 61.4602 137.204 61.7542 137.61C62.0622 138.002 62.2162 138.562 62.2162 139.29C62.2162 140.018 62.0622 140.578 61.7682 140.984C61.4742 141.376 61.0542 141.572 60.5362 141.572C60.0182 141.572 59.5982 141.376 59.3042 140.984ZM57.0642 139.29C57.0642 140.522 57.3862 141.488 58.0442 142.174C58.7022 142.86 59.5282 143.21 60.5362 143.21C61.5442 143.21 62.3702 142.86 63.0282 142.174C63.6862 141.488 64.0082 140.522 64.0082 139.29C64.0082 138.072 63.6722 137.12 63.0002 136.42C62.3282 135.72 61.5022 135.37 60.5362 135.37C59.5702 135.37 58.7442 135.72 58.0722 136.42C57.4002 137.12 57.0642 138.072 57.0642 139.29ZM67.3039 143V138.464C67.3039 137.61 67.8359 137.05 68.7319 137.05C69.6839 137.05 70.0339 137.568 70.0339 138.59V143H71.8539V138.142C71.8539 136.406 70.8599 135.37 69.2219 135.37C68.4379 135.37 67.6679 135.776 67.2619 136.294H67.2339V135.58H65.4839V143H67.3039ZM75.9397 143V137.12H77.7597V135.58H75.8837V134.978C75.8837 134.544 76.0377 134.39 76.4857 134.39H77.5637V132.78H76.1077C74.8337 132.78 74.1617 133.256 74.1617 134.53V135.58H72.9717V137.12H74.1197V143H75.9397ZM78.1856 140.55C78.2976 141.292 78.6336 141.922 79.1796 142.44C79.7396 142.958 80.5376 143.21 81.5596 143.21C82.5396 143.21 83.2816 142.972 83.7996 142.51C84.3176 142.034 84.5836 141.502 84.5836 140.9C84.5836 140.34 84.4296 139.878 84.1076 139.528C83.7996 139.164 83.2116 138.87 82.3436 138.632C81.3496 138.352 80.7336 138.156 80.4816 138.044C80.2436 137.918 80.1176 137.764 80.1176 137.554C80.1176 137.176 80.5656 136.868 81.2796 136.868C82.1896 136.868 82.6096 137.302 82.8756 138.016L84.3876 137.554C83.9676 136.098 82.9316 135.37 81.2656 135.37C80.3976 135.37 79.7116 135.594 79.2076 136.042C78.7176 136.49 78.4656 137.022 78.4656 137.638C78.4656 138.744 79.2356 139.332 80.9576 139.822C81.0556 139.85 81.1816 139.892 81.3636 139.934C82.0216 140.116 82.4416 140.27 82.6516 140.382C82.8616 140.48 82.9596 140.648 82.9596 140.858C82.9596 141.376 82.3856 141.684 81.4896 141.684C80.5096 141.684 79.9496 141.166 79.8236 140.13L78.1856 140.55ZM86.202 143.658L91.242 133.046L90.108 132.528L85.068 143.168L86.202 143.658ZM91.7345 140.55C91.8465 141.292 92.1825 141.922 92.7285 142.44C93.2885 142.958 94.0865 143.21 95.1085 143.21C96.0885 143.21 96.8305 142.972 97.3485 142.51C97.8665 142.034 98.1325 141.502 98.1325 140.9C98.1325 140.34 97.9785 139.878 97.6565 139.528C97.3485 139.164 96.7605 138.87 95.8925 138.632C94.8985 138.352 94.2825 138.156 94.0305 138.044C93.7925 137.918 93.6665 137.764 93.6665 137.554C93.6665 137.176 94.1145 136.868 94.8285 136.868C95.7385 136.868 96.1585 137.302 96.4245 138.016L97.9365 137.554C97.5165 136.098 96.4805 135.37 94.8145 135.37C93.9465 135.37 93.2605 135.594 92.7565 136.042C92.2665 136.49 92.0145 137.022 92.0145 137.638C92.0145 138.744 92.7845 139.332 94.5065 139.822C94.6045 139.85 94.7305 139.892 94.9125 139.934C95.5705 140.116 95.9905 140.27 96.2005 140.382C96.4105 140.48 96.5085 140.648 96.5085 140.858C96.5085 141.376 95.9345 141.684 95.0385 141.684C94.0585 141.684 93.4985 141.166 93.3725 140.13L91.7345 140.55ZM104.343 140.438C103.853 141.152 103.363 141.6 102.523 141.6C101.529 141.6 100.941 140.97 100.885 139.836H105.869V139.29C105.869 138.1 105.547 137.162 104.903 136.448C104.273 135.734 103.461 135.37 102.467 135.37C101.473 135.37 100.661 135.734 100.003 136.448C99.3589 137.162 99.0369 138.1 99.0369 139.29C99.0369 140.48 99.3589 141.432 100.017 142.146C100.675 142.86 101.515 143.21 102.551 143.21C103.839 143.21 104.861 142.664 105.617 141.558L104.343 140.438ZM100.885 138.478C100.955 137.624 101.571 136.966 102.467 136.966C103.433 136.966 104.007 137.526 104.105 138.478H100.885ZM109.154 143V138.926C109.154 137.792 109.574 137.232 110.428 137.232C110.61 137.232 110.792 137.274 111.002 137.344L111.282 135.58C111.072 135.482 110.848 135.44 110.61 135.44C109.952 135.44 109.364 135.804 109.084 136.364H109.056V135.58H107.334V143H109.154ZM116.142 143L119.11 135.58H117.248L115.4 140.354H115.372L113.524 135.58H111.634L114.602 143H116.142ZM124.769 140.438C124.279 141.152 123.789 141.6 122.949 141.6C121.955 141.6 121.367 140.97 121.311 139.836H126.295V139.29C126.295 138.1 125.973 137.162 125.329 136.448C124.699 135.734 123.887 135.37 122.893 135.37C121.899 135.37 121.087 135.734 120.429 136.448C119.785 137.162 119.463 138.1 119.463 139.29C119.463 140.48 119.785 141.432 120.443 142.146C121.101 142.86 121.941 143.21 122.977 143.21C124.265 143.21 125.287 142.664 126.043 141.558L124.769 140.438ZM121.311 138.478C121.381 137.624 121.997 136.966 122.893 136.966C123.859 136.966 124.433 137.526 124.531 138.478H121.311ZM129.579 143V138.926C129.579 137.792 129.999 137.232 130.853 137.232C131.035 137.232 131.217 137.274 131.427 137.344L131.707 135.58C131.497 135.482 131.273 135.44 131.035 135.44C130.377 135.44 129.789 135.804 129.509 136.364H129.481V135.58H127.759V143H129.579ZM134.005 143V141.012H131.919V143H134.005ZM137.919 138.52C137.919 137.68 138.549 137.008 139.515 137.008C140.593 137.008 141.335 137.82 141.335 139.29C141.335 140.76 140.579 141.572 139.515 141.572C138.549 141.572 137.919 140.9 137.919 140.046V138.52ZM137.919 146.15V142.286H137.947L138.003 142.384C138.171 142.622 138.773 143.21 139.893 143.21C140.803 143.21 141.573 142.86 142.203 142.16C142.833 141.46 143.155 140.508 143.155 139.29C143.155 138.086 142.819 137.134 142.161 136.434C141.503 135.72 140.747 135.37 139.865 135.37C138.423 135.384 137.863 136.28 137.863 136.294H137.835V135.58H136.099V146.15H137.919ZM146.737 146.15L151.007 135.58H149.159L147.241 140.606H147.213L145.295 135.58H143.447L146.415 142.636L144.931 146.15H146.737Z" fill="white" fill-opacity="0.77992"/>
<g id="file_2">
<g id="System/Files_2">
<path id="Rectangle 84_2" fill-rule="evenodd" clip-rule="evenodd" d="M33.3447 129.5H27.875C26.8395 129.5 26 130.339 26 131.375V142.625C26 143.661 26.8395 144.5 27.875 144.5H36.125C37.1605 144.5 38 143.661 38 142.625V134.155C38 133.658 37.8025 133.181 37.4508 132.83L34.6705 130.049C34.3189 129.698 33.842 129.5 33.3447 129.5ZM27.5 131.375C27.5 131.168 27.6679 131 27.875 131H33.3447C33.4441 131 33.5395 131.04 33.6098 131.11L36.3902 133.89C36.4605 133.96 36.5 134.056 36.5 134.155V142.625C36.5 142.832 36.3321 143 36.125 143H27.875C27.6679 143 27.5 142.832 27.5 142.625V131.375Z" fill="white" fill-opacity="0.684301"/>
<path id="Combined Shape_3" fill-rule="evenodd" clip-rule="evenodd" d="M33.4995 134V131H32V134.5C32 135.052 32.4477 135.5 33 135.5H36.5V134H33.4995Z" fill="white" fill-opacity="0.7271"/>
<path id="Combined Shape_4" fill-rule="evenodd" clip-rule="evenodd" d="M39 147.5C40.1046 147.5 41 146.605 41 145.5V134.25C41 133.698 40.5523 133.25 40 133.25H39.5V145C39.5 145.552 39.0523 146 38.5 146H29V146.5C29 147.052 29.4477 147.5 30 147.5H39Z" fill="white" fill-opacity="0.684301"/>
</g>
</g>
</g>
<g id="attribution copy 7">
<path id="{name}_3" d="M49.91 198.73C51.184 198.73 51.828 198.058 51.828 196.728V188.58H50.008V196.224C50.008 196.63 49.826 196.84 49.476 196.84H49.14V198.73H49.91ZM51.828 187.502V185.78H50.008V187.502H51.828ZM53.2345 193.55C53.3465 194.292 53.6825 194.922 54.2285 195.44C54.7885 195.958 55.5865 196.21 56.6085 196.21C57.5885 196.21 58.3305 195.972 58.8485 195.51C59.3665 195.034 59.6325 194.502 59.6325 193.9C59.6325 193.34 59.4785 192.878 59.1565 192.528C58.8485 192.164 58.2605 191.87 57.3925 191.632C56.3985 191.352 55.7825 191.156 55.5305 191.044C55.2925 190.918 55.1665 190.764 55.1665 190.554C55.1665 190.176 55.6145 189.868 56.3285 189.868C57.2385 189.868 57.6585 190.302 57.9245 191.016L59.4365 190.554C59.0165 189.098 57.9805 188.37 56.3145 188.37C55.4465 188.37 54.7605 188.594 54.2565 189.042C53.7665 189.49 53.5145 190.022 53.5145 190.638C53.5145 191.744 54.2845 192.332 56.0065 192.822C56.1045 192.85 56.2305 192.892 56.4125 192.934C57.0705 193.116 57.4905 193.27 57.7005 193.382C57.9105 193.48 58.0085 193.648 58.0085 193.858C58.0085 194.376 57.4345 194.684 56.5385 194.684C55.5585 194.684 54.9985 194.166 54.8725 193.13L53.2345 193.55ZM61.2509 196.658L66.2909 186.046L65.1569 185.528L60.1169 196.168L61.2509 196.658ZM67.2733 193.368C67.2733 195.104 68.0853 196.21 69.8073 196.21C70.6333 196.21 71.2773 195.902 71.7393 195.286H71.7673V196H73.5033V188.58H71.6833V193.032C71.6833 194.026 71.0953 194.46 70.2133 194.46C69.4293 194.46 69.0933 194.11 69.0933 193.172V188.58H67.2733V193.368ZM77.2844 196V191.926C77.2844 190.792 77.7044 190.232 78.5584 190.232C78.7404 190.232 78.9224 190.274 79.1324 190.344L79.4124 188.58C79.2024 188.482 78.9784 188.44 78.7404 188.44C78.0824 188.44 77.4944 188.804 77.2144 189.364H77.1864V188.58H75.4644V196H77.2844ZM82.495 196V185.78H80.605V196H82.495ZM83.9005 193.55C84.0125 194.292 84.3485 194.922 84.8945 195.44C85.4545 195.958 86.2525 196.21 87.2745 196.21C88.2545 196.21 88.9965 195.972 89.5145 195.51C90.0325 195.034 90.2985 194.502 90.2985 193.9C90.2985 193.34 90.1445 192.878 89.8225 192.528C89.5145 192.164 88.9265 191.87 88.0585 191.632C87.0645 191.352 86.4485 191.156 86.1965 191.044C85.9585 190.918 85.8325 190.764 85.8325 190.554C85.8325 190.176 86.2805 189.868 86.9945 189.868C87.9045 189.868 88.3245 190.302 88.5905 191.016L90.1025 190.554C89.6825 189.098 88.6465 188.37 86.9805 188.37C86.1125 188.37 85.4265 188.594 84.9225 189.042C84.4325 189.49 84.1805 190.022 84.1805 190.638C84.1805 191.744 84.9505 192.332 86.6725 192.822C86.7705 192.85 86.8965 192.892 87.0785 192.934C87.7365 193.116 88.1565 193.27 88.3665 193.382C88.5765 193.48 88.6745 193.648 88.6745 193.858C88.6745 194.376 88.1005 194.684 87.2045 194.684C86.2245 194.684 85.6645 194.166 85.5385 193.13L83.9005 193.55ZM93.7822 196V194.012H91.6962V196H93.7822ZM95.8065 198.73C97.0805 198.73 97.7245 198.058 97.7245 196.728V188.58H95.9045V196.224C95.9045 196.63 95.7225 196.84 95.3725 196.84H95.0365V198.73H95.8065ZM97.7245 187.502V185.78H95.9045V187.502H97.7245ZM99.1309 193.55C99.2429 194.292 99.5789 194.922 100.125 195.44C100.685 195.958 101.483 196.21 102.505 196.21C103.485 196.21 104.227 195.972 104.745 195.51C105.263 195.034 105.529 194.502 105.529 193.9C105.529 193.34 105.375 192.878 105.053 192.528C104.745 192.164 104.157 191.87 103.289 191.632C102.295 191.352 101.679 191.156 101.427 191.044C101.189 190.918 101.063 190.764 101.063 190.554C101.063 190.176 101.511 189.868 102.225 189.868C103.135 189.868 103.555 190.302 103.821 191.016L105.333 190.554C104.913 189.098 103.877 188.37 102.211 188.37C101.343 188.37 100.657 188.594 100.153 189.042C99.6629 189.49 99.4109 190.022 99.4109 190.638C99.4109 191.744 100.181 192.332 101.903 192.822C102.001 192.85 102.127 192.892 102.309 192.934C102.967 193.116 103.387 193.27 103.597 193.382C103.807 193.48 103.905 193.648 103.905 193.858C103.905 194.376 103.331 194.684 102.435 194.684C101.455 194.684 100.895 194.166 100.769 193.13L99.1309 193.55Z" fill="white" fill-opacity="0.77992"/>
<g id="file_3">
<g id="System/Files_3">
<path id="Rectangle 84_3" fill-rule="evenodd" clip-rule="evenodd" d="M33.3447 182.5H27.875C26.8395 182.5 26 183.339 26 184.375V195.625C26 196.661 26.8395 197.5 27.875 197.5H36.125C37.1605 197.5 38 196.661 38 195.625V187.155C38 186.658 37.8025 186.181 37.4508 185.83L34.6705 183.049C34.3189 182.698 33.842 182.5 33.3447 182.5ZM27.5 184.375C27.5 184.168 27.6679 184 27.875 184H33.3447C33.4441 184 33.5395 184.04 33.6098 184.11L36.3902 186.89C36.4605 186.96 36.5 187.056 36.5 187.155V195.625C36.5 195.832 36.3321 196 36.125 196H27.875C27.6679 196 27.5 195.832 27.5 195.625V184.375Z" fill="white" fill-opacity="0.684301"/>
<path id="Combined Shape_5" fill-rule="evenodd" clip-rule="evenodd" d="M33.4995 187V184H32V187.5C32 188.052 32.4477 188.5 33 188.5H36.5V187H33.4995Z" fill="white" fill-opacity="0.7271"/>
<path id="Combined Shape_6" fill-rule="evenodd" clip-rule="evenodd" d="M39 200.5C40.1046 200.5 41 199.605 41 198.5V187.25C41 186.698 40.5523 186.25 40 186.25H39.5V198C39.5 198.552 39.0523 199 38.5 199H29V199.5C29 200.052 29.4477 200.5 30 200.5H39Z" fill="white" fill-opacity="0.684301"/>
</g>
</g>
</g>
<path id="File Changes" d="M30.3711 22.5625H39.5557V24.8389H33.0605V27.8184H38.7471V30.0684H33.0605V35.5H30.3711V22.5625ZM43.748 24.7773H41.208V22.4658H43.748V24.7773ZM41.208 25.9199H43.748V35.5H41.208V25.9199ZM48.7402 35.5H46.2354V22.5449H48.7402V35.5ZM54.9717 27.7305C54.3916 27.7305 53.9404 27.9121 53.6182 28.2754C53.3018 28.6387 53.1025 29.1309 53.0205 29.752H56.9141C56.873 29.0898 56.6709 28.5889 56.3076 28.249C55.9502 27.9033 55.5049 27.7305 54.9717 27.7305ZM54.9717 25.665C55.7686 25.665 56.4863 25.8145 57.125 26.1133C57.7637 26.4121 58.291 26.8838 58.707 27.5283C59.082 28.0967 59.3252 28.7559 59.4365 29.5059C59.501 29.9453 59.5273 30.5781 59.5156 31.4043H52.959C52.9941 32.3652 53.2959 33.0391 53.8643 33.4258C54.21 33.666 54.626 33.7861 55.1123 33.7861C55.6279 33.7861 56.0469 33.6396 56.3691 33.3467C56.5449 33.1885 56.7002 32.9688 56.835 32.6875H59.3926C59.3281 33.2559 59.0322 33.833 58.5049 34.4189C57.6846 35.3506 56.5361 35.8164 55.0596 35.8164C53.8408 35.8164 52.7656 35.4238 51.834 34.6387C50.9023 33.8535 50.4365 32.5762 50.4365 30.8066C50.4365 29.1484 50.8555 27.877 51.6934 26.9922C52.5371 26.1074 53.6299 25.665 54.9717 25.665ZM65.8613 29.1279C65.8613 26.8662 66.4678 25.123 67.6807 23.8984C68.7354 22.832 70.0771 22.2988 71.7061 22.2988C73.8857 22.2988 75.4795 23.0137 76.4873 24.4434C77.0439 25.2461 77.3428 26.0518 77.3838 26.8604H74.6768C74.501 26.2393 74.2754 25.7705 74 25.4541C73.5078 24.8916 72.7783 24.6104 71.8115 24.6104C70.8271 24.6104 70.0508 25.0088 69.4824 25.8057C68.9141 26.5967 68.6299 27.7188 68.6299 29.1719C68.6299 30.625 68.9287 31.7148 69.5264 32.4414C70.1299 33.1621 70.8945 33.5225 71.8203 33.5225C72.7695 33.5225 73.4932 33.2119 73.9912 32.5908C74.2666 32.2568 74.4951 31.7559 74.6768 31.0879H77.3574C77.123 32.5 76.5225 33.6484 75.5557 34.5332C74.5947 35.418 73.3613 35.8604 71.8555 35.8604C69.9922 35.8604 68.5273 35.2627 67.4609 34.0674C66.3945 32.8662 65.8613 31.2197 65.8613 29.1279ZM84.5117 25.6738C85.1035 25.6738 85.6396 25.7764 86.1201 25.9814C86.6064 26.1865 87.0049 26.5 87.3154 26.9219C87.5791 27.2793 87.7402 27.6484 87.7988 28.0293C87.8574 28.4043 87.8867 29.0195 87.8867 29.875V35.5H85.3291V29.6729C85.3291 29.1572 85.2412 28.7412 85.0654 28.4248C84.8369 27.9795 84.4033 27.7568 83.7646 27.7568C83.1025 27.7568 82.5986 27.9795 82.2529 28.4248C81.9131 28.8643 81.7432 29.4941 81.7432 30.3145V35.5H79.2471V22.5889H81.7432V27.168C82.1064 26.6113 82.5254 26.2246 83 26.0078C83.4805 25.7852 83.9844 25.6738 84.5117 25.6738ZM95.5156 30.8418C95.3574 30.9414 95.1963 31.0234 95.0322 31.0879C94.874 31.1465 94.6543 31.2021 94.373 31.2549L93.8105 31.3604C93.2832 31.4541 92.9053 31.5684 92.6768 31.7031C92.29 31.9316 92.0967 32.2861 92.0967 32.7666C92.0967 33.1943 92.2139 33.5049 92.4482 33.6982C92.6885 33.8857 92.9785 33.9795 93.3184 33.9795C93.8574 33.9795 94.3525 33.8213 94.8037 33.5049C95.2607 33.1885 95.498 32.6113 95.5156 31.7734V30.8418ZM93.9951 29.6729C94.458 29.6143 94.7891 29.541 94.9883 29.4531C95.3457 29.3008 95.5244 29.0635 95.5244 28.7412C95.5244 28.3486 95.3867 28.0791 95.1113 27.9326C94.8418 27.7803 94.4434 27.7041 93.916 27.7041C93.3242 27.7041 92.9053 27.8506 92.6592 28.1436C92.4834 28.3604 92.3662 28.6533 92.3076 29.0225H89.8906C89.9434 28.1846 90.1777 27.4961 90.5938 26.957C91.2559 26.1133 92.3926 25.6914 94.0039 25.6914C95.0527 25.6914 95.9844 25.8994 96.7988 26.3154C97.6133 26.7314 98.0205 27.5166 98.0205 28.6709V33.0654C98.0205 33.3701 98.0264 33.7393 98.0381 34.1729C98.0557 34.501 98.1055 34.7236 98.1875 34.8408C98.2695 34.958 98.3926 35.0547 98.5566 35.1309V35.5H95.832C95.7559 35.3066 95.7031 35.125 95.6738 34.9551C95.6445 34.7852 95.6211 34.5918 95.6035 34.375C95.2578 34.75 94.8594 35.0693 94.4082 35.333C93.8691 35.6436 93.2598 35.7988 92.5801 35.7988C91.7129 35.7988 90.9951 35.5527 90.4268 35.0605C89.8643 34.5625 89.583 33.8594 89.583 32.9512C89.583 31.7734 90.0371 30.9209 90.9453 30.3936C91.4434 30.1064 92.1758 29.9014 93.1426 29.7783L93.9951 29.6729ZM105.562 25.6914C106.552 25.6914 107.36 25.9521 107.987 26.4736C108.62 26.9893 108.937 27.8477 108.937 29.0488V35.5H106.37V29.6729C106.37 29.1689 106.303 28.7822 106.168 28.5127C105.922 28.0205 105.453 27.7744 104.762 27.7744C103.912 27.7744 103.329 28.1348 103.013 28.8555C102.849 29.2363 102.767 29.7227 102.767 30.3145V35.5H100.271V25.9375H102.688V27.335C103.01 26.8428 103.314 26.4883 103.602 26.2715C104.117 25.8848 104.771 25.6914 105.562 25.6914ZM115.37 33.4434C115.956 33.4434 116.451 33.2236 116.855 32.7842C117.26 32.3389 117.462 31.6328 117.462 30.666C117.462 29.7578 117.269 29.0664 116.882 28.5918C116.501 28.1172 115.988 27.8799 115.344 27.8799C114.465 27.8799 113.858 28.293 113.524 29.1191C113.349 29.5586 113.261 30.1006 113.261 30.7451C113.261 31.3018 113.354 31.7969 113.542 32.2305C113.882 33.0391 114.491 33.4434 115.37 33.4434ZM114.746 25.6914C115.227 25.6914 115.646 25.7646 116.003 25.9111C116.612 26.1631 117.104 26.626 117.479 27.2998V25.9199H119.914V35.0078C119.914 36.2441 119.706 37.1758 119.29 37.8027C118.575 38.8809 117.204 39.4199 115.177 39.4199C113.952 39.4199 112.953 39.1797 112.18 38.6992C111.406 38.2188 110.979 37.501 110.896 36.5459H113.621C113.691 36.8389 113.806 37.0498 113.964 37.1787C114.233 37.4072 114.688 37.5215 115.326 37.5215C116.229 37.5215 116.832 37.2197 117.137 36.6162C117.336 36.2295 117.436 35.5791 117.436 34.665V34.0498C117.195 34.46 116.938 34.7676 116.662 34.9727C116.164 35.3535 115.517 35.5439 114.72 35.5439C113.489 35.5439 112.505 35.1133 111.767 34.252C111.034 33.3848 110.668 32.2129 110.668 30.7363C110.668 29.3125 111.022 28.1172 111.731 27.1504C112.44 26.1777 113.445 25.6914 114.746 25.6914ZM126.04 27.7305C125.46 27.7305 125.009 27.9121 124.687 28.2754C124.37 28.6387 124.171 29.1309 124.089 29.752H127.982C127.941 29.0898 127.739 28.5889 127.376 28.249C127.019 27.9033 126.573 27.7305 126.04 27.7305ZM126.04 25.665C126.837 25.665 127.555 25.8145 128.193 26.1133C128.832 26.4121 129.359 26.8838 129.775 27.5283C130.15 28.0967 130.394 28.7559 130.505 29.5059C130.569 29.9453 130.596 30.5781 130.584 31.4043H124.027C124.062 32.3652 124.364 33.0391 124.933 33.4258C125.278 33.666 125.694 33.7861 126.181 33.7861C126.696 33.7861 127.115 33.6396 127.438 33.3467C127.613 33.1885 127.769 32.9688 127.903 32.6875H130.461C130.396 33.2559 130.101 33.833 129.573 34.4189C128.753 35.3506 127.604 35.8164 126.128 35.8164C124.909 35.8164 123.834 35.4238 122.902 34.6387C121.971 33.8535 121.505 32.5762 121.505 30.8066C121.505 29.1484 121.924 27.877 122.762 26.9922C123.605 26.1074 124.698 25.665 126.04 25.665ZM134.231 32.4414C134.284 32.8867 134.398 33.2031 134.574 33.3906C134.885 33.7246 135.459 33.8916 136.297 33.8916C136.789 33.8916 137.179 33.8184 137.466 33.6719C137.759 33.5254 137.905 33.3057 137.905 33.0127C137.905 32.7314 137.788 32.5176 137.554 32.3711C137.319 32.2246 136.449 31.9727 134.943 31.6152C133.859 31.3457 133.095 31.0088 132.649 30.6045C132.204 30.2061 131.981 29.6318 131.981 28.8818C131.981 27.9971 132.327 27.2383 133.019 26.6055C133.716 25.9668 134.694 25.6475 135.954 25.6475C137.149 25.6475 138.122 25.8877 138.872 26.3682C139.628 26.8428 140.062 27.666 140.173 28.8379H137.668C137.633 28.5156 137.542 28.2607 137.396 28.0732C137.12 27.7334 136.651 27.5635 135.989 27.5635C135.444 27.5635 135.055 27.6484 134.82 27.8184C134.592 27.9883 134.478 28.1875 134.478 28.416C134.478 28.7031 134.601 28.9111 134.847 29.04C135.093 29.1748 135.963 29.4062 137.457 29.7344C138.453 29.9688 139.2 30.3232 139.698 30.7979C140.19 31.2783 140.437 31.8789 140.437 32.5996C140.437 33.5488 140.082 34.3252 139.373 34.9287C138.67 35.5264 137.58 35.8252 136.104 35.8252C134.598 35.8252 133.484 35.5088 132.764 34.876C132.049 34.2373 131.691 33.4258 131.691 32.4414H134.231Z" fill="white" fill-opacity="0.824643"/>
</g>
<g id="new-issues">
<g id="Group 6 Copy">
<g id="Rectangle 2 Copy_2" filter="url(#filter1_d)">
<path fill-rule="evenodd" clip-rule="evenodd" d="M96 67H461C475.359 67 487 78.6406 487 93V255C487 269.359 475.359 281 461 281H96C81.6406 281 70 269.359 70 255V93C70 78.6406 81.6406 67 96 67Z" fill="url(#paint0_linear)"/>
</g>
<path id="Path 2_2" d="M72 126H485.5" stroke="white" stroke-opacity="0.285949"/>
<path id="Path 2 Copy_2" d="M72 203H485.5" stroke="white" stroke-opacity="0.285949"/>
</g>
<path id="New Issues" d="M95.87 100V91.738H95.906L100.568 100H102.962V87.4H100.514V95.662H100.478L95.87 87.4H93.44V100H95.87ZM111.862 96.706C111.232 97.624 110.602 98.2 109.522 98.2C108.244 98.2 107.488 97.39 107.416 95.932H113.824V95.23C113.824 93.7 113.41 92.494 112.582 91.576C111.772 90.658 110.728 90.19 109.45 90.19C108.172 90.19 107.128 90.658 106.282 91.576C105.454 92.494 105.04 93.7 105.04 95.23C105.04 96.76 105.454 97.984 106.3 98.902C107.146 99.82 108.226 100.27 109.558 100.27C111.214 100.27 112.528 99.568 113.5 98.146L111.862 96.706ZM107.416 94.186C107.506 93.088 108.298 92.242 109.45 92.242C110.692 92.242 111.43 92.962 111.556 94.186H107.416ZM119.361 100L121.719 93.142H121.755L123.933 100H126.237L128.523 90.46H126.273L124.833 96.814H124.797L122.835 90.46H120.711L118.587 96.832H118.533L117.273 90.46H114.987L117.093 100H119.361ZM137.515 100V87.4H135.085V100H137.515ZM139.579 96.85C139.723 97.804 140.155 98.614 140.857 99.28C141.577 99.946 142.603 100.27 143.917 100.27C145.177 100.27 146.131 99.964 146.797 99.37C147.463 98.758 147.805 98.074 147.805 97.3C147.805 96.58 147.607 95.986 147.193 95.536C146.797 95.068 146.041 94.69 144.925 94.384C143.647 94.024 142.855 93.772 142.531 93.628C142.225 93.466 142.063 93.268 142.063 92.998C142.063 92.512 142.639 92.116 143.557 92.116C144.727 92.116 145.267 92.674 145.609 93.592L147.553 92.998C147.013 91.126 145.681 90.19 143.539 90.19C142.423 90.19 141.541 90.478 140.893 91.054C140.263 91.63 139.939 92.314 139.939 93.106C139.939 94.528 140.929 95.284 143.143 95.914C143.269 95.95 143.431 96.004 143.665 96.058C144.511 96.292 145.051 96.49 145.321 96.634C145.591 96.76 145.717 96.976 145.717 97.246C145.717 97.912 144.979 98.308 143.827 98.308C142.567 98.308 141.847 97.642 141.685 96.31L139.579 96.85ZM148.878 96.85C149.022 97.804 149.454 98.614 150.156 99.28C150.876 99.946 151.902 100.27 153.216 100.27C154.476 100.27 155.43 99.964 156.096 99.37C156.762 98.758 157.104 98.074 157.104 97.3C157.104 96.58 156.906 95.986 156.492 95.536C156.096 95.068 155.34 94.69 154.224 94.384C152.946 94.024 152.154 93.772 151.83 93.628C151.524 93.466 151.362 93.268 151.362 92.998C151.362 92.512 151.938 92.116 152.856 92.116C154.026 92.116 154.566 92.674 154.908 93.592L156.852 92.998C156.312 91.126 154.98 90.19 152.838 90.19C151.722 90.19 150.84 90.478 150.192 91.054C149.562 91.63 149.238 92.314 149.238 93.106C149.238 94.528 150.228 95.284 152.442 95.914C152.568 95.95 152.73 96.004 152.964 96.058C153.81 96.292 154.35 96.49 154.62 96.634C154.89 96.76 155.016 96.976 155.016 97.246C155.016 97.912 154.278 98.308 153.126 98.308C151.866 98.308 151.146 97.642 150.984 96.31L148.878 96.85ZM158.807 96.616C158.807 98.848 159.851 100.27 162.065 100.27C163.127 100.27 163.955 99.874 164.549 99.082H164.585V100H166.817V90.46H164.477V96.184C164.477 97.462 163.721 98.02 162.587 98.02C161.579 98.02 161.147 97.57 161.147 96.364V90.46H158.807V96.616ZM175.53 96.706C174.9 97.624 174.27 98.2 173.19 98.2C171.912 98.2 171.156 97.39 171.084 95.932H177.492V95.23C177.492 93.7 177.078 92.494 176.25 91.576C175.44 90.658 174.396 90.19 173.118 90.19C171.84 90.19 170.796 90.658 169.95 91.576C169.122 92.494 168.708 93.7 168.708 95.23C168.708 96.76 169.122 97.984 169.968 98.902C170.814 99.82 171.894 100.27 173.226 100.27C174.882 100.27 176.196 99.568 177.168 98.146L175.53 96.706ZM171.084 94.186C171.174 93.088 171.966 92.242 173.118 92.242C174.36 92.242 175.098 92.962 175.224 94.186H171.084ZM178.655 96.85C178.799 97.804 179.231 98.614 179.933 99.28C180.653 99.946 181.679 100.27 182.993 100.27C184.253 100.27 185.207 99.964 185.873 99.37C186.539 98.758 186.881 98.074 186.881 97.3C186.881 96.58 186.683 95.986 186.269 95.536C185.873 95.068 185.117 94.69 184.001 94.384C182.723 94.024 181.931 93.772 181.607 93.628C181.301 93.466 181.139 93.268 181.139 92.998C181.139 92.512 181.715 92.116 182.633 92.116C183.803 92.116 184.343 92.674 184.685 93.592L186.629 92.998C186.089 91.126 184.757 90.19 182.615 90.19C181.499 90.19 180.617 90.478 179.969 91.054C179.339 91.63 179.015 92.314 179.015 93.106C179.015 94.528 180.005 95.284 182.219 95.914C182.345 95.95 182.507 96.004 182.741 96.058C183.587 96.292 184.127 96.49 184.397 96.634C184.667 96.76 184.793 96.976 184.793 97.246C184.793 97.912 184.055 98.308 182.903 98.308C181.643 98.308 180.923 97.642 180.761 96.31L178.655 96.85Z" fill="white"/>
<path id="DataError" d="M92.87 158.65H94.652C96.362 158.65 97.496 159.874 97.496 162.682C97.496 164.356 97.172 165.472 96.596 166.03C96.02 166.588 95.408 166.75 94.544 166.75H92.87V158.65ZM94.544 169C96.038 169 97.28 168.586 98.36 167.668C99.44 166.732 100.106 164.986 100.106 162.682C100.106 158.326 97.442 156.4 94.652 156.4H90.44V169H94.544ZM109.4 169V162.952C109.4 161.674 109.022 160.72 108.284 160.108C107.546 159.496 106.592 159.19 105.422 159.19C103.28 159.19 101.948 160.324 101.498 161.926L103.442 162.736C103.748 161.782 104.18 161.17 105.458 161.17C106.538 161.17 107.078 161.602 107.078 162.178C107.078 162.466 106.934 162.682 106.664 162.844C106.394 163.006 105.71 163.204 104.612 163.474C102.254 164.05 101.372 164.788 101.372 166.444C101.372 168.028 102.506 169.27 104.81 169.27C106.736 169.27 107.402 168.1 107.402 168.082H107.438V169H109.4ZM105.08 165.094C106.232 164.806 106.862 164.518 106.952 164.428C107.006 164.374 107.06 164.284 107.114 164.194H107.15V165.85C107.15 166.642 106.448 167.254 105.026 167.254C104.09 167.254 103.622 166.93 103.622 166.282C103.622 165.778 103.874 165.382 105.08 165.094ZM112.226 165.598C112.226 166.786 112.46 167.65 112.946 168.19C113.432 168.73 114.314 169 115.592 169H116.582V166.75H115.808C114.782 166.75 114.53 166.39 114.53 165.382V161.44H116.906V159.46H114.494V157.12H112.28V159.46H110.75V161.44H112.226V165.598ZM125.924 169V162.952C125.924 161.674 125.546 160.72 124.808 160.108C124.07 159.496 123.116 159.19 121.946 159.19C119.804 159.19 118.472 160.324 118.022 161.926L119.966 162.736C120.272 161.782 120.704 161.17 121.982 161.17C123.062 161.17 123.602 161.602 123.602 162.178C123.602 162.466 123.458 162.682 123.188 162.844C122.918 163.006 122.234 163.204 121.136 163.474C118.778 164.05 117.896 164.788 117.896 166.444C117.896 168.028 119.03 169.27 121.334 169.27C123.26 169.27 123.926 168.1 123.926 168.082H123.962V169H125.924ZM121.604 165.094C122.756 164.806 123.386 164.518 123.476 164.428C123.53 164.374 123.584 164.284 123.638 164.194H123.674V165.85C123.674 166.642 122.972 167.254 121.55 167.254C120.614 167.254 120.146 166.93 120.146 166.282C120.146 165.778 120.398 165.382 121.604 165.094ZM136.418 169V166.75H130.874V163.636H135.914V161.476H130.874V158.65H136.418V156.4H128.444V169H136.418ZM141.01 169V163.762C141.01 162.304 141.55 161.584 142.648 161.584C142.882 161.584 143.116 161.638 143.386 161.728L143.746 159.46C143.476 159.334 143.188 159.28 142.882 159.28C142.036 159.28 141.28 159.748 140.92 160.468H140.884V159.46H138.67V169H141.01ZM147.444 169V163.762C147.444 162.304 147.984 161.584 149.082 161.584C149.316 161.584 149.55 161.638 149.82 161.728L150.18 159.46C149.91 159.334 149.622 159.28 149.316 159.28C148.47 159.28 147.714 159.748 147.354 160.468H147.318V159.46H145.104V169H147.444ZM153.612 166.408C153.234 165.904 153.036 165.184 153.036 164.23C153.036 163.276 153.234 162.556 153.612 162.052C154.008 161.548 154.53 161.296 155.196 161.296C155.862 161.296 156.384 161.548 156.762 162.07C157.158 162.574 157.356 163.294 157.356 164.23C157.356 165.166 157.158 165.886 156.78 166.408C156.402 166.912 155.862 167.164 155.196 167.164C154.53 167.164 153.99 166.912 153.612 166.408ZM150.732 164.23C150.732 165.814 151.146 167.056 151.992 167.938C152.838 168.82 153.9 169.27 155.196 169.27C156.492 169.27 157.554 168.82 158.4 167.938C159.246 167.056 159.66 165.814 159.66 164.23C159.66 162.664 159.228 161.44 158.364 160.54C157.5 159.64 156.438 159.19 155.196 159.19C153.954 159.19 152.892 159.64 152.028 160.54C151.164 161.44 150.732 162.664 150.732 164.23ZM163.897 169V163.762C163.897 162.304 164.437 161.584 165.535 161.584C165.769 161.584 166.003 161.638 166.273 161.728L166.633 159.46C166.363 159.334 166.075 159.28 165.769 159.28C164.923 159.28 164.167 159.748 163.807 160.468H163.771V159.46H161.557V169H163.897Z" fill="white"/>
<path id="ResponseError" d="M92.87 244V239.32H94.742L97.28 244H99.908L97.226 239.086C98.882 238.564 99.89 237.232 99.89 235.414C99.89 234.19 99.494 233.218 98.684 232.498C97.892 231.76 96.848 231.4 95.552 231.4H90.44V244H92.87ZM92.87 233.596H95.354C96.74 233.596 97.424 234.208 97.424 235.414C97.424 236.62 96.74 237.214 95.354 237.214H92.87V233.596ZM107.895 240.706C107.265 241.624 106.635 242.2 105.555 242.2C104.277 242.2 103.521 241.39 103.449 239.932H109.857V239.23C109.857 237.7 109.443 236.494 108.615 235.576C107.805 234.658 106.761 234.19 105.483 234.19C104.205 234.19 103.161 234.658 102.315 235.576C101.487 236.494 101.073 237.7 101.073 239.23C101.073 240.76 101.487 241.984 102.333 242.902C103.179 243.82 104.259 244.27 105.591 244.27C107.247 244.27 108.561 243.568 109.533 242.146L107.895 240.706ZM103.449 238.186C103.539 237.088 104.331 236.242 105.483 236.242C106.725 236.242 107.463 236.962 107.589 238.186H103.449ZM111.02 240.85C111.164 241.804 111.596 242.614 112.298 243.28C113.018 243.946 114.044 244.27 115.358 244.27C116.618 244.27 117.572 243.964 118.238 243.37C118.904 242.758 119.246 242.074 119.246 241.3C119.246 240.58 119.048 239.986 118.634 239.536C118.238 239.068 117.482 238.69 116.366 238.384C115.088 238.024 114.296 237.772 113.972 237.628C113.666 237.466 113.504 237.268 113.504 236.998C113.504 236.512 114.08 236.116 114.998 236.116C116.168 236.116 116.708 236.674 117.05 237.592L118.994 236.998C118.454 235.126 117.122 234.19 114.98 234.19C113.864 234.19 112.982 234.478 112.334 235.054C111.704 235.63 111.38 236.314 111.38 237.106C111.38 238.528 112.37 239.284 114.584 239.914C114.71 239.95 114.872 240.004 115.106 240.058C115.952 240.292 116.492 240.49 116.762 240.634C117.032 240.76 117.158 240.976 117.158 241.246C117.158 241.912 116.42 242.308 115.268 242.308C114.008 242.308 113.288 241.642 113.126 240.31L111.02 240.85ZM123.379 238.24C123.379 237.16 124.189 236.296 125.431 236.296C126.817 236.296 127.771 237.34 127.771 239.23C127.771 241.12 126.799 242.164 125.431 242.164C124.189 242.164 123.379 241.3 123.379 240.202V238.24ZM123.379 248.05V243.082H123.415L123.487 243.208C123.703 243.514 124.477 244.27 125.917 244.27C127.087 244.27 128.077 243.82 128.887 242.92C129.697 242.02 130.111 240.796 130.111 239.23C130.111 237.682 129.679 236.458 128.833 235.558C127.987 234.64 127.015 234.19 125.881 234.19C124.027 234.208 123.307 235.36 123.307 235.378H123.271V234.46H121.039V248.05H123.379ZM134.258 241.408C133.88 240.904 133.682 240.184 133.682 239.23C133.682 238.276 133.88 237.556 134.258 237.052C134.654 236.548 135.176 236.296 135.842 236.296C136.508 236.296 137.03 236.548 137.408 237.07C137.804 237.574 138.002 238.294 138.002 239.23C138.002 240.166 137.804 240.886 137.426 241.408C137.048 241.912 136.508 242.164 135.842 242.164C135.176 242.164 134.636 241.912 134.258 241.408ZM131.378 239.23C131.378 240.814 131.792 242.056 132.638 242.938C133.484 243.82 134.546 244.27 135.842 244.27C137.138 244.27 138.2 243.82 139.046 242.938C139.892 242.056 140.306 240.814 140.306 239.23C140.306 237.664 139.874 236.44 139.01 235.54C138.146 234.64 137.084 234.19 135.842 234.19C134.6 234.19 133.538 234.64 132.674 235.54C131.81 236.44 131.378 237.664 131.378 239.23ZM144.543 244V238.168C144.543 237.07 145.227 236.35 146.379 236.35C147.603 236.35 148.053 237.016 148.053 238.33V244H150.393V237.754C150.393 235.522 149.115 234.19 147.009 234.19C146.001 234.19 145.011 234.712 144.489 235.378H144.453V234.46H142.203V244H144.543ZM152.101 240.85C152.245 241.804 152.677 242.614 153.379 243.28C154.099 243.946 155.125 244.27 156.439 244.27C157.699 244.27 158.653 243.964 159.319 243.37C159.985 242.758 160.327 242.074 160.327 241.3C160.327 240.58 160.129 239.986 159.715 239.536C159.319 239.068 158.563 238.69 157.447 238.384C156.169 238.024 155.377 237.772 155.053 237.628C154.747 237.466 154.585 237.268 154.585 236.998C154.585 236.512 155.161 236.116 156.079 236.116C157.249 236.116 157.789 236.674 158.131 237.592L160.075 236.998C159.535 235.126 158.203 234.19 156.061 234.19C154.945 234.19 154.063 234.478 153.415 235.054C152.785 235.63 152.461 236.314 152.461 237.106C152.461 238.528 153.451 239.284 155.665 239.914C155.791 239.95 155.953 240.004 156.187 240.058C157.033 240.292 157.573 240.49 157.843 240.634C158.113 240.76 158.239 240.976 158.239 241.246C158.239 241.912 157.501 242.308 156.349 242.308C155.089 242.308 154.369 241.642 154.207 240.31L152.101 240.85ZM168.311 240.706C167.681 241.624 167.051 242.2 165.971 242.2C164.693 242.2 163.937 241.39 163.865 239.932H170.273V239.23C170.273 237.7 169.859 236.494 169.031 235.576C168.221 234.658 167.177 234.19 165.899 234.19C164.621 234.19 163.577 234.658 162.731 235.576C161.903 236.494 161.489 237.7 161.489 239.23C161.489 240.76 161.903 241.984 162.749 242.902C163.595 243.82 164.675 244.27 166.007 244.27C167.663 244.27 168.977 243.568 169.949 242.146L168.311 240.706ZM163.865 238.186C163.955 237.088 164.747 236.242 165.899 236.242C167.141 236.242 167.879 236.962 168.005 238.186H163.865ZM180.31 244V241.75H174.766V238.636H179.806V236.476H174.766V233.65H180.31V231.4H172.336V244H180.31ZM184.903 244V238.762C184.903 237.304 185.443 236.584 186.541 236.584C186.775 236.584 187.009 236.638 187.279 236.728L187.639 234.46C187.369 234.334 187.081 234.28 186.775 234.28C185.929 234.28 185.173 234.748 184.813 235.468H184.777V234.46H182.563V244H184.903ZM191.336 244V238.762C191.336 237.304 191.876 236.584 192.974 236.584C193.208 236.584 193.442 236.638 193.712 236.728L194.072 234.46C193.802 234.334 193.514 234.28 193.208 234.28C192.362 234.28 191.606 234.748 191.246 235.468H191.21V234.46H188.996V244H191.336ZM197.504 241.408C197.126 240.904 196.928 240.184 196.928 239.23C196.928 238.276 197.126 237.556 197.504 237.052C197.9 236.548 198.422 236.296 199.088 236.296C199.754 236.296 200.276 236.548 200.654 237.07C201.05 237.574 201.248 238.294 201.248 239.23C201.248 240.166 201.05 240.886 200.672 241.408C200.294 241.912 199.754 242.164 199.088 242.164C198.422 242.164 197.882 241.912 197.504 241.408ZM194.624 239.23C194.624 240.814 195.038 242.056 195.884 242.938C196.73 243.82 197.792 244.27 199.088 244.27C200.384 244.27 201.446 243.82 202.292 242.938C203.138 242.056 203.552 240.814 203.552 239.23C203.552 237.664 203.12 236.44 202.256 235.54C201.392 234.64 200.33 234.19 199.088 234.19C197.846 234.19 196.784 234.64 195.92 235.54C195.056 236.44 194.624 237.664 194.624 239.23ZM207.789 244V238.762C207.789 237.304 208.329 236.584 209.427 236.584C209.661 236.584 209.895 236.638 210.165 236.728L210.525 234.46C210.255 234.334 209.967 234.28 209.661 234.28C208.815 234.28 208.059 234.748 207.699 235.468H207.663V234.46H205.449V244H207.789Z" fill="white"/>
<path id="/api/0/projects/ copy" d="M172.422 169.756L178.902 156.112L177.75 155.572L171.27 169.252L172.422 169.756ZM187.634 169V162.7C187.634 160.306 186.158 159.19 183.926 159.19C181.856 159.19 180.56 160.324 180.218 161.98L181.748 162.52C182.036 161.314 182.774 160.72 183.962 160.72C185.204 160.72 185.834 161.278 185.834 162.016C185.834 162.394 185.654 162.664 185.276 162.862C184.916 163.06 184.214 163.276 183.188 163.546C180.866 164.122 179.984 164.914 179.984 166.516C179.984 168.1 181.082 169.27 183.26 169.27C184.034 169.27 184.646 169.126 185.132 168.838C185.618 168.532 185.942 168.262 186.068 167.992H186.104V169H187.634ZM183.584 164.824C185.492 164.302 185.798 164.068 185.888 163.78H185.924V165.922C185.924 166.93 185.024 167.722 183.422 167.722C182.27 167.722 181.694 167.29 181.694 166.408C181.694 165.67 182.09 165.238 183.584 164.824ZM192.081 162.988C192.081 162.412 192.297 161.908 192.711 161.458C193.143 161.008 193.701 160.792 194.403 160.792C196.131 160.792 197.157 162.052 197.157 164.23C197.157 166.408 196.131 167.686 194.403 167.686C193.737 167.686 193.179 167.488 192.729 167.092C192.297 166.678 192.081 166.21 192.081 165.652V162.988ZM192.081 173.05V168.082H192.117C192.495 168.604 193.449 169.27 194.745 169.27C195.951 169.27 196.959 168.82 197.733 167.92C198.507 167.002 198.903 165.778 198.903 164.23C198.903 162.7 198.489 161.494 197.679 160.576C196.869 159.658 195.897 159.19 194.727 159.19C193.791 159.19 192.891 159.604 192.513 159.91C192.315 160.072 192.171 160.216 192.045 160.378H192.009V159.46H190.335V173.05H192.081ZM202.963 169V159.46H201.217V169H202.963ZM203.035 157.714V155.86H201.145V157.714H203.035ZM205.891 169.756L212.371 156.112L211.219 155.572L204.739 169.252L205.891 169.756ZM218.187 169.27C221.139 169.27 222.939 166.93 222.939 162.52C222.939 160.45 222.507 158.884 221.625 157.786C220.761 156.688 219.609 156.13 218.187 156.13C216.765 156.13 215.631 156.688 214.749 157.786C213.885 158.884 213.453 160.45 213.453 162.52C213.453 166.93 215.253 169.27 218.187 169.27ZM221.103 162.52C221.103 165.922 220.131 167.614 218.187 167.614C216.243 167.614 215.271 165.922 215.271 162.52C215.271 159.406 216.315 157.804 218.187 157.804C220.131 157.804 221.103 159.37 221.103 162.52ZM225.174 169.756L231.654 156.112L230.502 155.572L224.022 169.252L225.174 169.756ZM235.112 162.988C235.112 162.412 235.328 161.908 235.742 161.458C236.174 161.008 236.732 160.792 237.434 160.792C239.162 160.792 240.188 162.052 240.188 164.23C240.188 166.408 239.162 167.686 237.434 167.686C236.768 167.686 236.21 167.488 235.76 167.092C235.328 166.678 235.112 166.21 235.112 165.652V162.988ZM235.112 173.05V168.082H235.148C235.526 168.604 236.48 169.27 237.776 169.27C238.982 169.27 239.99 168.82 240.764 167.92C241.538 167.002 241.934 165.778 241.934 164.23C241.934 162.7 241.52 161.494 240.71 160.576C239.9 159.658 238.928 159.19 237.758 159.19C236.822 159.19 235.922 159.604 235.544 159.91C235.346 160.072 235.202 160.216 235.076 160.378H235.04V159.46H233.366V173.05H235.112ZM245.922 169V163.402C245.922 161.836 246.498 161.062 247.65 161.062C247.92 161.062 248.154 161.116 248.388 161.206L248.694 159.478C248.46 159.352 248.172 159.298 247.848 159.298C247.056 159.298 246.264 159.748 245.886 160.486H245.85V159.46H244.176V169H245.922ZM253.985 167.686C252.419 167.686 251.339 166.444 251.339 164.23C251.339 162.016 252.401 160.792 253.985 160.792C255.515 160.792 256.577 162.07 256.577 164.23C256.577 166.408 255.515 167.686 253.985 167.686ZM253.985 169.27C255.245 169.27 256.271 168.82 257.081 167.938C257.891 167.056 258.305 165.814 258.305 164.23C258.305 162.664 257.891 161.44 257.045 160.54C256.217 159.64 255.191 159.19 253.985 159.19C252.743 159.19 251.717 159.64 250.871 160.54C250.025 161.44 249.611 162.664 249.611 164.23C249.611 165.814 250.025 167.056 250.835 167.938C251.663 168.82 252.707 169.27 253.985 169.27ZM260.199 172.51C261.639 172.51 262.341 171.772 262.341 170.062V159.46H260.595V169.918C260.595 170.62 260.343 170.854 259.821 170.854H259.479V172.51H260.199ZM262.395 157.714V155.86H260.505V157.714H262.395ZM271.75 165.958C271.462 166.444 271.354 166.606 270.904 167.056C270.472 167.488 269.86 167.704 269.068 167.704C267.394 167.704 266.476 166.462 266.422 164.752H273.334V164.23C273.334 162.682 272.938 161.458 272.128 160.558C271.318 159.64 270.292 159.19 269.014 159.19C267.736 159.19 266.692 159.658 265.864 160.576C265.054 161.494 264.64 162.7 264.64 164.23C264.64 165.76 265.054 166.984 265.882 167.902C266.71 168.82 267.79 169.27 269.104 169.27C270.994 169.27 272.326 168.298 273.064 166.948L271.75 165.958ZM266.44 163.384C266.458 162.718 266.692 162.124 267.142 161.584C267.592 161.026 268.204 160.756 269.014 160.756C270.688 160.756 271.516 161.926 271.588 163.384H266.44ZM281.636 165.274C281.42 166.66 280.7 167.686 279.35 167.686C277.694 167.686 276.686 166.408 276.686 164.23C276.686 162.052 277.73 160.792 279.332 160.792C280.682 160.792 281.42 161.71 281.618 162.988L283.328 162.718C283.202 161.674 282.788 160.828 282.05 160.18C281.33 159.514 280.43 159.19 279.332 159.19C278.09 159.19 277.064 159.64 276.218 160.54C275.372 161.422 274.958 162.664 274.958 164.23C274.958 165.796 275.354 167.02 276.164 167.92C276.974 168.82 278.036 169.27 279.314 169.27C281.564 169.27 283.04 167.92 283.382 165.706L281.636 165.274ZM285.952 166.012C285.952 168.028 286.708 169 288.778 169H289.624V167.308H288.904C287.914 167.308 287.68 166.912 287.68 165.832V160.99H290.038V159.46H287.662V157.12H285.988V159.46H284.548V160.99H285.952V166.012ZM291.304 165.796C291.412 166.786 291.808 167.614 292.492 168.28C293.176 168.946 294.166 169.27 295.444 169.27C296.686 169.27 297.604 168.982 298.234 168.424C298.864 167.848 299.17 167.182 299.152 166.426C299.152 165.67 298.918 165.076 298.468 164.626C298.018 164.176 297.208 163.78 296.02 163.438C294.832 163.096 294.076 162.844 293.752 162.664C293.428 162.484 293.266 162.214 293.266 161.854C293.266 161.206 293.914 160.666 295.066 160.666C296.218 160.666 296.974 161.242 297.352 162.376L298.864 161.962C298.414 160.288 297.19 159.19 295.048 159.19C293.986 159.19 293.158 159.46 292.546 160C291.952 160.54 291.646 161.17 291.646 161.908C291.646 163.33 292.546 164.05 294.85 164.68C295.948 164.986 296.686 165.256 297.028 165.472C297.37 165.67 297.55 165.994 297.55 166.408C297.55 167.218 296.776 167.776 295.39 167.776C293.932 167.776 293.104 167.002 292.924 165.436L291.304 165.796ZM301.305 169.756L307.785 156.112L306.633 155.572L300.153 169.252L301.305 169.756Z" fill="#E4B4B0"/>
<path id="/api/0/projects/ copy 2" d="M216.422 244.756L222.902 231.112L221.75 230.572L215.27 244.252L216.422 244.756ZM231.634 244V237.7C231.634 235.306 230.158 234.19 227.926 234.19C225.856 234.19 224.56 235.324 224.218 236.98L225.748 237.52C226.036 236.314 226.774 235.72 227.962 235.72C229.204 235.72 229.834 236.278 229.834 237.016C229.834 237.394 229.654 237.664 229.276 237.862C228.916 238.06 228.214 238.276 227.188 238.546C224.866 239.122 223.984 239.914 223.984 241.516C223.984 243.1 225.082 244.27 227.26 244.27C228.034 244.27 228.646 244.126 229.132 243.838C229.618 243.532 229.942 243.262 230.068 242.992H230.104V244H231.634ZM227.584 239.824C229.492 239.302 229.798 239.068 229.888 238.78H229.924V240.922C229.924 241.93 229.024 242.722 227.422 242.722C226.27 242.722 225.694 242.29 225.694 241.408C225.694 240.67 226.09 240.238 227.584 239.824ZM236.081 237.988C236.081 237.412 236.297 236.908 236.711 236.458C237.143 236.008 237.701 235.792 238.403 235.792C240.131 235.792 241.157 237.052 241.157 239.23C241.157 241.408 240.131 242.686 238.403 242.686C237.737 242.686 237.179 242.488 236.729 242.092C236.297 241.678 236.081 241.21 236.081 240.652V237.988ZM236.081 248.05V243.082H236.117C236.495 243.604 237.449 244.27 238.745 244.27C239.951 244.27 240.959 243.82 241.733 242.92C242.507 242.002 242.903 240.778 242.903 239.23C242.903 237.7 242.489 236.494 241.679 235.576C240.869 234.658 239.897 234.19 238.727 234.19C237.791 234.19 236.891 234.604 236.513 234.91C236.315 235.072 236.171 235.216 236.045 235.378H236.009V234.46H234.335V248.05H236.081ZM246.963 244V234.46H245.217V244H246.963ZM247.035 232.714V230.86H245.145V232.714H247.035ZM249.891 244.756L256.371 231.112L255.219 230.572L248.739 244.252L249.891 244.756ZM262.187 244.27C265.139 244.27 266.939 241.93 266.939 237.52C266.939 235.45 266.507 233.884 265.625 232.786C264.761 231.688 263.609 231.13 262.187 231.13C260.765 231.13 259.631 231.688 258.749 232.786C257.885 233.884 257.453 235.45 257.453 237.52C257.453 241.93 259.253 244.27 262.187 244.27ZM265.103 237.52C265.103 240.922 264.131 242.614 262.187 242.614C260.243 242.614 259.271 240.922 259.271 237.52C259.271 234.406 260.315 232.804 262.187 232.804C264.131 232.804 265.103 234.37 265.103 237.52ZM269.174 244.756L275.654 231.112L274.502 230.572L268.022 244.252L269.174 244.756ZM279.112 237.988C279.112 237.412 279.328 236.908 279.742 236.458C280.174 236.008 280.732 235.792 281.434 235.792C283.162 235.792 284.188 237.052 284.188 239.23C284.188 241.408 283.162 242.686 281.434 242.686C280.768 242.686 280.21 242.488 279.76 242.092C279.328 241.678 279.112 241.21 279.112 240.652V237.988ZM279.112 248.05V243.082H279.148C279.526 243.604 280.48 244.27 281.776 244.27C282.982 244.27 283.99 243.82 284.764 242.92C285.538 242.002 285.934 240.778 285.934 239.23C285.934 237.7 285.52 236.494 284.71 235.576C283.9 234.658 282.928 234.19 281.758 234.19C280.822 234.19 279.922 234.604 279.544 234.91C279.346 235.072 279.202 235.216 279.076 235.378H279.04V234.46H277.366V248.05H279.112ZM289.922 244V238.402C289.922 236.836 290.498 236.062 291.65 236.062C291.92 236.062 292.154 236.116 292.388 236.206L292.694 234.478C292.46 234.352 292.172 234.298 291.848 234.298C291.056 234.298 290.264 234.748 289.886 235.486H289.85V234.46H288.176V244H289.922ZM297.985 242.686C296.419 242.686 295.339 241.444 295.339 239.23C295.339 237.016 296.401 235.792 297.985 235.792C299.515 235.792 300.577 237.07 300.577 239.23C300.577 241.408 299.515 242.686 297.985 242.686ZM297.985 244.27C299.245 244.27 300.271 243.82 301.081 242.938C301.891 242.056 302.305 240.814 302.305 239.23C302.305 237.664 301.891 236.44 301.045 235.54C300.217 234.64 299.191 234.19 297.985 234.19C296.743 234.19 295.717 234.64 294.871 235.54C294.025 236.44 293.611 237.664 293.611 239.23C293.611 240.814 294.025 242.056 294.835 242.938C295.663 243.82 296.707 244.27 297.985 244.27ZM304.199 247.51C305.639 247.51 306.341 246.772 306.341 245.062V234.46H304.595V244.918C304.595 245.62 304.343 245.854 303.821 245.854H303.479V247.51H304.199ZM306.395 232.714V230.86H304.505V232.714H306.395ZM315.75 240.958C315.462 241.444 315.354 241.606 314.904 242.056C314.472 242.488 313.86 242.704 313.068 242.704C311.394 242.704 310.476 241.462 310.422 239.752H317.334V239.23C317.334 237.682 316.938 236.458 316.128 235.558C315.318 234.64 314.292 234.19 313.014 234.19C311.736 234.19 310.692 234.658 309.864 235.576C309.054 236.494 308.64 237.7 308.64 239.23C308.64 240.76 309.054 241.984 309.882 242.902C310.71 243.82 311.79 244.27 313.104 244.27C314.994 244.27 316.326 243.298 317.064 241.948L315.75 240.958ZM310.44 238.384C310.458 237.718 310.692 237.124 311.142 236.584C311.592 236.026 312.204 235.756 313.014 235.756C314.688 235.756 315.516 236.926 315.588 238.384H310.44ZM325.636 240.274C325.42 241.66 324.7 242.686 323.35 242.686C321.694 242.686 320.686 241.408 320.686 239.23C320.686 237.052 321.73 235.792 323.332 235.792C324.682 235.792 325.42 236.71 325.618 237.988L327.328 237.718C327.202 236.674 326.788 235.828 326.05 235.18C325.33 234.514 324.43 234.19 323.332 234.19C322.09 234.19 321.064 234.64 320.218 235.54C319.372 236.422 318.958 237.664 318.958 239.23C318.958 240.796 319.354 242.02 320.164 242.92C320.974 243.82 322.036 244.27 323.314 244.27C325.564 244.27 327.04 242.92 327.382 240.706L325.636 240.274ZM329.952 241.012C329.952 243.028 330.708 244 332.778 244H333.624V242.308H332.904C331.914 242.308 331.68 241.912 331.68 240.832V235.99H334.038V234.46H331.662V232.12H329.988V234.46H328.548V235.99H329.952V241.012ZM335.304 240.796C335.412 241.786 335.808 242.614 336.492 243.28C337.176 243.946 338.166 244.27 339.444 244.27C340.686 244.27 341.604 243.982 342.234 243.424C342.864 242.848 343.17 242.182 343.152 241.426C343.152 240.67 342.918 240.076 342.468 239.626C342.018 239.176 341.208 238.78 340.02 238.438C338.832 238.096 338.076 237.844 337.752 237.664C337.428 237.484 337.266 237.214 337.266 236.854C337.266 236.206 337.914 235.666 339.066 235.666C340.218 235.666 340.974 236.242 341.352 237.376L342.864 236.962C342.414 235.288 341.19 234.19 339.048 234.19C337.986 234.19 337.158 234.46 336.546 235C335.952 235.54 335.646 236.17 335.646 236.908C335.646 238.33 336.546 239.05 338.85 239.68C339.948 239.986 340.686 240.256 341.028 240.472C341.37 240.67 341.55 240.994 341.55 241.408C341.55 242.218 340.776 242.776 339.39 242.776C337.932 242.776 337.104 242.002 336.924 240.436L335.304 240.796ZM345.305 244.756L351.785 231.112L350.633 230.572L344.153 244.252L345.305 244.756Z" fill="#E4B4B0"/>
<g id="Oval Copy">
<path id="Shape" fill-rule="evenodd" clip-rule="evenodd" d="M434.385 166C434.385 175.176 441.824 182.615 451 182.615C460.176 182.615 467.615 175.176 467.615 166C467.615 156.824 460.176 149.385 451 149.385C441.824 149.385 434.385 156.824 434.385 166ZM464.846 166C464.846 173.647 458.647 179.846 451 179.846C443.353 179.846 437.154 173.647 437.154 166C437.154 158.353 443.353 152.154 451 152.154C458.647 152.154 464.846 158.353 464.846 166ZM449.615 167.385V159.077C449.615 158.312 450.235 157.692 451 157.692C451.765 157.692 452.385 158.312 452.385 159.077V167.385C452.385 168.149 451.765 168.769 451 168.769C450.235 168.769 449.615 168.149 449.615 167.385ZM451 171.538C450.235 171.538 449.615 172.158 449.615 172.923C449.615 173.688 450.235 174.308 451 174.308C451.765 174.308 452.385 173.688 452.385 172.923C452.385 172.158 451.765 171.538 451 171.538Z" fill="white"/>
</g>
<g id="Oval Copy 2">
<path id="Shape_2" fill-rule="evenodd" clip-rule="evenodd" d="M434.385 241C434.385 250.176 441.824 257.615 451 257.615C460.176 257.615 467.615 250.176 467.615 241C467.615 231.824 460.176 224.385 451 224.385C441.824 224.385 434.385 231.824 434.385 241ZM464.846 241C464.846 248.647 458.647 254.846 451 254.846C443.353 254.846 437.154 248.647 437.154 241C437.154 233.353 443.353 227.154 451 227.154C458.647 227.154 464.846 233.353 464.846 241ZM449.615 242.385V234.077C449.615 233.312 450.235 232.692 451 232.692C451.765 232.692 452.385 233.312 452.385 234.077V242.385C452.385 243.149 451.765 243.769 451 243.769C450.235 243.769 449.615 243.149 449.615 242.385ZM451 246.538C450.235 246.538 449.615 247.158 449.615 247.923C449.615 248.688 450.235 249.308 451 249.308C451.765 249.308 452.385 248.688 452.385 247.923C452.385 247.158 451.765 246.538 451 246.538Z" fill="white"/>
</g>
</g>
<g id="resolved-issues">
<g id="Group 6 Copy_2">
<g id="Rectangle 2 Copy_3" filter="url(#filter2_d)">
<path fill-rule="evenodd" clip-rule="evenodd" d="M162 129H527C541.359 129 553 140.641 553 155V318C553 332.359 541.359 344 527 344H162C147.641 344 136 332.359 136 318V155C136 140.641 147.641 129 162 129Z" fill="#40358B"/>
</g>
<path id="Path 2_3" d="M138 189H551.5" stroke="white" stroke-opacity="0.226262"/>
<path id="Path 2 Copy_3" d="M138 266H551.5" stroke="white" stroke-opacity="0.226262"/>
</g>
<g id="Oval Copy 3">
<g id="icon-circle-check">
<path id="Shape_3" fill-rule="evenodd" clip-rule="evenodd" d="M517 245.615C507.824 245.615 500.385 238.176 500.385 229C500.385 219.824 507.824 212.385 517 212.385C526.176 212.385 533.615 219.824 533.615 229C533.615 238.176 526.176 245.615 517 245.615ZM517 242.846C524.647 242.846 530.846 236.647 530.846 229C530.846 221.353 524.647 215.154 517 215.154C509.353 215.154 503.154 221.353 503.154 229C503.154 236.647 509.353 242.846 517 242.846ZM523.29 223.982L514.577 232.696L510.825 228.944C510.285 228.403 509.408 228.403 508.867 228.944C508.326 229.485 508.326 230.361 508.867 230.902L513.598 235.633C514.139 236.174 515.015 236.174 515.556 235.633L525.248 225.941C525.789 225.4 525.789 224.523 525.248 223.982C524.708 223.442 523.831 223.442 523.29 223.982Z" fill="white"/>
</g>
</g>
<g id="Oval Copy 4">
<g id="icon-circle-check_2">
<path id="Shape_4" fill-rule="evenodd" clip-rule="evenodd" d="M517 320.615C507.824 320.615 500.385 313.176 500.385 304C500.385 294.824 507.824 287.385 517 287.385C526.176 287.385 533.615 294.824 533.615 304C533.615 313.176 526.176 320.615 517 320.615ZM517 317.846C524.647 317.846 530.846 311.647 530.846 304C530.846 296.353 524.647 290.154 517 290.154C509.353 290.154 503.154 296.353 503.154 304C503.154 311.647 509.353 317.846 517 317.846ZM523.29 298.982L514.577 307.696L510.825 303.944C510.285 303.403 509.408 303.403 508.867 303.944C508.326 304.485 508.326 305.361 508.867 305.902L513.598 310.633C514.139 311.174 515.015 311.174 515.556 310.633L525.248 300.941C525.789 300.4 525.789 299.523 525.248 298.982C524.708 298.442 523.831 298.442 523.29 298.982Z" fill="white"/>
</g>
</g>
<path id="DataError_2" d="M158.87 221.65H160.652C162.362 221.65 163.496 222.874 163.496 225.682C163.496 227.356 163.172 228.472 162.596 229.03C162.02 229.588 161.408 229.75 160.544 229.75H158.87V221.65ZM160.544 232C162.038 232 163.28 231.586 164.36 230.668C165.44 229.732 166.106 227.986 166.106 225.682C166.106 221.326 163.442 219.4 160.652 219.4H156.44V232H160.544ZM175.4 232V225.952C175.4 224.674 175.022 223.72 174.284 223.108C173.546 222.496 172.592 222.19 171.422 222.19C169.28 222.19 167.948 223.324 167.498 224.926L169.442 225.736C169.748 224.782 170.18 224.17 171.458 224.17C172.538 224.17 173.078 224.602 173.078 225.178C173.078 225.466 172.934 225.682 172.664 225.844C172.394 226.006 171.71 226.204 170.612 226.474C168.254 227.05 167.372 227.788 167.372 229.444C167.372 231.028 168.506 232.27 170.81 232.27C172.736 232.27 173.402 231.1 173.402 231.082H173.438V232H175.4ZM171.08 228.094C172.232 227.806 172.862 227.518 172.952 227.428C173.006 227.374 173.06 227.284 173.114 227.194H173.15V228.85C173.15 229.642 172.448 230.254 171.026 230.254C170.09 230.254 169.622 229.93 169.622 229.282C169.622 228.778 169.874 228.382 171.08 228.094ZM178.226 228.598C178.226 229.786 178.46 230.65 178.946 231.19C179.432 231.73 180.314 232 181.592 232H182.582V229.75H181.808C180.782 229.75 180.53 229.39 180.53 228.382V224.44H182.906V222.46H180.494V220.12H178.28V222.46H176.75V224.44H178.226V228.598ZM191.924 232V225.952C191.924 224.674 191.546 223.72 190.808 223.108C190.07 222.496 189.116 222.19 187.946 222.19C185.804 222.19 184.472 223.324 184.022 224.926L185.966 225.736C186.272 224.782 186.704 224.17 187.982 224.17C189.062 224.17 189.602 224.602 189.602 225.178C189.602 225.466 189.458 225.682 189.188 225.844C188.918 226.006 188.234 226.204 187.136 226.474C184.778 227.05 183.896 227.788 183.896 229.444C183.896 231.028 185.03 232.27 187.334 232.27C189.26 232.27 189.926 231.1 189.926 231.082H189.962V232H191.924ZM187.604 228.094C188.756 227.806 189.386 227.518 189.476 227.428C189.53 227.374 189.584 227.284 189.638 227.194H189.674V228.85C189.674 229.642 188.972 230.254 187.55 230.254C186.614 230.254 186.146 229.93 186.146 229.282C186.146 228.778 186.398 228.382 187.604 228.094ZM202.418 232V229.75H196.874V226.636H201.914V224.476H196.874V221.65H202.418V219.4H194.444V232H202.418ZM207.01 232V226.762C207.01 225.304 207.55 224.584 208.648 224.584C208.882 224.584 209.116 224.638 209.386 224.728L209.746 222.46C209.476 222.334 209.188 222.28 208.882 222.28C208.036 222.28 207.28 222.748 206.92 223.468H206.884V222.46H204.67V232H207.01ZM213.444 232V226.762C213.444 225.304 213.984 224.584 215.082 224.584C215.316 224.584 215.55 224.638 215.82 224.728L216.18 222.46C215.91 222.334 215.622 222.28 215.316 222.28C214.47 222.28 213.714 222.748 213.354 223.468H213.318V222.46H211.104V232H213.444ZM219.612 229.408C219.234 228.904 219.036 228.184 219.036 227.23C219.036 226.276 219.234 225.556 219.612 225.052C220.008 224.548 220.53 224.296 221.196 224.296C221.862 224.296 222.384 224.548 222.762 225.07C223.158 225.574 223.356 226.294 223.356 227.23C223.356 228.166 223.158 228.886 222.78 229.408C222.402 229.912 221.862 230.164 221.196 230.164C220.53 230.164 219.99 229.912 219.612 229.408ZM216.732 227.23C216.732 228.814 217.146 230.056 217.992 230.938C218.838 231.82 219.9 232.27 221.196 232.27C222.492 232.27 223.554 231.82 224.4 230.938C225.246 230.056 225.66 228.814 225.66 227.23C225.66 225.664 225.228 224.44 224.364 223.54C223.5 222.64 222.438 222.19 221.196 222.19C219.954 222.19 218.892 222.64 218.028 223.54C217.164 224.44 216.732 225.664 216.732 227.23ZM229.897 232V226.762C229.897 225.304 230.437 224.584 231.535 224.584C231.769 224.584 232.003 224.638 232.273 224.728L232.633 222.46C232.363 222.334 232.075 222.28 231.769 222.28C230.923 222.28 230.167 222.748 229.807 223.468H229.771V222.46H227.557V232H229.897Z" fill="white"/>
<path id="ResponseError_2" d="M158.87 307V302.32H160.742L163.28 307H165.908L163.226 302.086C164.882 301.564 165.89 300.232 165.89 298.414C165.89 297.19 165.494 296.218 164.684 295.498C163.892 294.76 162.848 294.4 161.552 294.4H156.44V307H158.87ZM158.87 296.596H161.354C162.74 296.596 163.424 297.208 163.424 298.414C163.424 299.62 162.74 300.214 161.354 300.214H158.87V296.596ZM173.895 303.706C173.265 304.624 172.635 305.2 171.555 305.2C170.277 305.2 169.521 304.39 169.449 302.932H175.857V302.23C175.857 300.7 175.443 299.494 174.615 298.576C173.805 297.658 172.761 297.19 171.483 297.19C170.205 297.19 169.161 297.658 168.315 298.576C167.487 299.494 167.073 300.7 167.073 302.23C167.073 303.76 167.487 304.984 168.333 305.902C169.179 306.82 170.259 307.27 171.591 307.27C173.247 307.27 174.561 306.568 175.533 305.146L173.895 303.706ZM169.449 301.186C169.539 300.088 170.331 299.242 171.483 299.242C172.725 299.242 173.463 299.962 173.589 301.186H169.449ZM177.02 303.85C177.164 304.804 177.596 305.614 178.298 306.28C179.018 306.946 180.044 307.27 181.358 307.27C182.618 307.27 183.572 306.964 184.238 306.37C184.904 305.758 185.246 305.074 185.246 304.3C185.246 303.58 185.048 302.986 184.634 302.536C184.238 302.068 183.482 301.69 182.366 301.384C181.088 301.024 180.296 300.772 179.972 300.628C179.666 300.466 179.504 300.268 179.504 299.998C179.504 299.512 180.08 299.116 180.998 299.116C182.168 299.116 182.708 299.674 183.05 300.592L184.994 299.998C184.454 298.126 183.122 297.19 180.98 297.19C179.864 297.19 178.982 297.478 178.334 298.054C177.704 298.63 177.38 299.314 177.38 300.106C177.38 301.528 178.37 302.284 180.584 302.914C180.71 302.95 180.872 303.004 181.106 303.058C181.952 303.292 182.492 303.49 182.762 303.634C183.032 303.76 183.158 303.976 183.158 304.246C183.158 304.912 182.42 305.308 181.268 305.308C180.008 305.308 179.288 304.642 179.126 303.31L177.02 303.85ZM189.379 301.24C189.379 300.16 190.189 299.296 191.431 299.296C192.817 299.296 193.771 300.34 193.771 302.23C193.771 304.12 192.799 305.164 191.431 305.164C190.189 305.164 189.379 304.3 189.379 303.202V301.24ZM189.379 311.05V306.082H189.415L189.487 306.208C189.703 306.514 190.477 307.27 191.917 307.27C193.087 307.27 194.077 306.82 194.887 305.92C195.697 305.02 196.111 303.796 196.111 302.23C196.111 300.682 195.679 299.458 194.833 298.558C193.987 297.64 193.015 297.19 191.881 297.19C190.027 297.208 189.307 298.36 189.307 298.378H189.271V297.46H187.039V311.05H189.379ZM200.258 304.408C199.88 303.904 199.682 303.184 199.682 302.23C199.682 301.276 199.88 300.556 200.258 300.052C200.654 299.548 201.176 299.296 201.842 299.296C202.508 299.296 203.03 299.548 203.408 300.07C203.804 300.574 204.002 301.294 204.002 302.23C204.002 303.166 203.804 303.886 203.426 304.408C203.048 304.912 202.508 305.164 201.842 305.164C201.176 305.164 200.636 304.912 200.258 304.408ZM197.378 302.23C197.378 303.814 197.792 305.056 198.638 305.938C199.484 306.82 200.546 307.27 201.842 307.27C203.138 307.27 204.2 306.82 205.046 305.938C205.892 305.056 206.306 303.814 206.306 302.23C206.306 300.664 205.874 299.44 205.01 298.54C204.146 297.64 203.084 297.19 201.842 297.19C200.6 297.19 199.538 297.64 198.674 298.54C197.81 299.44 197.378 300.664 197.378 302.23ZM210.543 307V301.168C210.543 300.07 211.227 299.35 212.379 299.35C213.603 299.35 214.053 300.016 214.053 301.33V307H216.393V300.754C216.393 298.522 215.115 297.19 213.009 297.19C212.001 297.19 211.011 297.712 210.489 298.378H210.453V297.46H208.203V307H210.543ZM218.101 303.85C218.245 304.804 218.677 305.614 219.379 306.28C220.099 306.946 221.125 307.27 222.439 307.27C223.699 307.27 224.653 306.964 225.319 306.37C225.985 305.758 226.327 305.074 226.327 304.3C226.327 303.58 226.129 302.986 225.715 302.536C225.319 302.068 224.563 301.69 223.447 301.384C222.169 301.024 221.377 300.772 221.053 300.628C220.747 300.466 220.585 300.268 220.585 299.998C220.585 299.512 221.161 299.116 222.079 299.116C223.249 299.116 223.789 299.674 224.131 300.592L226.075 299.998C225.535 298.126 224.203 297.19 222.061 297.19C220.945 297.19 220.063 297.478 219.415 298.054C218.785 298.63 218.461 299.314 218.461 300.106C218.461 301.528 219.451 302.284 221.665 302.914C221.791 302.95 221.953 303.004 222.187 303.058C223.033 303.292 223.573 303.49 223.843 303.634C224.113 303.76 224.239 303.976 224.239 304.246C224.239 304.912 223.501 305.308 222.349 305.308C221.089 305.308 220.369 304.642 220.207 303.31L218.101 303.85ZM234.311 303.706C233.681 304.624 233.051 305.2 231.971 305.2C230.693 305.2 229.937 304.39 229.865 302.932H236.273V302.23C236.273 300.7 235.859 299.494 235.031 298.576C234.221 297.658 233.177 297.19 231.899 297.19C230.621 297.19 229.577 297.658 228.731 298.576C227.903 299.494 227.489 300.7 227.489 302.23C227.489 303.76 227.903 304.984 228.749 305.902C229.595 306.82 230.675 307.27 232.007 307.27C233.663 307.27 234.977 306.568 235.949 305.146L234.311 303.706ZM229.865 301.186C229.955 300.088 230.747 299.242 231.899 299.242C233.141 299.242 233.879 299.962 234.005 301.186H229.865ZM246.31 307V304.75H240.766V301.636H245.806V299.476H240.766V296.65H246.31V294.4H238.336V307H246.31ZM250.903 307V301.762C250.903 300.304 251.443 299.584 252.541 299.584C252.775 299.584 253.009 299.638 253.279 299.728L253.639 297.46C253.369 297.334 253.081 297.28 252.775 297.28C251.929 297.28 251.173 297.748 250.813 298.468H250.777V297.46H248.563V307H250.903ZM257.336 307V301.762C257.336 300.304 257.876 299.584 258.974 299.584C259.208 299.584 259.442 299.638 259.712 299.728L260.072 297.46C259.802 297.334 259.514 297.28 259.208 297.28C258.362 297.28 257.606 297.748 257.246 298.468H257.21V297.46H254.996V307H257.336ZM263.504 304.408C263.126 303.904 262.928 303.184 262.928 302.23C262.928 301.276 263.126 300.556 263.504 300.052C263.9 299.548 264.422 299.296 265.088 299.296C265.754 299.296 266.276 299.548 266.654 300.07C267.05 300.574 267.248 301.294 267.248 302.23C267.248 303.166 267.05 303.886 266.672 304.408C266.294 304.912 265.754 305.164 265.088 305.164C264.422 305.164 263.882 304.912 263.504 304.408ZM260.624 302.23C260.624 303.814 261.038 305.056 261.884 305.938C262.73 306.82 263.792 307.27 265.088 307.27C266.384 307.27 267.446 306.82 268.292 305.938C269.138 305.056 269.552 303.814 269.552 302.23C269.552 300.664 269.12 299.44 268.256 298.54C267.392 297.64 266.33 297.19 265.088 297.19C263.846 297.19 262.784 297.64 261.92 298.54C261.056 299.44 260.624 300.664 260.624 302.23ZM273.789 307V301.762C273.789 300.304 274.329 299.584 275.427 299.584C275.661 299.584 275.895 299.638 276.165 299.728L276.525 297.46C276.255 297.334 275.967 297.28 275.661 297.28C274.815 297.28 274.059 297.748 273.699 298.468H273.663V297.46H271.449V307H273.789Z" fill="white"/>
<path id="Resolved Issues" d="M159.87 163V158.32H161.742L164.28 163H166.908L164.226 158.086C165.882 157.564 166.89 156.232 166.89 154.414C166.89 153.19 166.494 152.218 165.684 151.498C164.892 150.76 163.848 150.4 162.552 150.4H157.44V163H159.87ZM159.87 152.596H162.354C163.74 152.596 164.424 153.208 164.424 154.414C164.424 155.62 163.74 156.214 162.354 156.214H159.87V152.596ZM174.895 159.706C174.265 160.624 173.635 161.2 172.555 161.2C171.277 161.2 170.521 160.39 170.449 158.932H176.857V158.23C176.857 156.7 176.443 155.494 175.615 154.576C174.805 153.658 173.761 153.19 172.483 153.19C171.205 153.19 170.161 153.658 169.315 154.576C168.487 155.494 168.073 156.7 168.073 158.23C168.073 159.76 168.487 160.984 169.333 161.902C170.179 162.82 171.259 163.27 172.591 163.27C174.247 163.27 175.561 162.568 176.533 161.146L174.895 159.706ZM170.449 157.186C170.539 156.088 171.331 155.242 172.483 155.242C173.725 155.242 174.463 155.962 174.589 157.186H170.449ZM178.02 159.85C178.164 160.804 178.596 161.614 179.298 162.28C180.018 162.946 181.044 163.27 182.358 163.27C183.618 163.27 184.572 162.964 185.238 162.37C185.904 161.758 186.246 161.074 186.246 160.3C186.246 159.58 186.048 158.986 185.634 158.536C185.238 158.068 184.482 157.69 183.366 157.384C182.088 157.024 181.296 156.772 180.972 156.628C180.666 156.466 180.504 156.268 180.504 155.998C180.504 155.512 181.08 155.116 181.998 155.116C183.168 155.116 183.708 155.674 184.05 156.592L185.994 155.998C185.454 154.126 184.122 153.19 181.98 153.19C180.864 153.19 179.982 153.478 179.334 154.054C178.704 154.63 178.38 155.314 178.38 156.106C178.38 157.528 179.37 158.284 181.584 158.914C181.71 158.95 181.872 159.004 182.106 159.058C182.952 159.292 183.492 159.49 183.762 159.634C184.032 159.76 184.158 159.976 184.158 160.246C184.158 160.912 183.42 161.308 182.268 161.308C181.008 161.308 180.288 160.642 180.126 159.31L178.02 159.85ZM190.289 160.408C189.911 159.904 189.713 159.184 189.713 158.23C189.713 157.276 189.911 156.556 190.289 156.052C190.685 155.548 191.207 155.296 191.873 155.296C192.539 155.296 193.061 155.548 193.439 156.07C193.835 156.574 194.033 157.294 194.033 158.23C194.033 159.166 193.835 159.886 193.457 160.408C193.079 160.912 192.539 161.164 191.873 161.164C191.207 161.164 190.667 160.912 190.289 160.408ZM187.409 158.23C187.409 159.814 187.823 161.056 188.669 161.938C189.515 162.82 190.577 163.27 191.873 163.27C193.169 163.27 194.231 162.82 195.077 161.938C195.923 161.056 196.337 159.814 196.337 158.23C196.337 156.664 195.905 155.44 195.041 154.54C194.177 153.64 193.115 153.19 191.873 153.19C190.631 153.19 189.569 153.64 188.705 154.54C187.841 155.44 187.409 156.664 187.409 158.23ZM200.665 163V149.86H198.235V163H200.665ZM207.908 163L211.724 153.46H209.33L206.954 159.598H206.918L204.542 153.46H202.112L205.928 163H207.908ZM218.999 159.706C218.369 160.624 217.739 161.2 216.659 161.2C215.381 161.2 214.625 160.39 214.553 158.932H220.961V158.23C220.961 156.7 220.547 155.494 219.719 154.576C218.909 153.658 217.865 153.19 216.587 153.19C215.309 153.19 214.265 153.658 213.419 154.576C212.591 155.494 212.177 156.7 212.177 158.23C212.177 159.76 212.591 160.984 213.437 161.902C214.283 162.82 215.363 163.27 216.695 163.27C218.351 163.27 219.665 162.568 220.637 161.146L218.999 159.706ZM214.553 157.186C214.643 156.088 215.435 155.242 216.587 155.242C217.829 155.242 218.567 155.962 218.693 157.186H214.553ZM228.766 159.094C228.766 160.246 227.992 161.164 226.714 161.164C225.346 161.164 224.554 160.156 224.554 158.23C224.554 156.286 225.346 155.296 226.714 155.296C227.992 155.296 228.766 156.196 228.766 157.348V159.094ZM231.106 163V149.86H228.766V154.378H228.73L228.496 154.072C228.208 153.694 227.326 153.19 226.318 153.19C225.22 153.19 224.248 153.64 223.438 154.558C222.628 155.458 222.214 156.682 222.214 158.23C222.214 159.76 222.592 160.984 223.33 161.902C224.086 162.82 225.094 163.27 226.354 163.27C226.876 163.27 227.344 163.162 227.776 162.946C228.226 162.712 228.496 162.532 228.604 162.406C228.73 162.28 228.82 162.172 228.874 162.082H228.91V163H231.106ZM240.819 163V150.4H238.389V163H240.819ZM242.884 159.85C243.028 160.804 243.46 161.614 244.162 162.28C244.882 162.946 245.908 163.27 247.222 163.27C248.482 163.27 249.436 162.964 250.102 162.37C250.768 161.758 251.11 161.074 251.11 160.3C251.11 159.58 250.912 158.986 250.498 158.536C250.102 158.068 249.346 157.69 248.23 157.384C246.952 157.024 246.16 156.772 245.836 156.628C245.53 156.466 245.368 156.268 245.368 155.998C245.368 155.512 245.944 155.116 246.862 155.116C248.032 155.116 248.572 155.674 248.914 156.592L250.858 155.998C250.318 154.126 248.986 153.19 246.844 153.19C245.728 153.19 244.846 153.478 244.198 154.054C243.568 154.63 243.244 155.314 243.244 156.106C243.244 157.528 244.234 158.284 246.448 158.914C246.574 158.95 246.736 159.004 246.97 159.058C247.816 159.292 248.356 159.49 248.626 159.634C248.896 159.76 249.022 159.976 249.022 160.246C249.022 160.912 248.284 161.308 247.132 161.308C245.872 161.308 245.152 160.642 244.99 159.31L242.884 159.85ZM252.183 159.85C252.327 160.804 252.759 161.614 253.461 162.28C254.181 162.946 255.207 163.27 256.521 163.27C257.781 163.27 258.735 162.964 259.401 162.37C260.067 161.758 260.409 161.074 260.409 160.3C260.409 159.58 260.211 158.986 259.797 158.536C259.401 158.068 258.645 157.69 257.529 157.384C256.251 157.024 255.459 156.772 255.135 156.628C254.829 156.466 254.667 156.268 254.667 155.998C254.667 155.512 255.243 155.116 256.161 155.116C257.331 155.116 257.871 155.674 258.213 156.592L260.157 155.998C259.617 154.126 258.285 153.19 256.143 153.19C255.027 153.19 254.145 153.478 253.497 154.054C252.867 154.63 252.543 155.314 252.543 156.106C252.543 157.528 253.533 158.284 255.747 158.914C255.873 158.95 256.035 159.004 256.269 159.058C257.115 159.292 257.655 159.49 257.925 159.634C258.195 159.76 258.321 159.976 258.321 160.246C258.321 160.912 257.583 161.308 256.431 161.308C255.171 161.308 254.451 160.642 254.289 159.31L252.183 159.85ZM262.111 159.616C262.111 161.848 263.155 163.27 265.369 163.27C266.431 163.27 267.259 162.874 267.853 162.082H267.889V163H270.121V153.46H267.781V159.184C267.781 160.462 267.025 161.02 265.891 161.02C264.883 161.02 264.451 160.57 264.451 159.364V153.46H262.111V159.616ZM278.835 159.706C278.205 160.624 277.575 161.2 276.495 161.2C275.217 161.2 274.461 160.39 274.389 158.932H280.797V158.23C280.797 156.7 280.383 155.494 279.555 154.576C278.745 153.658 277.701 153.19 276.423 153.19C275.145 153.19 274.101 153.658 273.255 154.576C272.427 155.494 272.013 156.7 272.013 158.23C272.013 159.76 272.427 160.984 273.273 161.902C274.119 162.82 275.199 163.27 276.531 163.27C278.187 163.27 279.501 162.568 280.473 161.146L278.835 159.706ZM274.389 157.186C274.479 156.088 275.271 155.242 276.423 155.242C277.665 155.242 278.403 155.962 278.529 157.186H274.389ZM281.96 159.85C282.104 160.804 282.536 161.614 283.238 162.28C283.958 162.946 284.984 163.27 286.298 163.27C287.558 163.27 288.512 162.964 289.178 162.37C289.844 161.758 290.186 161.074 290.186 160.3C290.186 159.58 289.988 158.986 289.574 158.536C289.178 158.068 288.422 157.69 287.306 157.384C286.028 157.024 285.236 156.772 284.912 156.628C284.606 156.466 284.444 156.268 284.444 155.998C284.444 155.512 285.02 155.116 285.938 155.116C287.108 155.116 287.648 155.674 287.99 156.592L289.934 155.998C289.394 154.126 288.062 153.19 285.92 153.19C284.804 153.19 283.922 153.478 283.274 154.054C282.644 154.63 282.32 155.314 282.32 156.106C282.32 157.528 283.31 158.284 285.524 158.914C285.65 158.95 285.812 159.004 286.046 159.058C286.892 159.292 287.432 159.49 287.702 159.634C287.972 159.76 288.098 159.976 288.098 160.246C288.098 160.912 287.36 161.308 286.208 161.308C284.948 161.308 284.228 160.642 284.066 159.31L281.96 159.85Z" fill="white"/>
<path id="in /api/projects/" d="M241.258 232V222.46H239.512V232H241.258ZM241.33 220.714V218.86H239.44V220.714H241.33ZM245.95 232V226.006C245.95 224.638 246.85 223.81 248.218 223.81C249.568 223.81 250.234 224.62 250.234 226.258V232H251.998V225.754C251.998 223.54 250.648 222.19 248.56 222.19C247.498 222.19 246.454 222.712 245.95 223.378H245.914V222.46H244.204V232H245.95ZM259.268 232.756L265.748 219.112L264.596 218.572L258.116 232.252L259.268 232.756ZM274.48 232V225.7C274.48 223.306 273.004 222.19 270.772 222.19C268.702 222.19 267.406 223.324 267.064 224.98L268.594 225.52C268.882 224.314 269.62 223.72 270.808 223.72C272.05 223.72 272.68 224.278 272.68 225.016C272.68 225.394 272.5 225.664 272.122 225.862C271.762 226.06 271.06 226.276 270.034 226.546C267.712 227.122 266.83 227.914 266.83 229.516C266.83 231.1 267.928 232.27 270.106 232.27C270.88 232.27 271.492 232.126 271.978 231.838C272.464 231.532 272.788 231.262 272.914 230.992H272.95V232H274.48ZM270.43 227.824C272.338 227.302 272.644 227.068 272.734 226.78H272.77V228.922C272.77 229.93 271.87 230.722 270.268 230.722C269.116 230.722 268.54 230.29 268.54 229.408C268.54 228.67 268.936 228.238 270.43 227.824ZM278.926 225.988C278.926 225.412 279.142 224.908 279.556 224.458C279.988 224.008 280.546 223.792 281.248 223.792C282.976 223.792 284.002 225.052 284.002 227.23C284.002 229.408 282.976 230.686 281.248 230.686C280.582 230.686 280.024 230.488 279.574 230.092C279.142 229.678 278.926 229.21 278.926 228.652V225.988ZM278.926 236.05V231.082H278.962C279.34 231.604 280.294 232.27 281.59 232.27C282.796 232.27 283.804 231.82 284.578 230.92C285.352 230.002 285.748 228.778 285.748 227.23C285.748 225.7 285.334 224.494 284.524 223.576C283.714 222.658 282.742 222.19 281.572 222.19C280.636 222.19 279.736 222.604 279.358 222.91C279.16 223.072 279.016 223.216 278.89 223.378H278.854V222.46H277.18V236.05H278.926ZM289.809 232V222.46H288.063V232H289.809ZM289.881 220.714V218.86H287.991V220.714H289.881ZM292.736 232.756L299.216 219.112L298.064 218.572L291.584 232.252L292.736 232.756ZM302.674 225.988C302.674 225.412 302.89 224.908 303.304 224.458C303.736 224.008 304.294 223.792 304.996 223.792C306.724 223.792 307.75 225.052 307.75 227.23C307.75 229.408 306.724 230.686 304.996 230.686C304.33 230.686 303.772 230.488 303.322 230.092C302.89 229.678 302.674 229.21 302.674 228.652V225.988ZM302.674 236.05V231.082H302.71C303.088 231.604 304.042 232.27 305.338 232.27C306.544 232.27 307.552 231.82 308.326 230.92C309.1 230.002 309.496 228.778 309.496 227.23C309.496 225.7 309.082 224.494 308.272 223.576C307.462 222.658 306.49 222.19 305.32 222.19C304.384 222.19 303.484 222.604 303.106 222.91C302.908 223.072 302.764 223.216 302.638 223.378H302.602V222.46H300.928V236.05H302.674ZM313.485 232V226.402C313.485 224.836 314.061 224.062 315.213 224.062C315.483 224.062 315.717 224.116 315.951 224.206L316.257 222.478C316.023 222.352 315.735 222.298 315.411 222.298C314.619 222.298 313.827 222.748 313.449 223.486H313.413V222.46H311.739V232H313.485ZM321.547 230.686C319.981 230.686 318.901 229.444 318.901 227.23C318.901 225.016 319.963 223.792 321.547 223.792C323.077 223.792 324.139 225.07 324.139 227.23C324.139 229.408 323.077 230.686 321.547 230.686ZM321.547 232.27C322.807 232.27 323.833 231.82 324.643 230.938C325.453 230.056 325.867 228.814 325.867 227.23C325.867 225.664 325.453 224.44 324.607 223.54C323.779 222.64 322.753 222.19 321.547 222.19C320.305 222.19 319.279 222.64 318.433 223.54C317.587 224.44 317.173 225.664 317.173 227.23C317.173 228.814 317.587 230.056 318.397 230.938C319.225 231.82 320.269 232.27 321.547 232.27ZM327.762 235.51C329.202 235.51 329.904 234.772 329.904 233.062V222.46H328.158V232.918C328.158 233.62 327.906 233.854 327.384 233.854H327.042V235.51H327.762ZM329.958 220.714V218.86H328.068V220.714H329.958ZM339.313 228.958C339.025 229.444 338.917 229.606 338.467 230.056C338.035 230.488 337.423 230.704 336.631 230.704C334.957 230.704 334.039 229.462 333.985 227.752H340.897V227.23C340.897 225.682 340.501 224.458 339.691 223.558C338.881 222.64 337.855 222.19 336.577 222.19C335.299 222.19 334.255 222.658 333.427 223.576C332.617 224.494 332.203 225.7 332.203 227.23C332.203 228.76 332.617 229.984 333.445 230.902C334.273 231.82 335.353 232.27 336.667 232.27C338.557 232.27 339.889 231.298 340.627 229.948L339.313 228.958ZM334.003 226.384C334.021 225.718 334.255 225.124 334.705 224.584C335.155 224.026 335.767 223.756 336.577 223.756C338.251 223.756 339.079 224.926 339.151 226.384H334.003ZM349.199 228.274C348.983 229.66 348.263 230.686 346.913 230.686C345.257 230.686 344.249 229.408 344.249 227.23C344.249 225.052 345.293 223.792 346.895 223.792C348.245 223.792 348.983 224.71 349.181 225.988L350.891 225.718C350.765 224.674 350.351 223.828 349.613 223.18C348.893 222.514 347.993 222.19 346.895 222.19C345.653 222.19 344.627 222.64 343.781 223.54C342.935 224.422 342.521 225.664 342.521 227.23C342.521 228.796 342.917 230.02 343.727 230.92C344.537 231.82 345.599 232.27 346.877 232.27C349.127 232.27 350.603 230.92 350.945 228.706L349.199 228.274ZM353.514 229.012C353.514 231.028 354.27 232 356.34 232H357.186V230.308H356.466C355.476 230.308 355.242 229.912 355.242 228.832V223.99H357.6V222.46H355.224V220.12H353.55V222.46H352.11V223.99H353.514V229.012ZM358.866 228.796C358.974 229.786 359.37 230.614 360.054 231.28C360.738 231.946 361.728 232.27 363.006 232.27C364.248 232.27 365.166 231.982 365.796 231.424C366.426 230.848 366.732 230.182 366.714 229.426C366.714 228.67 366.48 228.076 366.03 227.626C365.58 227.176 364.77 226.78 363.582 226.438C362.394 226.096 361.638 225.844 361.314 225.664C360.99 225.484 360.828 225.214 360.828 224.854C360.828 224.206 361.476 223.666 362.628 223.666C363.78 223.666 364.536 224.242 364.914 225.376L366.426 224.962C365.976 223.288 364.752 222.19 362.61 222.19C361.548 222.19 360.72 222.46 360.108 223C359.514 223.54 359.208 224.17 359.208 224.908C359.208 226.33 360.108 227.05 362.412 227.68C363.51 227.986 364.248 228.256 364.59 228.472C364.932 228.67 365.112 228.994 365.112 229.408C365.112 230.218 364.338 230.776 362.952 230.776C361.494 230.776 360.666 230.002 360.486 228.436L358.866 228.796ZM368.867 232.756L375.347 219.112L374.195 218.572L367.715 232.252L368.867 232.756Z" fill="white" fill-opacity="0.527726"/>
<path id="in /app/index" d="M285.258 307V297.46H283.512V307H285.258ZM285.33 295.714V293.86H283.44V295.714H285.33ZM289.95 307V301.006C289.95 299.638 290.85 298.81 292.218 298.81C293.568 298.81 294.234 299.62 294.234 301.258V307H295.998V300.754C295.998 298.54 294.648 297.19 292.56 297.19C291.498 297.19 290.454 297.712 289.95 298.378H289.914V297.46H288.204V307H289.95ZM303.268 307.756L309.748 294.112L308.596 293.572L302.116 307.252L303.268 307.756ZM318.48 307V300.7C318.48 298.306 317.004 297.19 314.772 297.19C312.702 297.19 311.406 298.324 311.064 299.98L312.594 300.52C312.882 299.314 313.62 298.72 314.808 298.72C316.05 298.72 316.68 299.278 316.68 300.016C316.68 300.394 316.5 300.664 316.122 300.862C315.762 301.06 315.06 301.276 314.034 301.546C311.712 302.122 310.83 302.914 310.83 304.516C310.83 306.1 311.928 307.27 314.106 307.27C314.88 307.27 315.492 307.126 315.978 306.838C316.464 306.532 316.788 306.262 316.914 305.992H316.95V307H318.48ZM314.43 302.824C316.338 302.302 316.644 302.068 316.734 301.78H316.77V303.922C316.77 304.93 315.87 305.722 314.268 305.722C313.116 305.722 312.54 305.29 312.54 304.408C312.54 303.67 312.936 303.238 314.43 302.824ZM322.926 300.988C322.926 300.412 323.142 299.908 323.556 299.458C323.988 299.008 324.546 298.792 325.248 298.792C326.976 298.792 328.002 300.052 328.002 302.23C328.002 304.408 326.976 305.686 325.248 305.686C324.582 305.686 324.024 305.488 323.574 305.092C323.142 304.678 322.926 304.21 322.926 303.652V300.988ZM322.926 311.05V306.082H322.962C323.34 306.604 324.294 307.27 325.59 307.27C326.796 307.27 327.804 306.82 328.578 305.92C329.352 305.002 329.748 303.778 329.748 302.23C329.748 300.7 329.334 299.494 328.524 298.576C327.714 297.658 326.742 297.19 325.572 297.19C324.636 297.19 323.736 297.604 323.358 297.91C323.16 298.072 323.016 298.216 322.89 298.378H322.854V297.46H321.18V311.05H322.926ZM333.737 300.988C333.737 300.412 333.953 299.908 334.367 299.458C334.799 299.008 335.357 298.792 336.059 298.792C337.787 298.792 338.813 300.052 338.813 302.23C338.813 304.408 337.787 305.686 336.059 305.686C335.393 305.686 334.835 305.488 334.385 305.092C333.953 304.678 333.737 304.21 333.737 303.652V300.988ZM333.737 311.05V306.082H333.773C334.151 306.604 335.105 307.27 336.401 307.27C337.607 307.27 338.615 306.82 339.389 305.92C340.163 305.002 340.559 303.778 340.559 302.23C340.559 300.7 340.145 299.494 339.335 298.576C338.525 297.658 337.553 297.19 336.383 297.19C335.447 297.19 334.547 297.604 334.169 297.91C333.971 298.072 333.827 298.216 333.701 298.378H333.665V297.46H331.991V311.05H333.737ZM342.783 307.756L349.263 294.112L348.111 293.572L341.631 307.252L342.783 307.756ZM352.793 307V297.46H351.047V307H352.793ZM352.865 295.714V293.86H350.975V295.714H352.865ZM357.485 307V301.006C357.485 299.638 358.385 298.81 359.753 298.81C361.103 298.81 361.769 299.62 361.769 301.258V307H363.533V300.754C363.533 298.54 362.183 297.19 360.095 297.19C359.033 297.19 357.989 297.712 357.485 298.378H357.449V297.46H355.739V307H357.485ZM372.423 303.598C372.423 304.156 372.207 304.66 371.775 305.074C371.343 305.488 370.785 305.686 370.101 305.686C368.373 305.686 367.437 304.444 367.437 302.23C367.437 300.016 368.391 298.792 370.101 298.792C370.803 298.792 371.379 299.026 371.793 299.476C372.207 299.926 372.423 300.448 372.423 301.042V303.598ZM374.169 307V293.86H372.423V298.378H372.387C371.703 297.586 370.839 297.19 369.813 297.19C368.661 297.19 367.689 297.658 366.879 298.576C366.087 299.494 365.691 300.7 365.691 302.23C365.691 303.76 366.069 304.984 366.807 305.902C367.563 306.82 368.571 307.27 369.831 307.27C370.929 307.27 371.829 306.874 372.531 306.082H372.567V307H374.169ZM383.524 303.958C383.236 304.444 383.128 304.606 382.678 305.056C382.246 305.488 381.634 305.704 380.842 305.704C379.168 305.704 378.25 304.462 378.196 302.752H385.108V302.23C385.108 300.682 384.712 299.458 383.902 298.558C383.092 297.64 382.066 297.19 380.788 297.19C379.51 297.19 378.466 297.658 377.638 298.576C376.828 299.494 376.414 300.7 376.414 302.23C376.414 303.76 376.828 304.984 377.656 305.902C378.484 306.82 379.564 307.27 380.878 307.27C382.768 307.27 384.1 306.298 384.838 304.948L383.524 303.958ZM378.214 301.384C378.232 300.718 378.466 300.124 378.916 299.584C379.366 299.026 379.978 298.756 380.788 298.756C382.462 298.756 383.29 299.926 383.362 301.384H378.214ZM387.838 307L390.268 303.256H390.304L392.734 307H394.66L391.402 302.086L394.444 297.46H392.572L390.304 300.988H390.268L388.018 297.46H386.128L389.17 302.086L385.93 307H387.838Z" fill="white" fill-opacity="0.527726"/>
</g>
</g>
<defs>
<filter id="filter0_d" x="0" y="0" width="425" height="225" filterUnits="userSpaceOnUse" color-interpolation-filters="sRGB">
<feFlood flood-opacity="0" result="BackgroundImageFix"/>
<feColorMatrix in="SourceAlpha" type="matrix" values="0 0 0 0 0 0 0 0 0 0 0 0 0 0 0 0 0 0 127 0"/>
<feOffset dy="2"/>
<feGaussianBlur stdDeviation="2"/>
<feColorMatrix type="matrix" values="0 0 0 0 0 0 0 0 0 0 0 0 0 0 0 0 0 0 0.173743 0"/>
<feBlend mode="normal" in2="BackgroundImageFix" result="effect1_dropShadow"/>
<feBlend mode="normal" in="SourceGraphic" in2="effect1_dropShadow" result="shape"/>
</filter>
<filter id="filter1_d" x="66" y="65" width="425" height="222" filterUnits="userSpaceOnUse" color-interpolation-filters="sRGB">
<feFlood flood-opacity="0" result="BackgroundImageFix"/>
<feColorMatrix in="SourceAlpha" type="matrix" values="0 0 0 0 0 0 0 0 0 0 0 0 0 0 0 0 0 0 127 0"/>
<feOffset dy="2"/>
<feGaussianBlur stdDeviation="2"/>
<feColorMatrix type="matrix" values="0 0 0 0 0.148677 0 0 0 0 0.148677 0 0 0 0 0.148677 0 0 0 0.5 0"/>
<feBlend mode="normal" in2="BackgroundImageFix" result="effect1_dropShadow"/>
<feBlend mode="normal" in="SourceGraphic" in2="effect1_dropShadow" result="shape"/>
</filter>
<filter id="filter2_d" x="132" y="127" width="425" height="223" filterUnits="userSpaceOnUse" color-interpolation-filters="sRGB">
<feFlood flood-opacity="0" result="BackgroundImageFix"/>
<feColorMatrix in="SourceAlpha" type="matrix" values="0 0 0 0 0 0 0 0 0 0 0 0 0 0 0 0 0 0 127 0"/>
<feOffset dy="2"/>
<feGaussianBlur stdDeviation="2"/>
<feColorMatrix type="matrix" values="0 0 0 0 0.0887277 0 0 0 0 0.0887277 0 0 0 0 0.0887277 0 0 0 0.5 0"/>
<feBlend mode="normal" in2="BackgroundImageFix" result="effect1_dropShadow"/>
<feBlend mode="normal" in="SourceGraphic" in2="effect1_dropShadow" result="shape"/>
</filter>
<linearGradient id="paint0_linear" x1="-138.5" y1="174" x2="35.3574" y2="512.778" gradientUnits="userSpaceOnUse">
<stop stop-color="#ED5934"/>
<stop offset="1" stop-color="#E56C4E"/>
</linearGradient>
</defs>
</svg>
