<svg width="635" height="362" viewBox="0 0 635 362" fill="none" xmlns="http://www.w3.org/2000/svg">
<g id="minified">
<g id="Group 14">
<g id="Group 11 Copy">
<g id="Group 6 Copy">
<g id="Rectangle 2 Copy" filter="url(#filter0_d)">
<rect x="23" y="11" width="589" height="316" rx="26" fill="#2F2837"/>
</g>
</g>
<g id="Commit: Dc34EFrfs56G">
<path d="M58.658 105.996C58.424 108.012 57.614 109.02 56.192 109.02C54.464 109.02 53.222 107.58 53.222 104.502C53.222 103.188 53.51 102.18 54.086 101.46C54.662 100.74 55.364 100.38 56.192 100.38C57.65 100.38 58.424 101.46 58.64 102.99L61.052 102.612C60.908 101.244 60.386 100.164 59.468 99.354C58.568 98.544 57.47 98.13 56.174 98.13C54.68 98.13 53.402 98.688 52.322 99.822C51.26 100.956 50.72 102.504 50.72 104.502C50.72 106.77 51.224 108.462 52.232 109.596C53.258 110.712 54.572 111.27 56.192 111.27C58.982 111.27 60.764 109.488 61.178 106.554L58.658 105.996ZM65.3225 108.408C64.9445 107.904 64.7465 107.184 64.7465 106.23C64.7465 105.276 64.9445 104.556 65.3225 104.052C65.7185 103.548 66.2405 103.296 66.9065 103.296C67.5725 103.296 68.0945 103.548 68.4725 104.07C68.8685 104.574 69.0665 105.294 69.0665 106.23C69.0665 107.166 68.8685 107.886 68.4905 108.408C68.1125 108.912 67.5725 109.164 66.9065 109.164C66.2405 109.164 65.7005 108.912 65.3225 108.408ZM62.4425 106.23C62.4425 107.814 62.8565 109.056 63.7025 109.938C64.5485 110.82 65.6105 111.27 66.9065 111.27C68.2025 111.27 69.2645 110.82 70.1105 109.938C70.9565 109.056 71.3705 107.814 71.3705 106.23C71.3705 104.664 70.9385 103.44 70.0745 102.54C69.2105 101.64 68.1485 101.19 66.9065 101.19C65.6645 101.19 64.6025 101.64 63.7385 102.54C62.8745 103.44 62.4425 104.664 62.4425 106.23ZM75.5358 111V104.826C75.5358 103.962 76.0938 103.35 77.1738 103.35C78.2358 103.35 78.8298 104.034 78.8298 104.952V111H80.9718V104.826C80.9718 103.962 81.5478 103.35 82.6098 103.35C83.7438 103.35 84.2658 104.016 84.2658 104.952V111H86.4078V104.466C86.4078 102.504 84.9858 101.19 82.6998 101.19C81.6378 101.19 80.7018 101.712 80.2158 102.45H80.1798C79.7298 101.712 78.7578 101.19 77.7498 101.19C76.7598 101.19 75.8778 101.712 75.4458 102.378H75.4098V101.46H73.2678V111H75.5358ZM91.11 111V104.826C91.11 103.962 91.668 103.35 92.748 103.35C93.81 103.35 94.404 104.034 94.404 104.952V111H96.546V104.826C96.546 103.962 97.122 103.35 98.184 103.35C99.318 103.35 99.84 104.016 99.84 104.952V111H101.982V104.466C101.982 102.504 100.56 101.19 98.274 101.19C97.212 101.19 96.276 101.712 95.79 102.45H95.754C95.304 101.712 94.332 101.19 93.324 101.19C92.334 101.19 91.452 101.712 91.02 102.378H90.984V101.46H88.842V111H91.11ZM106.756 111V101.46H104.416V111H106.756ZM106.756 100.074V97.86H104.416V100.074H106.756ZM109.754 107.598C109.754 108.786 109.988 109.65 110.474 110.19C110.96 110.73 111.842 111 113.12 111H114.11V108.75H113.336C112.31 108.75 112.058 108.39 112.058 107.382V103.44H114.434V101.46H112.022V99.12H109.808V101.46H108.278V103.44H109.754V107.598ZM119.091 111V108.444H116.409V111H119.091ZM119.091 104.016V101.46H116.409V104.016H119.091ZM128.893 100.65H130.675C132.385 100.65 133.519 101.874 133.519 104.682C133.519 106.356 133.195 107.472 132.619 108.03C132.043 108.588 131.431 108.75 130.567 108.75H128.893V100.65ZM130.567 111C132.061 111 133.303 110.586 134.383 109.668C135.463 108.732 136.129 106.986 136.129 104.682C136.129 100.326 133.465 98.4 130.675 98.4H126.463V111H130.567ZM143.75 107.148C143.552 108.498 142.922 109.164 141.86 109.164C140.51 109.164 139.7 108.156 139.7 106.23C139.7 104.304 140.546 103.296 141.86 103.296C142.85 103.296 143.462 103.872 143.696 105.042L145.874 104.628C145.532 102.54 144.002 101.19 141.86 101.19C140.6 101.19 139.538 101.64 138.674 102.54C137.828 103.422 137.396 104.664 137.396 106.23C137.396 107.814 137.81 109.056 138.638 109.938C139.484 110.82 140.546 111.27 141.842 111.27C144.02 111.27 145.532 110.01 145.964 107.724L143.75 107.148ZM147.044 106.878C147.386 109.776 149.222 111.27 151.958 111.27C153.38 111.27 154.478 110.91 155.27 110.172C156.062 109.434 156.458 108.516 156.458 107.418C156.458 106.446 156.206 105.69 155.72 105.168C155.234 104.628 154.748 104.304 154.244 104.196V104.142C154.622 104.016 155 103.764 155.342 103.35C155.684 102.936 155.864 102.36 155.864 101.604C155.864 100.542 155.486 99.714 154.73 99.084C153.992 98.454 153.038 98.13 151.904 98.13C149.528 98.13 147.89 99.534 147.674 101.784L149.888 102.198C150.086 100.92 150.716 100.29 151.814 100.29C152.948 100.29 153.614 100.92 153.614 101.946C153.614 102.954 152.876 103.494 151.742 103.494H151.004V105.402H151.832C153.398 105.402 154.19 106.014 154.19 107.256C154.19 108.426 153.362 109.11 151.94 109.11C150.482 109.11 149.636 108.192 149.402 106.374L147.044 106.878ZM163.726 108.588V111H166.012V108.588H167.488V106.338H166.012V98.4H162.322L157.534 106.32V108.588H163.726ZM163.69 100.182H163.726V106.338H159.982L163.69 100.182ZM177.258 111V108.75H171.714V105.636H176.754V103.476H171.714V100.65H177.258V98.4H169.284V111H177.258ZM182.12 111V106.122H187.178V103.98H182.12V100.65H187.682V98.4H179.69V111H182.12ZM191.905 111V105.762C191.905 104.304 192.445 103.584 193.543 103.584C193.777 103.584 194.011 103.638 194.281 103.728L194.641 101.46C194.371 101.334 194.083 101.28 193.777 101.28C192.931 101.28 192.175 101.748 191.815 102.468H191.779V101.46H189.565V111H191.905ZM199 111V103.44H201.34V101.46H198.928V100.686C198.928 100.128 199.126 99.93 199.702 99.93H201.088V97.86H199.216C197.578 97.86 196.714 98.472 196.714 100.11V101.46H195.184V103.44H196.66V111H199ZM201.888 107.85C202.032 108.804 202.464 109.614 203.166 110.28C203.886 110.946 204.912 111.27 206.226 111.27C207.486 111.27 208.44 110.964 209.106 110.37C209.772 109.758 210.114 109.074 210.114 108.3C210.114 107.58 209.916 106.986 209.502 106.536C209.106 106.068 208.35 105.69 207.234 105.384C205.956 105.024 205.164 104.772 204.84 104.628C204.534 104.466 204.372 104.268 204.372 103.998C204.372 103.512 204.948 103.116 205.866 103.116C207.036 103.116 207.576 103.674 207.918 104.592L209.862 103.998C209.322 102.126 207.99 101.19 205.848 101.19C204.732 101.19 203.85 101.478 203.202 102.054C202.572 102.63 202.248 103.314 202.248 104.106C202.248 105.528 203.238 106.284 205.452 106.914C205.578 106.95 205.74 107.004 205.974 107.058C206.82 107.292 207.36 107.49 207.63 107.634C207.9 107.76 208.026 107.976 208.026 108.246C208.026 108.912 207.288 109.308 206.136 109.308C204.876 109.308 204.156 108.642 203.994 107.31L201.888 107.85ZM211.366 107.868C212.086 109.902 213.688 111.27 216.19 111.27C217.522 111.27 218.638 110.874 219.538 110.082C220.438 109.29 220.888 108.192 220.888 106.806C220.888 105.564 220.492 104.556 219.718 103.764C218.944 102.972 217.99 102.576 216.856 102.576C215.866 102.576 214.984 102.918 214.642 103.188C214.48 103.314 214.354 103.422 214.3 103.512L214.282 103.494L214.768 100.65H219.664V98.4H212.932L211.834 104.808L213.724 105.762C214.318 104.862 215.164 104.412 216.244 104.412C217.558 104.412 218.566 105.222 218.566 106.734C218.566 108.246 217.558 109.056 216.19 109.056C214.948 109.056 214.03 108.21 213.652 106.896L211.366 107.868ZM225.094 106.734C225.094 106.14 225.292 105.618 225.706 105.168C226.12 104.718 226.696 104.502 227.398 104.502C228.838 104.502 229.684 105.438 229.684 106.752C229.684 108.102 228.874 109.056 227.488 109.056C225.994 109.056 225.094 108.192 225.094 106.734ZM224.698 104.07C224.77 101.784 225.778 100.29 227.29 100.29C228.334 100.29 229 100.848 229.306 101.964L231.502 101.388C231.124 99.516 229.774 98.13 227.452 98.13C225.85 98.13 224.59 98.778 223.636 100.074C222.7 101.37 222.232 102.954 222.232 104.826C222.232 106.932 222.718 108.534 223.69 109.632C224.68 110.73 225.94 111.27 227.488 111.27C228.73 111.27 229.792 110.874 230.638 110.082C231.502 109.272 231.934 108.192 231.934 106.842C231.934 105.528 231.52 104.484 230.692 103.746C229.864 103.008 228.892 102.63 227.794 102.63C226.228 102.63 225.148 103.386 224.716 104.088L224.698 104.07ZM238.846 111.27C240.268 111.27 241.438 110.802 242.338 109.884C243.238 108.948 243.688 107.688 243.688 106.086V104.412H239.026V106.482H241.366C241.366 108.084 240.412 109.02 238.846 109.02C237.118 109.02 235.876 107.58 235.876 104.502C235.876 103.188 236.164 102.18 236.74 101.46C237.316 100.74 238.018 100.38 238.846 100.38C240.16 100.38 240.952 101.19 241.258 102.81L243.688 102.414C243.508 101.1 242.968 100.056 242.068 99.282C241.186 98.508 240.106 98.13 238.828 98.13C237.334 98.13 236.056 98.688 234.976 99.822C233.914 100.956 233.374 102.504 233.374 104.502C233.374 106.77 233.878 108.462 234.886 109.596C235.912 110.712 237.226 111.27 238.846 111.27ZM244.954 107.85C245.098 108.804 245.53 109.614 246.232 110.28C246.952 110.946 247.978 111.27 249.292 111.27C250.552 111.27 251.506 110.964 252.172 110.37C252.838 109.758 253.18 109.074 253.18 108.3C253.18 107.58 252.982 106.986 252.568 106.536C252.172 106.068 251.416 105.69 250.3 105.384C249.022 105.024 248.23 104.772 247.906 104.628C247.6 104.466 247.438 104.268 247.438 103.998C247.438 103.512 248.014 103.116 248.932 103.116C250.102 103.116 250.642 103.674 250.984 104.592L252.928 103.998C252.388 102.126 251.056 101.19 248.914 101.19C247.798 101.19 246.916 101.478 246.268 102.054C245.638 102.63 245.314 103.314 245.314 104.106C245.314 105.528 246.304 106.284 248.518 106.914C248.644 106.95 248.806 107.004 249.04 107.058C249.886 107.292 250.426 107.49 250.696 107.634C250.966 107.76 251.092 107.976 251.092 108.246C251.092 108.912 250.354 109.308 249.202 109.308C247.942 109.308 247.222 108.642 247.06 107.31L244.954 107.85Z" fill="#EB613E"/>
<path d="M61.25 138L56.714 125.4H54.644L50.09 138H52.502L53.222 135.93H58.028L58.748 138H61.25ZM55.652 129L57.344 133.914H53.906L55.616 129H55.652ZM62.3321 134.616C62.3321 136.848 63.3761 138.27 65.5901 138.27C66.6521 138.27 67.4801 137.874 68.0741 137.082H68.1101V138H70.3421V128.46H68.0021V134.184C68.0021 135.462 67.2461 136.02 66.1121 136.02C65.1041 136.02 64.6721 135.57 64.6721 134.364V128.46H62.3321V134.616ZM73.3495 134.598C73.3495 135.786 73.5835 136.65 74.0695 137.19C74.5555 137.73 75.4375 138 76.7155 138H77.7055V135.75H76.9315C75.9055 135.75 75.6535 135.39 75.6535 134.382V130.44H78.0295V128.46H75.6175V126.12H73.4035V128.46H71.8735V130.44H73.3495V134.598ZM82.1645 138V132.006C82.1645 131.016 82.7405 130.35 83.8205 130.35C84.9545 130.35 85.5125 131.106 85.5125 132.168V138H87.8525V131.646C87.8525 129.54 86.5565 128.19 84.5225 128.19C83.5865 128.19 82.5785 128.748 82.2005 129.378H82.1645V124.86H79.8245V138H82.1645ZM92.5334 135.408C92.1554 134.904 91.9574 134.184 91.9574 133.23C91.9574 132.276 92.1554 131.556 92.5334 131.052C92.9294 130.548 93.4514 130.296 94.1174 130.296C94.7834 130.296 95.3054 130.548 95.6834 131.07C96.0794 131.574 96.2774 132.294 96.2774 133.23C96.2774 134.166 96.0794 134.886 95.7014 135.408C95.3234 135.912 94.7834 136.164 94.1174 136.164C93.4514 136.164 92.9114 135.912 92.5334 135.408ZM89.6534 133.23C89.6534 134.814 90.0674 136.056 90.9134 136.938C91.7594 137.82 92.8214 138.27 94.1174 138.27C95.4134 138.27 96.4754 137.82 97.3214 136.938C98.1674 136.056 98.5814 134.814 98.5814 133.23C98.5814 131.664 98.1494 130.44 97.2854 129.54C96.4214 128.64 95.3594 128.19 94.1174 128.19C92.8754 128.19 91.8134 128.64 90.9494 129.54C90.0854 130.44 89.6534 131.664 89.6534 133.23ZM102.819 138V132.762C102.819 131.304 103.359 130.584 104.457 130.584C104.691 130.584 104.925 130.638 105.195 130.728L105.555 128.46C105.285 128.334 104.997 128.28 104.691 128.28C103.845 128.28 103.089 128.748 102.729 129.468H102.693V128.46H100.479V138H102.819ZM109.95 138V135.444H107.268V138H109.95ZM109.95 131.016V128.46H107.268V131.016H109.95ZM124.541 132.996C124.307 135.012 123.497 136.02 122.075 136.02C120.347 136.02 119.105 134.58 119.105 131.502C119.105 130.188 119.393 129.18 119.969 128.46C120.545 127.74 121.247 127.38 122.075 127.38C123.533 127.38 124.307 128.46 124.523 129.99L126.935 129.612C126.791 128.244 126.269 127.164 125.351 126.354C124.451 125.544 123.353 125.13 122.057 125.13C120.563 125.13 119.285 125.688 118.205 126.822C117.143 127.956 116.603 129.504 116.603 131.502C116.603 133.77 117.107 135.462 118.115 136.596C119.141 137.712 120.455 138.27 122.075 138.27C124.865 138.27 126.647 136.488 127.061 133.554L124.541 132.996ZM131.295 138V132.006C131.295 131.016 131.871 130.35 132.951 130.35C134.085 130.35 134.643 131.106 134.643 132.168V138H136.983V131.646C136.983 129.54 135.687 128.19 133.653 128.19C132.717 128.19 131.709 128.748 131.331 129.378H131.295V124.86H128.955V138H131.295ZM141.754 138V132.762C141.754 131.304 142.294 130.584 143.392 130.584C143.626 130.584 143.86 130.638 144.13 130.728L144.49 128.46C144.22 128.334 143.932 128.28 143.626 128.28C142.78 128.28 142.024 128.748 141.664 129.468H141.628V128.46H139.414V138H141.754ZM148.364 138V128.46H146.024V138H148.364ZM148.364 127.074V124.86H146.024V127.074H148.364ZM150.155 134.85C150.299 135.804 150.731 136.614 151.433 137.28C152.153 137.946 153.179 138.27 154.493 138.27C155.753 138.27 156.707 137.964 157.373 137.37C158.039 136.758 158.381 136.074 158.381 135.3C158.381 134.58 158.183 133.986 157.769 133.536C157.373 133.068 156.617 132.69 155.501 132.384C154.223 132.024 153.431 131.772 153.107 131.628C152.801 131.466 152.639 131.268 152.639 130.998C152.639 130.512 153.215 130.116 154.133 130.116C155.303 130.116 155.843 130.674 156.185 131.592L158.129 130.998C157.589 129.126 156.257 128.19 154.115 128.19C152.999 128.19 152.117 128.478 151.469 129.054C150.839 129.63 150.515 130.314 150.515 131.106C150.515 132.528 151.505 133.284 153.719 133.914C153.845 133.95 154.007 134.004 154.241 134.058C155.087 134.292 155.627 134.49 155.897 134.634C156.167 134.76 156.293 134.976 156.293 135.246C156.293 135.912 155.555 136.308 154.403 136.308C153.143 136.308 152.423 135.642 152.261 134.31L150.155 134.85ZM159.454 134.85C159.598 135.804 160.03 136.614 160.732 137.28C161.452 137.946 162.478 138.27 163.792 138.27C165.052 138.27 166.006 137.964 166.672 137.37C167.338 136.758 167.68 136.074 167.68 135.3C167.68 134.58 167.482 133.986 167.068 133.536C166.672 133.068 165.916 132.69 164.8 132.384C163.522 132.024 162.73 131.772 162.406 131.628C162.1 131.466 161.938 131.268 161.938 130.998C161.938 130.512 162.514 130.116 163.432 130.116C164.602 130.116 165.142 130.674 165.484 131.592L167.428 130.998C166.888 129.126 165.556 128.19 163.414 128.19C162.298 128.19 161.416 128.478 160.768 129.054C160.138 129.63 159.814 130.314 159.814 131.106C159.814 132.528 160.804 133.284 163.018 133.914C163.144 133.95 163.306 134.004 163.54 134.058C164.386 134.292 164.926 134.49 165.196 134.634C165.466 134.76 165.592 134.976 165.592 135.246C165.592 135.912 164.854 136.308 163.702 136.308C162.442 136.308 161.722 135.642 161.56 134.31L159.454 134.85ZM172.181 142.05L177.671 128.46H175.295L172.829 134.922H172.793L170.327 128.46H167.951L171.767 137.532L169.859 142.05H172.181ZM53.87 154.65H55.652C57.362 154.65 58.496 155.874 58.496 158.682C58.496 160.356 58.172 161.472 57.596 162.03C57.02 162.588 56.408 162.75 55.544 162.75H53.87V154.65ZM55.544 165C57.038 165 58.28 164.586 59.36 163.668C60.44 162.732 61.106 160.986 61.106 158.682C61.106 154.326 58.442 152.4 55.652 152.4H51.44V165H55.544ZM70.4002 165V158.952C70.4002 157.674 70.0222 156.72 69.2842 156.108C68.5462 155.496 67.5922 155.19 66.4222 155.19C64.2802 155.19 62.9482 156.324 62.4982 157.926L64.4422 158.736C64.7482 157.782 65.1802 157.17 66.4582 157.17C67.5382 157.17 68.0782 157.602 68.0782 158.178C68.0782 158.466 67.9342 158.682 67.6642 158.844C67.3942 159.006 66.7102 159.204 65.6122 159.474C63.2542 160.05 62.3722 160.788 62.3722 162.444C62.3722 164.028 63.5062 165.27 65.8102 165.27C67.7362 165.27 68.4022 164.1 68.4022 164.082H68.4382V165H70.4002ZM66.0802 161.094C67.2322 160.806 67.8622 160.518 67.9522 160.428C68.0062 160.374 68.0602 160.284 68.1142 160.194H68.1502V161.85C68.1502 162.642 67.4482 163.254 66.0262 163.254C65.0902 163.254 64.6222 162.93 64.6222 162.282C64.6222 161.778 64.8742 161.382 66.0802 161.094ZM73.2265 161.598C73.2265 162.786 73.4605 163.65 73.9465 164.19C74.4325 164.73 75.3145 165 76.5925 165H77.5825V162.75H76.8085C75.7825 162.75 75.5305 162.39 75.5305 161.382V157.44H77.9065V155.46H75.4945V153.12H73.2805V155.46H71.7505V157.44H73.2265V161.598ZM85.8934 161.706C85.2634 162.624 84.6334 163.2 83.5534 163.2C82.2754 163.2 81.5194 162.39 81.4474 160.932H87.8554V160.23C87.8554 158.7 87.4414 157.494 86.6134 156.576C85.8034 155.658 84.7594 155.19 83.4814 155.19C82.2034 155.19 81.1594 155.658 80.3134 156.576C79.4854 157.494 79.0714 158.7 79.0714 160.23C79.0714 161.76 79.4854 162.984 80.3314 163.902C81.1774 164.82 82.2574 165.27 83.5894 165.27C85.2454 165.27 86.5594 164.568 87.5314 163.146L85.8934 161.706ZM81.4474 159.186C81.5374 158.088 82.3294 157.242 83.4814 157.242C84.7234 157.242 85.4614 157.962 85.5874 159.186H81.4474ZM92.6005 165V162.444H89.9185V165H92.6005ZM92.6005 158.016V155.46H89.9185V158.016H92.6005ZM104.041 165L106.651 157.17H106.759L109.351 165H111.871L114.319 152.4H111.907L110.287 160.968H110.233L107.335 152.4H106.111L103.213 160.968H103.159L101.539 152.4H99.0732L101.521 165H104.041ZM121.77 161.706C121.14 162.624 120.51 163.2 119.43 163.2C118.152 163.2 117.396 162.39 117.324 160.932H123.732V160.23C123.732 158.7 123.318 157.494 122.49 156.576C121.68 155.658 120.636 155.19 119.358 155.19C118.08 155.19 117.036 155.658 116.19 156.576C115.362 157.494 114.948 158.7 114.948 160.23C114.948 161.76 115.362 162.984 116.208 163.902C117.054 164.82 118.134 165.27 119.466 165.27C121.122 165.27 122.436 164.568 123.408 163.146L121.77 161.706ZM117.324 159.186C117.414 158.088 118.206 157.242 119.358 157.242C120.6 157.242 121.338 157.962 121.464 159.186H117.324ZM131.537 161.094C131.537 162.246 130.763 163.164 129.485 163.164C128.117 163.164 127.325 162.156 127.325 160.23C127.325 158.286 128.117 157.296 129.485 157.296C130.763 157.296 131.537 158.196 131.537 159.348V161.094ZM133.877 165V151.86H131.537V156.378H131.501L131.267 156.072C130.979 155.694 130.097 155.19 129.089 155.19C127.991 155.19 127.019 155.64 126.209 156.558C125.399 157.458 124.985 158.682 124.985 160.23C124.985 161.76 125.363 162.984 126.101 163.902C126.857 164.82 127.865 165.27 129.125 165.27C129.647 165.27 130.115 165.162 130.547 164.946C130.997 164.712 131.267 164.532 131.375 164.406C131.501 164.28 131.591 164.172 131.645 164.082H131.681V165H133.877ZM139.811 162.318C139.919 163.128 140.261 163.812 140.819 164.406C141.377 164.982 142.151 165.27 143.123 165.27C145.283 165.27 146.543 164.1 146.543 161.652V152.4H144.113V161.832C144.113 162.696 143.789 163.02 143.123 163.02C142.529 163.02 142.151 162.57 141.989 161.688L139.811 162.318ZM149.063 161.616C149.063 163.848 150.107 165.27 152.321 165.27C153.383 165.27 154.211 164.874 154.805 164.082H154.841V165H157.073V155.46H154.733V161.184C154.733 162.462 153.977 163.02 152.843 163.02C151.835 163.02 151.403 162.57 151.403 161.364V155.46H149.063V161.616ZM162.024 165V151.86H159.594V165H162.024ZM173.821 165V152.4H171.679L168.781 154.2V156.81L171.499 155.1V165H173.821ZM176.802 161.364C176.802 162.606 177.234 163.56 178.08 164.244C178.944 164.928 180.096 165.27 181.518 165.27C182.94 165.27 184.092 164.928 184.938 164.262C185.802 163.578 186.234 162.624 186.234 161.4C186.234 159.942 185.424 158.664 183.966 158.142V158.106C185.028 157.674 185.64 156.702 185.64 155.496C185.64 154.542 185.262 153.732 184.506 153.102C183.75 152.454 182.76 152.13 181.518 152.13C180.276 152.13 179.286 152.454 178.53 153.102C177.774 153.732 177.396 154.542 177.396 155.496C177.396 156.702 178.008 157.674 179.07 158.106V158.142C177.63 158.646 176.802 159.942 176.802 161.364ZM179.682 155.694C179.682 154.83 180.348 154.146 181.518 154.146C182.67 154.146 183.336 154.83 183.336 155.694C183.336 156.54 182.616 157.224 181.518 157.224C180.42 157.224 179.682 156.54 179.682 155.694ZM179.178 161.148C179.178 159.942 180.06 159.096 181.518 159.096C182.976 159.096 183.84 159.942 183.84 161.148C183.84 162.282 183.03 163.056 181.518 163.056C180.006 163.056 179.178 162.282 179.178 161.148ZM53.42 185.466C54.356 185.394 56.03 187.086 57.542 187.032C59.252 186.996 60.134 185.466 60.332 184.044L58.874 183.648C58.604 184.71 58.172 185.25 57.614 185.25C56.66 185.322 55.004 183.63 53.51 183.684C51.8 183.72 50.918 185.25 50.72 186.672L52.178 187.068C52.448 186.006 52.862 185.466 53.42 185.466ZM58.604 219V211.44H62.024V219H64.364V209.46H58.532V208.686C58.532 208.128 58.73 207.93 59.306 207.93H60.332V205.86H58.82C57.182 205.86 56.318 206.472 56.318 208.11V209.46H54.77V211.44H56.264V219H58.604ZM64.364 208.074V205.86H62.024V208.074H64.364ZM68.309 219L70.577 215.58H70.613L72.881 219H75.383L72.071 214.068L75.185 209.46H72.755L70.613 212.664H70.577L68.435 209.46H66.005L69.119 214.068L65.807 219H68.309ZM79.6806 219V216.444H76.9986V219H79.6806ZM79.6806 212.016V209.46H76.9986V212.016H79.6806ZM89.4833 208.65H91.2653C92.9753 208.65 94.1093 209.874 94.1093 212.682C94.1093 214.356 93.7853 215.472 93.2093 216.03C92.6333 216.588 92.0213 216.75 91.1573 216.75H89.4833V208.65ZM91.1573 219C92.6513 219 93.8933 218.586 94.9733 217.668C96.0533 216.732 96.7193 214.986 96.7193 212.682C96.7193 208.326 94.0553 206.4 91.2653 206.4H87.0533V219H91.1573ZM100.865 216.408C100.487 215.904 100.289 215.184 100.289 214.23C100.289 213.276 100.487 212.556 100.865 212.052C101.261 211.548 101.783 211.296 102.449 211.296C103.115 211.296 103.637 211.548 104.015 212.07C104.411 212.574 104.609 213.294 104.609 214.23C104.609 215.166 104.411 215.886 104.033 216.408C103.655 216.912 103.115 217.164 102.449 217.164C101.783 217.164 101.243 216.912 100.865 216.408ZM97.9855 214.23C97.9855 215.814 98.3995 217.056 99.2455 217.938C100.091 218.82 101.153 219.27 102.449 219.27C103.745 219.27 104.807 218.82 105.653 217.938C106.499 217.056 106.913 215.814 106.913 214.23C106.913 212.664 106.481 211.44 105.617 210.54C104.753 209.64 103.691 209.19 102.449 209.19C101.207 209.19 100.145 209.64 99.2815 210.54C98.4175 211.44 97.9855 212.664 97.9855 214.23ZM111.151 219V213.168C111.151 212.07 111.835 211.35 112.987 211.35C114.211 211.35 114.661 212.016 114.661 213.33V219H117.001V212.754C117.001 210.522 115.723 209.19 113.617 209.19C112.609 209.19 111.619 209.712 111.097 210.378H111.061V209.46H108.811V219H111.151ZM119.256 211.368C121.038 211.242 121.938 210.342 121.938 208.668V206.4H119.256V208.956H120.138C120.138 209.766 120.048 210 119.256 210.144V211.368ZM125.117 215.598C125.117 216.786 125.351 217.65 125.837 218.19C126.323 218.73 127.205 219 128.483 219H129.473V216.75H128.699C127.673 216.75 127.421 216.39 127.421 215.382V211.44H129.797V209.46H127.385V207.12H125.171V209.46H123.641V211.44H125.117V215.598ZM138.918 219V211.44H141.258V209.46H138.846V208.686C138.846 208.128 139.044 207.93 139.62 207.93H141.006V205.86H139.134C137.496 205.86 136.632 206.472 136.632 208.11V209.46H135.102V211.44H136.578V219H138.918ZM149.924 219V212.952C149.924 211.674 149.546 210.72 148.808 210.108C148.07 209.496 147.116 209.19 145.946 209.19C143.804 209.19 142.472 210.324 142.022 211.926L143.966 212.736C144.272 211.782 144.704 211.17 145.982 211.17C147.062 211.17 147.602 211.602 147.602 212.178C147.602 212.466 147.458 212.682 147.188 212.844C146.918 213.006 146.234 213.204 145.136 213.474C142.778 214.05 141.896 214.788 141.896 216.444C141.896 218.028 143.03 219.27 145.334 219.27C147.26 219.27 147.926 218.1 147.926 218.082H147.962V219H149.924ZM145.604 215.094C146.756 214.806 147.386 214.518 147.476 214.428C147.53 214.374 147.584 214.284 147.638 214.194H147.674V215.85C147.674 216.642 146.972 217.254 145.55 217.254C144.614 217.254 144.146 216.93 144.146 216.282C144.146 215.778 144.398 215.382 145.604 215.094ZM154.604 219V209.46H152.264V219H154.604ZM154.604 208.074V205.86H152.264V208.074H154.604ZM159.545 219V205.86H157.115V219H159.545ZM164.935 219V216.444H162.253V219H164.935Z" fill="#E7E1EC"/>
<path d="M58.604 246V238.44H62.024V246H64.364V236.46H58.532V235.686C58.532 235.128 58.73 234.93 59.306 234.93H60.332V232.86H58.82C57.182 232.86 56.318 233.472 56.318 235.11V236.46H54.77V238.44H56.264V246H58.604ZM64.364 235.074V232.86H62.024V235.074H64.364ZM68.309 246L70.577 242.58H70.613L72.881 246H75.383L72.071 241.068L75.185 236.46H72.755L70.613 239.664H70.577L68.435 236.46H66.005L69.119 241.068L65.807 246H68.309ZM82.659 242.706C82.029 243.624 81.399 244.2 80.319 244.2C79.041 244.2 78.285 243.39 78.213 241.932H84.621V241.23C84.621 239.7 84.207 238.494 83.379 237.576C82.569 236.658 81.525 236.19 80.247 236.19C78.969 236.19 77.925 236.658 77.079 237.576C76.251 238.494 75.837 239.7 75.837 241.23C75.837 242.76 76.251 243.984 77.097 244.902C77.943 245.82 79.023 246.27 80.355 246.27C82.011 246.27 83.325 245.568 84.297 244.146L82.659 242.706ZM78.213 240.186C78.303 239.088 79.095 238.242 80.247 238.242C81.489 238.242 82.227 238.962 82.353 240.186H78.213ZM85.7841 242.85C85.9281 243.804 86.3601 244.614 87.0621 245.28C87.7821 245.946 88.8081 246.27 90.1221 246.27C91.3821 246.27 92.3361 245.964 93.0021 245.37C93.6681 244.758 94.0101 244.074 94.0101 243.3C94.0101 242.58 93.8121 241.986 93.3981 241.536C93.0021 241.068 92.2461 240.69 91.1301 240.384C89.8521 240.024 89.0601 239.772 88.7361 239.628C88.4301 239.466 88.2681 239.268 88.2681 238.998C88.2681 238.512 88.8441 238.116 89.7621 238.116C90.9321 238.116 91.4721 238.674 91.8141 239.592L93.7581 238.998C93.2181 237.126 91.8861 236.19 89.7441 236.19C88.6281 236.19 87.7461 236.478 87.0981 237.054C86.4681 237.63 86.1441 238.314 86.1441 239.106C86.1441 240.528 87.1341 241.284 89.3481 241.914C89.4741 241.95 89.6361 242.004 89.8701 242.058C90.7161 242.292 91.2561 242.49 91.5261 242.634C91.7961 242.76 91.9221 242.976 91.9221 243.246C91.9221 243.912 91.1841 244.308 90.0321 244.308C88.7721 244.308 88.0521 243.642 87.8901 242.31L85.7841 242.85ZM99.673 241.788C100.033 244.758 101.869 246.27 104.731 246.27C106.135 246.27 107.251 245.91 108.097 245.172C108.943 244.434 109.357 243.516 109.357 242.4C109.357 241.446 109.105 240.708 108.583 240.15C108.061 239.592 107.107 239.07 105.721 238.584C104.281 238.098 103.381 237.756 103.039 237.558C102.697 237.36 102.517 237.072 102.517 236.694C102.517 235.902 103.129 235.38 104.371 235.38C105.541 235.38 106.315 235.974 106.693 237.162L109.051 236.568C108.619 234.282 106.747 233.13 104.371 233.13C103.057 233.13 102.031 233.49 101.257 234.192C100.501 234.894 100.123 235.722 100.123 236.712C100.123 238.422 101.113 239.538 103.723 240.348C105.109 240.78 106.009 241.14 106.387 241.41C106.783 241.68 106.981 242.058 106.981 242.562C106.981 243.516 106.099 244.02 104.731 244.02C103.129 244.02 102.535 243.192 102.229 241.23L99.673 241.788ZM119.215 246V243.75H113.671V240.636H118.711V238.476H113.671V235.65H119.215V233.4H111.241V246H119.215ZM124.077 246V237.738H124.113L128.775 246H131.169V233.4H128.721V241.662H128.685L124.077 233.4H121.647V246H124.077ZM138.917 246V235.65H142.607V233.4H132.797V235.65H136.487V246H138.917ZM146.665 246V241.32H148.537L151.075 246H153.703L151.021 241.086C152.677 240.564 153.685 239.232 153.685 237.414C153.685 236.19 153.289 235.218 152.479 234.498C151.687 233.76 150.643 233.4 149.347 233.4H144.235V246H146.665ZM146.665 235.596H149.149C150.535 235.596 151.219 236.208 151.219 237.414C151.219 238.62 150.535 239.214 149.149 239.214H146.665V235.596ZM160.227 246V240.69L164.349 233.4H161.739L159.039 238.566H159.003L156.303 233.4H153.693L157.815 240.69V246H160.227ZM169.195 240.996V239.196H163.273V240.996H169.195ZM170.638 242.868C171.358 244.902 172.96 246.27 175.462 246.27C176.794 246.27 177.91 245.874 178.81 245.082C179.71 244.29 180.16 243.192 180.16 241.806C180.16 240.564 179.764 239.556 178.99 238.764C178.216 237.972 177.262 237.576 176.128 237.576C175.138 237.576 174.256 237.918 173.914 238.188C173.752 238.314 173.626 238.422 173.572 238.512L173.554 238.494L174.04 235.65H178.936V233.4H172.204L171.106 239.808L172.996 240.762C173.59 239.862 174.436 239.412 175.516 239.412C176.83 239.412 177.838 240.222 177.838 241.734C177.838 243.246 176.83 244.056 175.462 244.056C174.22 244.056 173.302 243.21 172.924 241.896L170.638 242.868ZM186.993 246V235.65H190.683V233.4H180.873V235.65H184.563V246H186.993ZM197.423 243.588V246H199.709V243.588H201.185V241.338H199.709V233.4H196.019L191.231 241.32V243.588H197.423ZM197.387 235.182H197.423V241.338H193.679L197.387 235.182Z" fill="#F9A66D"/>
<path d="M53.42 266.466C54.356 266.394 56.03 268.086 57.542 268.032C59.252 267.996 60.134 266.466 60.332 265.044L58.874 264.648C58.604 265.71 58.172 266.25 57.614 266.25C56.66 266.322 55.004 264.63 53.51 264.684C51.8 264.72 50.918 266.25 50.72 267.672L52.178 268.068C52.448 267.006 52.862 266.466 53.42 266.466ZM53.42 293.466C54.356 293.394 56.03 295.086 57.542 295.032C59.252 294.996 60.134 293.466 60.332 292.044L58.874 291.648C58.604 292.71 58.172 293.25 57.614 293.25C56.66 293.322 55.004 291.63 53.51 291.684C51.8 291.72 50.918 293.25 50.72 294.672L52.178 295.068C52.448 294.006 52.862 293.466 53.42 293.466Z" fill="#E7E1EC"/>
</g>
</g>
<path id="Path 5" d="M234.492 230.969V250.121" stroke="#E7E1EC" stroke-width="2"/>
<path id="Rectangle 2 Copy_2" fill-rule="evenodd" clip-rule="evenodd" d="M23 37C23 22.6406 34.6406 11 49 11H586C600.359 11 612 22.6406 612 37V65.1992H23V37Z" fill="#40358B"/>
<path id="Chrissy &#226;&#128;&#148; Vim" d="M85.696 41.552C85.488 43.344 84.768 44.24 83.504 44.24C81.968 44.24 80.864 42.96 80.864 40.224C80.864 39.056 81.12 38.16 81.632 37.52C82.144 36.88 82.768 36.56 83.504 36.56C84.8 36.56 85.488 37.52 85.68 38.88L87.824 38.544C87.696 37.328 87.232 36.368 86.416 35.648C85.616 34.928 84.64 34.56 83.488 34.56C82.16 34.56 81.024 35.056 80.064 36.064C79.12 37.072 78.64 38.448 78.64 40.224C78.64 42.24 79.088 43.744 79.984 44.752C80.896 45.744 82.064 46.24 83.504 46.24C85.984 46.24 87.568 44.656 87.936 42.048L85.696 41.552ZM91.7 46V40.672C91.7 39.792 92.212 39.2 93.172 39.2C94.18 39.2 94.676 39.872 94.676 40.816V46H96.756V40.352C96.756 38.48 95.604 37.28 93.796 37.28C92.964 37.28 92.068 37.776 91.732 38.336H91.7V34.32H89.62V46H91.7ZM100.997 46V41.344C100.997 40.048 101.477 39.408 102.453 39.408C102.661 39.408 102.869 39.456 103.109 39.536L103.429 37.52C103.189 37.408 102.933 37.36 102.661 37.36C101.909 37.36 101.237 37.776 100.917 38.416H100.885V37.52H98.9169V46H100.997ZM106.872 46V37.52H104.792V46H106.872ZM106.872 36.288V34.32H104.792V36.288H106.872ZM108.464 43.2C108.592 44.048 108.976 44.768 109.6 45.36C110.24 45.952 111.152 46.24 112.32 46.24C113.44 46.24 114.288 45.968 114.88 45.44C115.472 44.896 115.776 44.288 115.776 43.6C115.776 42.96 115.6 42.432 115.232 42.032C114.88 41.616 114.208 41.28 113.216 41.008C112.08 40.688 111.376 40.464 111.088 40.336C110.816 40.192 110.672 40.016 110.672 39.776C110.672 39.344 111.184 38.992 112 38.992C113.04 38.992 113.52 39.488 113.824 40.304L115.552 39.776C115.072 38.112 113.888 37.28 111.984 37.28C110.992 37.28 110.208 37.536 109.632 38.048C109.072 38.56 108.784 39.168 108.784 39.872C108.784 41.136 109.664 41.808 111.632 42.368C111.744 42.4 111.888 42.448 112.096 42.496C112.848 42.704 113.328 42.88 113.568 43.008C113.808 43.12 113.92 43.312 113.92 43.552C113.92 44.144 113.264 44.496 112.24 44.496C111.12 44.496 110.48 43.904 110.336 42.72L108.464 43.2ZM116.73 43.2C116.858 44.048 117.242 44.768 117.866 45.36C118.506 45.952 119.418 46.24 120.586 46.24C121.706 46.24 122.554 45.968 123.146 45.44C123.738 44.896 124.042 44.288 124.042 43.6C124.042 42.96 123.866 42.432 123.498 42.032C123.146 41.616 122.474 41.28 121.482 41.008C120.346 40.688 119.642 40.464 119.354 40.336C119.082 40.192 118.938 40.016 118.938 39.776C118.938 39.344 119.45 38.992 120.266 38.992C121.306 38.992 121.786 39.488 122.09 40.304L123.818 39.776C123.338 38.112 122.154 37.28 120.25 37.28C119.258 37.28 118.474 37.536 117.898 38.048C117.338 38.56 117.05 39.168 117.05 39.872C117.05 41.136 117.93 41.808 119.898 42.368C120.01 42.4 120.154 42.448 120.362 42.496C121.114 42.704 121.594 42.88 121.834 43.008C122.074 43.12 122.186 43.312 122.186 43.552C122.186 44.144 121.53 44.496 120.506 44.496C119.386 44.496 118.746 43.904 118.602 42.72L116.73 43.2ZM128.043 49.6L132.923 37.52H130.811L128.619 43.264H128.587L126.395 37.52H124.283L127.675 45.584L125.979 49.6H128.043ZM151.064 41.712V39.952H138.44V41.712H151.064ZM162.596 46L166.596 34.8H164.356L161.668 42.752H161.62L158.852 34.8H156.58L160.628 46H162.596ZM169.559 46V37.52H167.479V46H169.559ZM169.559 36.288V34.32H167.479V36.288H169.559ZM173.808 46V40.512C173.808 39.744 174.304 39.2 175.264 39.2C176.208 39.2 176.736 39.808 176.736 40.624V46H178.64V40.512C178.64 39.744 179.152 39.2 180.096 39.2C181.104 39.2 181.568 39.792 181.568 40.624V46H183.472V40.192C183.472 38.448 182.208 37.28 180.176 37.28C179.232 37.28 178.4 37.744 177.968 38.4H177.936C177.536 37.744 176.672 37.28 175.776 37.28C174.896 37.28 174.112 37.744 173.728 38.336H173.696V37.52H171.792V46H173.808Z" fill="#8B7FD7"/>
</g>
<g id="icon-circle-arrow-left">
<path id="Combined Shape" fill-rule="evenodd" clip-rule="evenodd" d="M56 28C62.6274 28 68 33.3726 68 40C68 46.6274 62.6274 52 56 52C49.3726 52 44 46.6274 44 40C44 33.3726 49.3726 28 56 28ZM56 30C50.4772 30 46 34.4772 46 40C46 45.5228 50.4772 50 56 50C61.5228 50 66 45.5228 66 40C66 34.4772 61.5228 30 56 30ZM54.2882 35.2976C53.9003 35.6908 53.9045 36.3239 54.2976 36.7118L57.5859 39.9564L54.2883 43.2975C53.9003 43.6906 53.9045 44.3238 54.2975 44.7117C54.6906 45.0997 55.3238 45.0955 55.7117 44.7025L59.0093 41.3614C59.7853 40.5752 59.7769 39.3089 58.9908 38.533L55.7024 35.2882C55.3092 34.9003 54.6761 34.9045 54.2882 35.2976Z" fill="#8B7FD7"/>
</g>
<g id="Group 15 Copy 3">
<path id="Path 7" d="M569 35.652L570.652 34L582 45.348L580.348 47L569 35.652Z" fill="#CEC8FD"/>
<path id="Path 7_2" d="M580.348 34L582 35.652L570.652 47L569 45.348L580.348 34Z" fill="#CEC8FD"/>
</g>
</g>
<defs>
<filter id="filter0_d" x="0" y="0" width="635" height="362" filterUnits="userSpaceOnUse" color-interpolation-filters="sRGB">
<feFlood flood-opacity="0" result="BackgroundImageFix"/>
<feColorMatrix in="SourceAlpha" type="matrix" values="0 0 0 0 0 0 0 0 0 0 0 0 0 0 0 0 0 0 127 0"/>
<feOffset dy="12"/>
<feGaussianBlur stdDeviation="11.5"/>
<feColorMatrix type="matrix" values="0 0 0 0 0.209689 0 0 0 0 0.209689 0 0 0 0 0.209689 0 0 0 0.173913 0"/>
<feBlend mode="normal" in2="BackgroundImageFix" result="effect1_dropShadow"/>
<feBlend mode="normal" in="SourceGraphic" in2="effect1_dropShadow" result="shape"/>
</filter>
</defs>
</svg>
