<svg width="510" height="327" viewBox="0 0 510 327" fill="none" xmlns="http://www.w3.org/2000/svg">
<g id="resolution">
<rect width="510" height="327" fill="white"/>
<g id="release-4">
<g id="release-bg-8 copy">
<rect id="Rectangle 2 Copy" x="19" y="261.333" width="482" height="54" rx="26" fill="#4C416B"/>
</g>
<path id="TypeError" d="M43.87 282.983H45.652C47.362 282.983 48.496 284.207 48.496 287.015C48.496 288.689 48.172 289.805 47.596 290.363C47.02 290.921 46.408 291.083 45.544 291.083H43.87V282.983ZM45.544 293.333C47.038 293.333 48.28 292.919 49.36 292.001C50.44 291.065 51.106 289.319 51.106 287.015C51.106 282.659 48.442 280.733 45.652 280.733H41.44V293.333H45.544ZM55.2522 290.741C54.8742 290.237 54.6762 289.517 54.6762 288.563C54.6762 287.609 54.8742 286.889 55.2522 286.385C55.6482 285.881 56.1702 285.629 56.8362 285.629C57.5022 285.629 58.0242 285.881 58.4022 286.403C58.7982 286.907 58.9962 287.627 58.9962 288.563C58.9962 289.499 58.7982 290.219 58.4202 290.741C58.0422 291.245 57.5022 291.497 56.8362 291.497C56.1702 291.497 55.6302 291.245 55.2522 290.741ZM52.3722 288.563C52.3722 290.147 52.7862 291.389 53.6322 292.271C54.4782 293.153 55.5402 293.603 56.8362 293.603C58.1322 293.603 59.1942 293.153 60.0402 292.271C60.8862 291.389 61.3002 290.147 61.3002 288.563C61.3002 286.997 60.8682 285.773 60.0042 284.873C59.1402 283.973 58.0782 283.523 56.8362 283.523C55.5942 283.523 54.5322 283.973 53.6682 284.873C52.8042 285.773 52.3722 286.997 52.3722 288.563ZM69.3895 290.039C68.7595 290.957 68.1295 291.533 67.0495 291.533C65.7715 291.533 65.0155 290.723 64.9435 289.265H71.3515V288.563C71.3515 287.033 70.9375 285.827 70.1095 284.909C69.2995 283.991 68.2555 283.523 66.9775 283.523C65.6995 283.523 64.6555 283.991 63.8095 284.909C62.9815 285.827 62.5675 287.033 62.5675 288.563C62.5675 290.093 62.9815 291.317 63.8275 292.235C64.6735 293.153 65.7535 293.603 67.0855 293.603C68.7415 293.603 70.0555 292.901 71.0275 291.479L69.3895 290.039ZM64.9435 287.519C65.0335 286.421 65.8255 285.575 66.9775 285.575C68.2195 285.575 68.9575 286.295 69.0835 287.519H64.9435ZM72.5146 290.183C72.6586 291.137 73.0906 291.947 73.7926 292.613C74.5126 293.279 75.5386 293.603 76.8526 293.603C78.1126 293.603 79.0666 293.297 79.7326 292.703C80.3986 292.091 80.7406 291.407 80.7406 290.633C80.7406 289.913 80.5426 289.319 80.1286 288.869C79.7326 288.401 78.9766 288.023 77.8606 287.717C76.5826 287.357 75.7906 287.105 75.4666 286.961C75.1606 286.799 74.9986 286.601 74.9986 286.331C74.9986 285.845 75.5746 285.449 76.4926 285.449C77.6626 285.449 78.2026 286.007 78.5446 286.925L80.4886 286.331C79.9486 284.459 78.6166 283.523 76.4746 283.523C75.3586 283.523 74.4766 283.811 73.8286 284.387C73.1986 284.963 72.8746 285.647 72.8746 286.439C72.8746 287.861 73.8646 288.617 76.0786 289.247C76.2046 289.283 76.3666 289.337 76.6006 289.391C77.4466 289.625 77.9866 289.823 78.2566 289.967C78.5266 290.093 78.6526 290.309 78.6526 290.579C78.6526 291.245 77.9146 291.641 76.7626 291.641C75.5026 291.641 74.7826 290.975 74.6206 289.643L72.5146 290.183ZM85.1434 293.333V285.071H85.1794L89.8414 293.333H92.2354V280.733H89.7874V288.995H89.7514L85.1434 280.733H82.7134V293.333H85.1434ZM97.1936 290.741C96.8156 290.237 96.6176 289.517 96.6176 288.563C96.6176 287.609 96.8156 286.889 97.1936 286.385C97.5896 285.881 98.1116 285.629 98.7776 285.629C99.4436 285.629 99.9656 285.881 100.344 286.403C100.74 286.907 100.938 287.627 100.938 288.563C100.938 289.499 100.74 290.219 100.362 290.741C99.9836 291.245 99.4436 291.497 98.7776 291.497C98.1116 291.497 97.5716 291.245 97.1936 290.741ZM94.3136 288.563C94.3136 290.147 94.7276 291.389 95.5736 292.271C96.4196 293.153 97.4816 293.603 98.7776 293.603C100.074 293.603 101.136 293.153 101.982 292.271C102.828 291.389 103.242 290.147 103.242 288.563C103.242 286.997 102.81 285.773 101.946 284.873C101.082 283.973 100.02 283.523 98.7776 283.523C97.5356 283.523 96.4736 283.973 95.6096 284.873C94.7456 285.773 94.3136 286.997 94.3136 288.563ZM105.625 289.931C105.625 291.119 105.859 291.983 106.345 292.523C106.831 293.063 107.713 293.333 108.991 293.333H109.981V291.083H109.207C108.181 291.083 107.929 290.723 107.929 289.715V285.773H110.305V283.793H107.893V281.453H105.679V283.793H104.149V285.773H105.625V289.931ZM120.254 293.333V291.083H114.71V287.969H119.75V285.809H114.71V282.983H120.254V280.733H112.28V293.333H120.254ZM123.928 293.333L126.196 289.913H126.232L128.5 293.333H131.002L127.69 288.401L130.804 283.793H128.374L126.232 286.997H126.196L124.054 283.793H121.624L124.738 288.401L121.426 293.333H123.928ZM134.778 293.333V283.793H132.438V293.333H134.778ZM134.778 282.407V280.193H132.438V282.407H134.778ZM136.569 290.183C136.713 291.137 137.145 291.947 137.847 292.613C138.567 293.279 139.593 293.603 140.907 293.603C142.167 293.603 143.121 293.297 143.787 292.703C144.453 292.091 144.795 291.407 144.795 290.633C144.795 289.913 144.597 289.319 144.183 288.869C143.787 288.401 143.031 288.023 141.915 287.717C140.637 287.357 139.845 287.105 139.521 286.961C139.215 286.799 139.053 286.601 139.053 286.331C139.053 285.845 139.629 285.449 140.547 285.449C141.717 285.449 142.257 286.007 142.599 286.925L144.543 286.331C144.003 284.459 142.671 283.523 140.529 283.523C139.413 283.523 138.531 283.811 137.883 284.387C137.253 284.963 136.929 285.647 136.929 286.439C136.929 287.861 137.919 288.617 140.133 289.247C140.259 289.283 140.421 289.337 140.655 289.391C141.501 289.625 142.041 289.823 142.311 289.967C142.581 290.093 142.707 290.309 142.707 290.579C142.707 291.245 141.969 291.641 140.817 291.641C139.557 291.641 138.837 290.975 138.675 289.643L136.569 290.183ZM147.074 289.931C147.074 291.119 147.308 291.983 147.794 292.523C148.28 293.063 149.162 293.333 150.44 293.333H151.43V291.083H150.656C149.63 291.083 149.378 290.723 149.378 289.715V285.773H151.754V283.793H149.342V281.453H147.128V283.793H145.598V285.773H147.074V289.931ZM159.903 293.333V283.793H158.427V293.333H159.903ZM160.011 281.867V280.193H158.319V281.867H160.011ZM164.541 293.333V287.249C164.541 285.755 165.513 284.873 167.007 284.873C168.465 284.873 169.203 285.755 169.203 287.537V293.333H170.661V287.069C170.661 284.891 169.293 283.523 167.223 283.523C166.143 283.523 165.063 284.009 164.541 284.711H164.505V283.793H163.065V293.333H164.541ZM177.986 294.035L184.466 280.391L183.44 279.923L176.96 293.603L177.986 294.035ZM193.196 293.333V286.907C193.196 284.585 191.828 283.523 189.614 283.523C187.616 283.523 186.32 284.675 186.014 286.349L187.346 286.727C187.616 285.467 188.39 284.837 189.668 284.837C191.018 284.837 191.666 285.449 191.666 286.259C191.594 286.835 191.396 287.105 190.622 287.411C190.064 287.609 189.794 287.681 188.93 287.897C186.608 288.491 185.726 289.301 185.726 290.885C185.726 292.451 186.842 293.603 188.948 293.603C190.46 293.603 191.504 292.919 191.864 292.289H191.9V293.333H193.196ZM189.272 289.031C190.73 288.617 191.558 288.239 191.72 287.897H191.756V290.273C191.756 291.407 190.784 292.289 189.056 292.289C187.796 292.289 187.166 291.785 187.166 290.795C187.166 289.949 187.634 289.481 189.272 289.031ZM197.553 287.177C197.553 286.583 197.769 286.061 198.219 285.575C198.669 285.089 199.263 284.855 200.001 284.855C201.873 284.855 202.953 286.241 202.953 288.563C202.953 290.921 201.891 292.271 200.001 292.271C199.299 292.271 198.723 292.073 198.255 291.659C197.787 291.245 197.553 290.759 197.553 290.201V287.177ZM197.553 297.383V292.415H197.589C198.003 292.991 199.083 293.603 200.253 293.603C201.495 293.603 202.485 293.153 203.259 292.235C204.033 291.317 204.411 290.093 204.411 288.563C204.411 287.033 204.015 285.827 203.223 284.909C202.431 283.991 201.441 283.523 200.253 283.523C199.011 283.523 198.003 284.117 197.517 284.711H197.481V283.793H196.077V297.383H197.553ZM208.311 287.177C208.311 286.583 208.527 286.061 208.977 285.575C209.427 285.089 210.021 284.855 210.759 284.855C212.631 284.855 213.711 286.241 213.711 288.563C213.711 290.921 212.649 292.271 210.759 292.271C210.057 292.271 209.481 292.073 209.013 291.659C208.545 291.245 208.311 290.759 208.311 290.201V287.177ZM208.311 297.383V292.415H208.347C208.761 292.991 209.841 293.603 211.011 293.603C212.253 293.603 213.243 293.153 214.017 292.235C214.791 291.317 215.169 290.093 215.169 288.563C215.169 287.033 214.773 285.827 213.981 284.909C213.189 283.991 212.199 283.523 211.011 283.523C209.769 283.523 208.761 284.117 208.275 284.711H208.239V283.793H206.835V297.383H208.311ZM217.449 294.035L223.929 280.391L222.903 279.923L216.423 293.603L217.449 294.035ZM227.403 293.333V283.793H225.927V293.333H227.403ZM227.511 281.867V280.193H225.819V281.867H227.511ZM232.041 293.333V287.249C232.041 285.755 233.013 284.873 234.507 284.873C235.965 284.873 236.703 285.755 236.703 287.537V293.333H238.161V287.069C238.161 284.891 236.793 283.523 234.723 283.523C233.643 283.523 232.563 284.009 232.041 284.711H232.005V283.793H230.565V293.333H232.041ZM247.322 290.165C247.322 290.723 247.088 291.227 246.62 291.641C246.152 292.055 245.576 292.271 244.874 292.271C242.984 292.271 241.976 290.921 241.976 288.563C241.976 286.205 242.984 284.855 244.874 284.855C245.612 284.855 246.206 285.107 246.656 285.593C247.106 286.079 247.322 286.619 247.322 287.213V290.165ZM248.798 293.333V280.193H247.322V284.711H247.286C246.62 283.919 245.738 283.523 244.64 283.523C243.452 283.523 242.462 283.991 241.67 284.909C240.896 285.827 240.5 287.033 240.5 288.563C240.5 290.093 240.878 291.317 241.616 292.235C242.372 293.153 243.38 293.603 244.64 293.603C245.918 293.603 246.926 293.009 247.43 292.415H247.466V293.333H248.798ZM258.458 290.399C258.332 290.633 258.26 290.777 258.206 290.849C258.17 290.921 258.062 291.083 257.864 291.317C257.684 291.551 257.504 291.713 257.342 291.821C257 292.019 256.334 292.271 255.614 292.271C254.678 292.271 253.958 291.947 253.454 291.317C252.968 290.687 252.716 289.913 252.698 288.995H259.862V288.563C259.862 286.997 259.466 285.773 258.674 284.873C257.882 283.973 256.856 283.523 255.578 283.523C254.3 283.523 253.238 283.991 252.428 284.909C251.618 285.827 251.222 287.033 251.222 288.563C251.222 290.093 251.636 291.317 252.464 292.235C253.292 293.153 254.354 293.603 255.65 293.603C257.594 293.603 258.926 292.559 259.646 291.173L258.458 290.399ZM252.734 287.825C252.752 287.105 252.986 286.439 253.472 285.809C253.958 285.179 254.66 284.855 255.578 284.855C256.532 284.855 257.234 285.143 257.684 285.737C258.134 286.331 258.386 287.015 258.404 287.825H252.734ZM262.5 293.333L264.984 289.409H265.02L267.54 293.333H269.178L265.956 288.437L268.962 283.793H267.36L265.038 287.465H265.002L262.68 283.793H261.06L264.084 288.437L260.862 293.333H262.5Z" fill="white" fill-opacity="0.923487"/>
<g id="Oval">
<path id="Shape" fill-rule="evenodd" clip-rule="evenodd" d="M455.385 287.333C455.385 296.51 462.824 303.949 472 303.949C481.176 303.949 488.615 296.51 488.615 287.333C488.615 278.157 481.176 270.718 472 270.718C462.824 270.718 455.385 278.157 455.385 287.333ZM485.846 287.333C485.846 294.98 479.647 301.18 472 301.18C464.353 301.18 458.154 294.98 458.154 287.333C458.154 279.686 464.353 273.487 472 273.487C479.647 273.487 485.846 279.686 485.846 287.333ZM470.615 288.718V280.41C470.615 279.646 471.235 279.026 472 279.026C472.765 279.026 473.385 279.646 473.385 280.41V288.718C473.385 289.483 472.765 290.103 472 290.103C471.235 290.103 470.615 289.483 470.615 288.718ZM472 292.872C471.235 292.872 470.615 293.492 470.615 294.256C470.615 295.021 471.235 295.641 472 295.641C472.765 295.641 473.385 295.021 473.385 294.256C473.385 293.492 472.765 292.872 472 292.872Z" fill="white"/>
</g>
</g>
<g id="release-3">
<g id="release-bg-9 copy">
<rect id="Rectangle 2 Copy_2" x="15" y="183" width="482" height="54" rx="26" fill="#BC5090"/>
</g>
<path id="TypeError_2" d="M39.87 204.65H41.652C43.362 204.65 44.496 205.874 44.496 208.682C44.496 210.356 44.172 211.472 43.596 212.03C43.02 212.588 42.408 212.75 41.544 212.75H39.87V204.65ZM41.544 215C43.038 215 44.28 214.586 45.36 213.668C46.44 212.732 47.106 210.986 47.106 208.682C47.106 204.326 44.442 202.4 41.652 202.4H37.44V215H41.544ZM51.2522 212.408C50.8742 211.904 50.6762 211.184 50.6762 210.23C50.6762 209.276 50.8742 208.556 51.2522 208.052C51.6482 207.548 52.1702 207.296 52.8362 207.296C53.5022 207.296 54.0242 207.548 54.4022 208.07C54.7982 208.574 54.9962 209.294 54.9962 210.23C54.9962 211.166 54.7982 211.886 54.4202 212.408C54.0422 212.912 53.5022 213.164 52.8362 213.164C52.1702 213.164 51.6302 212.912 51.2522 212.408ZM48.3722 210.23C48.3722 211.814 48.7862 213.056 49.6322 213.938C50.4782 214.82 51.5402 215.27 52.8362 215.27C54.1322 215.27 55.1942 214.82 56.0402 213.938C56.8862 213.056 57.3002 211.814 57.3002 210.23C57.3002 208.664 56.8682 207.44 56.0042 206.54C55.1402 205.64 54.0782 205.19 52.8362 205.19C51.5942 205.19 50.5322 205.64 49.6682 206.54C48.8042 207.44 48.3722 208.664 48.3722 210.23ZM65.3895 211.706C64.7595 212.624 64.1295 213.2 63.0495 213.2C61.7715 213.2 61.0155 212.39 60.9435 210.932H67.3515V210.23C67.3515 208.7 66.9375 207.494 66.1095 206.576C65.2995 205.658 64.2555 205.19 62.9775 205.19C61.6995 205.19 60.6555 205.658 59.8095 206.576C58.9815 207.494 58.5675 208.7 58.5675 210.23C58.5675 211.76 58.9815 212.984 59.8275 213.902C60.6735 214.82 61.7535 215.27 63.0855 215.27C64.7415 215.27 66.0555 214.568 67.0275 213.146L65.3895 211.706ZM60.9435 209.186C61.0335 208.088 61.8255 207.242 62.9775 207.242C64.2195 207.242 64.9575 207.962 65.0835 209.186H60.9435ZM68.5146 211.85C68.6586 212.804 69.0906 213.614 69.7926 214.28C70.5126 214.946 71.5386 215.27 72.8526 215.27C74.1126 215.27 75.0666 214.964 75.7326 214.37C76.3986 213.758 76.7406 213.074 76.7406 212.3C76.7406 211.58 76.5426 210.986 76.1286 210.536C75.7326 210.068 74.9766 209.69 73.8606 209.384C72.5826 209.024 71.7906 208.772 71.4666 208.628C71.1606 208.466 70.9986 208.268 70.9986 207.998C70.9986 207.512 71.5746 207.116 72.4926 207.116C73.6626 207.116 74.2026 207.674 74.5446 208.592L76.4886 207.998C75.9486 206.126 74.6166 205.19 72.4746 205.19C71.3586 205.19 70.4766 205.478 69.8286 206.054C69.1986 206.63 68.8746 207.314 68.8746 208.106C68.8746 209.528 69.8646 210.284 72.0786 210.914C72.2046 210.95 72.3666 211.004 72.6006 211.058C73.4466 211.292 73.9866 211.49 74.2566 211.634C74.5266 211.76 74.6526 211.976 74.6526 212.246C74.6526 212.912 73.9146 213.308 72.7626 213.308C71.5026 213.308 70.7826 212.642 70.6206 211.31L68.5146 211.85ZM81.1434 215V206.738H81.1794L85.8414 215H88.2354V202.4H85.7874V210.662H85.7514L81.1434 202.4H78.7134V215H81.1434ZM93.1936 212.408C92.8156 211.904 92.6176 211.184 92.6176 210.23C92.6176 209.276 92.8156 208.556 93.1936 208.052C93.5896 207.548 94.1116 207.296 94.7776 207.296C95.4436 207.296 95.9656 207.548 96.3436 208.07C96.7396 208.574 96.9376 209.294 96.9376 210.23C96.9376 211.166 96.7396 211.886 96.3616 212.408C95.9836 212.912 95.4436 213.164 94.7776 213.164C94.1116 213.164 93.5716 212.912 93.1936 212.408ZM90.3136 210.23C90.3136 211.814 90.7276 213.056 91.5736 213.938C92.4196 214.82 93.4816 215.27 94.7776 215.27C96.0736 215.27 97.1356 214.82 97.9816 213.938C98.8276 213.056 99.2416 211.814 99.2416 210.23C99.2416 208.664 98.8096 207.44 97.9456 206.54C97.0816 205.64 96.0196 205.19 94.7776 205.19C93.5356 205.19 92.4736 205.64 91.6096 206.54C90.7456 207.44 90.3136 208.664 90.3136 210.23ZM101.625 211.598C101.625 212.786 101.859 213.65 102.345 214.19C102.831 214.73 103.713 215 104.991 215H105.981V212.75H105.207C104.181 212.75 103.929 212.39 103.929 211.382V207.44H106.305V205.46H103.893V203.12H101.679V205.46H100.149V207.44H101.625V211.598ZM116.254 215V212.75H110.71V209.636H115.75V207.476H110.71V204.65H116.254V202.4H108.28V215H116.254ZM119.928 215L122.196 211.58H122.232L124.5 215H127.002L123.69 210.068L126.804 205.46H124.374L122.232 208.664H122.196L120.054 205.46H117.624L120.738 210.068L117.426 215H119.928ZM130.778 215V205.46H128.438V215H130.778ZM130.778 204.074V201.86H128.438V204.074H130.778ZM132.569 211.85C132.713 212.804 133.145 213.614 133.847 214.28C134.567 214.946 135.593 215.27 136.907 215.27C138.167 215.27 139.121 214.964 139.787 214.37C140.453 213.758 140.795 213.074 140.795 212.3C140.795 211.58 140.597 210.986 140.183 210.536C139.787 210.068 139.031 209.69 137.915 209.384C136.637 209.024 135.845 208.772 135.521 208.628C135.215 208.466 135.053 208.268 135.053 207.998C135.053 207.512 135.629 207.116 136.547 207.116C137.717 207.116 138.257 207.674 138.599 208.592L140.543 207.998C140.003 206.126 138.671 205.19 136.529 205.19C135.413 205.19 134.531 205.478 133.883 206.054C133.253 206.63 132.929 207.314 132.929 208.106C132.929 209.528 133.919 210.284 136.133 210.914C136.259 210.95 136.421 211.004 136.655 211.058C137.501 211.292 138.041 211.49 138.311 211.634C138.581 211.76 138.707 211.976 138.707 212.246C138.707 212.912 137.969 213.308 136.817 213.308C135.557 213.308 134.837 212.642 134.675 211.31L132.569 211.85ZM143.074 211.598C143.074 212.786 143.308 213.65 143.794 214.19C144.28 214.73 145.162 215 146.44 215H147.43V212.75H146.656C145.63 212.75 145.378 212.39 145.378 211.382V207.44H147.754V205.46H145.342V203.12H143.128V205.46H141.598V207.44H143.074V211.598ZM155.903 215V205.46H154.427V215H155.903ZM156.011 203.534V201.86H154.319V203.534H156.011ZM160.541 215V208.916C160.541 207.422 161.513 206.54 163.007 206.54C164.465 206.54 165.203 207.422 165.203 209.204V215H166.661V208.736C166.661 206.558 165.293 205.19 163.223 205.19C162.143 205.19 161.063 205.676 160.541 206.378H160.505V205.46H159.065V215H160.541ZM173.986 215.702L180.466 202.058L179.44 201.59L172.96 215.27L173.986 215.702ZM189.196 215V208.574C189.196 206.252 187.828 205.19 185.614 205.19C183.616 205.19 182.32 206.342 182.014 208.016L183.346 208.394C183.616 207.134 184.39 206.504 185.668 206.504C187.018 206.504 187.666 207.116 187.666 207.926C187.594 208.502 187.396 208.772 186.622 209.078C186.064 209.276 185.794 209.348 184.93 209.564C182.608 210.158 181.726 210.968 181.726 212.552C181.726 214.118 182.842 215.27 184.948 215.27C186.46 215.27 187.504 214.586 187.864 213.956H187.9V215H189.196ZM185.272 210.698C186.73 210.284 187.558 209.906 187.72 209.564H187.756V211.94C187.756 213.074 186.784 213.956 185.056 213.956C183.796 213.956 183.166 213.452 183.166 212.462C183.166 211.616 183.634 211.148 185.272 210.698ZM193.553 208.844C193.553 208.25 193.769 207.728 194.219 207.242C194.669 206.756 195.263 206.522 196.001 206.522C197.873 206.522 198.953 207.908 198.953 210.23C198.953 212.588 197.891 213.938 196.001 213.938C195.299 213.938 194.723 213.74 194.255 213.326C193.787 212.912 193.553 212.426 193.553 211.868V208.844ZM193.553 219.05V214.082H193.589C194.003 214.658 195.083 215.27 196.253 215.27C197.495 215.27 198.485 214.82 199.259 213.902C200.033 212.984 200.411 211.76 200.411 210.23C200.411 208.7 200.015 207.494 199.223 206.576C198.431 205.658 197.441 205.19 196.253 205.19C195.011 205.19 194.003 205.784 193.517 206.378H193.481V205.46H192.077V219.05H193.553ZM204.419 215V205.46H202.943V215H204.419ZM204.527 203.534V201.86H202.835V203.534H204.527ZM207.437 215.702L213.917 202.058L212.891 201.59L206.411 215.27L207.437 215.702ZM217.283 208.844C217.283 208.25 217.499 207.728 217.949 207.242C218.399 206.756 218.993 206.522 219.731 206.522C221.603 206.522 222.683 207.908 222.683 210.23C222.683 212.588 221.621 213.938 219.731 213.938C219.029 213.938 218.453 213.74 217.985 213.326C217.517 212.912 217.283 212.426 217.283 211.868V208.844ZM217.283 219.05V214.082H217.319C217.733 214.658 218.813 215.27 219.983 215.27C221.225 215.27 222.215 214.82 222.989 213.902C223.763 212.984 224.141 211.76 224.141 210.23C224.141 208.7 223.745 207.494 222.953 206.576C222.161 205.658 221.171 205.19 219.983 205.19C218.741 205.19 217.733 205.784 217.247 206.378H217.211V205.46H215.807V219.05H217.283ZM228.041 215V209.33C228.041 207.548 228.563 206.792 229.787 206.792C230.111 206.792 230.363 206.846 230.543 206.936L230.813 205.478L230.723 205.424C230.579 205.37 230.273 205.298 229.985 205.298C229.211 205.298 228.383 205.712 228.005 206.486H227.969V205.46H226.565V215H228.041ZM236.232 213.938C234.558 213.938 233.352 212.606 233.352 210.23C233.352 207.854 234.558 206.522 236.232 206.522C237.87 206.522 239.04 207.908 239.04 210.23C239.04 212.552 237.834 213.938 236.232 213.938ZM236.232 215.27C237.474 215.27 238.482 214.82 239.292 213.938C240.102 213.056 240.498 211.814 240.498 210.23C240.498 208.664 240.084 207.44 239.256 206.54C238.446 205.64 237.438 205.19 236.232 205.19C235.026 205.19 234 205.64 233.154 206.54C232.308 207.44 231.894 208.664 231.894 210.23C231.894 211.814 232.308 213.056 233.118 213.938C233.928 214.82 234.972 215.27 236.232 215.27ZM242.444 218.51C243.758 218.51 244.442 217.862 244.442 216.134V205.46H242.966V216.098C242.966 216.89 242.714 217.106 242.156 217.106H241.85V218.51H242.444ZM244.514 203.534V201.86H242.84V203.534H244.514ZM254.177 212.066C254.051 212.3 253.979 212.444 253.925 212.516C253.889 212.588 253.781 212.75 253.583 212.984C253.403 213.218 253.223 213.38 253.061 213.488C252.719 213.686 252.053 213.938 251.333 213.938C250.397 213.938 249.677 213.614 249.173 212.984C248.687 212.354 248.435 211.58 248.417 210.662H255.581V210.23C255.581 208.664 255.185 207.44 254.393 206.54C253.601 205.64 252.575 205.19 251.297 205.19C250.019 205.19 248.957 205.658 248.147 206.576C247.337 207.494 246.941 208.7 246.941 210.23C246.941 211.76 247.355 212.984 248.183 213.902C249.011 214.82 250.073 215.27 251.369 215.27C253.313 215.27 254.645 214.226 255.365 212.84L254.177 212.066ZM248.453 209.492C248.471 208.772 248.705 208.106 249.191 207.476C249.677 206.846 250.379 206.522 251.297 206.522C252.251 206.522 252.953 206.81 253.403 207.404C253.853 207.998 254.105 208.682 254.123 209.492H248.453ZM264.276 211.346C264.186 212.048 263.916 212.66 263.466 213.182C263.016 213.686 262.44 213.938 261.738 213.938C259.938 213.938 258.84 212.534 258.84 210.23C258.84 207.908 259.992 206.522 261.72 206.522C263.16 206.522 263.952 207.548 264.24 208.97L265.626 208.682C265.464 207.656 265.032 206.81 264.312 206.162C263.61 205.514 262.746 205.19 261.72 205.19C260.478 205.19 259.452 205.64 258.624 206.558C257.796 207.458 257.382 208.682 257.382 210.23C257.382 211.796 257.778 213.038 258.588 213.938C259.398 214.82 260.442 215.27 261.72 215.27C263.826 215.27 265.392 213.848 265.698 211.634L264.276 211.346ZM268.374 212.228C268.374 214.082 269.13 215 270.93 215H271.722V213.578H271.002C270.066 213.578 269.832 213.182 269.832 212.048V206.774H272.172V205.46H269.814V203.12H268.41V205.46H267.042V206.774H268.374V212.228ZM273.623 211.76C273.839 213.83 275.153 215.27 277.673 215.27C278.879 215.27 279.797 215 280.391 214.442C281.003 213.884 281.309 213.236 281.309 212.48C281.291 211.706 281.057 211.112 280.589 210.662C280.139 210.212 279.293 209.798 278.051 209.456C276.881 209.114 276.143 208.862 275.819 208.664C275.495 208.466 275.333 208.178 275.333 207.782C275.333 207.062 276.035 206.45 277.277 206.45C278.519 206.45 279.329 207.062 279.707 208.268L280.985 207.926C280.571 206.27 279.365 205.19 277.277 205.19C276.251 205.19 275.441 205.46 274.847 205.982C274.253 206.504 273.965 207.116 273.965 207.818C273.965 209.204 274.811 209.924 277.169 210.572C278.303 210.878 279.041 211.166 279.383 211.4C279.743 211.634 279.923 211.994 279.923 212.48C279.923 213.398 279.167 213.992 277.655 213.992C276.071 213.992 275.188 213.164 275.009 211.49L273.623 211.76ZM283.497 215.702L289.977 202.058L288.951 201.59L282.471 215.27L283.497 215.702Z" fill="white" fill-opacity="0.923487"/>
<g id="Oval_2">
<path id="Shape_2" fill-rule="evenodd" clip-rule="evenodd" d="M451.385 209C451.385 218.176 458.824 225.615 468 225.615C477.176 225.615 484.615 218.176 484.615 209C484.615 199.824 477.176 192.385 468 192.385C458.824 192.385 451.385 199.824 451.385 209ZM481.846 209C481.846 216.647 475.647 222.846 468 222.846C460.353 222.846 454.154 216.647 454.154 209C454.154 201.353 460.353 195.154 468 195.154C475.647 195.154 481.846 201.353 481.846 209ZM466.615 210.385V202.077C466.615 201.312 467.235 200.692 468 200.692C468.765 200.692 469.385 201.312 469.385 202.077V210.385C469.385 211.149 468.765 211.769 468 211.769C467.235 211.769 466.615 211.149 466.615 210.385ZM468 214.538C467.235 214.538 466.615 215.158 466.615 215.923C466.615 216.688 467.235 217.308 468 217.308C468.765 217.308 469.385 216.688 469.385 215.923C469.385 215.158 468.765 214.538 468 214.538Z" fill="white"/>
</g>
</g>
<g id="release-2">
<g id="release-bg-9">
<rect id="Rectangle 2 Copy_3" x="15" y="101" width="482" height="54" rx="26" fill="#E8675B"/>
</g>
<path id="TypeError_3" d="M42.858 133L47.358 120.4H44.838L41.814 129.346H41.76L38.646 120.4H36.09L40.644 133H42.858ZM55.2928 133V126.952C55.2928 125.674 54.9148 124.72 54.1768 124.108C53.4388 123.496 52.4848 123.19 51.3148 123.19C49.1728 123.19 47.8408 124.324 47.3908 125.926L49.3348 126.736C49.6408 125.782 50.0728 125.17 51.3508 125.17C52.4308 125.17 52.9708 125.602 52.9708 126.178C52.9708 126.466 52.8268 126.682 52.5568 126.844C52.2868 127.006 51.6028 127.204 50.5048 127.474C48.1468 128.05 47.2648 128.788 47.2648 130.444C47.2648 132.028 48.3988 133.27 50.7028 133.27C52.6288 133.27 53.2948 132.1 53.2948 132.082H53.3308V133H55.2928ZM50.9728 129.094C52.1248 128.806 52.7548 128.518 52.8448 128.428C52.8988 128.374 52.9528 128.284 53.0068 128.194H53.0428V129.85C53.0428 130.642 52.3408 131.254 50.9188 131.254C49.9828 131.254 49.5148 130.93 49.5148 130.282C49.5148 129.778 49.7668 129.382 50.9728 129.094ZM60.063 133V119.86H57.633V133H60.063ZM62.5001 129.616C62.5001 131.848 63.5441 133.27 65.7581 133.27C66.8201 133.27 67.6481 132.874 68.2421 132.082H68.2781V133H70.5101V123.46H68.1701V129.184C68.1701 130.462 67.4141 131.02 66.2801 131.02C65.2721 131.02 64.8401 130.57 64.8401 129.364V123.46H62.5001V129.616ZM79.2235 129.706C78.5935 130.624 77.9635 131.2 76.8835 131.2C75.6055 131.2 74.8495 130.39 74.7775 128.932H81.1855V128.23C81.1855 126.7 80.7715 125.494 79.9435 124.576C79.1335 123.658 78.0895 123.19 76.8115 123.19C75.5335 123.19 74.4895 123.658 73.6435 124.576C72.8155 125.494 72.4015 126.7 72.4015 128.23C72.4015 129.76 72.8155 130.984 73.6615 131.902C74.5075 132.82 75.5875 133.27 76.9195 133.27C78.5755 133.27 79.8895 132.568 80.8615 131.146L79.2235 129.706ZM74.7775 127.186C74.8675 126.088 75.6595 125.242 76.8115 125.242C78.0535 125.242 78.7915 125.962 78.9175 127.186H74.7775ZM87.0363 133V122.65H90.7263V120.4H80.9163V122.65H84.6063V133H87.0363ZM92.9827 130.408C92.6047 129.904 92.4067 129.184 92.4067 128.23C92.4067 127.276 92.6047 126.556 92.9827 126.052C93.3787 125.548 93.9007 125.296 94.5667 125.296C95.2327 125.296 95.7547 125.548 96.1327 126.07C96.5287 126.574 96.7267 127.294 96.7267 128.23C96.7267 129.166 96.5287 129.886 96.1507 130.408C95.7727 130.912 95.2327 131.164 94.5667 131.164C93.9007 131.164 93.3607 130.912 92.9827 130.408ZM90.1027 128.23C90.1027 129.814 90.5167 131.056 91.3627 131.938C92.2087 132.82 93.2707 133.27 94.5667 133.27C95.8627 133.27 96.9247 132.82 97.7707 131.938C98.6167 131.056 99.0307 129.814 99.0307 128.23C99.0307 126.664 98.5987 125.44 97.7347 124.54C96.8707 123.64 95.8087 123.19 94.5667 123.19C93.3247 123.19 92.2627 123.64 91.3987 124.54C90.5347 125.44 90.1027 126.664 90.1027 128.23ZM103.178 130.408C102.8 129.904 102.602 129.184 102.602 128.23C102.602 127.276 102.8 126.556 103.178 126.052C103.574 125.548 104.096 125.296 104.762 125.296C105.428 125.296 105.95 125.548 106.328 126.07C106.724 126.574 106.922 127.294 106.922 128.23C106.922 129.166 106.724 129.886 106.346 130.408C105.968 130.912 105.428 131.164 104.762 131.164C104.096 131.164 103.556 130.912 103.178 130.408ZM100.298 128.23C100.298 129.814 100.712 131.056 101.558 131.938C102.404 132.82 103.466 133.27 104.762 133.27C106.058 133.27 107.12 132.82 107.966 131.938C108.812 131.056 109.226 129.814 109.226 128.23C109.226 126.664 108.794 125.44 107.93 124.54C107.066 123.64 106.004 123.19 104.762 123.19C103.52 123.19 102.458 123.64 101.594 124.54C100.73 125.44 100.298 126.664 100.298 128.23ZM118.935 133V130.75H113.733V120.4H111.303V133H118.935ZM127.855 133V126.952C127.855 125.674 127.477 124.72 126.739 124.108C126.001 123.496 125.047 123.19 123.877 123.19C121.735 123.19 120.403 124.324 119.953 125.926L121.897 126.736C122.203 125.782 122.635 125.17 123.913 125.17C124.993 125.17 125.533 125.602 125.533 126.178C125.533 126.466 125.389 126.682 125.119 126.844C124.849 127.006 124.165 127.204 123.067 127.474C120.709 128.05 119.827 128.788 119.827 130.444C119.827 132.028 120.961 133.27 123.265 133.27C125.191 133.27 125.857 132.1 125.857 132.082H125.893V133H127.855ZM123.535 129.094C124.687 128.806 125.317 128.518 125.407 128.428C125.461 128.374 125.515 128.284 125.569 128.194H125.605V129.85C125.605 130.642 124.903 131.254 123.481 131.254C122.545 131.254 122.077 130.93 122.077 130.282C122.077 129.778 122.329 129.382 123.535 129.094ZM132.536 133V127.762C132.536 126.304 133.076 125.584 134.174 125.584C134.408 125.584 134.642 125.638 134.912 125.728L135.272 123.46C135.002 123.334 134.714 123.28 134.408 123.28C133.562 123.28 132.806 123.748 132.446 124.468H132.41V123.46H130.196V133H132.536ZM142.555 129.202C142.555 130.3 141.745 131.164 140.503 131.164C139.135 131.164 138.163 130.12 138.163 128.23C138.163 126.34 139.117 125.296 140.503 125.296C141.745 125.296 142.555 126.16 142.555 127.24V129.202ZM136.507 134.944C137.137 136.384 138.541 137.32 140.539 137.32C141.817 137.32 142.861 136.942 143.671 136.204C144.481 135.466 144.895 134.386 144.895 133V123.46H142.663V124.378H142.627C142.033 123.586 141.205 123.19 140.107 123.19C138.955 123.19 137.947 123.64 137.101 124.558C136.255 125.458 135.823 126.682 135.823 128.23C135.823 129.796 136.237 131.038 137.065 131.938C137.893 132.82 138.919 133.27 140.143 133.27C141.169 133.27 142.159 132.73 142.519 132.082H142.555V133.288C142.555 134.674 141.763 135.286 140.539 135.286C139.441 135.286 138.811 134.818 138.253 133.738L136.507 134.944ZM153.509 129.706C152.879 130.624 152.249 131.2 151.169 131.2C149.891 131.2 149.135 130.39 149.063 128.932H155.471V128.23C155.471 126.7 155.057 125.494 154.229 124.576C153.419 123.658 152.375 123.19 151.097 123.19C149.819 123.19 148.775 123.658 147.929 124.576C147.101 125.494 146.687 126.7 146.687 128.23C146.687 129.76 147.101 130.984 147.947 131.902C148.793 132.82 149.873 133.27 151.205 133.27C152.861 133.27 154.175 132.568 155.147 131.146L153.509 129.706ZM149.063 127.186C149.153 126.088 149.945 125.242 151.097 125.242C152.339 125.242 153.077 125.962 153.203 127.186H149.063ZM163.708 133V123.46H162.232V133H163.708ZM163.816 121.534V119.86H162.124V121.534H163.816ZM168.346 133V126.916C168.346 125.422 169.318 124.54 170.812 124.54C172.27 124.54 173.008 125.422 173.008 127.204V133H174.466V126.736C174.466 124.558 173.098 123.19 171.028 123.19C169.948 123.19 168.868 123.676 168.346 124.378H168.31V123.46H166.87V133H168.346ZM181.79 133.702L188.27 120.058L187.244 119.59L180.764 133.27L181.79 133.702ZM197.001 133V126.574C197.001 124.252 195.633 123.19 193.419 123.19C191.421 123.19 190.125 124.342 189.819 126.016L191.151 126.394C191.421 125.134 192.195 124.504 193.473 124.504C194.823 124.504 195.471 125.116 195.471 125.926C195.399 126.502 195.201 126.772 194.427 127.078C193.869 127.276 193.599 127.348 192.735 127.564C190.413 128.158 189.531 128.968 189.531 130.552C189.531 132.118 190.647 133.27 192.753 133.27C194.265 133.27 195.309 132.586 195.669 131.956H195.705V133H197.001ZM193.077 128.698C194.535 128.284 195.363 127.906 195.525 127.564H195.561V129.94C195.561 131.074 194.589 131.956 192.861 131.956C191.601 131.956 190.971 131.452 190.971 130.462C190.971 129.616 191.439 129.148 193.077 128.698ZM201.358 126.844C201.358 126.25 201.574 125.728 202.024 125.242C202.474 124.756 203.068 124.522 203.806 124.522C205.678 124.522 206.758 125.908 206.758 128.23C206.758 130.588 205.696 131.938 203.806 131.938C203.104 131.938 202.528 131.74 202.06 131.326C201.592 130.912 201.358 130.426 201.358 129.868V126.844ZM201.358 137.05V132.082H201.394C201.808 132.658 202.888 133.27 204.058 133.27C205.3 133.27 206.29 132.82 207.064 131.902C207.838 130.984 208.216 129.76 208.216 128.23C208.216 126.7 207.82 125.494 207.028 124.576C206.236 123.658 205.246 123.19 204.058 123.19C202.816 123.19 201.808 123.784 201.322 124.378H201.286V123.46H199.882V137.05H201.358ZM212.115 126.844C212.115 126.25 212.331 125.728 212.781 125.242C213.231 124.756 213.825 124.522 214.563 124.522C216.435 124.522 217.515 125.908 217.515 128.23C217.515 130.588 216.453 131.938 214.563 131.938C213.861 131.938 213.285 131.74 212.817 131.326C212.349 130.912 212.115 130.426 212.115 129.868V126.844ZM212.115 137.05V132.082H212.151C212.565 132.658 213.645 133.27 214.815 133.27C216.057 133.27 217.047 132.82 217.821 131.902C218.595 130.984 218.973 129.76 218.973 128.23C218.973 126.7 218.577 125.494 217.785 124.576C216.993 123.658 216.003 123.19 214.815 123.19C213.573 123.19 212.565 123.784 212.079 124.378H212.043V123.46H210.639V137.05H212.115ZM221.253 133.702L227.733 120.058L226.707 119.59L220.227 133.27L221.253 133.702ZM231.208 133V123.46H229.732V133H231.208ZM231.316 121.534V119.86H229.624V121.534H231.316ZM235.846 133V126.916C235.846 125.422 236.818 124.54 238.312 124.54C239.77 124.54 240.508 125.422 240.508 127.204V133H241.966V126.736C241.966 124.558 240.598 123.19 238.528 123.19C237.448 123.19 236.368 123.676 235.846 124.378H235.81V123.46H234.37V133H235.846ZM251.126 129.832C251.126 130.39 250.892 130.894 250.424 131.308C249.956 131.722 249.38 131.938 248.678 131.938C246.788 131.938 245.78 130.588 245.78 128.23C245.78 125.872 246.788 124.522 248.678 124.522C249.416 124.522 250.01 124.774 250.46 125.26C250.91 125.746 251.126 126.286 251.126 126.88V129.832ZM252.602 133V119.86H251.126V124.378H251.09C250.424 123.586 249.542 123.19 248.444 123.19C247.256 123.19 246.266 123.658 245.474 124.576C244.7 125.494 244.304 126.7 244.304 128.23C244.304 129.76 244.682 130.984 245.42 131.902C246.176 132.82 247.184 133.27 248.444 133.27C249.722 133.27 250.73 132.676 251.234 132.082H251.27V133H252.602ZM262.263 130.066C262.137 130.3 262.065 130.444 262.011 130.516C261.975 130.588 261.867 130.75 261.669 130.984C261.489 131.218 261.309 131.38 261.147 131.488C260.805 131.686 260.139 131.938 259.419 131.938C258.483 131.938 257.763 131.614 257.259 130.984C256.773 130.354 256.521 129.58 256.503 128.662H263.667V128.23C263.667 126.664 263.271 125.44 262.479 124.54C261.687 123.64 260.661 123.19 259.383 123.19C258.105 123.19 257.043 123.658 256.233 124.576C255.423 125.494 255.027 126.7 255.027 128.23C255.027 129.76 255.441 130.984 256.269 131.902C257.097 132.82 258.159 133.27 259.455 133.27C261.399 133.27 262.731 132.226 263.451 130.84L262.263 130.066ZM256.539 127.492C256.557 126.772 256.791 126.106 257.277 125.476C257.763 124.846 258.465 124.522 259.383 124.522C260.337 124.522 261.039 124.81 261.489 125.404C261.939 125.998 262.191 126.682 262.209 127.492H256.539ZM266.305 133L268.789 129.076H268.825L271.345 133H272.983L269.761 128.104L272.767 123.46H271.165L268.843 127.132H268.807L266.485 123.46H264.865L267.889 128.104L264.667 133H266.305Z" fill="white" fill-opacity="0.923487"/>
<g id="Oval_3">
<path id="Shape_3" fill-rule="evenodd" clip-rule="evenodd" d="M451.385 127C451.385 136.176 458.824 143.615 468 143.615C477.176 143.615 484.615 136.176 484.615 127C484.615 117.824 477.176 110.385 468 110.385C458.824 110.385 451.385 117.824 451.385 127ZM481.846 127C481.846 134.647 475.647 140.846 468 140.846C460.353 140.846 454.154 134.647 454.154 127C454.154 119.353 460.353 113.154 468 113.154C475.647 113.154 481.846 119.353 481.846 127ZM466.615 128.385V120.077C466.615 119.312 467.235 118.692 468 118.692C468.765 118.692 469.385 119.312 469.385 120.077V128.385C469.385 129.149 468.765 129.769 468 129.769C467.235 129.769 466.615 129.149 466.615 128.385ZM468 132.538C467.235 132.538 466.615 133.158 466.615 133.923C466.615 134.688 467.235 135.308 468 135.308C468.765 135.308 469.385 134.688 469.385 133.923C469.385 133.158 468.765 132.538 468 132.538Z" fill="white"/>
</g>
</g>
<g id="release-1">
<g id="release-bg-4 copy">
<rect id="Rectangle 2 Copy_4" x="15" y="18" width="482" height="54" rx="26" fill="#FFA600"/>
</g>
<path id="TypeError_4" d="M42.3 50V39.65H45.99V37.4H36.18V39.65H39.87V50H42.3ZM49.2321 54.05L54.7221 40.46H52.3461L49.8801 46.922H49.8441L47.3781 40.46H45.0021L48.8181 49.532L46.9101 54.05H49.2321ZM58.4086 44.24C58.4086 43.16 59.2186 42.296 60.4606 42.296C61.8466 42.296 62.8006 43.34 62.8006 45.23C62.8006 47.12 61.8286 48.164 60.4606 48.164C59.2186 48.164 58.4086 47.3 58.4086 46.202V44.24ZM58.4086 54.05V49.082H58.4446L58.5166 49.208C58.7326 49.514 59.5066 50.27 60.9466 50.27C62.1166 50.27 63.1066 49.82 63.9166 48.92C64.7266 48.02 65.1406 46.796 65.1406 45.23C65.1406 43.682 64.7086 42.458 63.8626 41.558C63.0166 40.64 62.0446 40.19 60.9106 40.19C59.0566 40.208 58.3366 41.36 58.3366 41.378H58.3006V40.46H56.0686V54.05H58.4086ZM73.2293 46.706C72.5993 47.624 71.9693 48.2 70.8893 48.2C69.6113 48.2 68.8553 47.39 68.7833 45.932H75.1913V45.23C75.1913 43.7 74.7773 42.494 73.9493 41.576C73.1393 40.658 72.0953 40.19 70.8173 40.19C69.5393 40.19 68.4953 40.658 67.6493 41.576C66.8213 42.494 66.4073 43.7 66.4073 45.23C66.4073 46.76 66.8213 47.984 67.6673 48.902C68.5133 49.82 69.5933 50.27 70.9253 50.27C72.5813 50.27 73.8953 49.568 74.8673 48.146L73.2293 46.706ZM68.7833 44.186C68.8733 43.088 69.6653 42.242 70.8173 42.242C72.0593 42.242 72.7973 42.962 72.9233 44.186H68.7833ZM85.2285 50V47.75H79.6845V44.636H84.7245V42.476H79.6845V39.65H85.2285V37.4H77.2545V50H85.2285ZM89.8207 50V44.762C89.8207 43.304 90.3607 42.584 91.4587 42.584C91.6927 42.584 91.9267 42.638 92.1967 42.728L92.5567 40.46C92.2867 40.334 91.9987 40.28 91.6927 40.28C90.8467 40.28 90.0907 40.748 89.7307 41.468H89.6947V40.46H87.4807V50H89.8207ZM96.2543 50V44.762C96.2543 43.304 96.7943 42.584 97.8923 42.584C98.1263 42.584 98.3603 42.638 98.6303 42.728L98.9903 40.46C98.7203 40.334 98.4323 40.28 98.1263 40.28C97.2803 40.28 96.5243 40.748 96.1643 41.468H96.1283V40.46H93.9143V50H96.2543ZM102.422 47.408C102.044 46.904 101.846 46.184 101.846 45.23C101.846 44.276 102.044 43.556 102.422 43.052C102.818 42.548 103.34 42.296 104.006 42.296C104.672 42.296 105.194 42.548 105.572 43.07C105.968 43.574 106.166 44.294 106.166 45.23C106.166 46.166 105.968 46.886 105.59 47.408C105.212 47.912 104.672 48.164 104.006 48.164C103.34 48.164 102.8 47.912 102.422 47.408ZM99.5421 45.23C99.5421 46.814 99.9561 48.056 100.802 48.938C101.648 49.82 102.71 50.27 104.006 50.27C105.302 50.27 106.364 49.82 107.21 48.938C108.056 48.056 108.47 46.814 108.47 45.23C108.47 43.664 108.038 42.44 107.174 41.54C106.31 40.64 105.248 40.19 104.006 40.19C102.764 40.19 101.702 40.64 100.838 41.54C99.9741 42.44 99.5421 43.664 99.5421 45.23ZM112.707 50V44.762C112.707 43.304 113.247 42.584 114.345 42.584C114.579 42.584 114.813 42.638 115.083 42.728L115.443 40.46C115.173 40.334 114.885 40.28 114.579 40.28C113.733 40.28 112.977 40.748 112.617 41.468H112.581V40.46H110.367V50H112.707ZM123.331 50V40.46H121.855V50H123.331ZM123.439 38.534V36.86H121.747V38.534H123.439ZM127.969 50V43.916C127.969 42.422 128.941 41.54 130.435 41.54C131.893 41.54 132.631 42.422 132.631 44.204V50H134.089V43.736C134.089 41.558 132.721 40.19 130.651 40.19C129.571 40.19 128.491 40.676 127.969 41.378H127.933V40.46H126.493V50H127.969ZM141.413 50.702L147.893 37.058L146.867 36.59L140.387 50.27L141.413 50.702ZM156.624 50V43.574C156.624 41.252 155.256 40.19 153.042 40.19C151.044 40.19 149.748 41.342 149.442 43.016L150.774 43.394C151.044 42.134 151.818 41.504 153.096 41.504C154.446 41.504 155.094 42.116 155.094 42.926C155.022 43.502 154.824 43.772 154.05 44.078C153.492 44.276 153.222 44.348 152.358 44.564C150.036 45.158 149.154 45.968 149.154 47.552C149.154 49.118 150.27 50.27 152.376 50.27C153.888 50.27 154.932 49.586 155.292 48.956H155.328V50H156.624ZM152.7 45.698C154.158 45.284 154.986 44.906 155.148 44.564H155.184V46.94C155.184 48.074 154.212 48.956 152.484 48.956C151.224 48.956 150.594 48.452 150.594 47.462C150.594 46.616 151.062 46.148 152.7 45.698ZM160.981 43.844C160.981 43.25 161.197 42.728 161.647 42.242C162.097 41.756 162.691 41.522 163.429 41.522C165.301 41.522 166.381 42.908 166.381 45.23C166.381 47.588 165.319 48.938 163.429 48.938C162.727 48.938 162.151 48.74 161.683 48.326C161.215 47.912 160.981 47.426 160.981 46.868V43.844ZM160.981 54.05V49.082H161.017C161.431 49.658 162.511 50.27 163.681 50.27C164.923 50.27 165.913 49.82 166.687 48.902C167.461 47.984 167.839 46.76 167.839 45.23C167.839 43.7 167.443 42.494 166.651 41.576C165.859 40.658 164.869 40.19 163.681 40.19C162.439 40.19 161.431 40.784 160.945 41.378H160.909V40.46H159.505V54.05H160.981ZM171.846 50V40.46H170.37V50H171.846ZM171.954 38.534V36.86H170.262V38.534H171.954ZM174.865 50.702L181.345 37.058L180.319 36.59L173.839 50.27L174.865 50.702ZM184.711 43.844C184.711 43.25 184.927 42.728 185.377 42.242C185.827 41.756 186.421 41.522 187.159 41.522C189.031 41.522 190.111 42.908 190.111 45.23C190.111 47.588 189.049 48.938 187.159 48.938C186.457 48.938 185.881 48.74 185.413 48.326C184.945 47.912 184.711 47.426 184.711 46.868V43.844ZM184.711 54.05V49.082H184.747C185.161 49.658 186.241 50.27 187.411 50.27C188.653 50.27 189.643 49.82 190.417 48.902C191.191 47.984 191.569 46.76 191.569 45.23C191.569 43.7 191.173 42.494 190.381 41.576C189.589 40.658 188.599 40.19 187.411 40.19C186.169 40.19 185.161 40.784 184.675 41.378H184.639V40.46H183.235V54.05H184.711ZM195.469 50V44.33C195.469 42.548 195.991 41.792 197.215 41.792C197.539 41.792 197.791 41.846 197.971 41.936L198.241 40.478L198.151 40.424C198.007 40.37 197.701 40.298 197.413 40.298C196.639 40.298 195.811 40.712 195.433 41.486H195.397V40.46H193.993V50H195.469ZM203.66 48.938C201.986 48.938 200.78 47.606 200.78 45.23C200.78 42.854 201.986 41.522 203.66 41.522C205.298 41.522 206.468 42.908 206.468 45.23C206.468 47.552 205.262 48.938 203.66 48.938ZM203.66 50.27C204.902 50.27 205.91 49.82 206.72 48.938C207.53 48.056 207.926 46.814 207.926 45.23C207.926 43.664 207.512 42.44 206.684 41.54C205.874 40.64 204.866 40.19 203.66 40.19C202.454 40.19 201.428 40.64 200.582 41.54C199.736 42.44 199.322 43.664 199.322 45.23C199.322 46.814 199.736 48.056 200.546 48.938C201.356 49.82 202.4 50.27 203.66 50.27ZM209.872 53.51C211.186 53.51 211.87 52.862 211.87 51.134V40.46H210.394V51.098C210.394 51.89 210.142 52.106 209.584 52.106H209.278V53.51H209.872ZM211.942 38.534V36.86H210.268V38.534H211.942ZM221.605 47.066C221.479 47.3 221.407 47.444 221.353 47.516C221.317 47.588 221.209 47.75 221.011 47.984C220.831 48.218 220.651 48.38 220.489 48.488C220.147 48.686 219.481 48.938 218.761 48.938C217.825 48.938 217.105 48.614 216.601 47.984C216.115 47.354 215.863 46.58 215.845 45.662H223.009V45.23C223.009 43.664 222.613 42.44 221.821 41.54C221.029 40.64 220.003 40.19 218.725 40.19C217.447 40.19 216.385 40.658 215.575 41.576C214.765 42.494 214.369 43.7 214.369 45.23C214.369 46.76 214.783 47.984 215.611 48.902C216.439 49.82 217.501 50.27 218.797 50.27C220.741 50.27 222.073 49.226 222.793 47.84L221.605 47.066ZM215.881 44.492C215.899 43.772 216.133 43.106 216.619 42.476C217.105 41.846 217.807 41.522 218.725 41.522C219.679 41.522 220.381 41.81 220.831 42.404C221.281 42.998 221.533 43.682 221.551 44.492H215.881ZM231.704 46.346C231.614 47.048 231.344 47.66 230.894 48.182C230.444 48.686 229.868 48.938 229.166 48.938C227.366 48.938 226.268 47.534 226.268 45.23C226.268 42.908 227.42 41.522 229.148 41.522C230.588 41.522 231.38 42.548 231.668 43.97L233.054 43.682C232.892 42.656 232.46 41.81 231.74 41.162C231.038 40.514 230.174 40.19 229.148 40.19C227.906 40.19 226.88 40.64 226.052 41.558C225.224 42.458 224.81 43.682 224.81 45.23C224.81 46.796 225.206 48.038 226.016 48.938C226.826 49.82 227.87 50.27 229.148 50.27C231.254 50.27 232.82 48.848 233.126 46.634L231.704 46.346ZM235.802 47.228C235.802 49.082 236.558 50 238.358 50H239.15V48.578H238.43C237.494 48.578 237.26 48.182 237.26 47.048V41.774H239.6V40.46H237.242V38.12H235.838V40.46H234.47V41.774H235.802V47.228ZM241.05 46.76C241.266 48.83 242.58 50.27 245.1 50.27C246.306 50.27 247.224 50 247.818 49.442C248.43 48.884 248.736 48.236 248.736 47.48C248.718 46.706 248.484 46.112 248.016 45.662C247.566 45.212 246.72 44.798 245.478 44.456C244.308 44.114 243.57 43.862 243.246 43.664C242.922 43.466 242.76 43.178 242.76 42.782C242.76 42.062 243.462 41.45 244.704 41.45C245.946 41.45 246.756 42.062 247.134 43.268L248.412 42.926C247.998 41.27 246.792 40.19 244.704 40.19C243.678 40.19 242.868 40.46 242.274 40.982C241.68 41.504 241.392 42.116 241.392 42.818C241.392 44.204 242.238 44.924 244.596 45.572C245.73 45.878 246.468 46.166 246.81 46.4C247.17 46.634 247.35 46.994 247.35 47.48C247.35 48.398 246.594 48.992 245.082 48.992C243.498 48.992 242.616 48.164 242.436 46.49L241.05 46.76ZM250.925 50.702L257.405 37.058L256.379 36.59L249.899 50.27L250.925 50.702Z" fill="white" fill-opacity="0.923487"/>
<g id="Oval_4">
<path id="Shape_4" fill-rule="evenodd" clip-rule="evenodd" d="M451.385 44C451.385 53.1764 458.824 60.6154 468 60.6154C477.176 60.6154 484.615 53.1764 484.615 44C484.615 34.8236 477.176 27.3846 468 27.3846C458.824 27.3846 451.385 34.8236 451.385 44ZM481.846 44C481.846 51.647 475.647 57.8461 468 57.8461C460.353 57.8461 454.154 51.647 454.154 44C454.154 36.353 460.353 30.1538 468 30.1538C475.647 30.1538 481.846 36.353 481.846 44ZM466.615 45.3846V37.0769C466.615 36.3122 467.235 35.6923 468 35.6923C468.765 35.6923 469.385 36.3122 469.385 37.0769V45.3846C469.385 46.1493 468.765 46.7692 468 46.7692C467.235 46.7692 466.615 46.1493 466.615 45.3846ZM468 49.5385C467.235 49.5385 466.615 50.1584 466.615 50.9231C466.615 51.6878 467.235 52.3077 468 52.3077C468.765 52.3077 469.385 51.6878 469.385 50.9231C469.385 50.1584 468.765 49.5385 468 49.5385Z" fill="white"/>
</g>
</g>
</g>
</svg>
