<svg width="510" height="327" viewBox="0 0 510 327" fill="none" xmlns="http://www.w3.org/2000/svg">
<g id="resolution">
<rect width="510" height="327" fill="white"/>
<g id="release-4">
<g id="release-bg-8 copy">
<rect id="rectangle-4" x="29" y="252" width="448" height="50" rx="25" fill="#4C416B"/>
</g>
<path id="TypeError" d="M52.3887 273.65H54.1707C55.8807 273.65 57.0147 274.874 57.0147 277.682C57.0147 279.356 56.6907 280.472 56.1147 281.03C55.5387 281.588 54.9267 281.75 54.0627 281.75H52.3887V273.65ZM54.0627 284C55.5567 284 56.7987 283.586 57.8787 282.668C58.9587 281.732 59.6247 279.986 59.6247 277.682C59.6247 273.326 56.9607 271.4 54.1707 271.4H49.9587V284H54.0627ZM63.7709 281.408C63.3929 280.904 63.1949 280.184 63.1949 279.23C63.1949 278.276 63.3929 277.556 63.7709 277.052C64.1669 276.548 64.6889 276.296 65.3549 276.296C66.0209 276.296 66.5429 276.548 66.9209 277.07C67.3169 277.574 67.5149 278.294 67.5149 279.23C67.5149 280.166 67.3169 280.886 66.9389 281.408C66.5609 281.912 66.0209 282.164 65.3549 282.164C64.6889 282.164 64.1489 281.912 63.7709 281.408ZM60.8909 279.23C60.8909 280.814 61.3049 282.056 62.1509 282.938C62.9969 283.82 64.0589 284.27 65.3549 284.27C66.6509 284.27 67.7129 283.82 68.5589 282.938C69.4049 282.056 69.8189 280.814 69.8189 279.23C69.8189 277.664 69.3869 276.44 68.5229 275.54C67.6589 274.64 66.5969 274.19 65.3549 274.19C64.1129 274.19 63.0509 274.64 62.1869 275.54C61.3229 276.44 60.8909 277.664 60.8909 279.23ZM77.9082 280.706C77.2782 281.624 76.6482 282.2 75.5682 282.2C74.2902 282.2 73.5342 281.39 73.4622 279.932H79.8702V279.23C79.8702 277.7 79.4562 276.494 78.6282 275.576C77.8182 274.658 76.7742 274.19 75.4962 274.19C74.2182 274.19 73.1742 274.658 72.3282 275.576C71.5002 276.494 71.0862 277.7 71.0862 279.23C71.0862 280.76 71.5002 281.984 72.3462 282.902C73.1922 283.82 74.2722 284.27 75.6042 284.27C77.2602 284.27 78.5742 283.568 79.5462 282.146L77.9082 280.706ZM73.4622 278.186C73.5522 277.088 74.3442 276.242 75.4962 276.242C76.7382 276.242 77.4762 276.962 77.6022 278.186H73.4622ZM81.0333 280.85C81.1773 281.804 81.6093 282.614 82.3113 283.28C83.0313 283.946 84.0573 284.27 85.3713 284.27C86.6313 284.27 87.5853 283.964 88.2513 283.37C88.9173 282.758 89.2593 282.074 89.2593 281.3C89.2593 280.58 89.0613 279.986 88.6473 279.536C88.2513 279.068 87.4953 278.69 86.3793 278.384C85.1013 278.024 84.3093 277.772 83.9853 277.628C83.6793 277.466 83.5173 277.268 83.5173 276.998C83.5173 276.512 84.0933 276.116 85.0113 276.116C86.1813 276.116 86.7213 276.674 87.0633 277.592L89.0073 276.998C88.4673 275.126 87.1353 274.19 84.9933 274.19C83.8773 274.19 82.9953 274.478 82.3473 275.054C81.7173 275.63 81.3933 276.314 81.3933 277.106C81.3933 278.528 82.3833 279.284 84.5973 279.914C84.7233 279.95 84.8853 280.004 85.1193 280.058C85.9653 280.292 86.5053 280.49 86.7753 280.634C87.0453 280.76 87.1713 280.976 87.1713 281.246C87.1713 281.912 86.4333 282.308 85.2813 282.308C84.0213 282.308 83.3013 281.642 83.1393 280.31L81.0333 280.85ZM93.6621 284V275.738H93.6981L98.3601 284H100.754V271.4H98.3061V279.662H98.2701L93.6621 271.4H91.2321V284H93.6621ZM105.712 281.408C105.334 280.904 105.136 280.184 105.136 279.23C105.136 278.276 105.334 277.556 105.712 277.052C106.108 276.548 106.63 276.296 107.296 276.296C107.962 276.296 108.484 276.548 108.862 277.07C109.258 277.574 109.456 278.294 109.456 279.23C109.456 280.166 109.258 280.886 108.88 281.408C108.502 281.912 107.962 282.164 107.296 282.164C106.63 282.164 106.09 281.912 105.712 281.408ZM102.832 279.23C102.832 280.814 103.246 282.056 104.092 282.938C104.938 283.82 106 284.27 107.296 284.27C108.592 284.27 109.654 283.82 110.5 282.938C111.346 282.056 111.76 280.814 111.76 279.23C111.76 277.664 111.328 276.44 110.464 275.54C109.6 274.64 108.538 274.19 107.296 274.19C106.054 274.19 104.992 274.64 104.128 275.54C103.264 276.44 102.832 277.664 102.832 279.23ZM114.144 280.598C114.144 281.786 114.378 282.65 114.864 283.19C115.35 283.73 116.232 284 117.51 284H118.5V281.75H117.726C116.7 281.75 116.448 281.39 116.448 280.382V276.44H118.824V274.46H116.412V272.12H114.198V274.46H112.668V276.44H114.144V280.598ZM128.773 284V281.75H123.229V278.636H128.269V276.476H123.229V273.65H128.773V271.4H120.799V284H128.773ZM132.447 284L134.715 280.58H134.751L137.019 284H139.521L136.209 279.068L139.323 274.46H136.893L134.751 277.664H134.715L132.573 274.46H130.143L133.257 279.068L129.945 284H132.447ZM143.296 284V274.46H140.956V284H143.296ZM143.296 273.074V270.86H140.956V273.074H143.296ZM145.088 280.85C145.232 281.804 145.664 282.614 146.366 283.28C147.086 283.946 148.112 284.27 149.426 284.27C150.686 284.27 151.64 283.964 152.306 283.37C152.972 282.758 153.314 282.074 153.314 281.3C153.314 280.58 153.116 279.986 152.702 279.536C152.306 279.068 151.55 278.69 150.434 278.384C149.156 278.024 148.364 277.772 148.04 277.628C147.734 277.466 147.572 277.268 147.572 276.998C147.572 276.512 148.148 276.116 149.066 276.116C150.236 276.116 150.776 276.674 151.118 277.592L153.062 276.998C152.522 275.126 151.19 274.19 149.048 274.19C147.932 274.19 147.05 274.478 146.402 275.054C145.772 275.63 145.448 276.314 145.448 277.106C145.448 278.528 146.438 279.284 148.652 279.914C148.778 279.95 148.94 280.004 149.174 280.058C150.02 280.292 150.56 280.49 150.83 280.634C151.1 280.76 151.226 280.976 151.226 281.246C151.226 281.912 150.488 282.308 149.336 282.308C148.076 282.308 147.356 281.642 147.194 280.31L145.088 280.85ZM155.593 280.598C155.593 281.786 155.827 282.65 156.313 283.19C156.799 283.73 157.681 284 158.959 284H159.949V281.75H159.175C158.149 281.75 157.897 281.39 157.897 280.382V276.44H160.273V274.46H157.861V272.12H155.647V274.46H154.117V276.44H155.593V280.598ZM168.422 284V274.46H166.946V284H168.422ZM168.53 272.534V270.86H166.838V272.534H168.53ZM173.06 284V277.916C173.06 276.422 174.032 275.54 175.526 275.54C176.984 275.54 177.722 276.422 177.722 278.204V284H179.18V277.736C179.18 275.558 177.812 274.19 175.742 274.19C174.662 274.19 173.582 274.676 173.06 275.378H173.024V274.46H171.584V284H173.06ZM186.504 284.702L192.984 271.058L191.958 270.59L185.478 284.27L186.504 284.702ZM201.715 284V277.574C201.715 275.252 200.347 274.19 198.133 274.19C196.135 274.19 194.839 275.342 194.533 277.016L195.865 277.394C196.135 276.134 196.909 275.504 198.187 275.504C199.537 275.504 200.185 276.116 200.185 276.926C200.113 277.502 199.915 277.772 199.141 278.078C198.583 278.276 198.313 278.348 197.449 278.564C195.127 279.158 194.245 279.968 194.245 281.552C194.245 283.118 195.361 284.27 197.467 284.27C198.979 284.27 200.023 283.586 200.383 282.956H200.419V284H201.715ZM197.791 279.698C199.249 279.284 200.077 278.906 200.239 278.564H200.275V280.94C200.275 282.074 199.303 282.956 197.575 282.956C196.315 282.956 195.685 282.452 195.685 281.462C195.685 280.616 196.153 280.148 197.791 279.698ZM206.072 277.844C206.072 277.25 206.288 276.728 206.738 276.242C207.188 275.756 207.782 275.522 208.52 275.522C210.392 275.522 211.472 276.908 211.472 279.23C211.472 281.588 210.41 282.938 208.52 282.938C207.818 282.938 207.242 282.74 206.774 282.326C206.306 281.912 206.072 281.426 206.072 280.868V277.844ZM206.072 288.05V283.082H206.108C206.522 283.658 207.602 284.27 208.772 284.27C210.014 284.27 211.004 283.82 211.778 282.902C212.552 281.984 212.93 280.76 212.93 279.23C212.93 277.7 212.534 276.494 211.742 275.576C210.95 274.658 209.96 274.19 208.772 274.19C207.53 274.19 206.522 274.784 206.036 275.378H206V274.46H204.596V288.05H206.072ZM216.829 277.844C216.829 277.25 217.045 276.728 217.495 276.242C217.945 275.756 218.539 275.522 219.277 275.522C221.149 275.522 222.229 276.908 222.229 279.23C222.229 281.588 221.167 282.938 219.277 282.938C218.575 282.938 217.999 282.74 217.531 282.326C217.063 281.912 216.829 281.426 216.829 280.868V277.844ZM216.829 288.05V283.082H216.865C217.279 283.658 218.359 284.27 219.529 284.27C220.771 284.27 221.761 283.82 222.535 282.902C223.309 281.984 223.687 280.76 223.687 279.23C223.687 277.7 223.291 276.494 222.499 275.576C221.707 274.658 220.717 274.19 219.529 274.19C218.287 274.19 217.279 274.784 216.793 275.378H216.757V274.46H215.353V288.05H216.829ZM225.967 284.702L232.447 271.058L231.421 270.59L224.941 284.27L225.967 284.702ZM235.922 284V274.46H234.446V284H235.922ZM236.03 272.534V270.86H234.338V272.534H236.03ZM240.56 284V277.916C240.56 276.422 241.532 275.54 243.026 275.54C244.484 275.54 245.222 276.422 245.222 278.204V284H246.68V277.736C246.68 275.558 245.312 274.19 243.242 274.19C242.162 274.19 241.082 274.676 240.56 275.378H240.524V274.46H239.084V284H240.56ZM255.84 280.832C255.84 281.39 255.606 281.894 255.138 282.308C254.67 282.722 254.094 282.938 253.392 282.938C251.502 282.938 250.494 281.588 250.494 279.23C250.494 276.872 251.502 275.522 253.392 275.522C254.13 275.522 254.724 275.774 255.174 276.26C255.624 276.746 255.84 277.286 255.84 277.88V280.832ZM257.316 284V270.86H255.84V275.378H255.804C255.138 274.586 254.256 274.19 253.158 274.19C251.97 274.19 250.98 274.658 250.188 275.576C249.414 276.494 249.018 277.7 249.018 279.23C249.018 280.76 249.396 281.984 250.134 282.902C250.89 283.82 251.898 284.27 253.158 284.27C254.436 284.27 255.444 283.676 255.948 283.082H255.984V284H257.316ZM266.977 281.066C266.851 281.3 266.779 281.444 266.725 281.516C266.689 281.588 266.581 281.75 266.383 281.984C266.203 282.218 266.023 282.38 265.861 282.488C265.519 282.686 264.853 282.938 264.133 282.938C263.197 282.938 262.477 282.614 261.973 281.984C261.487 281.354 261.235 280.58 261.217 279.662H268.381V279.23C268.381 277.664 267.985 276.44 267.193 275.54C266.401 274.64 265.375 274.19 264.097 274.19C262.819 274.19 261.757 274.658 260.947 275.576C260.137 276.494 259.741 277.7 259.741 279.23C259.741 280.76 260.155 281.984 260.983 282.902C261.811 283.82 262.873 284.27 264.169 284.27C266.113 284.27 267.445 283.226 268.165 281.84L266.977 281.066ZM261.253 278.492C261.271 277.772 261.505 277.106 261.991 276.476C262.477 275.846 263.179 275.522 264.097 275.522C265.051 275.522 265.753 275.81 266.203 276.404C266.653 276.998 266.905 277.682 266.923 278.492H261.253ZM271.019 284L273.503 280.076H273.539L276.059 284H277.697L274.475 279.104L277.481 274.46H275.879L273.557 278.132H273.521L271.199 274.46H269.579L272.603 279.104L269.381 284H271.019Z" fill="white" fill-opacity="0.923487"/>
<g id="exclamation-4">
<path id="Shape" fill-rule="evenodd" clip-rule="evenodd" d="M431.385 276C431.385 285.176 438.824 292.615 448 292.615C457.176 292.615 464.615 285.176 464.615 276C464.615 266.824 457.176 259.385 448 259.385C438.824 259.385 431.385 266.824 431.385 276ZM461.846 276C461.846 283.647 455.647 289.846 448 289.846C440.353 289.846 434.154 283.647 434.154 276C434.154 268.353 440.353 262.154 448 262.154C455.647 262.154 461.846 268.353 461.846 276ZM446.615 277.385V269.077C446.615 268.312 447.235 267.692 448 267.692C448.765 267.692 449.385 268.312 449.385 269.077V277.385C449.385 278.149 448.765 278.769 448 278.769C447.235 278.769 446.615 278.149 446.615 277.385ZM448 281.538C447.235 281.538 446.615 282.158 446.615 282.923C446.615 283.688 447.235 284.308 448 284.308C448.765 284.308 449.385 283.688 449.385 282.923C449.385 282.158 448.765 281.538 448 281.538Z" fill="white"/>
</g>
<g id="checkmark-4" opacity="0.01">
<g id="icon-circle-check">
<path id="Shape_2" fill-rule="evenodd" clip-rule="evenodd" d="M448 292.615C438.824 292.615 431.385 285.176 431.385 276C431.385 266.824 438.824 259.385 448 259.385C457.176 259.385 464.615 266.824 464.615 276C464.615 285.176 457.176 292.615 448 292.615ZM448 289.846C455.647 289.846 461.846 283.647 461.846 276C461.846 268.353 455.647 262.154 448 262.154C440.353 262.154 434.154 268.353 434.154 276C434.154 283.647 440.353 289.846 448 289.846ZM454.29 270.982L445.577 279.696L441.825 275.944C441.285 275.403 440.408 275.403 439.867 275.944C439.326 276.485 439.326 277.361 439.867 277.902L444.598 282.633C445.139 283.174 446.015 283.174 446.556 282.633L456.248 272.941C456.789 272.4 456.789 271.523 456.248 270.982C455.708 270.442 454.831 270.442 454.29 270.982Z" fill="white"/>
</g>
</g>
</g>
<g id="release-3">
<g id="release-bg-9 copy">
<rect id="rectangle-3" x="29" y="179" width="448" height="50" rx="25" fill="#BC5090"/>
</g>
<path id="TypeError_2" d="M52.3887 200.65H54.1707C55.8807 200.65 57.0147 201.874 57.0147 204.682C57.0147 206.356 56.6907 207.472 56.1147 208.03C55.5387 208.588 54.9267 208.75 54.0627 208.75H52.3887V200.65ZM54.0627 211C55.5567 211 56.7987 210.586 57.8787 209.668C58.9587 208.732 59.6247 206.986 59.6247 204.682C59.6247 200.326 56.9607 198.4 54.1707 198.4H49.9587V211H54.0627ZM63.7709 208.408C63.3929 207.904 63.1949 207.184 63.1949 206.23C63.1949 205.276 63.3929 204.556 63.7709 204.052C64.1669 203.548 64.6889 203.296 65.3549 203.296C66.0209 203.296 66.5429 203.548 66.9209 204.07C67.3169 204.574 67.5149 205.294 67.5149 206.23C67.5149 207.166 67.3169 207.886 66.9389 208.408C66.5609 208.912 66.0209 209.164 65.3549 209.164C64.6889 209.164 64.1489 208.912 63.7709 208.408ZM60.8909 206.23C60.8909 207.814 61.3049 209.056 62.1509 209.938C62.9969 210.82 64.0589 211.27 65.3549 211.27C66.6509 211.27 67.7129 210.82 68.5589 209.938C69.4049 209.056 69.8189 207.814 69.8189 206.23C69.8189 204.664 69.3869 203.44 68.5229 202.54C67.6589 201.64 66.5969 201.19 65.3549 201.19C64.1129 201.19 63.0509 201.64 62.1869 202.54C61.3229 203.44 60.8909 204.664 60.8909 206.23ZM77.9082 207.706C77.2782 208.624 76.6482 209.2 75.5682 209.2C74.2902 209.2 73.5342 208.39 73.4622 206.932H79.8702V206.23C79.8702 204.7 79.4562 203.494 78.6282 202.576C77.8182 201.658 76.7742 201.19 75.4962 201.19C74.2182 201.19 73.1742 201.658 72.3282 202.576C71.5002 203.494 71.0862 204.7 71.0862 206.23C71.0862 207.76 71.5002 208.984 72.3462 209.902C73.1922 210.82 74.2722 211.27 75.6042 211.27C77.2602 211.27 78.5742 210.568 79.5462 209.146L77.9082 207.706ZM73.4622 205.186C73.5522 204.088 74.3442 203.242 75.4962 203.242C76.7382 203.242 77.4762 203.962 77.6022 205.186H73.4622ZM81.0333 207.85C81.1773 208.804 81.6093 209.614 82.3113 210.28C83.0313 210.946 84.0573 211.27 85.3713 211.27C86.6313 211.27 87.5853 210.964 88.2513 210.37C88.9173 209.758 89.2593 209.074 89.2593 208.3C89.2593 207.58 89.0613 206.986 88.6473 206.536C88.2513 206.068 87.4953 205.69 86.3793 205.384C85.1013 205.024 84.3093 204.772 83.9853 204.628C83.6793 204.466 83.5173 204.268 83.5173 203.998C83.5173 203.512 84.0933 203.116 85.0113 203.116C86.1813 203.116 86.7213 203.674 87.0633 204.592L89.0073 203.998C88.4673 202.126 87.1353 201.19 84.9933 201.19C83.8773 201.19 82.9953 201.478 82.3473 202.054C81.7173 202.63 81.3933 203.314 81.3933 204.106C81.3933 205.528 82.3833 206.284 84.5973 206.914C84.7233 206.95 84.8853 207.004 85.1193 207.058C85.9653 207.292 86.5053 207.49 86.7753 207.634C87.0453 207.76 87.1713 207.976 87.1713 208.246C87.1713 208.912 86.4333 209.308 85.2813 209.308C84.0213 209.308 83.3013 208.642 83.1393 207.31L81.0333 207.85ZM93.6621 211V202.738H93.6981L98.3601 211H100.754V198.4H98.3061V206.662H98.2701L93.6621 198.4H91.2321V211H93.6621ZM105.712 208.408C105.334 207.904 105.136 207.184 105.136 206.23C105.136 205.276 105.334 204.556 105.712 204.052C106.108 203.548 106.63 203.296 107.296 203.296C107.962 203.296 108.484 203.548 108.862 204.07C109.258 204.574 109.456 205.294 109.456 206.23C109.456 207.166 109.258 207.886 108.88 208.408C108.502 208.912 107.962 209.164 107.296 209.164C106.63 209.164 106.09 208.912 105.712 208.408ZM102.832 206.23C102.832 207.814 103.246 209.056 104.092 209.938C104.938 210.82 106 211.27 107.296 211.27C108.592 211.27 109.654 210.82 110.5 209.938C111.346 209.056 111.76 207.814 111.76 206.23C111.76 204.664 111.328 203.44 110.464 202.54C109.6 201.64 108.538 201.19 107.296 201.19C106.054 201.19 104.992 201.64 104.128 202.54C103.264 203.44 102.832 204.664 102.832 206.23ZM114.144 207.598C114.144 208.786 114.378 209.65 114.864 210.19C115.35 210.73 116.232 211 117.51 211H118.5V208.75H117.726C116.7 208.75 116.448 208.39 116.448 207.382V203.44H118.824V201.46H116.412V199.12H114.198V201.46H112.668V203.44H114.144V207.598ZM128.773 211V208.75H123.229V205.636H128.269V203.476H123.229V200.65H128.773V198.4H120.799V211H128.773ZM132.447 211L134.715 207.58H134.751L137.019 211H139.521L136.209 206.068L139.323 201.46H136.893L134.751 204.664H134.715L132.573 201.46H130.143L133.257 206.068L129.945 211H132.447ZM143.296 211V201.46H140.956V211H143.296ZM143.296 200.074V197.86H140.956V200.074H143.296ZM145.088 207.85C145.232 208.804 145.664 209.614 146.366 210.28C147.086 210.946 148.112 211.27 149.426 211.27C150.686 211.27 151.64 210.964 152.306 210.37C152.972 209.758 153.314 209.074 153.314 208.3C153.314 207.58 153.116 206.986 152.702 206.536C152.306 206.068 151.55 205.69 150.434 205.384C149.156 205.024 148.364 204.772 148.04 204.628C147.734 204.466 147.572 204.268 147.572 203.998C147.572 203.512 148.148 203.116 149.066 203.116C150.236 203.116 150.776 203.674 151.118 204.592L153.062 203.998C152.522 202.126 151.19 201.19 149.048 201.19C147.932 201.19 147.05 201.478 146.402 202.054C145.772 202.63 145.448 203.314 145.448 204.106C145.448 205.528 146.438 206.284 148.652 206.914C148.778 206.95 148.94 207.004 149.174 207.058C150.02 207.292 150.56 207.49 150.83 207.634C151.1 207.76 151.226 207.976 151.226 208.246C151.226 208.912 150.488 209.308 149.336 209.308C148.076 209.308 147.356 208.642 147.194 207.31L145.088 207.85ZM155.593 207.598C155.593 208.786 155.827 209.65 156.313 210.19C156.799 210.73 157.681 211 158.959 211H159.949V208.75H159.175C158.149 208.75 157.897 208.39 157.897 207.382V203.44H160.273V201.46H157.861V199.12H155.647V201.46H154.117V203.44H155.593V207.598ZM168.422 211V201.46H166.946V211H168.422ZM168.53 199.534V197.86H166.838V199.534H168.53ZM173.06 211V204.916C173.06 203.422 174.032 202.54 175.526 202.54C176.984 202.54 177.722 203.422 177.722 205.204V211H179.18V204.736C179.18 202.558 177.812 201.19 175.742 201.19C174.662 201.19 173.582 201.676 173.06 202.378H173.024V201.46H171.584V211H173.06ZM186.504 211.702L192.984 198.058L191.958 197.59L185.478 211.27L186.504 211.702ZM201.715 211V204.574C201.715 202.252 200.347 201.19 198.133 201.19C196.135 201.19 194.839 202.342 194.533 204.016L195.865 204.394C196.135 203.134 196.909 202.504 198.187 202.504C199.537 202.504 200.185 203.116 200.185 203.926C200.113 204.502 199.915 204.772 199.141 205.078C198.583 205.276 198.313 205.348 197.449 205.564C195.127 206.158 194.245 206.968 194.245 208.552C194.245 210.118 195.361 211.27 197.467 211.27C198.979 211.27 200.023 210.586 200.383 209.956H200.419V211H201.715ZM197.791 206.698C199.249 206.284 200.077 205.906 200.239 205.564H200.275V207.94C200.275 209.074 199.303 209.956 197.575 209.956C196.315 209.956 195.685 209.452 195.685 208.462C195.685 207.616 196.153 207.148 197.791 206.698ZM206.072 204.844C206.072 204.25 206.288 203.728 206.738 203.242C207.188 202.756 207.782 202.522 208.52 202.522C210.392 202.522 211.472 203.908 211.472 206.23C211.472 208.588 210.41 209.938 208.52 209.938C207.818 209.938 207.242 209.74 206.774 209.326C206.306 208.912 206.072 208.426 206.072 207.868V204.844ZM206.072 215.05V210.082H206.108C206.522 210.658 207.602 211.27 208.772 211.27C210.014 211.27 211.004 210.82 211.778 209.902C212.552 208.984 212.93 207.76 212.93 206.23C212.93 204.7 212.534 203.494 211.742 202.576C210.95 201.658 209.96 201.19 208.772 201.19C207.53 201.19 206.522 201.784 206.036 202.378H206V201.46H204.596V215.05H206.072ZM216.937 211V201.46H215.461V211H216.937ZM217.045 199.534V197.86H215.353V199.534H217.045ZM219.955 211.702L226.435 198.058L225.409 197.59L218.929 211.27L219.955 211.702ZM229.802 204.844C229.802 204.25 230.018 203.728 230.468 203.242C230.918 202.756 231.512 202.522 232.25 202.522C234.122 202.522 235.202 203.908 235.202 206.23C235.202 208.588 234.14 209.938 232.25 209.938C231.548 209.938 230.972 209.74 230.504 209.326C230.036 208.912 229.802 208.426 229.802 207.868V204.844ZM229.802 215.05V210.082H229.838C230.252 210.658 231.332 211.27 232.502 211.27C233.744 211.27 234.734 210.82 235.508 209.902C236.282 208.984 236.66 207.76 236.66 206.23C236.66 204.7 236.264 203.494 235.472 202.576C234.68 201.658 233.69 201.19 232.502 201.19C231.26 201.19 230.252 201.784 229.766 202.378H229.73V201.46H228.326V215.05H229.802ZM240.56 211V205.33C240.56 203.548 241.082 202.792 242.306 202.792C242.63 202.792 242.882 202.846 243.062 202.936L243.332 201.478L243.242 201.424C243.098 201.37 242.792 201.298 242.504 201.298C241.73 201.298 240.902 201.712 240.524 202.486H240.488V201.46H239.084V211H240.56ZM248.751 209.938C247.077 209.938 245.871 208.606 245.871 206.23C245.871 203.854 247.077 202.522 248.751 202.522C250.389 202.522 251.559 203.908 251.559 206.23C251.559 208.552 250.353 209.938 248.751 209.938ZM248.751 211.27C249.993 211.27 251.001 210.82 251.811 209.938C252.621 209.056 253.017 207.814 253.017 206.23C253.017 204.664 252.603 203.44 251.775 202.54C250.965 201.64 249.957 201.19 248.751 201.19C247.545 201.19 246.519 201.64 245.673 202.54C244.827 203.44 244.413 204.664 244.413 206.23C244.413 207.814 244.827 209.056 245.637 209.938C246.447 210.82 247.491 211.27 248.751 211.27ZM254.963 214.51C256.277 214.51 256.961 213.862 256.961 212.134V201.46H255.485V212.098C255.485 212.89 255.233 213.106 254.675 213.106H254.369V214.51H254.963ZM257.033 199.534V197.86H255.359V199.534H257.033ZM266.696 208.066C266.57 208.3 266.498 208.444 266.444 208.516C266.408 208.588 266.3 208.75 266.102 208.984C265.922 209.218 265.742 209.38 265.58 209.488C265.238 209.686 264.572 209.938 263.852 209.938C262.916 209.938 262.196 209.614 261.692 208.984C261.206 208.354 260.954 207.58 260.936 206.662H268.1V206.23C268.1 204.664 267.704 203.44 266.912 202.54C266.12 201.64 265.094 201.19 263.816 201.19C262.538 201.19 261.476 201.658 260.666 202.576C259.856 203.494 259.46 204.7 259.46 206.23C259.46 207.76 259.874 208.984 260.702 209.902C261.53 210.82 262.592 211.27 263.888 211.27C265.832 211.27 267.164 210.226 267.884 208.84L266.696 208.066ZM260.972 205.492C260.99 204.772 261.224 204.106 261.71 203.476C262.196 202.846 262.898 202.522 263.816 202.522C264.77 202.522 265.472 202.81 265.922 203.404C266.372 203.998 266.624 204.682 266.642 205.492H260.972ZM276.795 207.346C276.705 208.048 276.435 208.66 275.985 209.182C275.535 209.686 274.959 209.938 274.257 209.938C272.457 209.938 271.359 208.534 271.359 206.23C271.359 203.908 272.511 202.522 274.239 202.522C275.679 202.522 276.471 203.548 276.759 204.97L278.145 204.682C277.983 203.656 277.551 202.81 276.831 202.162C276.129 201.514 275.265 201.19 274.239 201.19C272.997 201.19 271.971 201.64 271.143 202.558C270.315 203.458 269.901 204.682 269.901 206.23C269.901 207.796 270.297 209.038 271.107 209.938C271.917 210.82 272.961 211.27 274.239 211.27C276.345 211.27 277.911 209.848 278.217 207.634L276.795 207.346ZM280.893 208.228C280.893 210.082 281.649 211 283.449 211H284.241V209.578H283.521C282.585 209.578 282.351 209.182 282.351 208.048V202.774H284.691V201.46H282.333V199.12H280.929V201.46H279.561V202.774H280.893V208.228ZM286.141 207.76C286.357 209.83 287.671 211.27 290.191 211.27C291.397 211.27 292.315 211 292.909 210.442C293.521 209.884 293.827 209.236 293.827 208.48C293.809 207.706 293.575 207.112 293.107 206.662C292.657 206.212 291.811 205.798 290.569 205.456C289.399 205.114 288.661 204.862 288.337 204.664C288.013 204.466 287.851 204.178 287.851 203.782C287.851 203.062 288.553 202.45 289.795 202.45C291.037 202.45 291.847 203.062 292.225 204.268L293.503 203.926C293.089 202.27 291.883 201.19 289.795 201.19C288.769 201.19 287.959 201.46 287.365 201.982C286.771 202.504 286.483 203.116 286.483 203.818C286.483 205.204 287.329 205.924 289.687 206.572C290.821 206.878 291.559 207.166 291.901 207.4C292.261 207.634 292.441 207.994 292.441 208.48C292.441 209.398 291.685 209.992 290.173 209.992C288.589 209.992 287.707 209.164 287.527 207.49L286.141 207.76ZM296.016 211.702L302.496 198.058L301.47 197.59L294.99 211.27L296.016 211.702Z" fill="white" fill-opacity="0.923487"/>
<g id="exclamation-3">
<path id="Shape_3" fill-rule="evenodd" clip-rule="evenodd" d="M431.385 203C431.385 212.176 438.824 219.615 448 219.615C457.176 219.615 464.615 212.176 464.615 203C464.615 193.824 457.176 186.385 448 186.385C438.824 186.385 431.385 193.824 431.385 203ZM461.846 203C461.846 210.647 455.647 216.846 448 216.846C440.353 216.846 434.154 210.647 434.154 203C434.154 195.353 440.353 189.154 448 189.154C455.647 189.154 461.846 195.353 461.846 203ZM446.615 204.385V196.077C446.615 195.312 447.235 194.692 448 194.692C448.765 194.692 449.385 195.312 449.385 196.077V204.385C449.385 205.149 448.765 205.769 448 205.769C447.235 205.769 446.615 205.149 446.615 204.385ZM448 208.538C447.235 208.538 446.615 209.158 446.615 209.923C446.615 210.688 447.235 211.308 448 211.308C448.765 211.308 449.385 210.688 449.385 209.923C449.385 209.158 448.765 208.538 448 208.538Z" fill="white"/>
</g>
<g id="checkmark-3" opacity="0.01">
<g id="icon-circle-check_2">
<path id="Shape_4" fill-rule="evenodd" clip-rule="evenodd" d="M448 219.615C438.824 219.615 431.385 212.176 431.385 203C431.385 193.824 438.824 186.385 448 186.385C457.176 186.385 464.615 193.824 464.615 203C464.615 212.176 457.176 219.615 448 219.615ZM448 216.846C455.647 216.846 461.846 210.647 461.846 203C461.846 195.353 455.647 189.154 448 189.154C440.353 189.154 434.154 195.353 434.154 203C434.154 210.647 440.353 216.846 448 216.846ZM454.29 197.982L445.577 206.696L441.825 202.944C441.285 202.403 440.408 202.403 439.867 202.944C439.326 203.485 439.326 204.361 439.867 204.902L444.598 209.633C445.139 210.174 446.015 210.174 446.556 209.633L456.248 199.941C456.789 199.4 456.789 198.523 456.248 197.982C455.708 197.442 454.831 197.442 454.29 197.982Z" fill="white"/>
</g>
</g>
</g>
<g id="release-2">
<g id="release-bg-9">
<rect id="rectangle-2" x="29" y="103" width="448" height="50" rx="25" fill="#E8675B"/>
</g>
<path id="TypeError_3" d="M55.3767 135L59.8767 122.4H57.3567L54.3327 131.346H54.2787L51.1647 122.4H48.6087L53.1627 135H55.3767ZM67.8114 135V128.952C67.8114 127.674 67.4334 126.72 66.6954 126.108C65.9574 125.496 65.0034 125.19 63.8334 125.19C61.6914 125.19 60.3594 126.324 59.9094 127.926L61.8534 128.736C62.1594 127.782 62.5914 127.17 63.8694 127.17C64.9494 127.17 65.4894 127.602 65.4894 128.178C65.4894 128.466 65.3454 128.682 65.0754 128.844C64.8054 129.006 64.1214 129.204 63.0234 129.474C60.6654 130.05 59.7834 130.788 59.7834 132.444C59.7834 134.028 60.9174 135.27 63.2214 135.27C65.1474 135.27 65.8134 134.1 65.8134 134.082H65.8494V135H67.8114ZM63.4914 131.094C64.6434 130.806 65.2734 130.518 65.3634 130.428C65.4174 130.374 65.4714 130.284 65.5254 130.194H65.5614V131.85C65.5614 132.642 64.8594 133.254 63.4374 133.254C62.5014 133.254 62.0334 132.93 62.0334 132.282C62.0334 131.778 62.2854 131.382 63.4914 131.094ZM72.5817 135V121.86H70.1517V135H72.5817ZM75.0188 131.616C75.0188 133.848 76.0628 135.27 78.2768 135.27C79.3388 135.27 80.1668 134.874 80.7608 134.082H80.7968V135H83.0288V125.46H80.6888V131.184C80.6888 132.462 79.9328 133.02 78.7988 133.02C77.7908 133.02 77.3588 132.57 77.3588 131.364V125.46H75.0188V131.616ZM91.7422 131.706C91.1122 132.624 90.4822 133.2 89.4022 133.2C88.1242 133.2 87.3682 132.39 87.2962 130.932H93.7042V130.23C93.7042 128.7 93.2902 127.494 92.4622 126.576C91.6522 125.658 90.6082 125.19 89.3302 125.19C88.0522 125.19 87.0082 125.658 86.1622 126.576C85.3342 127.494 84.9202 128.7 84.9202 130.23C84.9202 131.76 85.3342 132.984 86.1802 133.902C87.0262 134.82 88.1062 135.27 89.4382 135.27C91.0942 135.27 92.4082 134.568 93.3802 133.146L91.7422 131.706ZM87.2962 129.186C87.3862 128.088 88.1782 127.242 89.3302 127.242C90.5722 127.242 91.3102 127.962 91.4362 129.186H87.2962ZM99.555 135V124.65H103.245V122.4H93.435V124.65H97.125V135H99.555ZM105.501 132.408C105.123 131.904 104.925 131.184 104.925 130.23C104.925 129.276 105.123 128.556 105.501 128.052C105.897 127.548 106.419 127.296 107.085 127.296C107.751 127.296 108.273 127.548 108.651 128.07C109.047 128.574 109.245 129.294 109.245 130.23C109.245 131.166 109.047 131.886 108.669 132.408C108.291 132.912 107.751 133.164 107.085 133.164C106.419 133.164 105.879 132.912 105.501 132.408ZM102.621 130.23C102.621 131.814 103.035 133.056 103.881 133.938C104.727 134.82 105.789 135.27 107.085 135.27C108.381 135.27 109.443 134.82 110.289 133.938C111.135 133.056 111.549 131.814 111.549 130.23C111.549 128.664 111.117 127.44 110.253 126.54C109.389 125.64 108.327 125.19 107.085 125.19C105.843 125.19 104.781 125.64 103.917 126.54C103.053 127.44 102.621 128.664 102.621 130.23ZM115.697 132.408C115.319 131.904 115.121 131.184 115.121 130.23C115.121 129.276 115.319 128.556 115.697 128.052C116.093 127.548 116.615 127.296 117.281 127.296C117.947 127.296 118.469 127.548 118.847 128.07C119.243 128.574 119.441 129.294 119.441 130.23C119.441 131.166 119.243 131.886 118.865 132.408C118.487 132.912 117.947 133.164 117.281 133.164C116.615 133.164 116.075 132.912 115.697 132.408ZM112.817 130.23C112.817 131.814 113.231 133.056 114.077 133.938C114.923 134.82 115.985 135.27 117.281 135.27C118.577 135.27 119.639 134.82 120.485 133.938C121.331 133.056 121.745 131.814 121.745 130.23C121.745 128.664 121.313 127.44 120.449 126.54C119.585 125.64 118.523 125.19 117.281 125.19C116.039 125.19 114.977 125.64 114.113 126.54C113.249 127.44 112.817 128.664 112.817 130.23ZM131.454 135V132.75H126.252V122.4H123.822V135H131.454ZM140.374 135V128.952C140.374 127.674 139.996 126.72 139.258 126.108C138.52 125.496 137.566 125.19 136.396 125.19C134.254 125.19 132.922 126.324 132.472 127.926L134.416 128.736C134.722 127.782 135.154 127.17 136.432 127.17C137.512 127.17 138.052 127.602 138.052 128.178C138.052 128.466 137.908 128.682 137.638 128.844C137.368 129.006 136.684 129.204 135.586 129.474C133.228 130.05 132.346 130.788 132.346 132.444C132.346 134.028 133.48 135.27 135.784 135.27C137.71 135.27 138.376 134.1 138.376 134.082H138.412V135H140.374ZM136.054 131.094C137.206 130.806 137.836 130.518 137.926 130.428C137.98 130.374 138.034 130.284 138.088 130.194H138.124V131.85C138.124 132.642 137.422 133.254 136 133.254C135.064 133.254 134.596 132.93 134.596 132.282C134.596 131.778 134.848 131.382 136.054 131.094ZM145.054 135V129.762C145.054 128.304 145.594 127.584 146.692 127.584C146.926 127.584 147.16 127.638 147.43 127.728L147.79 125.46C147.52 125.334 147.232 125.28 146.926 125.28C146.08 125.28 145.324 125.748 144.964 126.468H144.928V125.46H142.714V135H145.054ZM155.074 131.202C155.074 132.3 154.264 133.164 153.022 133.164C151.654 133.164 150.682 132.12 150.682 130.23C150.682 128.34 151.636 127.296 153.022 127.296C154.264 127.296 155.074 128.16 155.074 129.24V131.202ZM149.026 136.944C149.656 138.384 151.06 139.32 153.058 139.32C154.336 139.32 155.38 138.942 156.19 138.204C157 137.466 157.414 136.386 157.414 135V125.46H155.182V126.378H155.146C154.552 125.586 153.724 125.19 152.626 125.19C151.474 125.19 150.466 125.64 149.62 126.558C148.774 127.458 148.342 128.682 148.342 130.23C148.342 131.796 148.756 133.038 149.584 133.938C150.412 134.82 151.438 135.27 152.662 135.27C153.688 135.27 154.678 134.73 155.038 134.082H155.074V135.288C155.074 136.674 154.282 137.286 153.058 137.286C151.96 137.286 151.33 136.818 150.772 135.738L149.026 136.944ZM166.027 131.706C165.397 132.624 164.767 133.2 163.687 133.2C162.409 133.2 161.653 132.39 161.581 130.932H167.989V130.23C167.989 128.7 167.575 127.494 166.747 126.576C165.937 125.658 164.893 125.19 163.615 125.19C162.337 125.19 161.293 125.658 160.447 126.576C159.619 127.494 159.205 128.7 159.205 130.23C159.205 131.76 159.619 132.984 160.465 133.902C161.311 134.82 162.391 135.27 163.723 135.27C165.379 135.27 166.693 134.568 167.665 133.146L166.027 131.706ZM161.581 129.186C161.671 128.088 162.463 127.242 163.615 127.242C164.857 127.242 165.595 127.962 165.721 129.186H161.581ZM176.226 135V125.46H174.75V135H176.226ZM176.334 123.534V121.86H174.642V123.534H176.334ZM180.865 135V128.916C180.865 127.422 181.837 126.54 183.331 126.54C184.789 126.54 185.527 127.422 185.527 129.204V135H186.985V128.736C186.985 126.558 185.617 125.19 183.547 125.19C182.467 125.19 181.387 125.676 180.865 126.378H180.829V125.46H179.389V135H180.865ZM194.309 135.702L200.789 122.058L199.763 121.59L193.283 135.27L194.309 135.702ZM209.52 135V128.574C209.52 126.252 208.152 125.19 205.938 125.19C203.94 125.19 202.644 126.342 202.338 128.016L203.67 128.394C203.94 127.134 204.714 126.504 205.992 126.504C207.342 126.504 207.99 127.116 207.99 127.926C207.918 128.502 207.72 128.772 206.946 129.078C206.388 129.276 206.118 129.348 205.254 129.564C202.932 130.158 202.05 130.968 202.05 132.552C202.05 134.118 203.166 135.27 205.272 135.27C206.784 135.27 207.828 134.586 208.188 133.956H208.224V135H209.52ZM205.596 130.698C207.054 130.284 207.882 129.906 208.044 129.564H208.08V131.94C208.08 133.074 207.108 133.956 205.38 133.956C204.12 133.956 203.49 133.452 203.49 132.462C203.49 131.616 203.958 131.148 205.596 130.698ZM213.876 128.844C213.876 128.25 214.092 127.728 214.542 127.242C214.992 126.756 215.586 126.522 216.324 126.522C218.196 126.522 219.276 127.908 219.276 130.23C219.276 132.588 218.214 133.938 216.324 133.938C215.622 133.938 215.046 133.74 214.578 133.326C214.11 132.912 213.876 132.426 213.876 131.868V128.844ZM213.876 139.05V134.082H213.912C214.326 134.658 215.406 135.27 216.576 135.27C217.818 135.27 218.808 134.82 219.582 133.902C220.356 132.984 220.734 131.76 220.734 130.23C220.734 128.7 220.338 127.494 219.546 126.576C218.754 125.658 217.764 125.19 216.576 125.19C215.334 125.19 214.326 125.784 213.84 126.378H213.804V125.46H212.4V139.05H213.876ZM224.634 128.844C224.634 128.25 224.85 127.728 225.3 127.242C225.75 126.756 226.344 126.522 227.082 126.522C228.954 126.522 230.034 127.908 230.034 130.23C230.034 132.588 228.972 133.938 227.082 133.938C226.38 133.938 225.804 133.74 225.336 133.326C224.868 132.912 224.634 132.426 224.634 131.868V128.844ZM224.634 139.05V134.082H224.67C225.084 134.658 226.164 135.27 227.334 135.27C228.576 135.27 229.566 134.82 230.34 133.902C231.114 132.984 231.492 131.76 231.492 130.23C231.492 128.7 231.096 127.494 230.304 126.576C229.512 125.658 228.522 125.19 227.334 125.19C226.092 125.19 225.084 125.784 224.598 126.378H224.562V125.46H223.158V139.05H224.634ZM233.772 135.702L240.252 122.058L239.226 121.59L232.746 135.27L233.772 135.702ZM243.726 135V125.46H242.25V135H243.726ZM243.834 123.534V121.86H242.142V123.534H243.834ZM248.365 135V128.916C248.365 127.422 249.337 126.54 250.831 126.54C252.289 126.54 253.027 127.422 253.027 129.204V135H254.485V128.736C254.485 126.558 253.117 125.19 251.047 125.19C249.967 125.19 248.887 125.676 248.365 126.378H248.329V125.46H246.889V135H248.365ZM263.645 131.832C263.645 132.39 263.411 132.894 262.943 133.308C262.475 133.722 261.899 133.938 261.197 133.938C259.307 133.938 258.299 132.588 258.299 130.23C258.299 127.872 259.307 126.522 261.197 126.522C261.935 126.522 262.529 126.774 262.979 127.26C263.429 127.746 263.645 128.286 263.645 128.88V131.832ZM265.121 135V121.86H263.645V126.378H263.609C262.943 125.586 262.061 125.19 260.963 125.19C259.775 125.19 258.785 125.658 257.993 126.576C257.219 127.494 256.823 128.7 256.823 130.23C256.823 131.76 257.201 132.984 257.939 133.902C258.695 134.82 259.703 135.27 260.963 135.27C262.241 135.27 263.249 134.676 263.753 134.082H263.789V135H265.121ZM274.782 132.066C274.656 132.3 274.584 132.444 274.53 132.516C274.494 132.588 274.386 132.75 274.188 132.984C274.008 133.218 273.828 133.38 273.666 133.488C273.324 133.686 272.658 133.938 271.938 133.938C271.002 133.938 270.282 133.614 269.778 132.984C269.292 132.354 269.04 131.58 269.022 130.662H276.186V130.23C276.186 128.664 275.79 127.44 274.998 126.54C274.206 125.64 273.18 125.19 271.902 125.19C270.624 125.19 269.562 125.658 268.752 126.576C267.942 127.494 267.546 128.7 267.546 130.23C267.546 131.76 267.96 132.984 268.788 133.902C269.616 134.82 270.678 135.27 271.974 135.27C273.918 135.27 275.25 134.226 275.97 132.84L274.782 132.066ZM269.058 129.492C269.076 128.772 269.31 128.106 269.796 127.476C270.282 126.846 270.984 126.522 271.902 126.522C272.856 126.522 273.558 126.81 274.008 127.404C274.458 127.998 274.71 128.682 274.728 129.492H269.058ZM278.823 135L281.307 131.076H281.343L283.863 135H285.501L282.279 130.104L285.285 125.46H283.683L281.361 129.132H281.325L279.003 125.46H277.383L280.407 130.104L277.185 135H278.823Z" fill="white" fill-opacity="0.923487"/>
<g id="exclamation-2">
<path id="Shape_5" fill-rule="evenodd" clip-rule="evenodd" d="M431.385 127C431.385 136.176 438.824 143.615 448 143.615C457.176 143.615 464.615 136.176 464.615 127C464.615 117.824 457.176 110.385 448 110.385C438.824 110.385 431.385 117.824 431.385 127ZM461.846 127C461.846 134.647 455.647 140.846 448 140.846C440.353 140.846 434.154 134.647 434.154 127C434.154 119.353 440.353 113.154 448 113.154C455.647 113.154 461.846 119.353 461.846 127ZM446.615 128.385V120.077C446.615 119.312 447.235 118.692 448 118.692C448.765 118.692 449.385 119.312 449.385 120.077V128.385C449.385 129.149 448.765 129.769 448 129.769C447.235 129.769 446.615 129.149 446.615 128.385ZM448 132.538C447.235 132.538 446.615 133.158 446.615 133.923C446.615 134.688 447.235 135.308 448 135.308C448.765 135.308 449.385 134.688 449.385 133.923C449.385 133.158 448.765 132.538 448 132.538Z" fill="white"/>
</g>
<g id="checkmark-2" opacity="0.01">
<g id="icon-circle-check_3">
<path id="Shape_6" fill-rule="evenodd" clip-rule="evenodd" d="M448 143.615C438.824 143.615 431.385 136.176 431.385 127C431.385 117.824 438.824 110.385 448 110.385C457.176 110.385 464.615 117.824 464.615 127C464.615 136.176 457.176 143.615 448 143.615ZM448 140.846C455.647 140.846 461.846 134.647 461.846 127C461.846 119.353 455.647 113.154 448 113.154C440.353 113.154 434.154 119.353 434.154 127C434.154 134.647 440.353 140.846 448 140.846ZM454.29 121.982L445.577 130.696L441.825 126.944C441.285 126.403 440.408 126.403 439.867 126.944C439.326 127.485 439.326 128.361 439.867 128.902L444.598 133.633C445.139 134.174 446.015 134.174 446.556 133.633L456.248 123.941C456.789 123.4 456.789 122.523 456.248 121.982C455.708 121.442 454.831 121.442 454.29 121.982Z" fill="white"/>
</g>
</g>
</g>
<g id="release-1">
<g id="release-bg-4 copy">
<rect id="rectangle-1" x="29" y="25" width="448" height="51" rx="25.5" fill="#FFA600"/>
</g>
<path id="TypeError_4" d="M54.8187 57V46.65H58.5087V44.4H48.6987V46.65H52.3887V57H54.8187ZM61.7508 61.05L67.2408 47.46H64.8648L62.3988 53.922H62.3628L59.8968 47.46H57.5208L61.3368 56.532L59.4288 61.05H61.7508ZM70.9273 51.24C70.9273 50.16 71.7373 49.296 72.9793 49.296C74.3653 49.296 75.3193 50.34 75.3193 52.23C75.3193 54.12 74.3473 55.164 72.9793 55.164C71.7373 55.164 70.9273 54.3 70.9273 53.202V51.24ZM70.9273 61.05V56.082H70.9633L71.0353 56.208C71.2513 56.514 72.0253 57.27 73.4653 57.27C74.6353 57.27 75.6253 56.82 76.4353 55.92C77.2453 55.02 77.6593 53.796 77.6593 52.23C77.6593 50.682 77.2273 49.458 76.3813 48.558C75.5353 47.64 74.5633 47.19 73.4293 47.19C71.5753 47.208 70.8553 48.36 70.8553 48.378H70.8193V47.46H68.5873V61.05H70.9273ZM85.748 53.706C85.118 54.624 84.488 55.2 83.408 55.2C82.13 55.2 81.374 54.39 81.302 52.932H87.71V52.23C87.71 50.7 87.296 49.494 86.468 48.576C85.658 47.658 84.614 47.19 83.336 47.19C82.058 47.19 81.014 47.658 80.168 48.576C79.34 49.494 78.926 50.7 78.926 52.23C78.926 53.76 79.34 54.984 80.186 55.902C81.032 56.82 82.112 57.27 83.444 57.27C85.1 57.27 86.414 56.568 87.386 55.146L85.748 53.706ZM81.302 51.186C81.392 50.088 82.184 49.242 83.336 49.242C84.578 49.242 85.316 49.962 85.442 51.186H81.302ZM97.7471 57V54.75H92.2031V51.636H97.2431V49.476H92.2031V46.65H97.7471V44.4H89.7731V57H97.7471ZM102.339 57V51.762C102.339 50.304 102.879 49.584 103.977 49.584C104.211 49.584 104.445 49.638 104.715 49.728L105.075 47.46C104.805 47.334 104.517 47.28 104.211 47.28C103.365 47.28 102.609 47.748 102.249 48.468H102.213V47.46H99.9994V57H102.339ZM108.773 57V51.762C108.773 50.304 109.313 49.584 110.411 49.584C110.645 49.584 110.879 49.638 111.149 49.728L111.509 47.46C111.239 47.334 110.951 47.28 110.645 47.28C109.799 47.28 109.043 47.748 108.683 48.468H108.647V47.46H106.433V57H108.773ZM114.941 54.408C114.563 53.904 114.365 53.184 114.365 52.23C114.365 51.276 114.563 50.556 114.941 50.052C115.337 49.548 115.859 49.296 116.525 49.296C117.191 49.296 117.713 49.548 118.091 50.07C118.487 50.574 118.685 51.294 118.685 52.23C118.685 53.166 118.487 53.886 118.109 54.408C117.731 54.912 117.191 55.164 116.525 55.164C115.859 55.164 115.319 54.912 114.941 54.408ZM112.061 52.23C112.061 53.814 112.475 55.056 113.321 55.938C114.167 56.82 115.229 57.27 116.525 57.27C117.821 57.27 118.883 56.82 119.729 55.938C120.575 55.056 120.989 53.814 120.989 52.23C120.989 50.664 120.557 49.44 119.693 48.54C118.829 47.64 117.767 47.19 116.525 47.19C115.283 47.19 114.221 47.64 113.357 48.54C112.493 49.44 112.061 50.664 112.061 52.23ZM125.226 57V51.762C125.226 50.304 125.766 49.584 126.864 49.584C127.098 49.584 127.332 49.638 127.602 49.728L127.962 47.46C127.692 47.334 127.404 47.28 127.098 47.28C126.252 47.28 125.496 47.748 125.136 48.468H125.1V47.46H122.886V57H125.226ZM135.849 57V47.46H134.373V57H135.849ZM135.957 45.534V43.86H134.265V45.534H135.957ZM140.488 57V50.916C140.488 49.422 141.46 48.54 142.954 48.54C144.412 48.54 145.15 49.422 145.15 51.204V57H146.608V50.736C146.608 48.558 145.24 47.19 143.17 47.19C142.09 47.19 141.01 47.676 140.488 48.378H140.452V47.46H139.012V57H140.488ZM153.932 57.702L160.412 44.058L159.386 43.59L152.906 57.27L153.932 57.702ZM169.143 57V50.574C169.143 48.252 167.775 47.19 165.561 47.19C163.563 47.19 162.267 48.342 161.961 50.016L163.293 50.394C163.563 49.134 164.337 48.504 165.615 48.504C166.965 48.504 167.613 49.116 167.613 49.926C167.541 50.502 167.343 50.772 166.569 51.078C166.011 51.276 165.741 51.348 164.877 51.564C162.555 52.158 161.673 52.968 161.673 54.552C161.673 56.118 162.789 57.27 164.895 57.27C166.407 57.27 167.451 56.586 167.811 55.956H167.847V57H169.143ZM165.219 52.698C166.677 52.284 167.505 51.906 167.667 51.564H167.703V53.94C167.703 55.074 166.731 55.956 165.003 55.956C163.743 55.956 163.113 55.452 163.113 54.462C163.113 53.616 163.581 53.148 165.219 52.698ZM173.499 50.844C173.499 50.25 173.715 49.728 174.165 49.242C174.615 48.756 175.209 48.522 175.947 48.522C177.819 48.522 178.899 49.908 178.899 52.23C178.899 54.588 177.837 55.938 175.947 55.938C175.245 55.938 174.669 55.74 174.201 55.326C173.733 54.912 173.499 54.426 173.499 53.868V50.844ZM173.499 61.05V56.082H173.535C173.949 56.658 175.029 57.27 176.199 57.27C177.441 57.27 178.431 56.82 179.205 55.902C179.979 54.984 180.357 53.76 180.357 52.23C180.357 50.7 179.961 49.494 179.169 48.576C178.377 47.658 177.387 47.19 176.199 47.19C174.957 47.19 173.949 47.784 173.463 48.378H173.427V47.46H172.023V61.05H173.499ZM184.365 57V47.46H182.889V57H184.365ZM184.473 45.534V43.86H182.781V45.534H184.473ZM187.383 57.702L193.863 44.058L192.837 43.59L186.357 57.27L187.383 57.702ZM197.23 50.844C197.23 50.25 197.446 49.728 197.896 49.242C198.346 48.756 198.94 48.522 199.678 48.522C201.55 48.522 202.63 49.908 202.63 52.23C202.63 54.588 201.568 55.938 199.678 55.938C198.976 55.938 198.4 55.74 197.932 55.326C197.464 54.912 197.23 54.426 197.23 53.868V50.844ZM197.23 61.05V56.082H197.266C197.68 56.658 198.76 57.27 199.93 57.27C201.172 57.27 202.162 56.82 202.936 55.902C203.71 54.984 204.088 53.76 204.088 52.23C204.088 50.7 203.692 49.494 202.9 48.576C202.108 47.658 201.118 47.19 199.93 47.19C198.688 47.19 197.68 47.784 197.194 48.378H197.158V47.46H195.754V61.05H197.23ZM207.988 57V51.33C207.988 49.548 208.51 48.792 209.734 48.792C210.058 48.792 210.31 48.846 210.49 48.936L210.76 47.478L210.67 47.424C210.526 47.37 210.22 47.298 209.932 47.298C209.158 47.298 208.33 47.712 207.952 48.486H207.916V47.46H206.512V57H207.988ZM216.179 55.938C214.505 55.938 213.299 54.606 213.299 52.23C213.299 49.854 214.505 48.522 216.179 48.522C217.817 48.522 218.987 49.908 218.987 52.23C218.987 54.552 217.781 55.938 216.179 55.938ZM216.179 57.27C217.421 57.27 218.429 56.82 219.239 55.938C220.049 55.056 220.445 53.814 220.445 52.23C220.445 50.664 220.031 49.44 219.203 48.54C218.393 47.64 217.385 47.19 216.179 47.19C214.973 47.19 213.947 47.64 213.101 48.54C212.255 49.44 211.841 50.664 211.841 52.23C211.841 53.814 212.255 55.056 213.065 55.938C213.875 56.82 214.919 57.27 216.179 57.27ZM222.391 60.51C223.705 60.51 224.389 59.862 224.389 58.134V47.46H222.913V58.098C222.913 58.89 222.661 59.106 222.103 59.106H221.797V60.51H222.391ZM224.461 45.534V43.86H222.787V45.534H224.461ZM234.123 54.066C233.997 54.3 233.925 54.444 233.871 54.516C233.835 54.588 233.727 54.75 233.529 54.984C233.349 55.218 233.169 55.38 233.007 55.488C232.665 55.686 231.999 55.938 231.279 55.938C230.343 55.938 229.623 55.614 229.119 54.984C228.633 54.354 228.381 53.58 228.363 52.662H235.527V52.23C235.527 50.664 235.131 49.44 234.339 48.54C233.547 47.64 232.521 47.19 231.243 47.19C229.965 47.19 228.903 47.658 228.093 48.576C227.283 49.494 226.887 50.7 226.887 52.23C226.887 53.76 227.301 54.984 228.129 55.902C228.957 56.82 230.019 57.27 231.315 57.27C233.259 57.27 234.591 56.226 235.311 54.84L234.123 54.066ZM228.399 51.492C228.417 50.772 228.651 50.106 229.137 49.476C229.623 48.846 230.325 48.522 231.243 48.522C232.197 48.522 232.899 48.81 233.349 49.404C233.799 49.998 234.051 50.682 234.069 51.492H228.399ZM244.223 53.346C244.133 54.048 243.863 54.66 243.413 55.182C242.963 55.686 242.387 55.938 241.685 55.938C239.885 55.938 238.787 54.534 238.787 52.23C238.787 49.908 239.939 48.522 241.667 48.522C243.107 48.522 243.899 49.548 244.187 50.97L245.573 50.682C245.411 49.656 244.979 48.81 244.259 48.162C243.557 47.514 242.693 47.19 241.667 47.19C240.425 47.19 239.399 47.64 238.571 48.558C237.743 49.458 237.329 50.682 237.329 52.23C237.329 53.796 237.725 55.038 238.535 55.938C239.345 56.82 240.389 57.27 241.667 57.27C243.773 57.27 245.339 55.848 245.645 53.634L244.223 53.346ZM248.32 54.228C248.32 56.082 249.076 57 250.876 57H251.668V55.578H250.948C250.012 55.578 249.778 55.182 249.778 54.048V48.774H252.118V47.46H249.76V45.12H248.356V47.46H246.988V48.774H248.32V54.228ZM253.569 53.76C253.785 55.83 255.099 57.27 257.619 57.27C258.825 57.27 259.743 57 260.337 56.442C260.949 55.884 261.255 55.236 261.255 54.48C261.237 53.706 261.003 53.112 260.535 52.662C260.085 52.212 259.239 51.798 257.997 51.456C256.827 51.114 256.089 50.862 255.765 50.664C255.441 50.466 255.279 50.178 255.279 49.782C255.279 49.062 255.981 48.45 257.223 48.45C258.465 48.45 259.275 49.062 259.653 50.268L260.931 49.926C260.517 48.27 259.311 47.19 257.223 47.19C256.197 47.19 255.387 47.46 254.793 47.982C254.199 48.504 253.911 49.116 253.911 49.818C253.911 51.204 254.757 51.924 257.115 52.572C258.249 52.878 258.987 53.166 259.329 53.4C259.689 53.634 259.869 53.994 259.869 54.48C259.869 55.398 259.113 55.992 257.601 55.992C256.017 55.992 255.135 55.164 254.955 53.49L253.569 53.76ZM263.444 57.702L269.924 44.058L268.898 43.59L262.418 57.27L263.444 57.702Z" fill="white" fill-opacity="0.923487"/>
<g id="exclamation-1">
<path id="Shape_7" fill-rule="evenodd" clip-rule="evenodd" d="M431.385 50C431.385 59.1764 438.824 66.6154 448 66.6154C457.176 66.6154 464.615 59.1764 464.615 50C464.615 40.8236 457.176 33.3846 448 33.3846C438.824 33.3846 431.385 40.8236 431.385 50ZM461.846 50C461.846 57.647 455.647 63.8461 448 63.8461C440.353 63.8461 434.154 57.647 434.154 50C434.154 42.353 440.353 36.1538 448 36.1538C455.647 36.1538 461.846 42.353 461.846 50ZM446.615 51.3846V43.0769C446.615 42.3122 447.235 41.6923 448 41.6923C448.765 41.6923 449.385 42.3122 449.385 43.0769V51.3846C449.385 52.1493 448.765 52.7692 448 52.7692C447.235 52.7692 446.615 52.1493 446.615 51.3846ZM448 55.5385C447.235 55.5385 446.615 56.1584 446.615 56.9231C446.615 57.6878 447.235 58.3077 448 58.3077C448.765 58.3077 449.385 57.6878 449.385 56.9231C449.385 56.1584 448.765 55.5385 448 55.5385Z" fill="white"/>
</g>
<g id="checkmark-1" opacity="0.01">
<g id="icon-circle-check_4">
<path id="Shape_8" fill-rule="evenodd" clip-rule="evenodd" d="M448 66.6154C438.824 66.6154 431.385 59.1764 431.385 50C431.385 40.8236 438.824 33.3846 448 33.3846C457.176 33.3846 464.615 40.8236 464.615 50C464.615 59.1764 457.176 66.6154 448 66.6154ZM448 63.8461C455.647 63.8461 461.846 57.647 461.846 50C461.846 42.353 455.647 36.1538 448 36.1538C440.353 36.1538 434.154 42.353 434.154 50C434.154 57.647 440.353 63.8461 448 63.8461ZM454.29 44.9825L445.577 53.6957L441.825 49.944C441.285 49.4033 440.408 49.4033 439.867 49.944C439.326 50.4848 439.326 51.3614 439.867 51.9022L444.598 56.6329C445.139 57.1736 446.015 57.1736 446.556 56.6329L456.248 46.9406C456.789 46.3999 456.789 45.5232 456.248 44.9825C455.708 44.4417 454.831 44.4417 454.29 44.9825Z" fill="white"/>
</g>
</g>
</g>
</g>
</svg>
