<svg width="557" height="350" viewBox="0 0 557 350" fill="none" xmlns="http://www.w3.org/2000/svg"><g id="issues"><path fill="#fff" d="M0 0h557v350H0z"/><g id="file-changes"><path fill-rule="evenodd" clip-rule="evenodd" d="M30 2h365c14.359 0 26 11.64 26 26v165c0 14.359-11.641 26-26 26H30c-14.36 0-26-11.641-26-26V28C4 13.64 15.64 2 30 2z" fill="#FFA600" id="Rectangle 2 Copy" filter="url(#filter0_d)"/><g id="attribution copy 5"><path id="{name}" d="M51.427 86.621c.04.346.13.593.266.738.242.26.689.39 1.34.39.383 0 .686-.057.91-.17.227-.115.341-.286.341-.514a.553.553 0 0 0-.273-.499c-.183-.114-.86-.31-2.03-.588-.844-.21-1.438-.471-1.785-.786-.346-.31-.52-.756-.52-1.34 0-.688.27-1.278.807-1.77.543-.497 1.304-.745 2.284-.745.93 0 1.686.187 2.27.56.587.37.924 1.01 1.01 1.921H54.1c-.028-.25-.098-.448-.212-.594-.215-.265-.58-.397-1.094-.397-.424 0-.727.066-.91.198-.177.133-.266.287-.266.465a.51.51 0 0 0 .287.486c.192.104.868.284 2.03.54.775.182 1.356.458 1.744.827.383.373.574.84.574 1.401 0 .738-.276 1.342-.827 1.812-.547.465-1.395.697-2.543.697-1.171 0-2.037-.246-2.598-.738-.556-.497-.834-1.128-.834-1.894h1.976zm10.322-5.25c.036 0 .066.002.089.007.027 0 .084.002.17.007v1.996a5.303 5.303 0 0 0-.56-.034c-.784 0-1.31.255-1.579.765-.15.287-.225.73-.225 1.327V89h-1.962v-7.451h1.859v1.299c.3-.497.563-.837.786-1.019.365-.305.839-.458 1.422-.458zm5.858 2.85a1.728 1.728 0 0 0-.28-.751c-.219-.301-.558-.451-1.018-.451-.657 0-1.105.325-1.347.977-.128.346-.192.807-.192 1.381 0 .547.064.987.192 1.32.232.62.67.929 1.312.929.456 0 .78-.123.971-.37.191-.245.308-.564.349-.956h1.989c-.046.592-.26 1.153-.643 1.681-.61.853-1.515 1.279-2.713 1.279-1.199 0-2.08-.356-2.646-1.067-.565-.71-.848-1.633-.848-2.768 0-1.28.313-2.277.937-2.987.624-.711 1.486-1.067 2.584-1.067.934 0 1.697.21 2.29.629.597.42.95 1.16 1.06 2.222h-1.997zm5.572-5.605h1.62L70.882 89h-1.607l3.904-10.384zm4.607 4.341c-.451 0-.802.141-1.053.424-.246.282-.4.665-.464 1.148h3.028c-.032-.515-.19-.904-.472-1.169a1.436 1.436 0 0 0-1.039-.403zm0-1.606c.62 0 1.178.116 1.675.348.497.233.907.6 1.23 1.1.292.443.481.956.568 1.539.05.342.07.834.061 1.477h-5.1c.028.747.263 1.27.705 1.572.269.187.592.28.97.28.401 0 .727-.114.978-.342a1.62 1.62 0 0 0 .362-.513h1.99c-.05.443-.28.892-.69 1.347-.639.725-1.532 1.087-2.68 1.087a3.779 3.779 0 0 1-2.51-.916c-.724-.61-1.086-1.604-1.086-2.98 0-1.29.326-2.279.977-2.967.657-.688 1.507-1.032 2.55-1.032zm8.983.02c.77 0 1.399.203 1.886.609.492.4.739 1.068.739 2.002V89h-1.997v-4.532c0-.392-.052-.693-.157-.903-.191-.382-.556-.574-1.093-.574-.661 0-1.115.28-1.36.841-.129.296-.192.675-.192 1.135V89h-1.942v-7.438h1.88v1.087c.25-.382.488-.658.711-.827.401-.3.91-.45 1.525-.45zm7.177 0a2.35 2.35 0 0 1 2.058 1.121v-3.555h1.975V89h-1.893v-1.032c-.278.442-.595.763-.95.964-.356.2-.798.3-1.326.3-.87 0-1.605-.35-2.202-1.052-.592-.707-.888-1.611-.888-2.714 0-1.272.291-2.272.875-3.001.588-.73 1.371-1.094 2.351-1.094zm.424 6.22c.551 0 .97-.204 1.258-.614.287-.41.43-.942.43-1.593 0-.912-.23-1.563-.69-1.955a1.486 1.486 0 0 0-.984-.356c-.57 0-.99.217-1.258.65-.264.428-.397.961-.397 1.6 0 .687.135 1.239.404 1.654.273.41.686.615 1.237.615zm10.521-2.317c0-.574-.133-1.082-.397-1.524-.26-.442-.683-.663-1.271-.663-.707 0-1.192.335-1.456 1.005-.137.355-.205.806-.205 1.353 0 .866.23 1.475.69 1.826.273.205.597.307.971.307.542 0 .954-.21 1.237-.629.287-.42.431-.977.431-1.675zm-1.108-3.89c.871 0 1.607.322 2.208.965.606.642.909 1.586.909 2.83 0 1.312-.296 2.313-.888 3-.588.689-1.347 1.033-2.277 1.033-.592 0-1.084-.148-1.476-.444a2.894 2.894 0 0 1-.629-.718v3.883h-1.928V81.549h1.866v1.1c.21-.323.433-.578.67-.765.433-.333.948-.5 1.545-.5zm7.875 6.242c.57 0 1.007-.203 1.313-.608.305-.406.458-.983.458-1.73s-.153-1.322-.458-1.723c-.306-.405-.743-.608-1.313-.608-.569 0-1.009.203-1.319.608-.305.401-.458.976-.458 1.723 0 .748.153 1.324.458 1.73.31.405.75.608 1.319.608zm3.815-2.338c0 1.094-.315 2.03-.944 2.81-.629.774-1.583 1.162-2.864 1.162s-2.235-.388-2.864-1.162c-.629-.78-.944-1.716-.944-2.81 0-1.075.315-2.007.944-2.796.629-.788 1.583-1.182 2.864-1.182s2.235.394 2.864 1.182c.629.789.944 1.72.944 2.796zm3.404-4.628h-1.976v-1.798h1.976v1.798zm-1.976.889h1.976V89h-1.976v-7.451zm7.998-.178c.771 0 1.4.203 1.887.609.492.4.738 1.068.738 2.002V89h-1.996v-4.532c0-.392-.052-.693-.157-.903-.191-.382-.556-.574-1.094-.574-.66 0-1.114.28-1.36.841-.128.296-.191.675-.191 1.135V89h-1.942v-7.438h1.88v1.087c.251-.382.488-.658.711-.827.401-.3.909-.45 1.524-.45zm3.664 1.634v-1.388h1.04V79.54h1.927v2.078h1.21v1.388h-1.21v3.937c0 .306.039.497.116.575.078.073.315.109.711.109h.185l.198-.014v1.456l-.923.035c-.92.031-1.549-.128-1.886-.479-.219-.223-.328-.567-.328-1.032v-4.587h-1.04zm6.946 3.616c.041.346.13.593.266.738.242.26.689.39 1.34.39.383 0 .686-.057.909-.17.228-.115.342-.286.342-.514a.553.553 0 0 0-.273-.499c-.183-.114-.859-.31-2.031-.588-.843-.21-1.437-.471-1.784-.786-.346-.31-.519-.756-.519-1.34 0-.688.269-1.278.806-1.77.543-.497 1.304-.745 2.284-.745.929 0 1.686.187 2.269.56.588.37.925 1.01 1.012 1.921h-1.948c-.028-.25-.098-.448-.212-.594-.214-.265-.579-.397-1.094-.397-.424 0-.727.066-.909.198-.178.133-.267.287-.267.465a.51.51 0 0 0 .287.486c.192.104.868.284 2.031.54.774.182 1.355.458 1.743.827.383.373.574.84.574 1.401 0 .738-.276 1.342-.827 1.812-.547.465-1.395.697-2.543.697-1.171 0-2.037-.246-2.598-.738-.556-.497-.834-1.128-.834-1.894h1.976zm8.504-8.005h1.62L141.716 89h-1.607l3.904-10.384zm4.607 4.341c-.451 0-.802.141-1.053.424-.246.282-.401.665-.464 1.148h3.028c-.032-.515-.189-.904-.472-1.169a1.435 1.435 0 0 0-1.039-.403zm0-1.606c.62 0 1.178.116 1.675.348.497.233.907.6 1.23 1.1.292.443.481.956.568 1.539.05.342.07.834.061 1.477h-5.099c.027.747.262 1.27.704 1.572.269.187.592.28.97.28.402 0 .727-.114.978-.342.137-.123.258-.294.362-.513h1.99c-.051.443-.281.892-.691 1.347-.638.725-1.531 1.087-2.68 1.087a3.777 3.777 0 0 1-2.508-.916c-.725-.61-1.087-1.604-1.087-2.98 0-1.29.326-2.279.977-2.967.657-.688 1.506-1.032 2.55-1.032zm9.447.198h2.092L157.473 89h-2.058l-2.673-7.451h2.188l1.551 5.496 1.586-5.496zm6.139 1.408c-.451 0-.802.141-1.053.424-.246.282-.401.665-.465 1.148h3.029c-.032-.515-.189-.904-.472-1.169a1.435 1.435 0 0 0-1.039-.403zm0-1.606c.62 0 1.178.116 1.675.348.497.233.907.6 1.23 1.1.292.443.481.956.568 1.539.05.342.07.834.061 1.477h-5.099c.027.747.262 1.27.704 1.572.269.187.592.28.97.28.401 0 .727-.114.978-.342a1.62 1.62 0 0 0 .362-.513h1.99c-.051.443-.281.892-.691 1.347-.638.725-1.531 1.087-2.68 1.087a3.775 3.775 0 0 1-2.508-.916c-.725-.61-1.087-1.604-1.087-2.98 0-1.29.326-2.279.977-2.967.656-.688 1.506-1.032 2.55-1.032zm8.982.02c.771 0 1.4.203 1.887.609.492.4.738 1.068.738 2.002V89h-1.996v-4.532c0-.392-.052-.693-.157-.903-.191-.382-.556-.574-1.094-.574-.66 0-1.114.28-1.36.841-.128.296-.191.675-.191 1.135V89h-1.942v-7.438h1.88v1.087c.251-.382.488-.658.711-.827.401-.3.909-.45 1.524-.45zm3.665 1.634v-1.388h1.039V79.54h1.927v2.078h1.21v1.388h-1.21v3.937c0 .306.039.497.117.575.077.073.314.109.71.109h.185l.198-.014v1.456l-.923.035c-.92.031-1.549-.128-1.886-.479-.219-.223-.328-.567-.328-1.032v-4.587h-1.039zm6.945 3.616c.041.346.13.593.266.738.242.26.689.39 1.34.39.383 0 .686-.057.909-.17.228-.115.342-.286.342-.514a.553.553 0 0 0-.273-.499c-.182-.114-.859-.31-2.03-.588-.844-.21-1.438-.471-1.785-.786-.346-.31-.519-.756-.519-1.34 0-.688.269-1.278.806-1.77.543-.497 1.304-.745 2.284-.745.929 0 1.686.187 2.269.56.588.37.925 1.01 1.012 1.921h-1.948c-.028-.25-.098-.448-.212-.594-.214-.265-.579-.397-1.094-.397-.424 0-.727.066-.909.198-.178.133-.267.287-.267.465a.51.51 0 0 0 .287.486c.192.104.869.284 2.031.54.774.182 1.355.458 1.743.827.383.373.574.84.574 1.401 0 .738-.276 1.342-.827 1.812-.547.465-1.395.697-2.543.697-1.171 0-2.037-.246-2.598-.738-.556-.497-.834-1.128-.834-1.894h1.976zm6.241.342h2.071V89h-2.071v-2.037zm9.065-1.689c0-.574-.133-1.082-.397-1.524-.26-.442-.684-.663-1.271-.663-.707 0-1.192.335-1.457 1.005-.136.355-.205.806-.205 1.353 0 .866.231 1.475.691 1.826.273.205.597.307.971.307.542 0 .954-.21 1.237-.629.287-.42.431-.977.431-1.675zm-1.108-3.89c.871 0 1.607.322 2.208.965.606.642.909 1.586.909 2.83 0 1.312-.296 2.313-.888 3-.588.689-1.347 1.033-2.277 1.033-.592 0-1.084-.148-1.476-.444-.215-.165-.424-.404-.629-.718v3.883h-1.928V81.549h1.866v1.1c.21-.323.433-.578.67-.765.433-.333.948-.5 1.545-.5zm4.833 9.045l.246.013c.192.01.374.003.547-.02a.986.986 0 0 0 .438-.157c.114-.078.218-.24.314-.486.1-.246.141-.396.123-.45l-2.734-7.78h2.167l1.627 5.496 1.538-5.496h2.071l-2.557 7.328c-.492 1.413-.881 2.288-1.169 2.625-.287.342-.861.513-1.722.513-.173 0-.312-.003-.417-.007-.105 0-.262-.007-.472-.02v-1.56z" fill="#fff" fill-opacity=".78"/><g id="file"><g id="System/Files" fill-rule="evenodd" clip-rule="evenodd" fill="#fff"><path id="Rectangle 84" d="M33.345 75.5h-5.47c-1.035 0-1.875.84-1.875 1.875v11.25c0 1.035.84 1.875 1.875 1.875h8.25c1.035 0 1.875-.84 1.875-1.875v-8.47c0-.497-.197-.974-.55-1.326l-2.78-2.78a1.875 1.875 0 0 0-1.325-.549zM27.5 77.375c0-.207.168-.375.375-.375h5.47c.1 0 .194.04.265.11l2.78 2.78c.07.07.11.166.11.265v8.47a.375.375 0 0 1-.375.375h-8.25a.375.375 0 0 1-.375-.375v-11.25z" fill-opacity=".684"/><path id="Combined Shape" d="M33.5 80v-3H32v3.5a1 1 0 0 0 1 1h3.5V80h-3z" fill-opacity=".727"/><path id="Combined Shape_2" d="M39 93.5a2 2 0 0 0 2-2V80.25a1 1 0 0 0-1-1h-.5V91a1 1 0 0 1-1 1H29v.5a1 1 0 0 0 1 1h9z" fill-opacity=".684"/></g></g></g><path id="Path 2" d="M4 57h415.503" stroke="#fff" stroke-opacity=".364"/><path id="Path 2 Copy" d="M4 112h415.503" stroke="#fff" stroke-opacity=".364"/><path id="Path 2 Copy 2" d="M4 166h415.503" stroke="#fff" stroke-opacity=".364"/><g id="attribution copy 6"><path id="{name}_2" d="M54.36 138.222a1.728 1.728 0 0 0-.28-.752c-.22-.301-.56-.451-1.02-.451-.656 0-1.105.325-1.346.977-.128.346-.191.807-.191 1.381 0 .547.063.987.19 1.319.233.62.67.93 1.313.93.456 0 .78-.123.971-.369.191-.246.308-.565.349-.957h1.989c-.046.592-.26 1.153-.643 1.681-.61.853-1.515 1.279-2.714 1.279-1.198 0-2.08-.356-2.645-1.067s-.848-1.633-.848-2.768c0-1.281.313-2.277.937-2.987.624-.711 1.486-1.067 2.584-1.067.934 0 1.697.21 2.29.629.597.419.95 1.16 1.06 2.222h-1.997zm6.685 3.404c.57 0 1.007-.203 1.312-.608.306-.406.458-.983.458-1.73s-.152-1.322-.458-1.723c-.305-.405-.742-.608-1.312-.608-.57 0-1.01.203-1.32.608-.305.401-.457.976-.457 1.723 0 .747.152 1.324.458 1.73.31.405.75.608 1.319.608zm3.814-2.338c0 1.094-.314 2.03-.943 2.81-.629.774-1.584 1.162-2.864 1.162-1.28 0-2.236-.388-2.864-1.162-.63-.78-.944-1.716-.944-2.81 0-1.075.315-2.007.944-2.796.628-.788 1.583-1.182 2.864-1.182 1.28 0 2.235.394 2.864 1.182.629.789.943 1.721.943 2.796zm5.53-3.917c.77 0 1.4.203 1.887.608.493.402.739 1.069.739 2.003V143h-1.996v-4.532c0-.392-.053-.693-.158-.903-.191-.382-.556-.574-1.093-.574-.661 0-1.115.28-1.36.841-.128.296-.192.675-.192 1.135V143h-1.942v-7.438h1.88v1.087c.25-.382.488-.658.711-.827.401-.301.91-.451 1.525-.451zm7.178-2.55c.123 0 .235.005.335.014.1.005.237.014.41.027v1.586a6.024 6.024 0 0 0-.553-.027c-.255-.009-.433.048-.533.171a.613.613 0 0 0-.144.396v.629h1.278v1.374h-1.278V143h-1.941v-6.009h-1.087v-1.374h1.066v-.478c0-.798.135-1.347.403-1.648.283-.446.964-.67 2.044-.67zm3.432 7.8c.041.346.13.593.267.738.241.26.688.39 1.34.39.382 0 .685-.057.909-.171.228-.114.341-.285.341-.513a.554.554 0 0 0-.273-.499c-.182-.114-.859-.309-2.03-.587-.843-.21-1.438-.472-1.784-.787-.347-.31-.52-.756-.52-1.339 0-.689.269-1.279.807-1.771.542-.497 1.303-.745 2.283-.745.93 0 1.686.187 2.27.56.587.37.925 1.01 1.011 1.921h-1.948c-.028-.25-.098-.449-.212-.594-.214-.265-.579-.397-1.094-.397-.424 0-.727.066-.909.198-.178.133-.267.287-.267.465a.51.51 0 0 0 .288.486c.19.104.868.284 2.03.54.775.182 1.356.458 1.743.827.383.373.574.841.574 1.401 0 .738-.276 1.342-.827 1.812-.547.465-1.395.697-2.543.697-1.171 0-2.037-.246-2.598-.738-.556-.497-.834-1.128-.834-1.894H81zm8.504-8.005h1.62L87.206 143H85.6l3.903-10.384zm3.186 8.005c.04.346.13.593.266.738.242.26.688.39 1.34.39.383 0 .686-.057.91-.171.227-.114.34-.285.34-.513a.554.554 0 0 0-.273-.499c-.182-.114-.859-.309-2.03-.587-.843-.21-1.438-.472-1.784-.787-.346-.31-.52-.756-.52-1.339 0-.689.27-1.279.807-1.771.542-.497 1.303-.745 2.283-.745.93 0 1.686.187 2.27.56.588.37.925 1.01 1.012 1.921h-1.95c-.027-.25-.098-.449-.212-.594-.214-.265-.578-.397-1.093-.397-.424 0-.727.066-.91.198-.177.133-.266.287-.266.465a.51.51 0 0 0 .287.486c.191.104.868.284 2.03.54.775.182 1.356.458 1.743.827.383.373.575.841.575 1.401 0 .738-.276 1.342-.828 1.812-.546.465-1.394.697-2.543.697-1.17 0-2.037-.246-2.597-.738-.556-.497-.834-1.128-.834-1.894h1.976zm9.214-3.664c-.451 0-.802.141-1.052.424-.247.282-.401.665-.465 1.148h3.028c-.032-.515-.189-.904-.472-1.169-.278-.269-.624-.403-1.039-.403zm0-1.606c.62 0 1.178.116 1.675.348.497.233.907.6 1.231 1.101.291.442.48.955.567 1.538.05.342.071.834.062 1.476h-5.1c.027.748.262 1.272.704 1.573.269.187.592.28.971.28.401 0 .727-.114.977-.342.137-.123.258-.294.363-.513h1.989c-.05.443-.28.891-.691 1.347-.638.725-1.531 1.087-2.679 1.087a3.779 3.779 0 0 1-2.51-.916c-.724-.611-1.086-1.604-1.086-2.98 0-1.29.326-2.279.977-2.967.657-.688 1.507-1.032 2.55-1.032zm8.901.02c.036 0 .066.002.089.007.027 0 .084.002.17.007v1.996a4.64 4.64 0 0 0-.56-.034c-.784 0-1.31.255-1.579.765-.151.287-.226.729-.226 1.326V143h-1.962v-7.451h1.86v1.299c.3-.497.563-.837.786-1.019.364-.305.838-.458 1.422-.458zm6.002.178h2.091L116.211 143h-2.058l-2.673-7.451h2.188l1.552 5.496 1.586-5.496zm6.138 1.408c-.451 0-.802.141-1.052.424-.246.282-.401.665-.465 1.148h3.028c-.032-.515-.189-.904-.472-1.169-.278-.269-.624-.403-1.039-.403zm0-1.606c.62 0 1.178.116 1.675.348.497.233.907.6 1.231 1.101.291.442.48.955.567 1.538.05.342.071.834.062 1.476h-5.1c.027.748.262 1.272.704 1.573.269.187.592.28.971.28.401 0 .727-.114.977-.342.137-.123.258-.294.363-.513h1.989c-.05.443-.28.891-.691 1.347-.638.725-1.531 1.087-2.679 1.087a3.778 3.778 0 0 1-2.509-.916c-.725-.611-1.087-1.604-1.087-2.98 0-1.29.326-2.279.978-2.967.656-.688 1.506-1.032 2.549-1.032zm8.901.02c.036 0 .066.002.089.007.027 0 .084.002.17.007v1.996a4.64 4.64 0 0 0-.56-.034c-.784 0-1.31.255-1.579.765-.151.287-.226.729-.226 1.326V143h-1.962v-7.451h1.86v1.299c.301-.497.563-.837.786-1.019.364-.305.838-.458 1.422-.458zm1.374 5.592h2.071V143h-2.071v-2.037zm9.064-1.689c0-.574-.132-1.082-.396-1.524-.26-.442-.684-.663-1.272-.663-.706 0-1.191.335-1.456 1.005-.137.355-.205.806-.205 1.353 0 .866.23 1.475.691 1.826.273.205.597.307.97.307.543 0 .955-.21 1.238-.629.287-.419.43-.977.43-1.675zm-1.107-3.889c.87 0 1.606.321 2.208.964.606.642.909 1.586.909 2.83 0 1.312-.296 2.313-.889 3.001-.588.688-1.346 1.032-2.276 1.032-.593 0-1.085-.148-1.477-.444-.214-.164-.423-.404-.629-.718v3.883h-1.927v-10.384h1.866v1.1c.21-.323.433-.578.67-.765.433-.333.948-.499 1.545-.499zm4.833 9.044l.246.013c.191.009.374.003.547-.02a.981.981 0 0 0 .437-.157c.114-.078.219-.24.315-.486.1-.246.141-.396.123-.451l-2.735-7.779h2.167l1.627 5.496 1.538-5.496h2.072l-2.557 7.328c-.492 1.413-.882 2.288-1.169 2.625-.287.342-.861.513-1.723.513-.173 0-.312-.003-.417-.007-.104 0-.262-.007-.471-.021v-1.558z" fill="#fff" fill-opacity=".78"/><g id="file_2"><g id="System/Files_2" fill-rule="evenodd" clip-rule="evenodd" fill="#fff"><path id="Rectangle 84_2" d="M33.345 129.5h-5.47A1.875 1.875 0 0 0 26 131.375v11.25c0 1.036.84 1.875 1.875 1.875h8.25A1.875 1.875 0 0 0 38 142.625v-8.47c0-.497-.197-.974-.55-1.325l-2.78-2.781a1.877 1.877 0 0 0-1.325-.549zm-5.845 1.875c0-.207.168-.375.375-.375h5.47c.1 0 .194.04.265.11l2.78 2.78c.07.07.11.166.11.265v8.47a.375.375 0 0 1-.375.375h-8.25a.375.375 0 0 1-.375-.375v-11.25z" fill-opacity=".684"/><path id="Combined Shape_3" d="M33.5 134v-3H32v3.5a1 1 0 0 0 1 1h3.5V134h-3z" fill-opacity=".727"/><path id="Combined Shape_4" d="M39 147.5a2 2 0 0 0 2-2v-11.25a1 1 0 0 0-1-1h-.5V145a1 1 0 0 1-1 1H29v.5a1 1 0 0 0 1 1h9z" fill-opacity=".684"/></g></g></g><g id="attribution copy 7"><path id="{name}_3" d="M51.946 187.66h-1.948v-1.798h1.948v1.798zm-2.884 9.769c.109.009.186.013.232.013.046.005.087.007.123.007.191 0 .335-.048.43-.143.1-.091.151-.271.151-.54v-8.183h1.948v8.217c0 .752-.148 1.308-.444 1.668-.296.36-.877.54-1.743.54a6.7 6.7 0 0 1-.267-.007c-.114-.005-.257-.009-.43-.014v-1.558zm6.261-3.808c.041.346.13.593.267.738.241.26.688.39 1.34.39.383 0 .686-.057.909-.171.228-.114.342-.285.342-.513a.554.554 0 0 0-.274-.499c-.182-.114-.859-.309-2.03-.587-.843-.21-1.438-.472-1.784-.787-.347-.31-.52-.756-.52-1.339 0-.689.27-1.279.807-1.771.542-.497 1.303-.745 2.283-.745.93 0 1.686.187 2.27.56.587.37.925 1.01 1.011 1.921h-1.948c-.027-.25-.098-.449-.212-.594-.214-.265-.579-.397-1.094-.397-.423 0-.726.066-.909.198-.178.133-.266.287-.266.465a.51.51 0 0 0 .287.486c.191.104.868.284 2.03.54.775.182 1.356.458 1.743.827.383.373.574.841.574 1.401 0 .738-.275 1.342-.827 1.812-.547.465-1.394.697-2.543.697-1.17 0-2.037-.246-2.597-.738-.556-.497-.834-1.128-.834-1.894h1.975zm8.504-8.005h1.62L61.53 196h-1.606l3.903-10.384zm3.61 2.933v4.491c0 .424.05.743.15.957.178.378.526.567 1.046.567.665 0 1.12-.268 1.367-.806.128-.292.191-.677.191-1.155v-4.054h1.976V196h-1.894v-1.053a3.644 3.644 0 0 0-.136.205 1.36 1.36 0 0 1-.26.301c-.305.274-.602.46-.889.561-.282.1-.615.15-.998.15-1.103 0-1.846-.396-2.228-1.189-.215-.438-.322-1.083-.322-1.935v-4.491h1.996zm10.664-.178c.036 0 .066.002.088.007.028 0 .085.002.171.007v1.996a4.665 4.665 0 0 0-.56-.034c-.784 0-1.31.255-1.58.765-.15.287-.225.729-.225 1.326V196h-1.962v-7.451h1.86v1.299c.3-.497.562-.837.786-1.019.364-.305.838-.458 1.422-.458zM81.498 196H79.55v-10.076h1.948V196zm3.425-2.379c.04.346.13.593.266.738.242.26.689.39 1.34.39.383 0 .686-.057.91-.171.227-.114.341-.285.341-.513a.554.554 0 0 0-.273-.499c-.183-.114-.86-.309-2.03-.587-.844-.21-1.438-.472-1.785-.787-.346-.31-.52-.756-.52-1.339 0-.689.27-1.279.808-1.771.542-.497 1.303-.745 2.283-.745.93 0 1.686.187 2.27.56.587.37.924 1.01 1.01 1.921h-1.947c-.028-.25-.098-.449-.212-.594-.214-.265-.579-.397-1.094-.397-.424 0-.727.066-.91.198-.177.133-.266.287-.266.465a.51.51 0 0 0 .287.486c.192.104.868.284 2.03.54.775.182 1.356.458 1.744.827.383.373.574.841.574 1.401 0 .738-.276 1.342-.827 1.812-.547.465-1.395.697-2.543.697-1.171 0-2.037-.246-2.598-.738-.556-.497-.834-1.128-.834-1.894h1.976zm6.241.342h2.071V196h-2.07v-2.037zm5.968-6.303h-1.948v-1.798h1.948v1.798zm-2.885 9.769c.11.009.187.013.233.013.045.005.086.007.123.007.19 0 .335-.048.43-.143.1-.091.15-.271.15-.54v-8.183h1.949v8.217c0 .752-.148 1.308-.445 1.668-.296.36-.877.54-1.743.54a6.66 6.66 0 0 1-.266-.007c-.114-.005-.258-.009-.43-.014v-1.558zm6.262-3.808c.041.346.13.593.266.738.242.26.689.39 1.34.39.383 0 .686-.057.909-.171.228-.114.342-.285.342-.513a.554.554 0 0 0-.273-.499c-.183-.114-.859-.309-2.031-.587-.843-.21-1.437-.472-1.784-.787-.346-.31-.52-.756-.52-1.339 0-.689.27-1.279.807-1.771.543-.497 1.304-.745 2.284-.745.929 0 1.686.187 2.269.56.588.37.925 1.01 1.012 1.921h-1.948c-.028-.25-.098-.449-.212-.594-.214-.265-.579-.397-1.094-.397-.424 0-.727.066-.909.198-.178.133-.267.287-.267.465a.51.51 0 0 0 .287.486c.192.104.868.284 2.031.54.774.182 1.355.458 1.743.827.383.373.574.841.574 1.401 0 .738-.276 1.342-.827 1.812-.547.465-1.395.697-2.543.697-1.171 0-2.037-.246-2.598-.738-.556-.497-.834-1.128-.834-1.894h1.976z" fill="#fff" fill-opacity=".78"/><g id="file_3"><g id="System/Files_3" fill-rule="evenodd" clip-rule="evenodd" fill="#fff"><path id="Rectangle 84_3" d="M33.345 182.5h-5.47A1.875 1.875 0 0 0 26 184.375v11.25c0 1.036.84 1.875 1.875 1.875h8.25A1.875 1.875 0 0 0 38 195.625v-8.47c0-.497-.197-.974-.55-1.325l-2.78-2.781a1.877 1.877 0 0 0-1.325-.549zm-5.845 1.875c0-.207.168-.375.375-.375h5.47c.1 0 .194.04.265.11l2.78 2.78c.07.07.11.166.11.265v8.47a.375.375 0 0 1-.375.375h-8.25a.375.375 0 0 1-.375-.375v-11.25z" fill-opacity=".684"/><path id="Combined Shape_5" d="M33.5 187v-3H32v3.5a1 1 0 0 0 1 1h3.5V187h-3z" fill-opacity=".727"/><path id="Combined Shape_6" d="M39 200.5a2 2 0 0 0 2-2v-11.25a1 1 0 0 0-1-1h-.5V198a1 1 0 0 1-1 1H29v.5a1 1 0 0 0 1 1h9z" fill-opacity=".684"/></g></g></g><path id="File Changes" d="M30.371 22.563h9.185v2.276H33.06v2.98h5.686v2.25H33.06V35.5h-2.689V22.562zm13.377 2.214h-2.54v-2.311h2.54v2.311zm-2.54 1.143h2.54v9.58h-2.54v-9.58zm7.532 9.58h-2.505V22.545h2.505V35.5zm6.232-7.77c-.58 0-1.032.182-1.354.545-.316.364-.516.856-.598 1.477h3.894c-.041-.662-.243-1.163-.606-1.503-.358-.346-.803-.518-1.336-.518zm0-2.065c.797 0 1.514.15 2.153.448.639.3 1.166.77 1.582 1.415.375.569.618 1.228.73 1.978.064.44.09 1.072.079 1.898h-6.557c.035.961.337 1.635.905 2.022.346.24.762.36 1.248.36.516 0 .935-.146 1.257-.44a2.07 2.07 0 0 0 .466-.658h2.558c-.065.568-.36 1.145-.888 1.73-.82.933-1.969 1.398-3.445 1.398a4.858 4.858 0 0 1-3.226-1.177c-.932-.786-1.398-2.063-1.398-3.832 0-1.659.42-2.93 1.257-3.815.844-.885 1.937-1.327 3.279-1.327zm10.89 3.463c0-2.262.606-4.005 1.819-5.23 1.054-1.066 2.396-1.6 4.025-1.6 2.18 0 3.773.716 4.781 2.145.557.803.856 1.609.897 2.417h-2.707c-.176-.62-.402-1.09-.677-1.406-.492-.562-1.222-.844-2.189-.844-.984 0-1.76.399-2.329 1.196-.568.79-.852 1.913-.852 3.366s.299 2.543.896 3.27c.604.72 1.368 1.08 2.294 1.08.95 0 1.673-.31 2.171-.931.276-.334.504-.835.686-1.503h2.68c-.234 1.412-.835 2.56-1.801 3.445-.961.885-2.195 1.327-3.7 1.327-1.864 0-3.329-.597-4.395-1.793-1.067-1.2-1.6-2.847-1.6-4.94zm18.65-3.454a4.06 4.06 0 0 1 1.608.307c.486.205.885.519 1.195.94a2.5 2.5 0 0 1 .484 1.108c.058.375.088.99.088 1.846V35.5h-2.558v-5.827c0-.516-.088-.932-.264-1.248-.228-.445-.662-.668-1.3-.668-.662 0-1.166.223-1.512.668-.34.44-.51 1.07-.51 1.89V35.5h-2.496V22.589h2.496v4.579c.363-.557.782-.943 1.257-1.16.48-.223.984-.334 1.512-.334zm11.004 5.168c-.159.1-.32.181-.484.246a4.234 4.234 0 0 1-.659.167l-.563.105c-.527.094-.905.208-1.133.343-.387.229-.58.583-.58 1.064 0 .427.117.738.351.931.24.188.53.282.87.282.54 0 1.035-.159 1.486-.475.457-.317.694-.894.712-1.732v-.931zm-1.52-1.17c.462-.058.793-.131.992-.219.358-.152.536-.39.536-.712 0-.392-.137-.662-.413-.808-.27-.153-.668-.229-1.195-.229-.592 0-1.01.147-1.257.44-.176.216-.293.51-.351.879H89.89c.052-.838.287-1.527.703-2.066.662-.844 1.799-1.266 3.41-1.266 1.049 0 1.98.208 2.795.624.814.416 1.221 1.202 1.221 2.356v4.394c0 .305.006.674.018 1.108.018.328.068.55.15.668a.898.898 0 0 0 .369.29v.369h-2.725a2.796 2.796 0 0 1-.158-.545 6.577 6.577 0 0 1-.07-.58 5.146 5.146 0 0 1-1.196.958c-.539.31-1.148.466-1.828.466-.867 0-1.585-.246-2.153-.739-.563-.498-.844-1.2-.844-2.109 0-1.178.454-2.03 1.362-2.557.498-.288 1.23-.493 2.198-.616l.852-.105zm11.566-3.98c.99 0 1.798.26 2.425.782.633.515.95 1.374.95 2.575V35.5h-2.567v-5.827c0-.504-.067-.89-.202-1.16-.246-.493-.715-.739-1.406-.739-.85 0-1.433.36-1.749 1.081-.164.381-.246.868-.246 1.46V35.5h-2.496v-9.563h2.417v1.398c.322-.492.626-.847.914-1.064.515-.386 1.169-.58 1.96-.58zm9.808 7.751a1.94 1.94 0 0 0 1.485-.659c.405-.445.607-1.151.607-2.118 0-.908-.193-1.6-.58-2.074-.381-.475-.894-.712-1.538-.712-.879 0-1.486.413-1.82 1.24-.175.439-.263.98-.263 1.625 0 .557.093 1.052.281 1.485.34.81.949 1.213 1.828 1.213zm-.624-7.752c.481 0 .9.074 1.257.22.609.252 1.101.715 1.476 1.389v-1.38h2.435v9.088c0 1.236-.208 2.168-.624 2.795-.715 1.078-2.086 1.617-4.113 1.617-1.225 0-2.224-.24-2.997-.72-.774-.481-1.201-1.199-1.284-2.154h2.725c.07.293.185.504.343.633.269.228.724.343 1.362.343.903 0 1.506-.302 1.811-.906.199-.386.299-1.037.299-1.951v-.615c-.241.41-.498.718-.774.923-.498.38-1.145.57-1.942.57-1.231 0-2.215-.43-2.953-1.291-.733-.867-1.099-2.04-1.099-3.516 0-1.424.354-2.619 1.063-3.586.709-.972 1.714-1.459 3.015-1.459zm11.294 2.04c-.58 0-1.031.181-1.353.544-.317.364-.516.856-.598 1.477h3.893c-.041-.662-.243-1.163-.606-1.503-.357-.346-.803-.518-1.336-.518zm0-2.066c.797 0 1.515.15 2.153.448.639.3 1.166.77 1.582 1.415.375.569.619 1.228.73 1.978.064.44.091 1.072.079 1.898h-6.557c.035.961.337 1.635.906 2.022.345.24.761.36 1.248.36.515 0 .934-.146 1.257-.44a2.07 2.07 0 0 0 .465-.658h2.558c-.065.568-.36 1.145-.888 1.73-.82.933-1.969 1.398-3.445 1.398a4.86 4.86 0 0 1-3.226-1.177c-.931-.786-1.397-2.063-1.397-3.832 0-1.659.419-2.93 1.257-3.815.843-.885 1.936-1.327 3.278-1.327zm8.191 6.776c.053.446.167.762.343.95.311.334.885.5 1.723.5.492 0 .882-.073 1.169-.22.293-.146.439-.365.439-.658a.71.71 0 0 0-.351-.642c-.235-.146-1.105-.398-2.611-.756-1.084-.27-1.848-.606-2.294-1.01-.445-.399-.668-.973-.668-1.723 0-.885.346-1.644 1.038-2.277.697-.638 1.675-.957 2.935-.957 1.195 0 2.168.24 2.918.72.756.475 1.19 1.298 1.301 2.47h-2.505c-.035-.322-.126-.577-.272-.765-.276-.34-.745-.51-1.407-.51-.545 0-.934.085-1.169.255-.228.17-.342.37-.342.598 0 .287.123.495.369.624.246.135 1.116.366 2.61.694.996.235 1.743.59 2.241 1.064.492.48.739 1.08.739 1.802 0 .949-.355 1.725-1.064 2.329-.703.597-1.793.896-3.269.896-1.506 0-2.62-.316-3.34-.949-.715-.639-1.073-1.45-1.073-2.435h2.54z" fill="#fff" fill-opacity=".825"/></g><g id="new-issues"><g id="Group 6 Copy"><path fill-rule="evenodd" clip-rule="evenodd" d="M96 67h365c14.359 0 26 11.64 26 26v162c0 14.359-11.641 26-26 26H96c-14.36 0-26-11.641-26-26V93c0-14.36 11.64-26 26-26z" fill="url(#paint0_linear)" id="Rectangle 2 Copy_2" filter="url(#filter1_d)"/><path id="Path 2_2" d="M72 126h413.5" stroke="#fff" stroke-opacity=".286"/><path id="Path 2 Copy_2" d="M72 203h413.5" stroke="#fff" stroke-opacity=".286"/></g><path id="New Issues" d="M95.87 100v-8.262h.036l4.662 8.262h2.394V87.4h-2.448v8.262h-.036L95.87 87.4h-2.43V100h2.43zm15.992-3.294c-.63.918-1.26 1.494-2.34 1.494-1.278 0-2.034-.81-2.106-2.268h6.408v-.702c0-1.53-.414-2.736-1.242-3.654-.81-.918-1.854-1.386-3.132-1.386s-2.322.468-3.168 1.386c-.828.918-1.242 2.124-1.242 3.654 0 1.53.414 2.754 1.26 3.672.846.918 1.926 1.368 3.258 1.368 1.656 0 2.97-.702 3.942-2.124l-1.638-1.44zm-4.446-2.52c.09-1.098.882-1.944 2.034-1.944 1.242 0 1.98.72 2.106 1.944h-4.14zM119.361 100l2.358-6.858h.036l2.178 6.858h2.304l2.286-9.54h-2.25l-1.44 6.354h-.036l-1.962-6.354h-2.124l-2.124 6.372h-.054l-1.26-6.372h-2.286l2.106 9.54h2.268zm18.154 0V87.4h-2.43V100h2.43zm2.064-3.15a4.12 4.12 0 0 0 1.278 2.43c.72.666 1.746.99 3.06.99 1.26 0 2.214-.306 2.88-.9.666-.612 1.008-1.296 1.008-2.07 0-.72-.198-1.314-.612-1.764-.396-.468-1.152-.846-2.268-1.152-1.278-.36-2.07-.612-2.394-.756-.306-.162-.468-.36-.468-.63 0-.486.576-.882 1.494-.882 1.17 0 1.71.558 2.052 1.476l1.944-.594c-.54-1.872-1.872-2.808-4.014-2.808-1.116 0-1.998.288-2.646.864-.63.576-.954 1.26-.954 2.052 0 1.422.99 2.178 3.204 2.808.126.036.288.09.522.144.846.234 1.386.432 1.656.576.27.126.396.342.396.612 0 .666-.738 1.062-1.89 1.062-1.26 0-1.98-.666-2.142-1.998l-2.106.54zm9.299 0a4.12 4.12 0 0 0 1.278 2.43c.72.666 1.746.99 3.06.99 1.26 0 2.214-.306 2.88-.9.666-.612 1.008-1.296 1.008-2.07 0-.72-.198-1.314-.612-1.764-.396-.468-1.152-.846-2.268-1.152-1.278-.36-2.07-.612-2.394-.756-.306-.162-.468-.36-.468-.63 0-.486.576-.882 1.494-.882 1.17 0 1.71.558 2.052 1.476l1.944-.594c-.54-1.872-1.872-2.808-4.014-2.808-1.116 0-1.998.288-2.646.864-.63.576-.954 1.26-.954 2.052 0 1.422.99 2.178 3.204 2.808.126.036.288.09.522.144.846.234 1.386.432 1.656.576.27.126.396.342.396.612 0 .666-.738 1.062-1.89 1.062-1.26 0-1.98-.666-2.142-1.998l-2.106.54zm9.929-.234c0 2.232 1.044 3.654 3.258 3.654 1.062 0 1.89-.396 2.484-1.188h.036V100h2.232v-9.54h-2.34v5.724c0 1.278-.756 1.836-1.89 1.836-1.008 0-1.44-.45-1.44-1.656V90.46h-2.34v6.156zm16.723.09c-.63.918-1.26 1.494-2.34 1.494-1.278 0-2.034-.81-2.106-2.268h6.408v-.702c0-1.53-.414-2.736-1.242-3.654-.81-.918-1.854-1.386-3.132-1.386s-2.322.468-3.168 1.386c-.828.918-1.242 2.124-1.242 3.654 0 1.53.414 2.754 1.26 3.672.846.918 1.926 1.368 3.258 1.368 1.656 0 2.97-.702 3.942-2.124l-1.638-1.44zm-4.446-2.52c.09-1.098.882-1.944 2.034-1.944 1.242 0 1.98.72 2.106 1.944h-4.14zm7.571 2.664a4.12 4.12 0 0 0 1.278 2.43c.72.666 1.746.99 3.06.99 1.26 0 2.214-.306 2.88-.9.666-.612 1.008-1.296 1.008-2.07 0-.72-.198-1.314-.612-1.764-.396-.468-1.152-.846-2.268-1.152-1.278-.36-2.07-.612-2.394-.756-.306-.162-.468-.36-.468-.63 0-.486.576-.882 1.494-.882 1.17 0 1.71.558 2.052 1.476l1.944-.594c-.54-1.872-1.872-2.808-4.014-2.808-1.116 0-1.998.288-2.646.864-.63.576-.954 1.26-.954 2.052 0 1.422.99 2.178 3.204 2.808.126.036.288.09.522.144.846.234 1.386.432 1.656.576.27.126.396.342.396.612 0 .666-.738 1.062-1.89 1.062-1.26 0-1.98-.666-2.142-1.998l-2.106.54z" fill="#fff"/><path id="DataError" d="M92.87 158.65h1.782c1.71 0 2.844 1.224 2.844 4.032 0 1.674-.324 2.79-.9 3.348-.576.558-1.188.72-2.052.72H92.87v-8.1zM94.544 169c1.494 0 2.736-.414 3.816-1.332 1.08-.936 1.746-2.682 1.746-4.986 0-4.356-2.664-6.282-5.454-6.282H90.44V169h4.104zm14.856 0v-6.048c0-1.278-.378-2.232-1.116-2.844-.738-.612-1.692-.918-2.862-.918-2.142 0-3.474 1.134-3.924 2.736l1.944.81c.306-.954.738-1.566 2.016-1.566 1.08 0 1.62.432 1.62 1.008 0 .288-.144.504-.414.666-.27.162-.954.36-2.052.63-2.358.576-3.24 1.314-3.24 2.97 0 1.584 1.134 2.826 3.438 2.826 1.926 0 2.592-1.17 2.592-1.188h.036V169h1.962zm-4.32-3.906c1.152-.288 1.782-.576 1.872-.666.054-.054.108-.144.162-.234h.036v1.656c0 .792-.702 1.404-2.124 1.404-.936 0-1.404-.324-1.404-.972 0-.504.252-.9 1.458-1.188zm7.146.504c0 1.188.234 2.052.72 2.592s1.368.81 2.646.81h.99v-2.25h-.774c-1.026 0-1.278-.36-1.278-1.368v-3.942h2.376v-1.98h-2.412v-2.34h-2.214v2.34h-1.53v1.98h1.476v4.158zM125.924 169v-6.048c0-1.278-.378-2.232-1.116-2.844-.738-.612-1.692-.918-2.862-.918-2.142 0-3.474 1.134-3.924 2.736l1.944.81c.306-.954.738-1.566 2.016-1.566 1.08 0 1.62.432 1.62 1.008 0 .288-.144.504-.414.666-.27.162-.954.36-2.052.63-2.358.576-3.24 1.314-3.24 2.97 0 1.584 1.134 2.826 3.438 2.826 1.926 0 2.592-1.17 2.592-1.188h.036V169h1.962zm-4.32-3.906c1.152-.288 1.782-.576 1.872-.666.054-.054.108-.144.162-.234h.036v1.656c0 .792-.702 1.404-2.124 1.404-.936 0-1.404-.324-1.404-.972 0-.504.252-.9 1.458-1.188zM136.418 169v-2.25h-5.544v-3.114h5.04v-2.16h-5.04v-2.826h5.544v-2.25h-7.974V169h7.974zm4.592 0v-5.238c0-1.458.54-2.178 1.638-2.178.234 0 .468.054.738.144l.36-2.268a2.01 2.01 0 0 0-.864-.18c-.846 0-1.602.468-1.962 1.188h-.036v-1.008h-2.214V169h2.34zm6.434 0v-5.238c0-1.458.54-2.178 1.638-2.178.234 0 .468.054.738.144l.36-2.268a2.01 2.01 0 0 0-.864-.18c-.846 0-1.602.468-1.962 1.188h-.036v-1.008h-2.214V169h2.34zm6.168-2.592c-.378-.504-.576-1.224-.576-2.178s.198-1.674.576-2.178c.396-.504.918-.756 1.584-.756s1.188.252 1.566.774c.396.504.594 1.224.594 2.16 0 .936-.198 1.656-.576 2.178-.378.504-.918.756-1.584.756s-1.206-.252-1.584-.756zm-2.88-2.178c0 1.584.414 2.826 1.26 3.708.846.882 1.908 1.332 3.204 1.332 1.296 0 2.358-.45 3.204-1.332.846-.882 1.26-2.124 1.26-3.708 0-1.566-.432-2.79-1.296-3.69-.864-.9-1.926-1.35-3.168-1.35-1.242 0-2.304.45-3.168 1.35-.864.9-1.296 2.124-1.296 3.69zm13.165 4.77v-5.238c0-1.458.54-2.178 1.638-2.178.234 0 .468.054.738.144l.36-2.268a2.01 2.01 0 0 0-.864-.18c-.846 0-1.602.468-1.962 1.188h-.036v-1.008h-2.214V169h2.34z" fill="#fff"/><path id="ResponseError" d="M92.87 244v-4.68h1.872L97.28 244h2.628l-2.682-4.914c1.656-.522 2.664-1.854 2.664-3.672 0-1.224-.396-2.196-1.206-2.916-.792-.738-1.836-1.098-3.132-1.098H90.44V244h2.43zm0-10.404h2.484c1.386 0 2.07.612 2.07 1.818s-.684 1.8-2.07 1.8H92.87v-3.618zm15.025 7.11c-.63.918-1.26 1.494-2.34 1.494-1.278 0-2.034-.81-2.106-2.268h6.408v-.702c0-1.53-.414-2.736-1.242-3.654-.81-.918-1.854-1.386-3.132-1.386s-2.322.468-3.168 1.386c-.828.918-1.242 2.124-1.242 3.654 0 1.53.414 2.754 1.26 3.672.846.918 1.926 1.368 3.258 1.368 1.656 0 2.97-.702 3.942-2.124l-1.638-1.44zm-4.446-2.52c.09-1.098.882-1.944 2.034-1.944 1.242 0 1.98.72 2.106 1.944h-4.14zm7.571 2.664a4.12 4.12 0 0 0 1.278 2.43c.72.666 1.746.99 3.06.99 1.26 0 2.214-.306 2.88-.9.666-.612 1.008-1.296 1.008-2.07 0-.72-.198-1.314-.612-1.764-.396-.468-1.152-.846-2.268-1.152-1.278-.36-2.07-.612-2.394-.756-.306-.162-.468-.36-.468-.63 0-.486.576-.882 1.494-.882 1.17 0 1.71.558 2.052 1.476l1.944-.594c-.54-1.872-1.872-2.808-4.014-2.808-1.116 0-1.998.288-2.646.864-.63.576-.954 1.26-.954 2.052 0 1.422.99 2.178 3.204 2.808.126.036.288.09.522.144.846.234 1.386.432 1.656.576.27.126.396.342.396.612 0 .666-.738 1.062-1.89 1.062-1.26 0-1.98-.666-2.142-1.998l-2.106.54zm12.359-2.61c0-1.08.81-1.944 2.052-1.944 1.386 0 2.34 1.044 2.34 2.934 0 1.89-.972 2.934-2.34 2.934-1.242 0-2.052-.864-2.052-1.962v-1.962zm0 9.81v-4.968h.036l.072.126c.216.306.99 1.062 2.43 1.062 1.17 0 2.16-.45 2.97-1.35.81-.9 1.224-2.124 1.224-3.69 0-1.548-.432-2.772-1.278-3.672-.846-.918-1.818-1.368-2.952-1.368-1.854.018-2.574 1.17-2.574 1.188h-.036v-.918h-2.232v13.59h2.34zm10.879-6.642c-.378-.504-.576-1.224-.576-2.178s.198-1.674.576-2.178c.396-.504.918-.756 1.584-.756s1.188.252 1.566.774c.396.504.594 1.224.594 2.16 0 .936-.198 1.656-.576 2.178-.378.504-.918.756-1.584.756s-1.206-.252-1.584-.756zm-2.88-2.178c0 1.584.414 2.826 1.26 3.708.846.882 1.908 1.332 3.204 1.332 1.296 0 2.358-.45 3.204-1.332.846-.882 1.26-2.124 1.26-3.708 0-1.566-.432-2.79-1.296-3.69-.864-.9-1.926-1.35-3.168-1.35-1.242 0-2.304.45-3.168 1.35-.864.9-1.296 2.124-1.296 3.69zm13.165 4.77v-5.832c0-1.098.684-1.818 1.836-1.818 1.224 0 1.674.666 1.674 1.98V244h2.34v-6.246c0-2.232-1.278-3.564-3.384-3.564-1.008 0-1.998.522-2.52 1.188h-.036v-.918h-2.25V244h2.34zm7.558-3.15a4.12 4.12 0 0 0 1.278 2.43c.72.666 1.746.99 3.06.99 1.26 0 2.214-.306 2.88-.9.666-.612 1.008-1.296 1.008-2.07 0-.72-.198-1.314-.612-1.764-.396-.468-1.152-.846-2.268-1.152-1.278-.36-2.07-.612-2.394-.756-.306-.162-.468-.36-.468-.63 0-.486.576-.882 1.494-.882 1.17 0 1.71.558 2.052 1.476l1.944-.594c-.54-1.872-1.872-2.808-4.014-2.808-1.116 0-1.998.288-2.646.864-.63.576-.954 1.26-.954 2.052 0 1.422.99 2.178 3.204 2.808.126.036.288.09.522.144.846.234 1.386.432 1.656.576.27.126.396.342.396.612 0 .666-.738 1.062-1.89 1.062-1.26 0-1.98-.666-2.142-1.998l-2.106.54zm16.21-.144c-.63.918-1.26 1.494-2.34 1.494-1.278 0-2.034-.81-2.106-2.268h6.408v-.702c0-1.53-.414-2.736-1.242-3.654-.81-.918-1.854-1.386-3.132-1.386s-2.322.468-3.168 1.386c-.828.918-1.242 2.124-1.242 3.654 0 1.53.414 2.754 1.26 3.672.846.918 1.926 1.368 3.258 1.368 1.656 0 2.97-.702 3.942-2.124l-1.638-1.44zm-4.446-2.52c.09-1.098.882-1.944 2.034-1.944 1.242 0 1.98.72 2.106 1.944h-4.14zM180.31 244v-2.25h-5.544v-3.114h5.04v-2.16h-5.04v-2.826h5.544v-2.25h-7.974V244h7.974zm4.593 0v-5.238c0-1.458.54-2.178 1.638-2.178.234 0 .468.054.738.144l.36-2.268a2.01 2.01 0 0 0-.864-.18c-.846 0-1.602.468-1.962 1.188h-.036v-1.008h-2.214V244h2.34zm6.433 0v-5.238c0-1.458.54-2.178 1.638-2.178.234 0 .468.054.738.144l.36-2.268a2.01 2.01 0 0 0-.864-.18c-.846 0-1.602.468-1.962 1.188h-.036v-1.008h-2.214V244h2.34zm6.168-2.592c-.378-.504-.576-1.224-.576-2.178s.198-1.674.576-2.178c.396-.504.918-.756 1.584-.756s1.188.252 1.566.774c.396.504.594 1.224.594 2.16 0 .936-.198 1.656-.576 2.178-.378.504-.918.756-1.584.756s-1.206-.252-1.584-.756zm-2.88-2.178c0 1.584.414 2.826 1.26 3.708.846.882 1.908 1.332 3.204 1.332 1.296 0 2.358-.45 3.204-1.332.846-.882 1.26-2.124 1.26-3.708 0-1.566-.432-2.79-1.296-3.69-.864-.9-1.926-1.35-3.168-1.35-1.242 0-2.304.45-3.168 1.35-.864.9-1.296 2.124-1.296 3.69zm13.165 4.77v-5.238c0-1.458.54-2.178 1.638-2.178.234 0 .468.054.738.144l.36-2.268a2.01 2.01 0 0 0-.864-.18c-.846 0-1.602.468-1.962 1.188h-.036v-1.008h-2.214V244h2.34z" fill="#fff"/><path id="/api/0/projects/ copy" d="M172.422 169.756l6.48-13.644-1.152-.54-6.48 13.68 1.152.504zm15.212-.756v-6.3c0-2.394-1.476-3.51-3.708-3.51-2.07 0-3.366 1.134-3.708 2.79l1.53.54c.288-1.206 1.026-1.8 2.214-1.8 1.242 0 1.872.558 1.872 1.296 0 .378-.18.648-.558.846-.36.198-1.062.414-2.088.684-2.322.576-3.204 1.368-3.204 2.97 0 1.584 1.098 2.754 3.276 2.754.774 0 1.386-.144 1.872-.432.486-.306.81-.576.936-.846h.036V169h1.53zm-4.05-4.176c1.908-.522 2.214-.756 2.304-1.044h.036v2.142c0 1.008-.9 1.8-2.502 1.8-1.152 0-1.728-.432-1.728-1.314 0-.738.396-1.17 1.89-1.584zm8.497-1.836c0-.576.216-1.08.63-1.53.432-.45.99-.666 1.692-.666 1.728 0 2.754 1.26 2.754 3.438s-1.026 3.456-2.754 3.456c-.666 0-1.224-.198-1.674-.594-.432-.414-.648-.882-.648-1.44v-2.664zm0 10.062v-4.968h.036c.378.522 1.332 1.188 2.628 1.188 1.206 0 2.214-.45 2.988-1.35.774-.918 1.17-2.142 1.17-3.69 0-1.53-.414-2.736-1.224-3.654-.81-.918-1.782-1.386-2.952-1.386-.936 0-1.836.414-2.214.72a2.868 2.868 0 0 0-.468.468h-.036v-.918h-1.674v13.59h1.746zm10.882-4.05v-9.54h-1.746V169h1.746zm.072-11.286v-1.854h-1.89v1.854h1.89zm2.856 12.042l6.48-13.644-1.152-.54-6.48 13.68 1.152.504zm12.296-.486c2.952 0 4.752-2.34 4.752-6.75 0-2.07-.432-3.636-1.314-4.734-.864-1.098-2.016-1.656-3.438-1.656-1.422 0-2.556.558-3.438 1.656-.864 1.098-1.296 2.664-1.296 4.734 0 4.41 1.8 6.75 4.734 6.75zm2.916-6.75c0 3.402-.972 5.094-2.916 5.094s-2.916-1.692-2.916-5.094c0-3.114 1.044-4.716 2.916-4.716 1.944 0 2.916 1.566 2.916 4.716zm4.071 7.236l6.48-13.644-1.152-.54-6.48 13.68 1.152.504zm9.938-6.768c0-.576.216-1.08.63-1.53.432-.45.99-.666 1.692-.666 1.728 0 2.754 1.26 2.754 3.438s-1.026 3.456-2.754 3.456c-.666 0-1.224-.198-1.674-.594-.432-.414-.648-.882-.648-1.44v-2.664zm0 10.062v-4.968h.036c.378.522 1.332 1.188 2.628 1.188 1.206 0 2.214-.45 2.988-1.35.774-.918 1.17-2.142 1.17-3.69 0-1.53-.414-2.736-1.224-3.654-.81-.918-1.782-1.386-2.952-1.386-.936 0-1.836.414-2.214.72a2.868 2.868 0 0 0-.468.468h-.036v-.918h-1.674v13.59h1.746zm10.81-4.05v-5.598c0-1.566.576-2.34 1.728-2.34.27 0 .504.054.738.144l.306-1.728c-.234-.126-.522-.18-.846-.18-.792 0-1.584.45-1.962 1.188h-.036v-1.026h-1.674V169h1.746zm8.063-1.314c-1.566 0-2.646-1.242-2.646-3.456s1.062-3.438 2.646-3.438c1.53 0 2.592 1.278 2.592 3.438 0 2.178-1.062 3.456-2.592 3.456zm0 1.584c1.26 0 2.286-.45 3.096-1.332.81-.882 1.224-2.124 1.224-3.708 0-1.566-.414-2.79-1.26-3.69-.828-.9-1.854-1.35-3.06-1.35-1.242 0-2.268.45-3.114 1.35-.846.9-1.26 2.124-1.26 3.69 0 1.584.414 2.826 1.224 3.708.828.882 1.872 1.332 3.15 1.332zm6.214 3.24c1.44 0 2.142-.738 2.142-2.448V159.46h-1.746v10.458c0 .702-.252.936-.774.936h-.342v1.656h.72zm2.196-14.796v-1.854h-1.89v1.854h1.89zm9.355 8.244c-.288.486-.396.648-.846 1.098-.432.432-1.044.648-1.836.648-1.674 0-2.592-1.242-2.646-2.952h6.912v-.522c0-1.548-.396-2.772-1.206-3.672-.81-.918-1.836-1.368-3.114-1.368-1.278 0-2.322.468-3.15 1.386-.81.918-1.224 2.124-1.224 3.654 0 1.53.414 2.754 1.242 3.672.828.918 1.908 1.368 3.222 1.368 1.89 0 3.222-.972 3.96-2.322l-1.314-.99zm-5.31-2.574c.018-.666.252-1.26.702-1.8.45-.558 1.062-.828 1.872-.828 1.674 0 2.502 1.17 2.574 2.628h-5.148zm15.196 1.89c-.216 1.386-.936 2.412-2.286 2.412-1.656 0-2.664-1.278-2.664-3.456s1.044-3.438 2.646-3.438c1.35 0 2.088.918 2.286 2.196l1.71-.27c-.126-1.044-.54-1.89-1.278-2.538-.72-.666-1.62-.99-2.718-.99-1.242 0-2.268.45-3.114 1.35-.846.882-1.26 2.124-1.26 3.69 0 1.566.396 2.79 1.206 3.69.81.9 1.872 1.35 3.15 1.35 2.25 0 3.726-1.35 4.068-3.564l-1.746-.432zm4.316.738c0 2.016.756 2.988 2.826 2.988h.846v-1.692h-.72c-.99 0-1.224-.396-1.224-1.476v-4.842h2.358v-1.53h-2.376v-2.34h-1.674v2.34h-1.44v1.53h1.404v5.022zm5.352-.216c.108.99.504 1.818 1.188 2.484.684.666 1.674.99 2.952.99 1.242 0 2.16-.288 2.79-.846.63-.576.936-1.242.918-1.998 0-.756-.234-1.35-.684-1.8-.45-.45-1.26-.846-2.448-1.188-1.188-.342-1.944-.594-2.268-.774-.324-.18-.486-.45-.486-.81 0-.648.648-1.188 1.8-1.188 1.152 0 1.908.576 2.286 1.71l1.512-.414c-.45-1.674-1.674-2.772-3.816-2.772-1.062 0-1.89.27-2.502.81-.594.54-.9 1.17-.9 1.908 0 1.422.9 2.142 3.204 2.772 1.098.306 1.836.576 2.178.792.342.198.522.522.522.936 0 .81-.774 1.368-2.16 1.368-1.458 0-2.286-.774-2.466-2.34l-1.62.36zm10.001 3.96l6.48-13.644-1.152-.54-6.48 13.68 1.152.504z" fill="#E4B4B0"/><path id="/api/0/projects/ copy 2" d="M216.422 244.756l6.48-13.644-1.152-.54-6.48 13.68 1.152.504zm15.212-.756v-6.3c0-2.394-1.476-3.51-3.708-3.51-2.07 0-3.366 1.134-3.708 2.79l1.53.54c.288-1.206 1.026-1.8 2.214-1.8 1.242 0 1.872.558 1.872 1.296 0 .378-.18.648-.558.846-.36.198-1.062.414-2.088.684-2.322.576-3.204 1.368-3.204 2.97 0 1.584 1.098 2.754 3.276 2.754.774 0 1.386-.144 1.872-.432.486-.306.81-.576.936-.846h.036V244h1.53zm-4.05-4.176c1.908-.522 2.214-.756 2.304-1.044h.036v2.142c0 1.008-.9 1.8-2.502 1.8-1.152 0-1.728-.432-1.728-1.314 0-.738.396-1.17 1.89-1.584zm8.497-1.836c0-.576.216-1.08.63-1.53.432-.45.99-.666 1.692-.666 1.728 0 2.754 1.26 2.754 3.438s-1.026 3.456-2.754 3.456c-.666 0-1.224-.198-1.674-.594-.432-.414-.648-.882-.648-1.44v-2.664zm0 10.062v-4.968h.036c.378.522 1.332 1.188 2.628 1.188 1.206 0 2.214-.45 2.988-1.35.774-.918 1.17-2.142 1.17-3.69 0-1.53-.414-2.736-1.224-3.654-.81-.918-1.782-1.386-2.952-1.386-.936 0-1.836.414-2.214.72a2.868 2.868 0 0 0-.468.468h-.036v-.918h-1.674v13.59h1.746zm10.882-4.05v-9.54h-1.746V244h1.746zm.072-11.286v-1.854h-1.89v1.854h1.89zm2.856 12.042l6.48-13.644-1.152-.54-6.48 13.68 1.152.504zm12.296-.486c2.952 0 4.752-2.34 4.752-6.75 0-2.07-.432-3.636-1.314-4.734-.864-1.098-2.016-1.656-3.438-1.656-1.422 0-2.556.558-3.438 1.656-.864 1.098-1.296 2.664-1.296 4.734 0 4.41 1.8 6.75 4.734 6.75zm2.916-6.75c0 3.402-.972 5.094-2.916 5.094s-2.916-1.692-2.916-5.094c0-3.114 1.044-4.716 2.916-4.716 1.944 0 2.916 1.566 2.916 4.716zm4.071 7.236l6.48-13.644-1.152-.54-6.48 13.68 1.152.504zm9.938-6.768c0-.576.216-1.08.63-1.53.432-.45.99-.666 1.692-.666 1.728 0 2.754 1.26 2.754 3.438s-1.026 3.456-2.754 3.456c-.666 0-1.224-.198-1.674-.594-.432-.414-.648-.882-.648-1.44v-2.664zm0 10.062v-4.968h.036c.378.522 1.332 1.188 2.628 1.188 1.206 0 2.214-.45 2.988-1.35.774-.918 1.17-2.142 1.17-3.69 0-1.53-.414-2.736-1.224-3.654-.81-.918-1.782-1.386-2.952-1.386-.936 0-1.836.414-2.214.72a2.868 2.868 0 0 0-.468.468h-.036v-.918h-1.674v13.59h1.746zm10.81-4.05v-5.598c0-1.566.576-2.34 1.728-2.34.27 0 .504.054.738.144l.306-1.728c-.234-.126-.522-.18-.846-.18-.792 0-1.584.45-1.962 1.188h-.036v-1.026h-1.674V244h1.746zm8.063-1.314c-1.566 0-2.646-1.242-2.646-3.456s1.062-3.438 2.646-3.438c1.53 0 2.592 1.278 2.592 3.438 0 2.178-1.062 3.456-2.592 3.456zm0 1.584c1.26 0 2.286-.45 3.096-1.332.81-.882 1.224-2.124 1.224-3.708 0-1.566-.414-2.79-1.26-3.69-.828-.9-1.854-1.35-3.06-1.35-1.242 0-2.268.45-3.114 1.35-.846.9-1.26 2.124-1.26 3.69 0 1.584.414 2.826 1.224 3.708.828.882 1.872 1.332 3.15 1.332zm6.214 3.24c1.44 0 2.142-.738 2.142-2.448V234.46h-1.746v10.458c0 .702-.252.936-.774.936h-.342v1.656h.72zm2.196-14.796v-1.854h-1.89v1.854h1.89zm9.355 8.244c-.288.486-.396.648-.846 1.098-.432.432-1.044.648-1.836.648-1.674 0-2.592-1.242-2.646-2.952h6.912v-.522c0-1.548-.396-2.772-1.206-3.672-.81-.918-1.836-1.368-3.114-1.368-1.278 0-2.322.468-3.15 1.386-.81.918-1.224 2.124-1.224 3.654 0 1.53.414 2.754 1.242 3.672.828.918 1.908 1.368 3.222 1.368 1.89 0 3.222-.972 3.96-2.322l-1.314-.99zm-5.31-2.574c.018-.666.252-1.26.702-1.8.45-.558 1.062-.828 1.872-.828 1.674 0 2.502 1.17 2.574 2.628h-5.148zm15.196 1.89c-.216 1.386-.936 2.412-2.286 2.412-1.656 0-2.664-1.278-2.664-3.456s1.044-3.438 2.646-3.438c1.35 0 2.088.918 2.286 2.196l1.71-.27c-.126-1.044-.54-1.89-1.278-2.538-.72-.666-1.62-.99-2.718-.99-1.242 0-2.268.45-3.114 1.35-.846.882-1.26 2.124-1.26 3.69 0 1.566.396 2.79 1.206 3.69.81.9 1.872 1.35 3.15 1.35 2.25 0 3.726-1.35 4.068-3.564l-1.746-.432zm4.316.738c0 2.016.756 2.988 2.826 2.988h.846v-1.692h-.72c-.99 0-1.224-.396-1.224-1.476v-4.842h2.358v-1.53h-2.376v-2.34h-1.674v2.34h-1.44v1.53h1.404v5.022zm5.352-.216c.108.99.504 1.818 1.188 2.484.684.666 1.674.99 2.952.99 1.242 0 2.16-.288 2.79-.846.63-.576.936-1.242.918-1.998 0-.756-.234-1.35-.684-1.8-.45-.45-1.26-.846-2.448-1.188-1.188-.342-1.944-.594-2.268-.774-.324-.18-.486-.45-.486-.81 0-.648.648-1.188 1.8-1.188 1.152 0 1.908.576 2.286 1.71l1.512-.414c-.45-1.674-1.674-2.772-3.816-2.772-1.062 0-1.89.27-2.502.81-.594.54-.9 1.17-.9 1.908 0 1.422.9 2.142 3.204 2.772 1.098.306 1.836.576 2.178.792.342.198.522.522.522.936 0 .81-.774 1.368-2.16 1.368-1.458 0-2.286-.774-2.466-2.34l-1.62.36zm10.001 3.96l6.48-13.644-1.152-.54-6.48 13.68 1.152.504z" fill="#E4B4B0"/><g id="Oval Copy"><path id="Shape" fill-rule="evenodd" clip-rule="evenodd" d="M434.385 166c0 9.176 7.439 16.615 16.615 16.615 9.176 0 16.615-7.439 16.615-16.615 0-9.176-7.439-16.615-16.615-16.615-9.176 0-16.615 7.439-16.615 16.615zm30.461 0c0 7.647-6.199 13.846-13.846 13.846s-13.846-6.199-13.846-13.846 6.199-13.846 13.846-13.846 13.846 6.199 13.846 13.846zm-15.231 1.385v-8.308a1.385 1.385 0 1 1 2.77 0v8.308a1.385 1.385 0 0 1-2.77 0zm1.385 4.153a1.385 1.385 0 1 0 0 2.77 1.385 1.385 0 0 0 0-2.77z" fill="#fff"/></g><g id="Oval Copy 2"><path id="Shape_2" fill-rule="evenodd" clip-rule="evenodd" d="M434.385 241c0 9.176 7.439 16.615 16.615 16.615 9.176 0 16.615-7.439 16.615-16.615 0-9.176-7.439-16.615-16.615-16.615-9.176 0-16.615 7.439-16.615 16.615zm30.461 0c0 7.647-6.199 13.846-13.846 13.846s-13.846-6.199-13.846-13.846 6.199-13.846 13.846-13.846 13.846 6.199 13.846 13.846zm-15.231 1.385v-8.308a1.385 1.385 0 1 1 2.77 0v8.308a1.385 1.385 0 0 1-2.77 0zm1.385 4.153a1.385 1.385 0 1 0 0 2.77 1.385 1.385 0 0 0 0-2.77z" fill="#fff"/></g></g><g id="resolved-issues"><g id="Group 6 Copy_2"><path fill-rule="evenodd" clip-rule="evenodd" d="M162 129h365c14.359 0 26 11.641 26 26v163c0 14.359-11.641 26-26 26H162c-14.359 0-26-11.641-26-26V155c0-14.359 11.641-26 26-26z" fill="#40358B" id="Rectangle 2 Copy_3" filter="url(#filter2_d)"/><path id="Path 2_3" d="M138 189h413.5" stroke="#fff" stroke-opacity=".226"/><path id="Path 2 Copy_3" d="M138 266h413.5" stroke="#fff" stroke-opacity=".226"/></g><g id="Oval Copy 3"><g id="icon-circle-check"><path id="Shape_3" fill-rule="evenodd" clip-rule="evenodd" d="M517 245.615c-9.176 0-16.615-7.439-16.615-16.615 0-9.176 7.439-16.615 16.615-16.615 9.176 0 16.615 7.439 16.615 16.615 0 9.176-7.439 16.615-16.615 16.615zm0-2.769c7.647 0 13.846-6.199 13.846-13.846s-6.199-13.846-13.846-13.846-13.846 6.199-13.846 13.846 6.199 13.846 13.846 13.846zm6.29-18.864l-8.713 8.714-3.752-3.752a1.384 1.384 0 1 0-1.958 1.958l4.731 4.731a1.384 1.384 0 0 0 1.958 0l9.692-9.692a1.385 1.385 0 0 0-1.958-1.959z" fill="#fff"/></g></g><g id="Oval Copy 4"><g id="icon-circle-check_2"><path id="Shape_4" fill-rule="evenodd" clip-rule="evenodd" d="M517 320.615c-9.176 0-16.615-7.439-16.615-16.615 0-9.176 7.439-16.615 16.615-16.615 9.176 0 16.615 7.439 16.615 16.615 0 9.176-7.439 16.615-16.615 16.615zm0-2.769c7.647 0 13.846-6.199 13.846-13.846s-6.199-13.846-13.846-13.846-13.846 6.199-13.846 13.846 6.199 13.846 13.846 13.846zm6.29-18.864l-8.713 8.714-3.752-3.752a1.384 1.384 0 1 0-1.958 1.958l4.731 4.731a1.384 1.384 0 0 0 1.958 0l9.692-9.692a1.385 1.385 0 0 0-1.958-1.959z" fill="#fff"/></g></g><path id="DataError_2" d="M158.87 221.65h1.782c1.71 0 2.844 1.224 2.844 4.032 0 1.674-.324 2.79-.9 3.348-.576.558-1.188.72-2.052.72h-1.674v-8.1zm1.674 10.35c1.494 0 2.736-.414 3.816-1.332 1.08-.936 1.746-2.682 1.746-4.986 0-4.356-2.664-6.282-5.454-6.282h-4.212V232h4.104zm14.856 0v-6.048c0-1.278-.378-2.232-1.116-2.844-.738-.612-1.692-.918-2.862-.918-2.142 0-3.474 1.134-3.924 2.736l1.944.81c.306-.954.738-1.566 2.016-1.566 1.08 0 1.62.432 1.62 1.008 0 .288-.144.504-.414.666-.27.162-.954.36-2.052.63-2.358.576-3.24 1.314-3.24 2.97 0 1.584 1.134 2.826 3.438 2.826 1.926 0 2.592-1.17 2.592-1.188h.036V232h1.962zm-4.32-3.906c1.152-.288 1.782-.576 1.872-.666.054-.054.108-.144.162-.234h.036v1.656c0 .792-.702 1.404-2.124 1.404-.936 0-1.404-.324-1.404-.972 0-.504.252-.9 1.458-1.188zm7.146.504c0 1.188.234 2.052.72 2.592s1.368.81 2.646.81h.99v-2.25h-.774c-1.026 0-1.278-.36-1.278-1.368v-3.942h2.376v-1.98h-2.412v-2.34h-2.214v2.34h-1.53v1.98h1.476v4.158zM191.924 232v-6.048c0-1.278-.378-2.232-1.116-2.844-.738-.612-1.692-.918-2.862-.918-2.142 0-3.474 1.134-3.924 2.736l1.944.81c.306-.954.738-1.566 2.016-1.566 1.08 0 1.62.432 1.62 1.008 0 .288-.144.504-.414.666-.27.162-.954.36-2.052.63-2.358.576-3.24 1.314-3.24 2.97 0 1.584 1.134 2.826 3.438 2.826 1.926 0 2.592-1.17 2.592-1.188h.036V232h1.962zm-4.32-3.906c1.152-.288 1.782-.576 1.872-.666.054-.054.108-.144.162-.234h.036v1.656c0 .792-.702 1.404-2.124 1.404-.936 0-1.404-.324-1.404-.972 0-.504.252-.9 1.458-1.188zM202.418 232v-2.25h-5.544v-3.114h5.04v-2.16h-5.04v-2.826h5.544v-2.25h-7.974V232h7.974zm4.592 0v-5.238c0-1.458.54-2.178 1.638-2.178.234 0 .468.054.738.144l.36-2.268a2.01 2.01 0 0 0-.864-.18c-.846 0-1.602.468-1.962 1.188h-.036v-1.008h-2.214V232h2.34zm6.434 0v-5.238c0-1.458.54-2.178 1.638-2.178.234 0 .468.054.738.144l.36-2.268a2.01 2.01 0 0 0-.864-.18c-.846 0-1.602.468-1.962 1.188h-.036v-1.008h-2.214V232h2.34zm6.168-2.592c-.378-.504-.576-1.224-.576-2.178s.198-1.674.576-2.178c.396-.504.918-.756 1.584-.756s1.188.252 1.566.774c.396.504.594 1.224.594 2.16 0 .936-.198 1.656-.576 2.178-.378.504-.918.756-1.584.756s-1.206-.252-1.584-.756zm-2.88-2.178c0 1.584.414 2.826 1.26 3.708.846.882 1.908 1.332 3.204 1.332 1.296 0 2.358-.45 3.204-1.332.846-.882 1.26-2.124 1.26-3.708 0-1.566-.432-2.79-1.296-3.69-.864-.9-1.926-1.35-3.168-1.35-1.242 0-2.304.45-3.168 1.35-.864.9-1.296 2.124-1.296 3.69zm13.165 4.77v-5.238c0-1.458.54-2.178 1.638-2.178.234 0 .468.054.738.144l.36-2.268a2.01 2.01 0 0 0-.864-.18c-.846 0-1.602.468-1.962 1.188h-.036v-1.008h-2.214V232h2.34z" fill="#fff"/><path id="ResponseError_2" d="M158.87 307v-4.68h1.872l2.538 4.68h2.628l-2.682-4.914c1.656-.522 2.664-1.854 2.664-3.672 0-1.224-.396-2.196-1.206-2.916-.792-.738-1.836-1.098-3.132-1.098h-5.112V307h2.43zm0-10.404h2.484c1.386 0 2.07.612 2.07 1.818s-.684 1.8-2.07 1.8h-2.484v-3.618zm15.025 7.11c-.63.918-1.26 1.494-2.34 1.494-1.278 0-2.034-.81-2.106-2.268h6.408v-.702c0-1.53-.414-2.736-1.242-3.654-.81-.918-1.854-1.386-3.132-1.386s-2.322.468-3.168 1.386c-.828.918-1.242 2.124-1.242 3.654 0 1.53.414 2.754 1.26 3.672.846.918 1.926 1.368 3.258 1.368 1.656 0 2.97-.702 3.942-2.124l-1.638-1.44zm-4.446-2.52c.09-1.098.882-1.944 2.034-1.944 1.242 0 1.98.72 2.106 1.944h-4.14zm7.571 2.664a4.12 4.12 0 0 0 1.278 2.43c.72.666 1.746.99 3.06.99 1.26 0 2.214-.306 2.88-.9.666-.612 1.008-1.296 1.008-2.07 0-.72-.198-1.314-.612-1.764-.396-.468-1.152-.846-2.268-1.152-1.278-.36-2.07-.612-2.394-.756-.306-.162-.468-.36-.468-.63 0-.486.576-.882 1.494-.882 1.17 0 1.71.558 2.052 1.476l1.944-.594c-.54-1.872-1.872-2.808-4.014-2.808-1.116 0-1.998.288-2.646.864-.63.576-.954 1.26-.954 2.052 0 1.422.99 2.178 3.204 2.808.126.036.288.09.522.144.846.234 1.386.432 1.656.576.27.126.396.342.396.612 0 .666-.738 1.062-1.89 1.062-1.26 0-1.98-.666-2.142-1.998l-2.106.54zm12.359-2.61c0-1.08.81-1.944 2.052-1.944 1.386 0 2.34 1.044 2.34 2.934 0 1.89-.972 2.934-2.34 2.934-1.242 0-2.052-.864-2.052-1.962v-1.962zm0 9.81v-4.968h.036l.072.126c.216.306.99 1.062 2.43 1.062 1.17 0 2.16-.45 2.97-1.35.81-.9 1.224-2.124 1.224-3.69 0-1.548-.432-2.772-1.278-3.672-.846-.918-1.818-1.368-2.952-1.368-1.854.018-2.574 1.17-2.574 1.188h-.036v-.918h-2.232v13.59h2.34zm10.879-6.642c-.378-.504-.576-1.224-.576-2.178s.198-1.674.576-2.178c.396-.504.918-.756 1.584-.756s1.188.252 1.566.774c.396.504.594 1.224.594 2.16 0 .936-.198 1.656-.576 2.178-.378.504-.918.756-1.584.756s-1.206-.252-1.584-.756zm-2.88-2.178c0 1.584.414 2.826 1.26 3.708.846.882 1.908 1.332 3.204 1.332 1.296 0 2.358-.45 3.204-1.332.846-.882 1.26-2.124 1.26-3.708 0-1.566-.432-2.79-1.296-3.69-.864-.9-1.926-1.35-3.168-1.35-1.242 0-2.304.45-3.168 1.35-.864.9-1.296 2.124-1.296 3.69zm13.165 4.77v-5.832c0-1.098.684-1.818 1.836-1.818 1.224 0 1.674.666 1.674 1.98V307h2.34v-6.246c0-2.232-1.278-3.564-3.384-3.564-1.008 0-1.998.522-2.52 1.188h-.036v-.918h-2.25V307h2.34zm7.558-3.15a4.12 4.12 0 0 0 1.278 2.43c.72.666 1.746.99 3.06.99 1.26 0 2.214-.306 2.88-.9.666-.612 1.008-1.296 1.008-2.07 0-.72-.198-1.314-.612-1.764-.396-.468-1.152-.846-2.268-1.152-1.278-.36-2.07-.612-2.394-.756-.306-.162-.468-.36-.468-.63 0-.486.576-.882 1.494-.882 1.17 0 1.71.558 2.052 1.476l1.944-.594c-.54-1.872-1.872-2.808-4.014-2.808-1.116 0-1.998.288-2.646.864-.63.576-.954 1.26-.954 2.052 0 1.422.99 2.178 3.204 2.808.126.036.288.09.522.144.846.234 1.386.432 1.656.576.27.126.396.342.396.612 0 .666-.738 1.062-1.89 1.062-1.26 0-1.98-.666-2.142-1.998l-2.106.54zm16.21-.144c-.63.918-1.26 1.494-2.34 1.494-1.278 0-2.034-.81-2.106-2.268h6.408v-.702c0-1.53-.414-2.736-1.242-3.654-.81-.918-1.854-1.386-3.132-1.386s-2.322.468-3.168 1.386c-.828.918-1.242 2.124-1.242 3.654 0 1.53.414 2.754 1.26 3.672.846.918 1.926 1.368 3.258 1.368 1.656 0 2.97-.702 3.942-2.124l-1.638-1.44zm-4.446-2.52c.09-1.098.882-1.944 2.034-1.944 1.242 0 1.98.72 2.106 1.944h-4.14zM246.31 307v-2.25h-5.544v-3.114h5.04v-2.16h-5.04v-2.826h5.544v-2.25h-7.974V307h7.974zm4.593 0v-5.238c0-1.458.54-2.178 1.638-2.178.234 0 .468.054.738.144l.36-2.268a2.01 2.01 0 0 0-.864-.18c-.846 0-1.602.468-1.962 1.188h-.036v-1.008h-2.214V307h2.34zm6.433 0v-5.238c0-1.458.54-2.178 1.638-2.178.234 0 .468.054.738.144l.36-2.268a2.01 2.01 0 0 0-.864-.18c-.846 0-1.602.468-1.962 1.188h-.036v-1.008h-2.214V307h2.34zm6.168-2.592c-.378-.504-.576-1.224-.576-2.178s.198-1.674.576-2.178c.396-.504.918-.756 1.584-.756s1.188.252 1.566.774c.396.504.594 1.224.594 2.16 0 .936-.198 1.656-.576 2.178-.378.504-.918.756-1.584.756s-1.206-.252-1.584-.756zm-2.88-2.178c0 1.584.414 2.826 1.26 3.708.846.882 1.908 1.332 3.204 1.332 1.296 0 2.358-.45 3.204-1.332.846-.882 1.26-2.124 1.26-3.708 0-1.566-.432-2.79-1.296-3.69-.864-.9-1.926-1.35-3.168-1.35-1.242 0-2.304.45-3.168 1.35-.864.9-1.296 2.124-1.296 3.69zm13.165 4.77v-5.238c0-1.458.54-2.178 1.638-2.178.234 0 .468.054.738.144l.36-2.268a2.01 2.01 0 0 0-.864-.18c-.846 0-1.602.468-1.962 1.188h-.036v-1.008h-2.214V307h2.34z" fill="#fff"/><path id="Resolved Issues" d="M159.87 163v-4.68h1.872l2.538 4.68h2.628l-2.682-4.914c1.656-.522 2.664-1.854 2.664-3.672 0-1.224-.396-2.196-1.206-2.916-.792-.738-1.836-1.098-3.132-1.098h-5.112V163h2.43zm0-10.404h2.484c1.386 0 2.07.612 2.07 1.818s-.684 1.8-2.07 1.8h-2.484v-3.618zm15.025 7.11c-.63.918-1.26 1.494-2.34 1.494-1.278 0-2.034-.81-2.106-2.268h6.408v-.702c0-1.53-.414-2.736-1.242-3.654-.81-.918-1.854-1.386-3.132-1.386s-2.322.468-3.168 1.386c-.828.918-1.242 2.124-1.242 3.654 0 1.53.414 2.754 1.26 3.672.846.918 1.926 1.368 3.258 1.368 1.656 0 2.97-.702 3.942-2.124l-1.638-1.44zm-4.446-2.52c.09-1.098.882-1.944 2.034-1.944 1.242 0 1.98.72 2.106 1.944h-4.14zm7.571 2.664a4.12 4.12 0 0 0 1.278 2.43c.72.666 1.746.99 3.06.99 1.26 0 2.214-.306 2.88-.9.666-.612 1.008-1.296 1.008-2.07 0-.72-.198-1.314-.612-1.764-.396-.468-1.152-.846-2.268-1.152-1.278-.36-2.07-.612-2.394-.756-.306-.162-.468-.36-.468-.63 0-.486.576-.882 1.494-.882 1.17 0 1.71.558 2.052 1.476l1.944-.594c-.54-1.872-1.872-2.808-4.014-2.808-1.116 0-1.998.288-2.646.864-.63.576-.954 1.26-.954 2.052 0 1.422.99 2.178 3.204 2.808.126.036.288.09.522.144.846.234 1.386.432 1.656.576.27.126.396.342.396.612 0 .666-.738 1.062-1.89 1.062-1.26 0-1.98-.666-2.142-1.998l-2.106.54zm12.269.558c-.378-.504-.576-1.224-.576-2.178s.198-1.674.576-2.178c.396-.504.918-.756 1.584-.756s1.188.252 1.566.774c.396.504.594 1.224.594 2.16 0 .936-.198 1.656-.576 2.178-.378.504-.918.756-1.584.756s-1.206-.252-1.584-.756zm-2.88-2.178c0 1.584.414 2.826 1.26 3.708.846.882 1.908 1.332 3.204 1.332 1.296 0 2.358-.45 3.204-1.332.846-.882 1.26-2.124 1.26-3.708 0-1.566-.432-2.79-1.296-3.69-.864-.9-1.926-1.35-3.168-1.35-1.242 0-2.304.45-3.168 1.35-.864.9-1.296 2.124-1.296 3.69zm13.256 4.77v-13.14h-2.43V163h2.43zm7.243 0l3.816-9.54h-2.394l-2.376 6.138h-.036l-2.376-6.138h-2.43l3.816 9.54h1.98zm11.091-3.294c-.63.918-1.26 1.494-2.34 1.494-1.278 0-2.034-.81-2.106-2.268h6.408v-.702c0-1.53-.414-2.736-1.242-3.654-.81-.918-1.854-1.386-3.132-1.386s-2.322.468-3.168 1.386c-.828.918-1.242 2.124-1.242 3.654 0 1.53.414 2.754 1.26 3.672.846.918 1.926 1.368 3.258 1.368 1.656 0 2.97-.702 3.942-2.124l-1.638-1.44zm-4.446-2.52c.09-1.098.882-1.944 2.034-1.944 1.242 0 1.98.72 2.106 1.944h-4.14zm14.213 1.908c0 1.152-.774 2.07-2.052 2.07-1.368 0-2.16-1.008-2.16-2.934 0-1.944.792-2.934 2.16-2.934 1.278 0 2.052.9 2.052 2.052v1.746zm2.34 3.906v-13.14h-2.34v4.518h-.036l-.234-.306c-.288-.378-1.17-.882-2.178-.882-1.098 0-2.07.45-2.88 1.368-.81.9-1.224 2.124-1.224 3.672 0 1.53.378 2.754 1.116 3.672.756.918 1.764 1.368 3.024 1.368.522 0 .99-.108 1.422-.324.45-.234.72-.414.828-.54.126-.126.216-.234.27-.324h.036V163h2.196zm9.713 0v-12.6h-2.43V163h2.43zm2.065-3.15a4.12 4.12 0 0 0 1.278 2.43c.72.666 1.746.99 3.06.99 1.26 0 2.214-.306 2.88-.9.666-.612 1.008-1.296 1.008-2.07 0-.72-.198-1.314-.612-1.764-.396-.468-1.152-.846-2.268-1.152-1.278-.36-2.07-.612-2.394-.756-.306-.162-.468-.36-.468-.63 0-.486.576-.882 1.494-.882 1.17 0 1.71.558 2.052 1.476l1.944-.594c-.54-1.872-1.872-2.808-4.014-2.808-1.116 0-1.998.288-2.646.864-.63.576-.954 1.26-.954 2.052 0 1.422.99 2.178 3.204 2.808.126.036.288.09.522.144.846.234 1.386.432 1.656.576.27.126.396.342.396.612 0 .666-.738 1.062-1.89 1.062-1.26 0-1.98-.666-2.142-1.998l-2.106.54zm9.299 0a4.12 4.12 0 0 0 1.278 2.43c.72.666 1.746.99 3.06.99 1.26 0 2.214-.306 2.88-.9.666-.612 1.008-1.296 1.008-2.07 0-.72-.198-1.314-.612-1.764-.396-.468-1.152-.846-2.268-1.152-1.278-.36-2.07-.612-2.394-.756-.306-.162-.468-.36-.468-.63 0-.486.576-.882 1.494-.882 1.17 0 1.71.558 2.052 1.476l1.944-.594c-.54-1.872-1.872-2.808-4.014-2.808-1.116 0-1.998.288-2.646.864-.63.576-.954 1.26-.954 2.052 0 1.422.99 2.178 3.204 2.808.126.036.288.09.522.144.846.234 1.386.432 1.656.576.27.126.396.342.396.612 0 .666-.738 1.062-1.89 1.062-1.26 0-1.98-.666-2.142-1.998l-2.106.54zm9.928-.234c0 2.232 1.044 3.654 3.258 3.654 1.062 0 1.89-.396 2.484-1.188h.036V163h2.232v-9.54h-2.34v5.724c0 1.278-.756 1.836-1.89 1.836-1.008 0-1.44-.45-1.44-1.656v-5.904h-2.34v6.156zm16.724.09c-.63.918-1.26 1.494-2.34 1.494-1.278 0-2.034-.81-2.106-2.268h6.408v-.702c0-1.53-.414-2.736-1.242-3.654-.81-.918-1.854-1.386-3.132-1.386s-2.322.468-3.168 1.386c-.828.918-1.242 2.124-1.242 3.654 0 1.53.414 2.754 1.26 3.672.846.918 1.926 1.368 3.258 1.368 1.656 0 2.97-.702 3.942-2.124l-1.638-1.44zm-4.446-2.52c.09-1.098.882-1.944 2.034-1.944 1.242 0 1.98.72 2.106 1.944h-4.14zm7.571 2.664a4.12 4.12 0 0 0 1.278 2.43c.72.666 1.746.99 3.06.99 1.26 0 2.214-.306 2.88-.9.666-.612 1.008-1.296 1.008-2.07 0-.72-.198-1.314-.612-1.764-.396-.468-1.152-.846-2.268-1.152-1.278-.36-2.07-.612-2.394-.756-.306-.162-.468-.36-.468-.63 0-.486.576-.882 1.494-.882 1.17 0 1.71.558 2.052 1.476l1.944-.594c-.54-1.872-1.872-2.808-4.014-2.808-1.116 0-1.998.288-2.646.864-.63.576-.954 1.26-.954 2.052 0 1.422.99 2.178 3.204 2.808.126.036.288.09.522.144.846.234 1.386.432 1.656.576.27.126.396.342.396.612 0 .666-.738 1.062-1.89 1.062-1.26 0-1.98-.666-2.142-1.998l-2.106.54z" fill="#fff"/><path id="in /api/projects/" d="M240.258 232v-9.54h-1.746V232h1.746zm.072-11.286v-1.854h-1.89v1.854h1.89zM244.95 232v-5.994c0-1.368.9-2.196 2.268-2.196 1.35 0 2.016.81 2.016 2.448V232h1.764v-6.246c0-2.214-1.35-3.564-3.438-3.564-1.062 0-2.106.522-2.61 1.188h-.036v-.918h-1.71V232h1.746zm13.318.756l6.48-13.644-1.152-.54-6.48 13.68 1.152.504zM273.48 232v-6.3c0-2.394-1.476-3.51-3.708-3.51-2.07 0-3.366 1.134-3.708 2.79l1.53.54c.288-1.206 1.026-1.8 2.214-1.8 1.242 0 1.872.558 1.872 1.296 0 .378-.18.648-.558.846-.36.198-1.062.414-2.088.684-2.322.576-3.204 1.368-3.204 2.97 0 1.584 1.098 2.754 3.276 2.754.774 0 1.386-.144 1.872-.432.486-.306.81-.576.936-.846h.036V232h1.53zm-4.05-4.176c1.908-.522 2.214-.756 2.304-1.044h.036v2.142c0 1.008-.9 1.8-2.502 1.8-1.152 0-1.728-.432-1.728-1.314 0-.738.396-1.17 1.89-1.584zm8.496-1.836c0-.576.216-1.08.63-1.53.432-.45.99-.666 1.692-.666 1.728 0 2.754 1.26 2.754 3.438s-1.026 3.456-2.754 3.456c-.666 0-1.224-.198-1.674-.594-.432-.414-.648-.882-.648-1.44v-2.664zm0 10.062v-4.968h.036c.378.522 1.332 1.188 2.628 1.188 1.206 0 2.214-.45 2.988-1.35.774-.918 1.17-2.142 1.17-3.69 0-1.53-.414-2.736-1.224-3.654-.81-.918-1.782-1.386-2.952-1.386-.936 0-1.836.414-2.214.72a2.868 2.868 0 0 0-.468.468h-.036v-.918h-1.674v13.59h1.746zm10.883-4.05v-9.54h-1.746V232h1.746zm.072-11.286v-1.854h-1.89v1.854h1.89zm2.855 12.042l6.48-13.644-1.152-.54-6.48 13.68 1.152.504zm9.938-6.768c0-.576.216-1.08.63-1.53.432-.45.99-.666 1.692-.666 1.728 0 2.754 1.26 2.754 3.438s-1.026 3.456-2.754 3.456c-.666 0-1.224-.198-1.674-.594-.432-.414-.648-.882-.648-1.44v-2.664zm0 10.062v-4.968h.036c.378.522 1.332 1.188 2.628 1.188 1.206 0 2.214-.45 2.988-1.35.774-.918 1.17-2.142 1.17-3.69 0-1.53-.414-2.736-1.224-3.654-.81-.918-1.782-1.386-2.952-1.386-.936 0-1.836.414-2.214.72a2.868 2.868 0 0 0-.468.468h-.036v-.918h-1.674v13.59h1.746zm10.811-4.05v-5.598c0-1.566.576-2.34 1.728-2.34.27 0 .504.054.738.144l.306-1.728c-.234-.126-.522-.18-.846-.18-.792 0-1.584.45-1.962 1.188h-.036v-1.026h-1.674V232h1.746zm8.062-1.314c-1.566 0-2.646-1.242-2.646-3.456s1.062-3.438 2.646-3.438c1.53 0 2.592 1.278 2.592 3.438 0 2.178-1.062 3.456-2.592 3.456zm0 1.584c1.26 0 2.286-.45 3.096-1.332.81-.882 1.224-2.124 1.224-3.708 0-1.566-.414-2.79-1.26-3.69-.828-.9-1.854-1.35-3.06-1.35-1.242 0-2.268.45-3.114 1.35-.846.9-1.26 2.124-1.26 3.69 0 1.584.414 2.826 1.224 3.708.828.882 1.872 1.332 3.15 1.332zm6.215 3.24c1.44 0 2.142-.738 2.142-2.448V222.46h-1.746v10.458c0 .702-.252.936-.774.936h-.342v1.656h.72zm2.196-14.796v-1.854h-1.89v1.854h1.89zm9.355 8.244c-.288.486-.396.648-.846 1.098-.432.432-1.044.648-1.836.648-1.674 0-2.592-1.242-2.646-2.952h6.912v-.522c0-1.548-.396-2.772-1.206-3.672-.81-.918-1.836-1.368-3.114-1.368-1.278 0-2.322.468-3.15 1.386-.81.918-1.224 2.124-1.224 3.654 0 1.53.414 2.754 1.242 3.672.828.918 1.908 1.368 3.222 1.368 1.89 0 3.222-.972 3.96-2.322l-1.314-.99zm-5.31-2.574c.018-.666.252-1.26.702-1.8.45-.558 1.062-.828 1.872-.828 1.674 0 2.502 1.17 2.574 2.628h-5.148zm15.196 1.89c-.216 1.386-.936 2.412-2.286 2.412-1.656 0-2.664-1.278-2.664-3.456s1.044-3.438 2.646-3.438c1.35 0 2.088.918 2.286 2.196l1.71-.27c-.126-1.044-.54-1.89-1.278-2.538-.72-.666-1.62-.99-2.718-.99-1.242 0-2.268.45-3.114 1.35-.846.882-1.26 2.124-1.26 3.69 0 1.566.396 2.79 1.206 3.69.81.9 1.872 1.35 3.15 1.35 2.25 0 3.726-1.35 4.068-3.564l-1.746-.432zm4.315.738c0 2.016.756 2.988 2.826 2.988h.846v-1.692h-.72c-.99 0-1.224-.396-1.224-1.476v-4.842h2.358v-1.53h-2.376v-2.34h-1.674v2.34h-1.44v1.53h1.404v5.022zm5.352-.216c.108.99.504 1.818 1.188 2.484.684.666 1.674.99 2.952.99 1.242 0 2.16-.288 2.79-.846.63-.576.936-1.242.918-1.998 0-.756-.234-1.35-.684-1.8-.45-.45-1.26-.846-2.448-1.188-1.188-.342-1.944-.594-2.268-.774-.324-.18-.486-.45-.486-.81 0-.648.648-1.188 1.8-1.188 1.152 0 1.908.576 2.286 1.71l1.512-.414c-.45-1.674-1.674-2.772-3.816-2.772-1.062 0-1.89.27-2.502.81-.594.54-.9 1.17-.9 1.908 0 1.422.9 2.142 3.204 2.772 1.098.306 1.836.576 2.178.792.342.198.522.522.522.936 0 .81-.774 1.368-2.16 1.368-1.458 0-2.286-.774-2.466-2.34l-1.62.36zm10.001 3.96l6.48-13.644-1.152-.54-6.48 13.68 1.152.504z" fill="#fff" fill-opacity=".528"/><path id="in /app/index" d="M284.258 307v-9.54h-1.746V307h1.746zm.072-11.286v-1.854h-1.89v1.854h1.89zM288.95 307v-5.994c0-1.368.9-2.196 2.268-2.196 1.35 0 2.016.81 2.016 2.448V307h1.764v-6.246c0-2.214-1.35-3.564-3.438-3.564-1.062 0-2.106.522-2.61 1.188h-.036v-.918h-1.71V307h1.746zm13.318.756l6.48-13.644-1.152-.54-6.48 13.68 1.152.504zM317.48 307v-6.3c0-2.394-1.476-3.51-3.708-3.51-2.07 0-3.366 1.134-3.708 2.79l1.53.54c.288-1.206 1.026-1.8 2.214-1.8 1.242 0 1.872.558 1.872 1.296 0 .378-.18.648-.558.846-.36.198-1.062.414-2.088.684-2.322.576-3.204 1.368-3.204 2.97 0 1.584 1.098 2.754 3.276 2.754.774 0 1.386-.144 1.872-.432.486-.306.81-.576.936-.846h.036V307h1.53zm-4.05-4.176c1.908-.522 2.214-.756 2.304-1.044h.036v2.142c0 1.008-.9 1.8-2.502 1.8-1.152 0-1.728-.432-1.728-1.314 0-.738.396-1.17 1.89-1.584zm8.496-1.836c0-.576.216-1.08.63-1.53.432-.45.99-.666 1.692-.666 1.728 0 2.754 1.26 2.754 3.438s-1.026 3.456-2.754 3.456c-.666 0-1.224-.198-1.674-.594-.432-.414-.648-.882-.648-1.44v-2.664zm0 10.062v-4.968h.036c.378.522 1.332 1.188 2.628 1.188 1.206 0 2.214-.45 2.988-1.35.774-.918 1.17-2.142 1.17-3.69 0-1.53-.414-2.736-1.224-3.654-.81-.918-1.782-1.386-2.952-1.386-.936 0-1.836.414-2.214.72a2.868 2.868 0 0 0-.468.468h-.036v-.918h-1.674v13.59h1.746zm10.811-10.062c0-.576.216-1.08.63-1.53.432-.45.99-.666 1.692-.666 1.728 0 2.754 1.26 2.754 3.438s-1.026 3.456-2.754 3.456c-.666 0-1.224-.198-1.674-.594-.432-.414-.648-.882-.648-1.44v-2.664zm0 10.062v-4.968h.036c.378.522 1.332 1.188 2.628 1.188 1.206 0 2.214-.45 2.988-1.35.774-.918 1.17-2.142 1.17-3.69 0-1.53-.414-2.736-1.224-3.654-.81-.918-1.782-1.386-2.952-1.386-.936 0-1.836.414-2.214.72a2.868 2.868 0 0 0-.468.468h-.036v-.918h-1.674v13.59h1.746zm9.046-3.294l6.48-13.644-1.152-.54-6.48 13.68 1.152.504zm10.01-.756v-9.54h-1.746V307h1.746zm.072-11.286v-1.854h-1.89v1.854h1.89zm4.62 11.286v-5.994c0-1.368.9-2.196 2.268-2.196 1.35 0 2.016.81 2.016 2.448V307h1.764v-6.246c0-2.214-1.35-3.564-3.438-3.564-1.062 0-2.106.522-2.61 1.188h-.036v-.918h-1.71V307h1.746zm14.938-3.402c0 .558-.216 1.062-.648 1.476-.432.414-.99.612-1.674.612-1.728 0-2.664-1.242-2.664-3.456s.954-3.438 2.664-3.438c.702 0 1.278.234 1.692.684.414.45.63.972.63 1.566v2.556zm1.746 3.402v-13.14h-1.746v4.518h-.036c-.684-.792-1.548-1.188-2.574-1.188-1.152 0-2.124.468-2.934 1.386-.792.918-1.188 2.124-1.188 3.654 0 1.53.378 2.754 1.116 3.672.756.918 1.764 1.368 3.024 1.368 1.098 0 1.998-.396 2.7-1.188h.036V307h1.602zm9.355-3.042c-.288.486-.396.648-.846 1.098-.432.432-1.044.648-1.836.648-1.674 0-2.592-1.242-2.646-2.952h6.912v-.522c0-1.548-.396-2.772-1.206-3.672-.81-.918-1.836-1.368-3.114-1.368-1.278 0-2.322.468-3.15 1.386-.81.918-1.224 2.124-1.224 3.654 0 1.53.414 2.754 1.242 3.672.828.918 1.908 1.368 3.222 1.368 1.89 0 3.222-.972 3.96-2.322l-1.314-.99zm-5.31-2.574c.018-.666.252-1.26.702-1.8.45-.558 1.062-.828 1.872-.828 1.674 0 2.502 1.17 2.574 2.628h-5.148zm9.624 5.616l2.43-3.744h.036l2.43 3.744h1.926l-3.258-4.914 3.042-4.626h-1.872l-2.268 3.528h-.036l-2.25-3.528h-1.89l3.042 4.626-3.24 4.914h1.908z" fill="#fff" fill-opacity=".528"/></g></g><defs><filter id="filter0_d" x="0" y="0" width="425" height="225" filterUnits="userSpaceOnUse" color-interpolation-filters="sRGB"><feFlood flood-opacity="0" result="BackgroundImageFix"/><feColorMatrix in="SourceAlpha" values="0 0 0 0 0 0 0 0 0 0 0 0 0 0 0 0 0 0 127 0"/><feOffset dy="2"/><feGaussianBlur stdDeviation="2"/><feColorMatrix values="0 0 0 0 0 0 0 0 0 0 0 0 0 0 0 0 0 0 0.173743 0"/><feBlend in2="BackgroundImageFix" result="effect1_dropShadow"/><feBlend in="SourceGraphic" in2="effect1_dropShadow" result="shape"/></filter><filter id="filter1_d" x="66" y="65" width="425" height="222" filterUnits="userSpaceOnUse" color-interpolation-filters="sRGB"><feFlood flood-opacity="0" result="BackgroundImageFix"/><feColorMatrix in="SourceAlpha" values="0 0 0 0 0 0 0 0 0 0 0 0 0 0 0 0 0 0 127 0"/><feOffset dy="2"/><feGaussianBlur stdDeviation="2"/><feColorMatrix values="0 0 0 0 0.148677 0 0 0 0 0.148677 0 0 0 0 0.148677 0 0 0 0.5 0"/><feBlend in2="BackgroundImageFix" result="effect1_dropShadow"/><feBlend in="SourceGraphic" in2="effect1_dropShadow" result="shape"/></filter><filter id="filter2_d" x="132" y="127" width="425" height="223" filterUnits="userSpaceOnUse" color-interpolation-filters="sRGB"><feFlood flood-opacity="0" result="BackgroundImageFix"/><feColorMatrix in="SourceAlpha" values="0 0 0 0 0 0 0 0 0 0 0 0 0 0 0 0 0 0 127 0"/><feOffset dy="2"/><feGaussianBlur stdDeviation="2"/><feColorMatrix values="0 0 0 0 0.0887277 0 0 0 0 0.0887277 0 0 0 0 0.0887277 0 0 0 0.5 0"/><feBlend in2="BackgroundImageFix" result="effect1_dropShadow"/><feBlend in="SourceGraphic" in2="effect1_dropShadow" result="shape"/></filter><linearGradient id="paint0_linear" x1="-138.5" y1="174" x2="35.357" y2="512.778" gradientUnits="userSpaceOnUse"><stop stop-color="#ED5934"/><stop offset="1" stop-color="#E56C4E"/></linearGradient></defs><style>@keyframes spin{0%,to{transform:rotate(0deg)}25%,8%{transform:rotate(60deg)}33%,60%{transform:rotate(240deg)}68%,96%{transform:rotate(180deg)}}@keyframes animate-top-left-in{0%{transform:translate(-5%,-5%)}to{transform:translate(0%,0%)}}@keyframes animate-bottom-right-in{0%{transform:translate(5%,5%)}to{transform:translate(0%,0%)}}@keyframes resolve{0%,to{transform:scale(1)}50%{transform:scale(1.05)}}#file-changes,#resolved-issues{transform-origin:center center}#resolved-issues{animation:.5s animate-top-left-in cubic-bezier(.68,-.55,.265,1.55)}#file-changes{animation:.5s animate-bottom-right-in cubic-bezier(.68,-.55,.265,1.55)}</style></svg>
