<svg width="635" height="362" viewBox="0 0 635 362" fill="none" xmlns="http://www.w3.org/2000/svg"><g id="minified"><g id="Group 14"><g id="Group 11 Copy"><g id="Group 6 Copy"><rect x="23" y="11" width="589" height="316" rx="26" fill="#2F2837" id="Rectangle 2 Copy" filter="url(#filter0_d)"/></g><g id="Commit: Dc34EFrfs56G"><path d="M58.658 105.996c-.234 2.016-1.044 3.024-2.466 3.024-1.728 0-2.97-1.44-2.97-4.518 0-1.314.288-2.322.864-3.042.576-.72 1.278-1.08 2.106-1.08 1.458 0 2.232 1.08 2.448 2.61l2.412-.378c-.144-1.368-.666-2.448-1.584-3.258-.9-.81-1.998-1.224-3.294-1.224-1.494 0-2.772.558-3.852 1.692-1.062 1.134-1.602 2.682-1.602 4.68 0 2.268.504 3.96 1.512 5.094 1.026 1.116 2.34 1.674 3.96 1.674 2.79 0 4.572-1.782 4.986-4.716l-2.52-.558zm6.665 2.412c-.378-.504-.576-1.224-.576-2.178s.198-1.674.576-2.178c.396-.504.918-.756 1.584-.756s1.188.252 1.566.774c.395.504.594 1.224.594 2.16 0 .936-.198 1.656-.576 2.178-.379.504-.918.756-1.585.756-.666 0-1.206-.252-1.584-.756zm-2.88-2.178c0 1.584.413 2.826 1.26 3.708.846.882 1.907 1.332 3.203 1.332 1.296 0 2.358-.45 3.204-1.332.847-.882 1.26-2.124 1.26-3.708 0-1.566-.431-2.79-1.296-3.69-.864-.9-1.925-1.35-3.168-1.35-1.242 0-2.303.45-3.168 1.35-.864.9-1.295 2.124-1.295 3.69zM75.535 111v-6.174c0-.864.558-1.476 1.638-1.476 1.062 0 1.656.684 1.656 1.602V111h2.142v-6.174c0-.864.576-1.476 1.638-1.476 1.134 0 1.656.666 1.656 1.602V111h2.142v-6.534c0-1.962-1.422-3.276-3.708-3.276-1.062 0-1.998.522-2.484 1.26h-.036c-.45-.738-1.422-1.26-2.43-1.26-.99 0-1.872.522-2.304 1.188h-.036v-.918h-2.142V111h2.268zm15.574 0v-6.174c0-.864.558-1.476 1.638-1.476 1.062 0 1.656.684 1.656 1.602V111h2.142v-6.174c0-.864.576-1.476 1.638-1.476 1.134 0 1.656.666 1.656 1.602V111h2.142v-6.534c0-1.962-1.422-3.276-3.708-3.276-1.062 0-1.998.522-2.484 1.26h-.036c-.45-.738-1.422-1.26-2.43-1.26-.99 0-1.872.522-2.304 1.188h-.036v-.918h-2.142V111h2.268zm15.646 0v-9.54h-2.34V111h2.34zm0-10.926V97.86h-2.34v2.214h2.34zm2.998 7.524c0 1.188.234 2.052.72 2.592s1.368.81 2.646.81h.99v-2.25h-.774c-1.026 0-1.278-.36-1.278-1.368v-3.942h2.376v-1.98h-2.412v-2.34h-2.214v2.34h-1.53v1.98h1.476v4.158zM119.09 111v-2.556h-2.682V111h2.682zm0-6.984v-2.556h-2.682v2.556h2.682zm9.802-3.366h1.782c1.71 0 2.844 1.224 2.844 4.032 0 1.674-.324 2.79-.9 3.348-.576.558-1.188.72-2.052.72h-1.674v-8.1zm1.674 10.35c1.494 0 2.736-.414 3.816-1.332 1.08-.936 1.746-2.682 1.746-4.986 0-4.356-2.664-6.282-5.454-6.282h-4.212V111h4.104zm13.183-3.852c-.198 1.35-.828 2.016-1.89 2.016-1.35 0-2.16-1.008-2.16-2.934 0-1.926.846-2.934 2.16-2.934.99 0 1.602.576 1.836 1.746l2.178-.414c-.342-2.088-1.872-3.438-4.014-3.438-1.26 0-2.322.45-3.186 1.35-.846.882-1.278 2.124-1.278 3.69 0 1.584.414 2.826 1.242 3.708.846.882 1.908 1.332 3.204 1.332 2.178 0 3.69-1.26 4.122-3.546l-2.214-.576zm3.294-.27c.342 2.898 2.178 4.392 4.914 4.392 1.422 0 2.52-.36 3.312-1.098.792-.738 1.188-1.656 1.188-2.754 0-.972-.252-1.728-.738-2.25-.486-.54-.972-.864-1.476-.972v-.054c.378-.126.756-.378 1.098-.792.342-.414.522-.99.522-1.746 0-1.062-.378-1.89-1.134-2.52-.738-.63-1.692-.954-2.826-.954-2.376 0-4.014 1.404-4.23 3.654l2.214.414c.198-1.278.828-1.908 1.926-1.908 1.134 0 1.8.63 1.8 1.656 0 1.008-.738 1.548-1.872 1.548h-.738v1.908h.828c1.566 0 2.358.612 2.358 1.854 0 1.17-.828 1.854-2.25 1.854-1.458 0-2.304-.918-2.538-2.736l-2.358.504zm16.682 1.71V111h2.286v-2.412h1.476v-2.25h-1.476V98.4h-3.69l-4.788 7.92v2.268h6.192zm-.036-8.406h.036v6.156h-3.744l3.708-6.156zM177.258 111v-2.25h-5.544v-3.114h5.04v-2.16h-5.04v-2.826h5.544V98.4h-7.974V111h7.974zm4.862 0v-4.878h5.058v-2.142h-5.058v-3.33h5.562V98.4h-7.992V111h2.43zm9.785 0v-5.238c0-1.458.54-2.178 1.638-2.178.234 0 .468.054.738.144l.36-2.268a2.01 2.01 0 0 0-.864-.18c-.846 0-1.602.468-1.962 1.188h-.036v-1.008h-2.214V111h2.34zm7.095 0v-7.56h2.34v-1.98h-2.412v-.774c0-.558.198-.756.774-.756h1.386v-2.07h-1.872c-1.638 0-2.502.612-2.502 2.25v1.35h-1.53v1.98h1.476V111H199zm2.888-3.15a4.12 4.12 0 0 0 1.278 2.43c.72.666 1.746.99 3.06.99 1.26 0 2.214-.306 2.88-.9.666-.612 1.008-1.296 1.008-2.07 0-.72-.198-1.314-.612-1.764-.396-.468-1.152-.846-2.268-1.152-1.278-.36-2.07-.612-2.394-.756-.306-.162-.468-.36-.468-.63 0-.486.576-.882 1.494-.882 1.17 0 1.71.558 2.052 1.476l1.944-.594c-.54-1.872-1.872-2.808-4.014-2.808-1.116 0-1.998.288-2.646.864-.63.576-.954 1.26-.954 2.052 0 1.422.99 2.178 3.204 2.808.126.036.288.09.522.144.846.234 1.386.432 1.656.576.27.126.396.342.396.612 0 .666-.738 1.062-1.89 1.062-1.26 0-1.98-.666-2.142-1.998l-2.106.54zm9.478.018c.72 2.034 2.322 3.402 4.824 3.402 1.332 0 2.448-.396 3.348-1.188.9-.792 1.35-1.89 1.35-3.276 0-1.242-.396-2.25-1.17-3.042-.774-.792-1.728-1.188-2.862-1.188-.99 0-1.872.342-2.214.612-.162.126-.288.234-.342.324l-.018-.018.486-2.844h4.896V98.4h-6.732l-1.098 6.408 1.89.954c.594-.9 1.44-1.35 2.52-1.35 1.314 0 2.322.81 2.322 2.322s-1.008 2.322-2.376 2.322c-1.242 0-2.16-.846-2.538-2.16l-2.286.972zm13.728-1.134c0-.594.198-1.116.612-1.566.414-.45.99-.666 1.692-.666 1.44 0 2.286.936 2.286 2.25 0 1.35-.81 2.304-2.196 2.304-1.494 0-2.394-.864-2.394-2.322zm-.396-2.664c.072-2.286 1.08-3.78 2.592-3.78 1.044 0 1.71.558 2.016 1.674l2.196-.576c-.378-1.872-1.728-3.258-4.05-3.258-1.602 0-2.862.648-3.816 1.944-.936 1.296-1.404 2.88-1.404 4.752 0 2.106.486 3.708 1.458 4.806.99 1.098 2.25 1.638 3.798 1.638 1.242 0 2.304-.396 3.15-1.188.864-.81 1.296-1.89 1.296-3.24 0-1.314-.414-2.358-1.242-3.096-.828-.738-1.8-1.116-2.898-1.116-1.566 0-2.646.756-3.078 1.458l-.018-.018zm14.148 7.2c1.422 0 2.592-.468 3.492-1.386.9-.936 1.35-2.196 1.35-3.798v-1.674h-4.662v2.07h2.34c0 1.602-.954 2.538-2.52 2.538-1.728 0-2.97-1.44-2.97-4.518 0-1.314.288-2.322.864-3.042.576-.72 1.278-1.08 2.106-1.08 1.314 0 2.106.81 2.412 2.43l2.43-.396c-.18-1.314-.72-2.358-1.62-3.132-.882-.774-1.962-1.152-3.24-1.152-1.494 0-2.772.558-3.852 1.692-1.062 1.134-1.602 2.682-1.602 4.68 0 2.268.504 3.96 1.512 5.094 1.026 1.116 2.34 1.674 3.96 1.674zm6.108-3.42a4.12 4.12 0 0 0 1.278 2.43c.72.666 1.746.99 3.06.99 1.26 0 2.214-.306 2.88-.9.666-.612 1.008-1.296 1.008-2.07 0-.72-.198-1.314-.612-1.764-.396-.468-1.152-.846-2.268-1.152-1.278-.36-2.07-.612-2.394-.756-.306-.162-.468-.36-.468-.63 0-.486.576-.882 1.494-.882 1.17 0 1.71.558 2.052 1.476l1.944-.594c-.54-1.872-1.872-2.808-4.014-2.808-1.116 0-1.998.288-2.646.864-.63.576-.954 1.26-.954 2.052 0 1.422.99 2.178 3.204 2.808.126.036.288.09.522.144.846.234 1.386.432 1.656.576.27.126.396.342.396.612 0 .666-.738 1.062-1.89 1.062-1.26 0-1.98-.666-2.142-1.998l-2.106.54z" fill="#EB613E"/><path d="M61.25 138l-4.536-12.6h-2.07L50.09 138h2.412l.72-2.07h4.806l.72 2.07h2.502zm-5.598-9l1.692 4.914h-3.438l1.71-4.914h.036zm6.68 5.616c0 2.232 1.044 3.654 3.258 3.654 1.062 0 1.89-.396 2.484-1.188h.036V138h2.232v-9.54h-2.34v5.724c0 1.278-.756 1.836-1.89 1.836-1.008 0-1.44-.45-1.44-1.656v-5.904h-2.34v6.156zm11.018-.018c0 1.188.234 2.052.72 2.592s1.368.81 2.646.81h.99v-2.25h-.775c-1.025 0-1.278-.36-1.278-1.368v-3.942h2.376v-1.98h-2.411v-2.34h-2.215v2.34h-1.53v1.98h1.477v4.158zM82.165 138v-5.994c0-.99.575-1.656 1.655-1.656 1.135 0 1.693.756 1.693 1.818V138h2.34v-6.354c0-2.106-1.296-3.456-3.33-3.456-.936 0-1.944.558-2.322 1.188h-.036v-4.518h-2.34V138h2.34zm10.368-2.592c-.378-.504-.576-1.224-.576-2.178s.198-1.674.576-2.178c.396-.504.918-.756 1.584-.756s1.188.252 1.566.774c.396.504.594 1.224.594 2.16 0 .936-.198 1.656-.576 2.178-.378.504-.918.756-1.584.756s-1.206-.252-1.584-.756zm-2.88-2.178c0 1.584.414 2.826 1.26 3.708.846.882 1.908 1.332 3.204 1.332 1.296 0 2.358-.45 3.204-1.332.846-.882 1.26-2.124 1.26-3.708 0-1.566-.432-2.79-1.296-3.69-.864-.9-1.926-1.35-3.168-1.35-1.242 0-2.304.45-3.168 1.35-.864.9-1.296 2.124-1.296 3.69zM102.82 138v-5.238c0-1.458.54-2.178 1.638-2.178.234 0 .468.054.738.144l.36-2.268a2.01 2.01 0 0 0-.864-.18c-.846 0-1.602.468-1.962 1.188h-.036v-1.008h-2.214V138h2.34zm7.131 0v-2.556h-2.682V138h2.682zm0-6.984v-2.556h-2.682v2.556h2.682zm14.591 1.98c-.234 2.016-1.044 3.024-2.466 3.024-1.728 0-2.97-1.44-2.97-4.518 0-1.314.288-2.322.864-3.042.576-.72 1.278-1.08 2.106-1.08 1.458 0 2.232 1.08 2.448 2.61l2.412-.378c-.144-1.368-.666-2.448-1.584-3.258-.9-.81-1.998-1.224-3.294-1.224-1.494 0-2.772.558-3.852 1.692-1.062 1.134-1.602 2.682-1.602 4.68 0 2.268.504 3.96 1.512 5.094 1.026 1.116 2.34 1.674 3.96 1.674 2.79 0 4.572-1.782 4.986-4.716l-2.52-.558zm6.754 5.004v-5.994c0-.99.576-1.656 1.656-1.656 1.134 0 1.692.756 1.692 1.818V138h2.34v-6.354c0-2.106-1.296-3.456-3.33-3.456-.936 0-1.944.558-2.322 1.188h-.036v-4.518h-2.34V138h2.34zm10.459 0v-5.238c0-1.458.54-2.178 1.638-2.178.234 0 .468.054.738.144l.36-2.268a2.01 2.01 0 0 0-.864-.18c-.846 0-1.602.468-1.962 1.188h-.036v-1.008h-2.214V138h2.34zm6.61 0v-9.54h-2.34V138h2.34zm0-10.926v-2.214h-2.34v2.214h2.34zm1.791 7.776a4.12 4.12 0 0 0 1.278 2.43c.72.666 1.746.99 3.06.99 1.26 0 2.214-.306 2.88-.9.666-.612 1.008-1.296 1.008-2.07 0-.72-.198-1.314-.612-1.764-.396-.468-1.152-.846-2.268-1.152-1.278-.36-2.07-.612-2.394-.756-.306-.162-.468-.36-.468-.63 0-.486.576-.882 1.494-.882 1.17 0 1.71.558 2.052 1.476l1.944-.594c-.54-1.872-1.872-2.808-4.014-2.808-1.116 0-1.998.288-2.646.864-.63.576-.954 1.26-.954 2.052 0 1.422.99 2.178 3.204 2.808.126.036.288.09.522.144.846.234 1.386.432 1.656.576.27.126.396.342.396.612 0 .666-.738 1.062-1.89 1.062-1.26 0-1.98-.666-2.142-1.998l-2.106.54zm9.299 0a4.12 4.12 0 0 0 1.278 2.43c.72.666 1.746.99 3.06.99 1.26 0 2.214-.306 2.88-.9.666-.612 1.008-1.296 1.008-2.07 0-.72-.198-1.314-.612-1.764-.396-.468-1.152-.846-2.268-1.152-1.278-.36-2.07-.612-2.394-.756-.306-.162-.468-.36-.468-.63 0-.486.576-.882 1.494-.882 1.17 0 1.71.558 2.052 1.476l1.944-.594c-.54-1.872-1.872-2.808-4.014-2.808-1.116 0-1.998.288-2.646.864-.63.576-.954 1.26-.954 2.052 0 1.422.99 2.178 3.204 2.808.126.036.288.09.522.144.846.234 1.386.432 1.656.576.27.126.396.342.396.612 0 .666-.738 1.062-1.89 1.062-1.26 0-1.98-.666-2.142-1.998l-2.106.54zm12.727 7.2l5.49-13.59h-2.376l-2.466 6.462h-.036l-2.466-6.462h-2.376l3.816 9.072-1.908 4.518h2.322zM53.87 154.65h1.782c1.71 0 2.844 1.224 2.844 4.032 0 1.674-.324 2.79-.9 3.348-.576.558-1.188.72-2.052.72H53.87v-8.1zM55.544 165c1.494 0 2.736-.414 3.816-1.332 1.08-.936 1.746-2.682 1.746-4.986 0-4.356-2.664-6.282-5.454-6.282H51.44V165h4.104zm14.856 0v-6.048c0-1.278-.378-2.232-1.116-2.844-.738-.612-1.692-.918-2.862-.918-2.142 0-3.474 1.134-3.924 2.736l1.944.81c.306-.954.738-1.566 2.016-1.566 1.08 0 1.62.432 1.62 1.008 0 .288-.144.504-.414.666-.27.162-.954.36-2.052.63-2.358.576-3.24 1.314-3.24 2.97 0 1.584 1.134 2.826 3.438 2.826 1.926 0 2.592-1.17 2.592-1.188h.036V165H70.4zm-4.32-3.906c1.152-.288 1.782-.576 1.872-.666.054-.054.108-.144.162-.234h.036v1.656c0 .792-.702 1.404-2.124 1.404-.936 0-1.404-.324-1.404-.972 0-.504.252-.9 1.458-1.188zm7.147.504c0 1.188.233 2.052.72 2.592.486.54 1.367.81 2.645.81h.99v-2.25h-.773c-1.026 0-1.278-.36-1.278-1.368v-3.942h2.375v-1.98h-2.412v-2.34h-2.213v2.34h-1.53v1.98h1.475v4.158zm12.666.108c-.63.918-1.26 1.494-2.34 1.494-1.278 0-2.034-.81-2.106-2.268h6.408v-.702c0-1.53-.414-2.736-1.242-3.654-.81-.918-1.854-1.386-3.132-1.386s-2.322.468-3.168 1.386c-.828.918-1.242 2.124-1.242 3.654 0 1.53.414 2.754 1.26 3.672.846.918 1.926 1.368 3.258 1.368 1.656 0 2.97-.702 3.942-2.124l-1.638-1.44zm-4.446-2.52c.09-1.098.882-1.944 2.034-1.944 1.242 0 1.98.72 2.106 1.944h-4.14zM92.6 165v-2.556h-2.68V165h2.68zm0-6.984v-2.556h-2.68v2.556h2.68zM104.041 165l2.61-7.83h.108l2.592 7.83h2.52l2.448-12.6h-2.412l-1.62 8.568h-.054l-2.898-8.568h-1.224l-2.898 8.568h-.054l-1.62-8.568h-2.466l2.448 12.6h2.52zm17.729-3.294c-.63.918-1.26 1.494-2.34 1.494-1.278 0-2.034-.81-2.106-2.268h6.408v-.702c0-1.53-.414-2.736-1.242-3.654-.81-.918-1.854-1.386-3.132-1.386s-2.322.468-3.168 1.386c-.828.918-1.242 2.124-1.242 3.654 0 1.53.414 2.754 1.26 3.672.846.918 1.926 1.368 3.258 1.368 1.656 0 2.97-.702 3.942-2.124l-1.638-1.44zm-4.446-2.52c.09-1.098.882-1.944 2.034-1.944 1.242 0 1.98.72 2.106 1.944h-4.14zm14.213 1.908c0 1.152-.774 2.07-2.052 2.07-1.368 0-2.16-1.008-2.16-2.934 0-1.944.792-2.934 2.16-2.934 1.278 0 2.052.9 2.052 2.052v1.746zm2.34 3.906v-13.14h-2.34v4.518h-.036l-.234-.306c-.288-.378-1.17-.882-2.178-.882-1.098 0-2.07.45-2.88 1.368-.81.9-1.224 2.124-1.224 3.672 0 1.53.378 2.754 1.116 3.672.756.918 1.764 1.368 3.024 1.368.522 0 .99-.108 1.422-.324.45-.234.72-.414.828-.54.126-.126.216-.234.27-.324h.036V165h2.196zm5.934-2.682c.108.81.45 1.494 1.008 2.088.558.576 1.332.864 2.304.864 2.16 0 3.42-1.17 3.42-3.618V152.4h-2.43v9.432c0 .864-.324 1.188-.99 1.188-.594 0-.972-.45-1.134-1.332l-2.178.63zm9.252-.702c0 2.232 1.044 3.654 3.258 3.654 1.062 0 1.89-.396 2.484-1.188h.036V165h2.232v-9.54h-2.34v5.724c0 1.278-.756 1.836-1.89 1.836-1.008 0-1.44-.45-1.44-1.656v-5.904h-2.34v6.156zM162.024 165v-13.14h-2.43V165h2.43zm11.797 0v-12.6h-2.142l-2.898 1.8v2.61l2.718-1.71v9.9h2.322zm2.981-3.636c0 1.242.432 2.196 1.278 2.88.864.684 2.016 1.026 3.438 1.026 1.422 0 2.574-.342 3.42-1.008.864-.684 1.296-1.638 1.296-2.862 0-1.458-.81-2.736-2.268-3.258v-.036c1.062-.432 1.674-1.404 1.674-2.61 0-.954-.378-1.764-1.134-2.394-.756-.648-1.746-.972-2.988-.972s-2.232.324-2.988.972c-.756.63-1.134 1.44-1.134 2.394 0 1.206.612 2.178 1.674 2.61v.036c-1.44.504-2.268 1.8-2.268 3.222zm2.88-5.67c0-.864.666-1.548 1.836-1.548 1.152 0 1.818.684 1.818 1.548 0 .846-.72 1.53-1.818 1.53s-1.836-.684-1.836-1.53zm-.504 5.454c0-1.206.882-2.052 2.34-2.052 1.458 0 2.322.846 2.322 2.052 0 1.134-.81 1.908-2.322 1.908s-2.34-.774-2.34-1.908zM53.42 185.466c.936-.072 2.61 1.62 4.122 1.566 1.71-.036 2.592-1.566 2.79-2.988l-1.458-.396c-.27 1.062-.702 1.602-1.26 1.602-.954.072-2.61-1.62-4.104-1.566-1.71.036-2.592 1.566-2.79 2.988l1.458.396c.27-1.062.684-1.602 1.242-1.602zM58.604 219v-7.56h3.42V219h2.34v-9.54h-5.832v-.774c0-.558.198-.756.774-.756h1.026v-2.07H58.82c-1.638 0-2.502.612-2.502 2.25v1.35H54.77v1.98h1.494V219h2.34zm5.76-10.926v-2.214h-2.34v2.214h2.34zM68.309 219l2.268-3.42h.036l2.268 3.42h2.502l-3.312-4.932 3.114-4.608h-2.43l-2.142 3.204h-.036l-2.142-3.204h-2.43l3.114 4.608L65.807 219h2.502zm11.372 0v-2.556h-2.682V219h2.682zm0-6.984v-2.556h-2.682v2.556h2.682zm9.802-3.366h1.782c1.71 0 2.844 1.224 2.844 4.032 0 1.674-.324 2.79-.9 3.348-.576.558-1.188.72-2.052.72h-1.674v-8.1zM91.157 219c1.494 0 2.736-.414 3.816-1.332 1.08-.936 1.746-2.682 1.746-4.986 0-4.356-2.664-6.282-5.454-6.282h-4.212V219h4.104zm9.708-2.592c-.378-.504-.576-1.224-.576-2.178s.198-1.674.576-2.178c.396-.504.918-.756 1.584-.756s1.188.252 1.566.774c.396.504.594 1.224.594 2.16 0 .936-.198 1.656-.576 2.178-.378.504-.918.756-1.584.756s-1.206-.252-1.584-.756zm-2.88-2.178c0 1.584.415 2.826 1.26 3.708.846.882 1.908 1.332 3.204 1.332 1.296 0 2.358-.45 3.204-1.332.846-.882 1.26-2.124 1.26-3.708 0-1.566-.432-2.79-1.296-3.69-.864-.9-1.926-1.35-3.168-1.35-1.242 0-2.304.45-3.168 1.35-.864.9-1.296 2.124-1.296 3.69zm13.166 4.77v-5.832c0-1.098.684-1.818 1.836-1.818 1.224 0 1.674.666 1.674 1.98V219h2.34v-6.246c0-2.232-1.278-3.564-3.384-3.564-1.008 0-1.998.522-2.52 1.188h-.036v-.918h-2.25V219h2.34zm8.105-7.632c1.782-.126 2.682-1.026 2.682-2.7V206.4h-2.682v2.556h.882c0 .81-.09 1.044-.882 1.188v1.224zm5.861 4.23c0 1.188.234 2.052.72 2.592s1.368.81 2.646.81h.99v-2.25h-.774c-1.026 0-1.278-.36-1.278-1.368v-3.942h2.376v-1.98h-2.412v-2.34h-2.214v2.34h-1.53v1.98h1.476v4.158zM138.918 219v-7.56h2.34v-1.98h-2.412v-.774c0-.558.198-.756.774-.756h1.386v-2.07h-1.872c-1.638 0-2.502.612-2.502 2.25v1.35h-1.53v1.98h1.476V219h2.34zm11.006 0v-6.048c0-1.278-.378-2.232-1.116-2.844-.738-.612-1.692-.918-2.862-.918-2.142 0-3.474 1.134-3.924 2.736l1.944.81c.306-.954.738-1.566 2.016-1.566 1.08 0 1.62.432 1.62 1.008 0 .288-.144.504-.414.666-.27.162-.954.36-2.052.63-2.358.576-3.24 1.314-3.24 2.97 0 1.584 1.134 2.826 3.438 2.826 1.926 0 2.592-1.17 2.592-1.188h.036V219h1.962zm-4.32-3.906c1.152-.288 1.782-.576 1.872-.666.054-.054.108-.144.162-.234h.036v1.656c0 .792-.702 1.404-2.124 1.404-.936 0-1.404-.324-1.404-.972 0-.504.252-.9 1.458-1.188zm9 3.906v-9.54h-2.34V219h2.34zm0-10.926v-2.214h-2.34v2.214h2.34zM159.545 219v-13.14h-2.43V219h2.43zm5.39 0v-2.556h-2.682V219h2.682z" fill="#E7E1EC"/><path d="M58.604 246v-7.56h3.42V246h2.34v-9.54h-5.832v-.774c0-.558.198-.756.774-.756h1.026v-2.07H58.82c-1.638 0-2.502.612-2.502 2.25v1.35H54.77v1.98h1.494V246h2.34zm5.76-10.926v-2.214h-2.34v2.214h2.34zM68.309 246l2.268-3.42h.036l2.268 3.42h2.502l-3.312-4.932 3.114-4.608h-2.43l-2.142 3.204h-.036l-2.142-3.204h-2.43l3.114 4.608L65.807 246h2.502zm14.35-3.294c-.63.918-1.26 1.494-2.34 1.494-1.278 0-2.034-.81-2.106-2.268h6.408v-.702c0-1.53-.414-2.736-1.242-3.654-.81-.918-1.854-1.386-3.132-1.386s-2.322.468-3.168 1.386c-.828.918-1.242 2.124-1.242 3.654 0 1.53.414 2.754 1.26 3.672.846.918 1.926 1.368 3.258 1.368 1.656 0 2.97-.702 3.942-2.124l-1.638-1.44zm-4.446-2.52c.09-1.098.882-1.944 2.034-1.944 1.242 0 1.98.72 2.106 1.944h-4.14zm7.571 2.664a4.12 4.12 0 0 0 1.278 2.43c.72.666 1.746.99 3.06.99 1.26 0 2.214-.306 2.88-.9.666-.612 1.008-1.296 1.008-2.07 0-.72-.198-1.314-.612-1.764-.396-.468-1.152-.846-2.268-1.152-1.278-.36-2.07-.612-2.394-.756-.306-.162-.468-.36-.468-.63 0-.486.576-.882 1.494-.882 1.17 0 1.71.558 2.052 1.476l1.944-.594c-.54-1.872-1.872-2.808-4.014-2.808-1.116 0-1.998.288-2.646.864-.63.576-.954 1.26-.954 2.052 0 1.422.99 2.178 3.204 2.808.126.036.288.09.522.144.846.234 1.386.432 1.656.576.27.126.396.342.396.612 0 .666-.738 1.062-1.89 1.062-1.26 0-1.98-.666-2.142-1.998l-2.106.54zm13.889-1.062c.36 2.97 2.196 4.482 5.058 4.482 1.404 0 2.52-.36 3.366-1.098.846-.738 1.26-1.656 1.26-2.772 0-.954-.252-1.692-.774-2.25s-1.476-1.08-2.862-1.566c-1.44-.486-2.34-.828-2.682-1.026-.342-.198-.522-.486-.522-.864 0-.792.612-1.314 1.854-1.314 1.17 0 1.944.594 2.322 1.782l2.358-.594c-.432-2.286-2.304-3.438-4.68-3.438-1.314 0-2.34.36-3.114 1.062-.756.702-1.134 1.53-1.134 2.52 0 1.71.99 2.826 3.6 3.636 1.386.432 2.286.792 2.664 1.062.396.27.594.648.594 1.152 0 .954-.882 1.458-2.25 1.458-1.602 0-2.196-.828-2.502-2.79l-2.556.558zM119.215 246v-2.25h-5.544v-3.114h5.04v-2.16h-5.04v-2.826h5.544v-2.25h-7.974V246h7.974zm4.862 0v-8.262h.036l4.662 8.262h2.394v-12.6h-2.448v8.262h-.036l-4.608-8.262h-2.43V246h2.43zm14.84 0v-10.35h3.69v-2.25h-9.81v2.25h3.69V246h2.43zm7.748 0v-4.68h1.872l2.538 4.68h2.628l-2.682-4.914c1.656-.522 2.664-1.854 2.664-3.672 0-1.224-.396-2.196-1.206-2.916-.792-.738-1.836-1.098-3.132-1.098h-5.112V246h2.43zm0-10.404h2.484c1.386 0 2.07.612 2.07 1.818s-.684 1.8-2.07 1.8h-2.484v-3.618zM160.227 246v-5.31l4.122-7.29h-2.61l-2.7 5.166h-.036l-2.7-5.166h-2.61l4.122 7.29V246h2.412zm8.968-5.004v-1.8h-5.922v1.8h5.922zm1.443 1.872c.72 2.034 2.322 3.402 4.824 3.402 1.332 0 2.448-.396 3.348-1.188.9-.792 1.35-1.89 1.35-3.276 0-1.242-.396-2.25-1.17-3.042-.774-.792-1.728-1.188-2.862-1.188-.99 0-1.872.342-2.214.612-.162.126-.288.234-.342.324l-.018-.018.486-2.844h4.896v-2.25h-6.732l-1.098 6.408 1.89.954c.594-.9 1.44-1.35 2.52-1.35 1.314 0 2.322.81 2.322 2.322s-1.008 2.322-2.376 2.322c-1.242 0-2.16-.846-2.538-2.16l-2.286.972zM186.993 246v-10.35h3.69v-2.25h-9.81v2.25h3.69V246h2.43zm10.43-2.412V246h2.286v-2.412h1.476v-2.25h-1.476V233.4h-3.69l-4.788 7.92v2.268h6.192zm-.036-8.406h.036v6.156h-3.744l3.708-6.156z" fill="#F9A66D"/><path d="M53.42 266.466c.936-.072 2.61 1.62 4.122 1.566 1.71-.036 2.592-1.566 2.79-2.988l-1.458-.396c-.27 1.062-.702 1.602-1.26 1.602-.954.072-2.61-1.62-4.104-1.566-1.71.036-2.592 1.566-2.79 2.988l1.458.396c.27-1.062.684-1.602 1.242-1.602zm0 27c.936-.072 2.61 1.62 4.122 1.566 1.71-.036 2.592-1.566 2.79-2.988l-1.458-.396c-.27 1.062-.702 1.602-1.26 1.602-.954.072-2.61-1.62-4.104-1.566-1.71.036-2.592 1.566-2.79 2.988l1.458.396c.27-1.062.684-1.602 1.242-1.602z" fill="#E7E1EC"/></g></g><path id="Path 5" d="M234.492 230.969v19.152" stroke="#E7E1EC" stroke-width="2"/><path id="Rectangle 2 Copy_2" fill-rule="evenodd" clip-rule="evenodd" d="M23 37c0-14.36 11.64-26 26-26h537c14.359 0 26 11.64 26 26v28.2H23V37z" fill="#40358B"/><path id="Chrissy — Vim" d="M85.696 41.552c-.208 1.792-.928 2.688-2.192 2.688-1.536 0-2.64-1.28-2.64-4.016 0-1.168.256-2.064.768-2.704.512-.64 1.136-.96 1.872-.96 1.296 0 1.984.96 2.176 2.32l2.144-.336c-.128-1.216-.592-2.176-1.408-2.896-.8-.72-1.776-1.088-2.928-1.088-1.328 0-2.464.496-3.424 1.504-.944 1.008-1.424 2.384-1.424 4.16 0 2.016.448 3.52 1.344 4.528.912.992 2.08 1.488 3.52 1.488 2.48 0 4.064-1.584 4.432-4.192l-2.24-.496zM91.7 46v-5.328c0-.88.512-1.472 1.472-1.472 1.008 0 1.504.672 1.504 1.616V46h2.08v-5.648c0-1.872-1.152-3.072-2.96-3.072-.832 0-1.728.496-2.064 1.056H91.7V34.32h-2.08V46h2.08zm9.297 0v-4.656c0-1.296.48-1.936 1.456-1.936.208 0 .416.048.656.128l.32-2.016a1.788 1.788 0 0 0-.768-.16 1.94 1.94 0 0 0-1.744 1.056h-.032v-.896h-1.968V46h2.08zm5.875 0v-8.48h-2.08V46h2.08zm0-9.712V34.32h-2.08v1.968h2.08zm1.592 6.912a3.662 3.662 0 0 0 1.136 2.16c.64.592 1.552.88 2.72.88 1.12 0 1.968-.272 2.56-.8.592-.544.896-1.152.896-1.84 0-.64-.176-1.168-.544-1.568-.352-.416-1.024-.752-2.016-1.024-1.136-.32-1.84-.544-2.128-.672-.272-.144-.416-.32-.416-.56 0-.432.512-.784 1.328-.784 1.04 0 1.52.496 1.824 1.312l1.728-.528c-.48-1.664-1.664-2.496-3.568-2.496-.992 0-1.776.256-2.352.768-.56.512-.848 1.12-.848 1.824 0 1.264.88 1.936 2.848 2.496.112.032.256.08.464.128.752.208 1.232.384 1.472.512.24.112.352.304.352.544 0 .592-.656.944-1.68.944-1.12 0-1.76-.592-1.904-1.776l-1.872.48zm8.266 0a3.662 3.662 0 0 0 1.136 2.16c.64.592 1.552.88 2.72.88 1.12 0 1.968-.272 2.56-.8.592-.544.896-1.152.896-1.84 0-.64-.176-1.168-.544-1.568-.352-.416-1.024-.752-2.016-1.024-1.136-.32-1.84-.544-2.128-.672-.272-.144-.416-.32-.416-.56 0-.432.512-.784 1.328-.784 1.04 0 1.52.496 1.824 1.312l1.728-.528c-.48-1.664-1.664-2.496-3.568-2.496-.992 0-1.776.256-2.352.768-.56.512-.848 1.12-.848 1.824 0 1.264.88 1.936 2.848 2.496.112.032.256.08.464.128.752.208 1.232.384 1.472.512.24.112.352.304.352.544 0 .592-.656.944-1.68.944-1.12 0-1.76-.592-1.904-1.776l-1.872.48zm11.313 6.4l4.88-12.08h-2.112l-2.192 5.744h-.032l-2.192-5.744h-2.112l3.392 8.064-1.696 4.016h2.064zm23.021-7.888v-1.76H138.44v1.76h12.624zM162.596 46l4-11.2h-2.24l-2.688 7.952h-.048l-2.768-7.952h-2.272l4.048 11.2h1.968zm6.963 0v-8.48h-2.08V46h2.08zm0-9.712V34.32h-2.08v1.968h2.08zM173.808 46v-5.488c0-.768.496-1.312 1.456-1.312.944 0 1.472.608 1.472 1.424V46h1.904v-5.488c0-.768.512-1.312 1.456-1.312 1.008 0 1.472.592 1.472 1.424V46h1.904v-5.808c0-1.744-1.264-2.912-3.296-2.912-.944 0-1.776.464-2.208 1.12h-.032c-.4-.656-1.264-1.12-2.16-1.12-.88 0-1.664.464-2.048 1.056h-.032v-.816h-1.904V46h2.016z" fill="#8B7FD7"/></g><g id="icon-circle-arrow-left"><path id="Combined Shape" fill-rule="evenodd" clip-rule="evenodd" d="M56 28c6.627 0 12 5.373 12 12s-5.373 12-12 12-12-5.373-12-12 5.373-12 12-12zm0 2c-5.523 0-10 4.477-10 10s4.477 10 10 10 10-4.477 10-10-4.477-10-10-10zm-1.712 5.298a1 1 0 0 0 .01 1.414l3.288 3.244-3.298 3.341a1 1 0 0 0 1.424 1.406l3.297-3.342a2 2 0 0 0-.018-2.828l-3.289-3.245a1 1 0 0 0-1.414.01z" fill="#8B7FD7"/></g><g id="Group 15 Copy 3" fill="#CEC8FD"><path id="Path 7" d="M569 35.652L570.652 34 582 45.348 580.348 47 569 35.652z"/><path id="Path 7_2" d="M580.348 34L582 35.652 570.652 47 569 45.348 580.348 34z"/></g></g><defs><filter id="filter0_d" x="0" y="0" width="635" height="362" filterUnits="userSpaceOnUse" color-interpolation-filters="sRGB"><feFlood flood-opacity="0" result="BackgroundImageFix"/><feColorMatrix in="SourceAlpha" values="0 0 0 0 0 0 0 0 0 0 0 0 0 0 0 0 0 0 127 0"/><feOffset dy="12"/><feGaussianBlur stdDeviation="11.5"/><feColorMatrix values="0 0 0 0 0.209689 0 0 0 0 0.209689 0 0 0 0 0.209689 0 0 0 0.173913 0"/><feBlend in2="BackgroundImageFix" result="effect1_dropShadow"/><feBlend in="SourceGraphic" in2="effect1_dropShadow" result="shape"/></filter></defs><style>@keyframes spin{0%,to{transform:rotate(0deg)}25%,4%{transform:rotate(60deg)}30%,60%{transform:rotate(240deg)}63%,70%,96%{transform:rotate(180deg)}}@keyframes animate-top-left-in{0%{transform:translate(-5%,-5%)}to{transform:translate(0%,0%)}}@keyframes animate-bottom-right-in{0%{transform:translate(5%,5%)}to{transform:translate(0%,0%)}}@keyframes resolve{0%,to{transform:scale(1)}50%{transform:scale(1.05)}}</style></svg>
