<svg width="510" height="327" viewBox="0 0 510 327" fill="none" xmlns="http://www.w3.org/2000/svg"><g id="resolution"><path fill="#fff" d="M0 0h510v327H0z"/><g id="release-4"><g id="release-bg-8 copy"><rect id="rectangle-4" x="29" y="252" width="448" height="50" rx="25" fill="#4C416B"/></g><path id="TypeError" d="M52.389 273.65h1.782c1.71 0 2.844 1.224 2.844 4.032 0 1.674-.324 2.79-.9 3.348-.576.558-1.188.72-2.052.72h-1.674v-8.1zM54.063 284c1.494 0 2.736-.414 3.816-1.332 1.08-.936 1.746-2.682 1.746-4.986 0-4.356-2.664-6.282-5.454-6.282h-4.212V284h4.104zm9.708-2.592c-.378-.504-.576-1.224-.576-2.178s.198-1.674.576-2.178c.396-.504.918-.756 1.584-.756s1.188.252 1.566.774c.396.504.594 1.224.594 2.16 0 .936-.198 1.656-.576 2.178-.378.504-.918.756-1.584.756s-1.206-.252-1.584-.756zm-2.88-2.178c0 1.584.414 2.826 1.26 3.708.846.882 1.908 1.332 3.204 1.332 1.296 0 2.358-.45 3.204-1.332.846-.882 1.26-2.124 1.26-3.708 0-1.566-.432-2.79-1.296-3.69-.864-.9-1.926-1.35-3.168-1.35-1.242 0-2.304.45-3.168 1.35-.864.9-1.296 2.124-1.296 3.69zm17.017 1.476c-.63.918-1.26 1.494-2.34 1.494-1.278 0-2.034-.81-2.106-2.268h6.408v-.702c0-1.53-.414-2.736-1.242-3.654-.81-.918-1.854-1.386-3.132-1.386s-2.322.468-3.168 1.386c-.828.918-1.242 2.124-1.242 3.654 0 1.53.414 2.754 1.26 3.672.846.918 1.926 1.368 3.258 1.368 1.656 0 2.97-.702 3.942-2.124l-1.638-1.44zm-4.446-2.52c.09-1.098.882-1.944 2.034-1.944 1.242 0 1.98.72 2.106 1.944h-4.14zm7.571 2.664a4.12 4.12 0 0 0 1.278 2.43c.72.666 1.746.99 3.06.99 1.26 0 2.214-.306 2.88-.9.666-.612 1.008-1.296 1.008-2.07 0-.72-.198-1.314-.612-1.764-.396-.468-1.152-.846-2.268-1.152-1.278-.36-2.07-.612-2.394-.756-.306-.162-.468-.36-.468-.63 0-.486.576-.882 1.494-.882 1.17 0 1.71.558 2.052 1.476l1.944-.594c-.54-1.872-1.872-2.808-4.014-2.808-1.116 0-1.998.288-2.646.864-.63.576-.954 1.26-.954 2.052 0 1.422.99 2.178 3.204 2.808.126.036.288.09.522.144.846.234 1.386.432 1.656.576.27.126.396.342.396.612 0 .666-.738 1.062-1.89 1.062-1.26 0-1.98-.666-2.142-1.998l-2.106.54zm12.63 3.15v-8.262h.035L98.36 284h2.394v-12.6h-2.448v8.262h-.036l-4.608-8.262h-2.43V284h2.43zm12.049-2.592c-.378-.504-.576-1.224-.576-2.178s.198-1.674.576-2.178c.396-.504.918-.756 1.584-.756s1.188.252 1.566.774c.396.504.594 1.224.594 2.16 0 .936-.198 1.656-.576 2.178-.378.504-.918.756-1.584.756s-1.206-.252-1.584-.756zm-2.88-2.178c0 1.584.414 2.826 1.26 3.708.846.882 1.908 1.332 3.204 1.332 1.296 0 2.358-.45 3.204-1.332.846-.882 1.26-2.124 1.26-3.708 0-1.566-.432-2.79-1.296-3.69-.864-.9-1.926-1.35-3.168-1.35-1.242 0-2.304.45-3.168 1.35-.864.9-1.296 2.124-1.296 3.69zm11.312 1.368c0 1.188.234 2.052.72 2.592s1.368.81 2.646.81h.99v-2.25h-.774c-1.026 0-1.278-.36-1.278-1.368v-3.942h2.376v-1.98h-2.412v-2.34h-2.214v2.34h-1.53v1.98h1.476v4.158zM128.773 284v-2.25h-5.544v-3.114h5.04v-2.16h-5.04v-2.826h5.544v-2.25h-7.974V284h7.974zm3.674 0l2.268-3.42h.036l2.268 3.42h2.502l-3.312-4.932 3.114-4.608h-2.43l-2.142 3.204h-.036l-2.142-3.204h-2.43l3.114 4.608-3.312 4.932h2.502zm10.849 0v-9.54h-2.34V284h2.34zm0-10.926v-2.214h-2.34v2.214h2.34zm1.792 7.776a4.12 4.12 0 0 0 1.278 2.43c.72.666 1.746.99 3.06.99 1.26 0 2.214-.306 2.88-.9.666-.612 1.008-1.296 1.008-2.07 0-.72-.198-1.314-.612-1.764-.396-.468-1.152-.846-2.268-1.152-1.278-.36-2.07-.612-2.394-.756-.306-.162-.468-.36-.468-.63 0-.486.576-.882 1.494-.882 1.17 0 1.71.558 2.052 1.476l1.944-.594c-.54-1.872-1.872-2.808-4.014-2.808-1.116 0-1.998.288-2.646.864-.63.576-.954 1.26-.954 2.052 0 1.422.99 2.178 3.204 2.808.126.036.288.09.522.144.846.234 1.386.432 1.656.576.27.126.396.342.396.612 0 .666-.738 1.062-1.89 1.062-1.26 0-1.98-.666-2.142-1.998l-2.106.54zm10.505-.252c0 1.188.234 2.052.72 2.592s1.368.81 2.646.81h.99v-2.25h-.774c-1.026 0-1.278-.36-1.278-1.368v-3.942h2.376v-1.98h-2.412v-2.34h-2.214v2.34h-1.53v1.98h1.476v4.158zM168.422 284v-9.54h-1.476V284h1.476zm.108-11.466v-1.674h-1.692v1.674h1.692zM173.06 284v-6.084c0-1.494.972-2.376 2.466-2.376 1.458 0 2.196.882 2.196 2.664V284h1.458v-6.264c0-2.178-1.368-3.546-3.438-3.546-1.08 0-2.16.486-2.682 1.188h-.036v-.918h-1.44V284h1.476zm13.444.702l6.48-13.644-1.026-.468-6.48 13.68 1.026.432zm15.211-.702v-6.426c0-2.322-1.368-3.384-3.582-3.384-1.998 0-3.294 1.152-3.6 2.826l1.332.378c.27-1.26 1.044-1.89 2.322-1.89 1.35 0 1.998.612 1.998 1.422-.072.576-.27.846-1.044 1.152-.558.198-.828.27-1.692.486-2.322.594-3.204 1.404-3.204 2.988 0 1.566 1.116 2.718 3.222 2.718 1.512 0 2.556-.684 2.916-1.314h.036V284h1.296zm-3.924-4.302c1.458-.414 2.286-.792 2.448-1.134h.036v2.376c0 1.134-.972 2.016-2.7 2.016-1.26 0-1.89-.504-1.89-1.494 0-.846.468-1.314 2.106-1.764zm8.281-1.854c0-.594.216-1.116.666-1.602.45-.486 1.044-.72 1.782-.72 1.872 0 2.952 1.386 2.952 3.708 0 2.358-1.062 3.708-2.952 3.708-.702 0-1.278-.198-1.746-.612-.468-.414-.702-.9-.702-1.458v-3.024zm0 10.206v-4.968h.036c.414.576 1.494 1.188 2.664 1.188 1.242 0 2.232-.45 3.006-1.368.774-.918 1.152-2.142 1.152-3.672 0-1.53-.396-2.736-1.188-3.654-.792-.918-1.782-1.386-2.97-1.386-1.242 0-2.25.594-2.736 1.188H206v-.918h-1.404v13.59h1.476zm10.757-10.206c0-.594.216-1.116.666-1.602.45-.486 1.044-.72 1.782-.72 1.872 0 2.952 1.386 2.952 3.708 0 2.358-1.062 3.708-2.952 3.708-.702 0-1.278-.198-1.746-.612-.468-.414-.702-.9-.702-1.458v-3.024zm0 10.206v-4.968h.036c.414.576 1.494 1.188 2.664 1.188 1.242 0 2.232-.45 3.006-1.368.774-.918 1.152-2.142 1.152-3.672 0-1.53-.396-2.736-1.188-3.654-.792-.918-1.782-1.386-2.97-1.386-1.242 0-2.25.594-2.736 1.188h-.036v-.918h-1.404v13.59h1.476zm9.138-3.348l6.48-13.644-1.026-.468-6.48 13.68 1.026.432zm9.955-.702v-9.54h-1.476V284h1.476zm.108-11.466v-1.674h-1.692v1.674h1.692zM240.56 284v-6.084c0-1.494.972-2.376 2.466-2.376 1.458 0 2.196.882 2.196 2.664V284h1.458v-6.264c0-2.178-1.368-3.546-3.438-3.546-1.08 0-2.16.486-2.682 1.188h-.036v-.918h-1.44V284h1.476zm15.28-3.168c0 .558-.234 1.062-.702 1.476-.468.414-1.044.63-1.746.63-1.89 0-2.898-1.35-2.898-3.708s1.008-3.708 2.898-3.708c.738 0 1.332.252 1.782.738.45.486.666 1.026.666 1.62v2.952zm1.476 3.168v-13.14h-1.476v4.518h-.036c-.666-.792-1.548-1.188-2.646-1.188-1.188 0-2.178.468-2.97 1.386-.774.918-1.17 2.124-1.17 3.654 0 1.53.378 2.754 1.116 3.672.756.918 1.764 1.368 3.024 1.368 1.278 0 2.286-.594 2.79-1.188h.036V284h1.332zm9.661-2.934c-.126.234-.198.378-.252.45a2.915 2.915 0 0 1-.342.468c-.18.234-.36.396-.522.504a3.695 3.695 0 0 1-1.728.45c-.936 0-1.656-.324-2.16-.954-.486-.63-.738-1.404-.756-2.322h7.164v-.432c0-1.566-.396-2.79-1.188-3.69-.792-.9-1.818-1.35-3.096-1.35s-2.34.468-3.15 1.386c-.81.918-1.206 2.124-1.206 3.654 0 1.53.414 2.754 1.242 3.672.828.918 1.89 1.368 3.186 1.368 1.944 0 3.276-1.044 3.996-2.43l-1.188-.774zm-5.724-2.574c.018-.72.252-1.386.738-2.016.486-.63 1.188-.954 2.106-.954.954 0 1.656.288 2.106.882.45.594.702 1.278.72 2.088h-5.67zm9.766 5.508l2.484-3.924h.036l2.52 3.924h1.638l-3.222-4.896 3.006-4.644h-1.602l-2.322 3.672h-.036l-2.322-3.672h-1.62l3.024 4.644-3.222 4.896h1.638z" fill="#fff" fill-opacity=".923"/><g id="exclamation-4"><path id="Shape" fill-rule="evenodd" clip-rule="evenodd" d="M431.385 276c0 9.176 7.439 16.615 16.615 16.615 9.176 0 16.615-7.439 16.615-16.615 0-9.176-7.439-16.615-16.615-16.615-9.176 0-16.615 7.439-16.615 16.615zm30.461 0c0 7.647-6.199 13.846-13.846 13.846s-13.846-6.199-13.846-13.846 6.199-13.846 13.846-13.846 13.846 6.199 13.846 13.846zm-15.231 1.385v-8.308a1.385 1.385 0 1 1 2.77 0v8.308a1.385 1.385 0 0 1-2.77 0zm1.385 4.153a1.385 1.385 0 1 0 0 2.77 1.385 1.385 0 0 0 0-2.77z" fill="#fff"/></g><g id="checkmark-4" opacity=".01"><g id="icon-circle-check"><path id="Shape_2" fill-rule="evenodd" clip-rule="evenodd" d="M448 292.615c-9.176 0-16.615-7.439-16.615-16.615 0-9.176 7.439-16.615 16.615-16.615 9.176 0 16.615 7.439 16.615 16.615 0 9.176-7.439 16.615-16.615 16.615zm0-2.769c7.647 0 13.846-6.199 13.846-13.846s-6.199-13.846-13.846-13.846-13.846 6.199-13.846 13.846 6.199 13.846 13.846 13.846zm6.29-18.864l-8.713 8.714-3.752-3.752a1.384 1.384 0 1 0-1.958 1.958l4.731 4.731a1.384 1.384 0 0 0 1.958 0l9.692-9.692a1.385 1.385 0 0 0-1.958-1.959z" fill="#fff"/></g></g></g><g id="release-3"><g id="release-bg-9 copy"><rect id="rectangle-3" x="29" y="179" width="448" height="50" rx="25" fill="#BC5090"/></g><path id="TypeError_2" d="M52.389 200.65h1.782c1.71 0 2.844 1.224 2.844 4.032 0 1.674-.324 2.79-.9 3.348-.576.558-1.188.72-2.052.72h-1.674v-8.1zM54.063 211c1.494 0 2.736-.414 3.816-1.332 1.08-.936 1.746-2.682 1.746-4.986 0-4.356-2.664-6.282-5.454-6.282h-4.212V211h4.104zm9.708-2.592c-.378-.504-.576-1.224-.576-2.178s.198-1.674.576-2.178c.396-.504.918-.756 1.584-.756s1.188.252 1.566.774c.396.504.594 1.224.594 2.16 0 .936-.198 1.656-.576 2.178-.378.504-.918.756-1.584.756s-1.206-.252-1.584-.756zm-2.88-2.178c0 1.584.414 2.826 1.26 3.708.846.882 1.908 1.332 3.204 1.332 1.296 0 2.358-.45 3.204-1.332.846-.882 1.26-2.124 1.26-3.708 0-1.566-.432-2.79-1.296-3.69-.864-.9-1.926-1.35-3.168-1.35-1.242 0-2.304.45-3.168 1.35-.864.9-1.296 2.124-1.296 3.69zm17.017 1.476c-.63.918-1.26 1.494-2.34 1.494-1.278 0-2.034-.81-2.106-2.268h6.408v-.702c0-1.53-.414-2.736-1.242-3.654-.81-.918-1.854-1.386-3.132-1.386s-2.322.468-3.168 1.386c-.828.918-1.242 2.124-1.242 3.654 0 1.53.414 2.754 1.26 3.672.846.918 1.926 1.368 3.258 1.368 1.656 0 2.97-.702 3.942-2.124l-1.638-1.44zm-4.446-2.52c.09-1.098.882-1.944 2.034-1.944 1.242 0 1.98.72 2.106 1.944h-4.14zm7.571 2.664a4.12 4.12 0 0 0 1.278 2.43c.72.666 1.746.99 3.06.99 1.26 0 2.214-.306 2.88-.9.666-.612 1.008-1.296 1.008-2.07 0-.72-.198-1.314-.612-1.764-.396-.468-1.152-.846-2.268-1.152-1.278-.36-2.07-.612-2.394-.756-.306-.162-.468-.36-.468-.63 0-.486.576-.882 1.494-.882 1.17 0 1.71.558 2.052 1.476l1.944-.594c-.54-1.872-1.872-2.808-4.014-2.808-1.116 0-1.998.288-2.646.864-.63.576-.954 1.26-.954 2.052 0 1.422.99 2.178 3.204 2.808.126.036.288.09.522.144.846.234 1.386.432 1.656.576.27.126.396.342.396.612 0 .666-.738 1.062-1.89 1.062-1.26 0-1.98-.666-2.142-1.998l-2.106.54zm12.63 3.15v-8.262h.035L98.36 211h2.394v-12.6h-2.448v8.262h-.036l-4.608-8.262h-2.43V211h2.43zm12.049-2.592c-.378-.504-.576-1.224-.576-2.178s.198-1.674.576-2.178c.396-.504.918-.756 1.584-.756s1.188.252 1.566.774c.396.504.594 1.224.594 2.16 0 .936-.198 1.656-.576 2.178-.378.504-.918.756-1.584.756s-1.206-.252-1.584-.756zm-2.88-2.178c0 1.584.414 2.826 1.26 3.708.846.882 1.908 1.332 3.204 1.332 1.296 0 2.358-.45 3.204-1.332.846-.882 1.26-2.124 1.26-3.708 0-1.566-.432-2.79-1.296-3.69-.864-.9-1.926-1.35-3.168-1.35-1.242 0-2.304.45-3.168 1.35-.864.9-1.296 2.124-1.296 3.69zm11.312 1.368c0 1.188.234 2.052.72 2.592s1.368.81 2.646.81h.99v-2.25h-.774c-1.026 0-1.278-.36-1.278-1.368v-3.942h2.376v-1.98h-2.412v-2.34h-2.214v2.34h-1.53v1.98h1.476v4.158zM128.773 211v-2.25h-5.544v-3.114h5.04v-2.16h-5.04v-2.826h5.544v-2.25h-7.974V211h7.974zm3.674 0l2.268-3.42h.036l2.268 3.42h2.502l-3.312-4.932 3.114-4.608h-2.43l-2.142 3.204h-.036l-2.142-3.204h-2.43l3.114 4.608-3.312 4.932h2.502zm10.849 0v-9.54h-2.34V211h2.34zm0-10.926v-2.214h-2.34v2.214h2.34zm1.792 7.776a4.12 4.12 0 0 0 1.278 2.43c.72.666 1.746.99 3.06.99 1.26 0 2.214-.306 2.88-.9.666-.612 1.008-1.296 1.008-2.07 0-.72-.198-1.314-.612-1.764-.396-.468-1.152-.846-2.268-1.152-1.278-.36-2.07-.612-2.394-.756-.306-.162-.468-.36-.468-.63 0-.486.576-.882 1.494-.882 1.17 0 1.71.558 2.052 1.476l1.944-.594c-.54-1.872-1.872-2.808-4.014-2.808-1.116 0-1.998.288-2.646.864-.63.576-.954 1.26-.954 2.052 0 1.422.99 2.178 3.204 2.808.126.036.288.09.522.144.846.234 1.386.432 1.656.576.27.126.396.342.396.612 0 .666-.738 1.062-1.89 1.062-1.26 0-1.98-.666-2.142-1.998l-2.106.54zm10.505-.252c0 1.188.234 2.052.72 2.592s1.368.81 2.646.81h.99v-2.25h-.774c-1.026 0-1.278-.36-1.278-1.368v-3.942h2.376v-1.98h-2.412v-2.34h-2.214v2.34h-1.53v1.98h1.476v4.158zM168.422 211v-9.54h-1.476V211h1.476zm.108-11.466v-1.674h-1.692v1.674h1.692zM173.06 211v-6.084c0-1.494.972-2.376 2.466-2.376 1.458 0 2.196.882 2.196 2.664V211h1.458v-6.264c0-2.178-1.368-3.546-3.438-3.546-1.08 0-2.16.486-2.682 1.188h-.036v-.918h-1.44V211h1.476zm13.444.702l6.48-13.644-1.026-.468-6.48 13.68 1.026.432zm15.211-.702v-6.426c0-2.322-1.368-3.384-3.582-3.384-1.998 0-3.294 1.152-3.6 2.826l1.332.378c.27-1.26 1.044-1.89 2.322-1.89 1.35 0 1.998.612 1.998 1.422-.072.576-.27.846-1.044 1.152-.558.198-.828.27-1.692.486-2.322.594-3.204 1.404-3.204 2.988 0 1.566 1.116 2.718 3.222 2.718 1.512 0 2.556-.684 2.916-1.314h.036V211h1.296zm-3.924-4.302c1.458-.414 2.286-.792 2.448-1.134h.036v2.376c0 1.134-.972 2.016-2.7 2.016-1.26 0-1.89-.504-1.89-1.494 0-.846.468-1.314 2.106-1.764zm8.281-1.854c0-.594.216-1.116.666-1.602.45-.486 1.044-.72 1.782-.72 1.872 0 2.952 1.386 2.952 3.708 0 2.358-1.062 3.708-2.952 3.708-.702 0-1.278-.198-1.746-.612-.468-.414-.702-.9-.702-1.458v-3.024zm0 10.206v-4.968h.036c.414.576 1.494 1.188 2.664 1.188 1.242 0 2.232-.45 3.006-1.368.774-.918 1.152-2.142 1.152-3.672 0-1.53-.396-2.736-1.188-3.654-.792-.918-1.782-1.386-2.97-1.386-1.242 0-2.25.594-2.736 1.188H206v-.918h-1.404v13.59h1.476zm10.865-4.05v-9.54h-1.476V211h1.476zm.108-11.466v-1.674h-1.692v1.674h1.692zm2.91 12.168l6.48-13.644-1.026-.468-6.48 13.68 1.026.432zm9.847-6.858c0-.594.216-1.116.666-1.602.45-.486 1.044-.72 1.782-.72 1.872 0 2.952 1.386 2.952 3.708 0 2.358-1.062 3.708-2.952 3.708-.702 0-1.278-.198-1.746-.612-.468-.414-.702-.9-.702-1.458v-3.024zm0 10.206v-4.968h.036c.414.576 1.494 1.188 2.664 1.188 1.242 0 2.232-.45 3.006-1.368.774-.918 1.152-2.142 1.152-3.672 0-1.53-.396-2.736-1.188-3.654-.792-.918-1.782-1.386-2.97-1.386-1.242 0-2.25.594-2.736 1.188h-.036v-.918h-1.404v13.59h1.476zM240.56 211v-5.67c0-1.782.522-2.538 1.746-2.538.324 0 .576.054.756.144l.27-1.458-.09-.054a2.384 2.384 0 0 0-.738-.126c-.774 0-1.602.414-1.98 1.188h-.036v-1.026h-1.404V211h1.476zm8.191-1.062c-1.674 0-2.88-1.332-2.88-3.708 0-2.376 1.206-3.708 2.88-3.708 1.638 0 2.808 1.386 2.808 3.708s-1.206 3.708-2.808 3.708zm0 1.332c1.242 0 2.25-.45 3.06-1.332.81-.882 1.206-2.124 1.206-3.708 0-1.566-.414-2.79-1.242-3.69-.81-.9-1.818-1.35-3.024-1.35s-2.232.45-3.078 1.35c-.846.9-1.26 2.124-1.26 3.69 0 1.584.414 2.826 1.224 3.708.81.882 1.854 1.332 3.114 1.332zm6.212 3.24c1.314 0 1.998-.648 1.998-2.376V201.46h-1.476v10.638c0 .792-.252 1.008-.81 1.008h-.306v1.404h.594zm2.07-14.976v-1.674h-1.674v1.674h1.674zm9.663 8.532c-.126.234-.198.378-.252.45a2.915 2.915 0 0 1-.342.468c-.18.234-.36.396-.522.504a3.695 3.695 0 0 1-1.728.45c-.936 0-1.656-.324-2.16-.954-.486-.63-.738-1.404-.756-2.322h7.164v-.432c0-1.566-.396-2.79-1.188-3.69-.792-.9-1.818-1.35-3.096-1.35s-2.34.468-3.15 1.386c-.81.918-1.206 2.124-1.206 3.654 0 1.53.414 2.754 1.242 3.672.828.918 1.89 1.368 3.186 1.368 1.944 0 3.276-1.044 3.996-2.43l-1.188-.774zm-5.724-2.574c.018-.72.252-1.386.738-2.016.486-.63 1.188-.954 2.106-.954.954 0 1.656.288 2.106.882.45.594.702 1.278.72 2.088h-5.67zm15.823 1.854a3.414 3.414 0 0 1-.81 1.836c-.45.504-1.026.756-1.728.756-1.8 0-2.898-1.404-2.898-3.708 0-2.322 1.152-3.708 2.88-3.708 1.44 0 2.232 1.026 2.52 2.448l1.386-.288c-.162-1.026-.594-1.872-1.314-2.52-.702-.648-1.566-.972-2.592-.972-1.242 0-2.268.45-3.096 1.368-.828.9-1.242 2.124-1.242 3.672 0 1.566.396 2.808 1.206 3.708.81.882 1.854 1.332 3.132 1.332 2.106 0 3.672-1.422 3.978-3.636l-1.422-.288zm4.098.882c0 1.854.756 2.772 2.556 2.772h.792v-1.422h-.72c-.936 0-1.17-.396-1.17-1.53v-5.274h2.34v-1.314h-2.358v-2.34h-1.404v2.34h-1.368v1.314h1.332v5.454zm5.248-.468c.216 2.07 1.53 3.51 4.05 3.51 1.206 0 2.124-.27 2.718-.828.612-.558.918-1.206.918-1.962-.018-.774-.252-1.368-.72-1.818-.45-.45-1.296-.864-2.538-1.206-1.17-.342-1.908-.594-2.232-.792-.324-.198-.486-.486-.486-.882 0-.72.702-1.332 1.944-1.332s2.052.612 2.43 1.818l1.278-.342c-.414-1.656-1.62-2.736-3.708-2.736-1.026 0-1.836.27-2.43.792-.594.522-.882 1.134-.882 1.836 0 1.386.846 2.106 3.204 2.754 1.134.306 1.872.594 2.214.828.36.234.54.594.54 1.08 0 .918-.756 1.512-2.268 1.512-1.584 0-2.466-.828-2.646-2.502l-1.386.27zm9.875 3.942l6.48-13.644-1.026-.468-6.48 13.68 1.026.432z" fill="#fff" fill-opacity=".923"/><g id="exclamation-3"><path id="Shape_3" fill-rule="evenodd" clip-rule="evenodd" d="M431.385 203c0 9.176 7.439 16.615 16.615 16.615 9.176 0 16.615-7.439 16.615-16.615 0-9.176-7.439-16.615-16.615-16.615-9.176 0-16.615 7.439-16.615 16.615zm30.461 0c0 7.647-6.199 13.846-13.846 13.846s-13.846-6.199-13.846-13.846 6.199-13.846 13.846-13.846 13.846 6.199 13.846 13.846zm-15.231 1.385v-8.308a1.385 1.385 0 1 1 2.77 0v8.308a1.385 1.385 0 0 1-2.77 0zm1.385 4.153a1.385 1.385 0 1 0 0 2.77 1.385 1.385 0 0 0 0-2.77z" fill="#fff"/></g><g id="checkmark-3" opacity=".01"><g id="icon-circle-check_2"><path id="Shape_4" fill-rule="evenodd" clip-rule="evenodd" d="M448 219.615c-9.176 0-16.615-7.439-16.615-16.615 0-9.176 7.439-16.615 16.615-16.615 9.176 0 16.615 7.439 16.615 16.615 0 9.176-7.439 16.615-16.615 16.615zm0-2.769c7.647 0 13.846-6.199 13.846-13.846s-6.199-13.846-13.846-13.846-13.846 6.199-13.846 13.846 6.199 13.846 13.846 13.846zm6.29-18.864l-8.713 8.714-3.752-3.752a1.384 1.384 0 1 0-1.958 1.958l4.731 4.731a1.384 1.384 0 0 0 1.958 0l9.692-9.692a1.385 1.385 0 0 0-1.958-1.959z" fill="#fff"/></g></g></g><g id="release-2"><g id="release-bg-9"><rect id="rectangle-2" x="29" y="103" width="448" height="50" rx="25" fill="#E8675B"/></g><path id="TypeError_3" d="M55.377 135l4.5-12.6h-2.52l-3.024 8.946h-.054l-3.114-8.946h-2.556l4.554 12.6h2.214zm12.434 0v-6.048c0-1.278-.378-2.232-1.116-2.844-.738-.612-1.692-.918-2.862-.918-2.142 0-3.474 1.134-3.924 2.736l1.944.81c.306-.954.738-1.566 2.016-1.566 1.08 0 1.62.432 1.62 1.008 0 .288-.144.504-.414.666-.27.162-.954.36-2.052.63-2.358.576-3.24 1.314-3.24 2.97 0 1.584 1.134 2.826 3.438 2.826 1.926 0 2.592-1.17 2.592-1.188h.036V135h1.962zm-4.32-3.906c1.152-.288 1.782-.576 1.872-.666.054-.054.108-.144.162-.234h.036v1.656c0 .792-.702 1.404-2.124 1.404-.936 0-1.404-.324-1.404-.972 0-.504.252-.9 1.458-1.188zm9.09 3.906v-13.14h-2.43V135h2.43zm2.438-3.384c0 2.232 1.044 3.654 3.258 3.654 1.062 0 1.89-.396 2.484-1.188h.036V135h2.232v-9.54h-2.34v5.724c0 1.278-.756 1.836-1.89 1.836-1.008 0-1.44-.45-1.44-1.656v-5.904h-2.34v6.156zm16.723.09c-.63.918-1.26 1.494-2.34 1.494-1.278 0-2.034-.81-2.106-2.268h6.408v-.702c0-1.53-.414-2.736-1.242-3.654-.81-.918-1.854-1.386-3.132-1.386s-2.322.468-3.168 1.386c-.828.918-1.242 2.124-1.242 3.654 0 1.53.414 2.754 1.26 3.672.846.918 1.926 1.368 3.258 1.368 1.656 0 2.97-.702 3.942-2.124l-1.638-1.44zm-4.446-2.52c.09-1.098.882-1.944 2.034-1.944 1.242 0 1.98.72 2.106 1.944h-4.14zM99.555 135v-10.35h3.69v-2.25h-9.81v2.25h3.69V135h2.43zm5.946-2.592c-.378-.504-.576-1.224-.576-2.178s.198-1.674.576-2.178c.396-.504.918-.756 1.584-.756s1.188.252 1.566.774c.396.504.594 1.224.594 2.16 0 .936-.198 1.656-.576 2.178-.378.504-.918.756-1.584.756s-1.206-.252-1.584-.756zm-2.88-2.178c0 1.584.414 2.826 1.26 3.708.846.882 1.908 1.332 3.204 1.332 1.296 0 2.358-.45 3.204-1.332.846-.882 1.26-2.124 1.26-3.708 0-1.566-.432-2.79-1.296-3.69-.864-.9-1.926-1.35-3.168-1.35-1.242 0-2.304.45-3.168 1.35-.864.9-1.296 2.124-1.296 3.69zm13.076 2.178c-.378-.504-.576-1.224-.576-2.178s.198-1.674.576-2.178c.396-.504.918-.756 1.584-.756s1.188.252 1.566.774c.396.504.594 1.224.594 2.16 0 .936-.198 1.656-.576 2.178-.378.504-.918.756-1.584.756s-1.206-.252-1.584-.756zm-2.88-2.178c0 1.584.414 2.826 1.26 3.708.846.882 1.908 1.332 3.204 1.332 1.296 0 2.358-.45 3.204-1.332.846-.882 1.26-2.124 1.26-3.708 0-1.566-.432-2.79-1.296-3.69-.864-.9-1.926-1.35-3.168-1.35-1.242 0-2.304.45-3.168 1.35-.864.9-1.296 2.124-1.296 3.69zm18.637 4.77v-2.25h-5.202V122.4h-2.43V135h7.632zm8.92 0v-6.048c0-1.278-.378-2.232-1.116-2.844-.738-.612-1.692-.918-2.862-.918-2.142 0-3.474 1.134-3.924 2.736l1.944.81c.306-.954.738-1.566 2.016-1.566 1.08 0 1.62.432 1.62 1.008 0 .288-.144.504-.414.666-.27.162-.954.36-2.052.63-2.358.576-3.24 1.314-3.24 2.97 0 1.584 1.134 2.826 3.438 2.826 1.926 0 2.592-1.17 2.592-1.188h.036V135h1.962zm-4.32-3.906c1.152-.288 1.782-.576 1.872-.666.054-.054.108-.144.162-.234h.036v1.656c0 .792-.702 1.404-2.124 1.404-.936 0-1.404-.324-1.404-.972 0-.504.252-.9 1.458-1.188zm9 3.906v-5.238c0-1.458.54-2.178 1.638-2.178.234 0 .468.054.738.144l.36-2.268a2.01 2.01 0 0 0-.864-.18c-.846 0-1.602.468-1.962 1.188h-.036v-1.008h-2.214V135h2.34zm10.02-3.798c0 1.098-.81 1.962-2.052 1.962-1.368 0-2.34-1.044-2.34-2.934 0-1.89.954-2.934 2.34-2.934 1.242 0 2.052.864 2.052 1.944v1.962zm-6.048 5.742c.63 1.44 2.034 2.376 4.032 2.376 1.278 0 2.322-.378 3.132-1.116.81-.738 1.224-1.818 1.224-3.204v-9.54h-2.232v.918h-.036c-.594-.792-1.422-1.188-2.52-1.188-1.152 0-2.16.45-3.006 1.368-.846.9-1.278 2.124-1.278 3.672 0 1.566.414 2.808 1.242 3.708.828.882 1.854 1.332 3.078 1.332 1.026 0 2.016-.54 2.376-1.188h.036v1.206c0 1.386-.792 1.998-2.016 1.998-1.098 0-1.728-.468-2.286-1.548l-1.746 1.206zm17.001-5.238c-.63.918-1.26 1.494-2.34 1.494-1.278 0-2.034-.81-2.106-2.268h6.408v-.702c0-1.53-.414-2.736-1.242-3.654-.81-.918-1.854-1.386-3.132-1.386s-2.322.468-3.168 1.386c-.828.918-1.242 2.124-1.242 3.654 0 1.53.414 2.754 1.26 3.672.846.918 1.926 1.368 3.258 1.368 1.656 0 2.97-.702 3.942-2.124l-1.638-1.44zm-4.446-2.52c.09-1.098.882-1.944 2.034-1.944 1.242 0 1.98.72 2.106 1.944h-4.14zM176.226 135v-9.54h-1.476V135h1.476zm.108-11.466v-1.674h-1.692v1.674h1.692zM180.865 135v-6.084c0-1.494.972-2.376 2.466-2.376 1.458 0 2.196.882 2.196 2.664V135h1.458v-6.264c0-2.178-1.368-3.546-3.438-3.546-1.08 0-2.16.486-2.682 1.188h-.036v-.918h-1.44V135h1.476zm13.444.702l6.48-13.644-1.026-.468-6.48 13.68 1.026.432zM209.52 135v-6.426c0-2.322-1.368-3.384-3.582-3.384-1.998 0-3.294 1.152-3.6 2.826l1.332.378c.27-1.26 1.044-1.89 2.322-1.89 1.35 0 1.998.612 1.998 1.422-.072.576-.27.846-1.044 1.152-.558.198-.828.27-1.692.486-2.322.594-3.204 1.404-3.204 2.988 0 1.566 1.116 2.718 3.222 2.718 1.512 0 2.556-.684 2.916-1.314h.036V135h1.296zm-3.924-4.302c1.458-.414 2.286-.792 2.448-1.134h.036v2.376c0 1.134-.972 2.016-2.7 2.016-1.26 0-1.89-.504-1.89-1.494 0-.846.468-1.314 2.106-1.764zm8.28-1.854c0-.594.216-1.116.666-1.602.45-.486 1.044-.72 1.782-.72 1.872 0 2.952 1.386 2.952 3.708 0 2.358-1.062 3.708-2.952 3.708-.702 0-1.278-.198-1.746-.612-.468-.414-.702-.9-.702-1.458v-3.024zm0 10.206v-4.968h.036c.414.576 1.494 1.188 2.664 1.188 1.242 0 2.232-.45 3.006-1.368.774-.918 1.152-2.142 1.152-3.672 0-1.53-.396-2.736-1.188-3.654-.792-.918-1.782-1.386-2.97-1.386-1.242 0-2.25.594-2.736 1.188h-.036v-.918H212.4v13.59h1.476zm10.758-10.206c0-.594.216-1.116.666-1.602.45-.486 1.044-.72 1.782-.72 1.872 0 2.952 1.386 2.952 3.708 0 2.358-1.062 3.708-2.952 3.708-.702 0-1.278-.198-1.746-.612-.468-.414-.702-.9-.702-1.458v-3.024zm0 10.206v-4.968h.036c.414.576 1.494 1.188 2.664 1.188 1.242 0 2.232-.45 3.006-1.368.774-.918 1.152-2.142 1.152-3.672 0-1.53-.396-2.736-1.188-3.654-.792-.918-1.782-1.386-2.97-1.386-1.242 0-2.25.594-2.736 1.188h-.036v-.918h-1.404v13.59h1.476zm9.138-3.348l6.48-13.644-1.026-.468-6.48 13.68 1.026.432zm9.954-.702v-9.54h-1.476V135h1.476zm.108-11.466v-1.674h-1.692v1.674h1.692zM248.365 135v-6.084c0-1.494.972-2.376 2.466-2.376 1.458 0 2.196.882 2.196 2.664V135h1.458v-6.264c0-2.178-1.368-3.546-3.438-3.546-1.08 0-2.16.486-2.682 1.188h-.036v-.918h-1.44V135h1.476zm15.28-3.168c0 .558-.234 1.062-.702 1.476-.468.414-1.044.63-1.746.63-1.89 0-2.898-1.35-2.898-3.708s1.008-3.708 2.898-3.708c.738 0 1.332.252 1.782.738.45.486.666 1.026.666 1.62v2.952zm1.476 3.168v-13.14h-1.476v4.518h-.036c-.666-.792-1.548-1.188-2.646-1.188-1.188 0-2.178.468-2.97 1.386-.774.918-1.17 2.124-1.17 3.654 0 1.53.378 2.754 1.116 3.672.756.918 1.764 1.368 3.024 1.368 1.278 0 2.286-.594 2.79-1.188h.036V135h1.332zm9.661-2.934c-.126.234-.198.378-.252.45a2.915 2.915 0 0 1-.342.468c-.18.234-.36.396-.522.504a3.695 3.695 0 0 1-1.728.45c-.936 0-1.656-.324-2.16-.954-.486-.63-.738-1.404-.756-2.322h7.164v-.432c0-1.566-.396-2.79-1.188-3.69-.792-.9-1.818-1.35-3.096-1.35s-2.34.468-3.15 1.386c-.81.918-1.206 2.124-1.206 3.654 0 1.53.414 2.754 1.242 3.672.828.918 1.89 1.368 3.186 1.368 1.944 0 3.276-1.044 3.996-2.43l-1.188-.774zm-5.724-2.574c.018-.72.252-1.386.738-2.016.486-.63 1.188-.954 2.106-.954.954 0 1.656.288 2.106.882.45.594.702 1.278.72 2.088h-5.67zm9.765 5.508l2.484-3.924h.036l2.52 3.924h1.638l-3.222-4.896 3.006-4.644h-1.602l-2.322 3.672h-.036l-2.322-3.672h-1.62l3.024 4.644-3.222 4.896h1.638z" fill="#fff" fill-opacity=".923"/><g id="exclamation-2"><path id="Shape_5" fill-rule="evenodd" clip-rule="evenodd" d="M431.385 127c0 9.176 7.439 16.615 16.615 16.615 9.176 0 16.615-7.439 16.615-16.615 0-9.176-7.439-16.615-16.615-16.615-9.176 0-16.615 7.439-16.615 16.615zm30.461 0c0 7.647-6.199 13.846-13.846 13.846s-13.846-6.199-13.846-13.846 6.199-13.846 13.846-13.846 13.846 6.199 13.846 13.846zm-15.231 1.385v-8.308a1.385 1.385 0 1 1 2.77 0v8.308a1.385 1.385 0 0 1-2.77 0zm1.385 4.153a1.385 1.385 0 1 0 0 2.77 1.385 1.385 0 0 0 0-2.77z" fill="#fff"/></g><g id="checkmark-2" opacity=".01"><g id="icon-circle-check_3"><path id="Shape_6" fill-rule="evenodd" clip-rule="evenodd" d="M448 143.615c-9.176 0-16.615-7.439-16.615-16.615 0-9.176 7.439-16.615 16.615-16.615 9.176 0 16.615 7.439 16.615 16.615 0 9.176-7.439 16.615-16.615 16.615zm0-2.769c7.647 0 13.846-6.199 13.846-13.846s-6.199-13.846-13.846-13.846-13.846 6.199-13.846 13.846 6.199 13.846 13.846 13.846zm6.29-18.864l-8.713 8.714-3.752-3.752a1.384 1.384 0 1 0-1.958 1.958l4.731 4.731a1.384 1.384 0 0 0 1.958 0l9.692-9.692a1.385 1.385 0 0 0-1.958-1.959z" fill="#fff"/></g></g></g><g id="release-1"><g id="release-bg-4 copy"><rect id="rectangle-1" x="29" y="25" width="448" height="51" rx="25.5" fill="#FFA600"/></g><path id="TypeError_4" d="M54.819 57V46.65h3.69V44.4h-9.81v2.25h3.69V57h2.43zm6.932 4.05l5.49-13.59h-2.376l-2.466 6.462h-.036l-2.466-6.462H57.52l3.816 9.072-1.908 4.518h2.322zm9.176-9.81c0-1.08.81-1.944 2.052-1.944 1.386 0 2.34 1.044 2.34 2.934 0 1.89-.972 2.934-2.34 2.934-1.242 0-2.052-.864-2.052-1.962V51.24zm0 9.81v-4.968h.036l.072.126c.216.306.99 1.062 2.43 1.062 1.17 0 2.16-.45 2.97-1.35.81-.9 1.224-2.124 1.224-3.69 0-1.548-.432-2.772-1.278-3.672-.846-.918-1.818-1.368-2.952-1.368-1.854.018-2.574 1.17-2.574 1.188h-.036v-.918h-2.232v13.59h2.34zm14.821-7.344c-.63.918-1.26 1.494-2.34 1.494-1.278 0-2.034-.81-2.106-2.268h6.408v-.702c0-1.53-.414-2.736-1.242-3.654-.81-.918-1.854-1.386-3.132-1.386s-2.322.468-3.168 1.386c-.828.918-1.242 2.124-1.242 3.654 0 1.53.414 2.754 1.26 3.672.846.918 1.926 1.368 3.258 1.368 1.656 0 2.97-.702 3.942-2.124l-1.638-1.44zm-4.446-2.52c.09-1.098.882-1.944 2.034-1.944 1.242 0 1.98.72 2.106 1.944h-4.14zM97.747 57v-2.25h-5.544v-3.114h5.04v-2.16h-5.04V46.65h5.544V44.4h-7.974V57h7.974zm4.592 0v-5.238c0-1.458.54-2.178 1.638-2.178.234 0 .468.054.738.144l.36-2.268a2.01 2.01 0 0 0-.864-.18c-.846 0-1.602.468-1.962 1.188h-.036V47.46h-2.214V57h2.34zm6.434 0v-5.238c0-1.458.54-2.178 1.638-2.178.234 0 .468.054.738.144l.36-2.268a2.01 2.01 0 0 0-.864-.18c-.846 0-1.602.468-1.962 1.188h-.036V47.46h-2.214V57h2.34zm6.168-2.592c-.378-.504-.576-1.224-.576-2.178s.198-1.674.576-2.178c.396-.504.918-.756 1.584-.756s1.188.252 1.566.774c.396.504.594 1.224.594 2.16 0 .936-.198 1.656-.576 2.178-.378.504-.918.756-1.584.756s-1.206-.252-1.584-.756zm-2.88-2.178c0 1.584.414 2.826 1.26 3.708.846.882 1.908 1.332 3.204 1.332 1.296 0 2.358-.45 3.204-1.332.846-.882 1.26-2.124 1.26-3.708 0-1.566-.432-2.79-1.296-3.69-.864-.9-1.926-1.35-3.168-1.35-1.242 0-2.304.45-3.168 1.35-.864.9-1.296 2.124-1.296 3.69zM125.226 57v-5.238c0-1.458.54-2.178 1.638-2.178.234 0 .468.054.738.144l.36-2.268a2.01 2.01 0 0 0-.864-.18c-.846 0-1.602.468-1.962 1.188h-.036V47.46h-2.214V57h2.34zm10.623 0v-9.54h-1.476V57h1.476zm.108-11.466V43.86h-1.692v1.674h1.692zM140.488 57v-6.084c0-1.494.972-2.376 2.466-2.376 1.458 0 2.196.882 2.196 2.664V57h1.458v-6.264c0-2.178-1.368-3.546-3.438-3.546-1.08 0-2.16.486-2.682 1.188h-.036v-.918h-1.44V57h1.476zm13.444.702l6.48-13.644-1.026-.468-6.48 13.68 1.026.432zM169.143 57v-6.426c0-2.322-1.368-3.384-3.582-3.384-1.998 0-3.294 1.152-3.6 2.826l1.332.378c.27-1.26 1.044-1.89 2.322-1.89 1.35 0 1.998.612 1.998 1.422-.072.576-.27.846-1.044 1.152-.558.198-.828.27-1.692.486-2.322.594-3.204 1.404-3.204 2.988 0 1.566 1.116 2.718 3.222 2.718 1.512 0 2.556-.684 2.916-1.314h.036V57h1.296zm-3.924-4.302c1.458-.414 2.286-.792 2.448-1.134h.036v2.376c0 1.134-.972 2.016-2.7 2.016-1.26 0-1.89-.504-1.89-1.494 0-.846.468-1.314 2.106-1.764zm8.28-1.854c0-.594.216-1.116.666-1.602.45-.486 1.044-.72 1.782-.72 1.872 0 2.952 1.386 2.952 3.708 0 2.358-1.062 3.708-2.952 3.708-.702 0-1.278-.198-1.746-.612-.468-.414-.702-.9-.702-1.458v-3.024zm0 10.206v-4.968h.036c.414.576 1.494 1.188 2.664 1.188 1.242 0 2.232-.45 3.006-1.368.774-.918 1.152-2.142 1.152-3.672 0-1.53-.396-2.736-1.188-3.654-.792-.918-1.782-1.386-2.97-1.386-1.242 0-2.25.594-2.736 1.188h-.036v-.918h-1.404v13.59h1.476zM184.365 57v-9.54h-1.476V57h1.476zm.108-11.466V43.86h-1.692v1.674h1.692zm2.91 12.168l6.48-13.644-1.026-.468-6.48 13.68 1.026.432zm9.847-6.858c0-.594.216-1.116.666-1.602.45-.486 1.044-.72 1.782-.72 1.872 0 2.952 1.386 2.952 3.708 0 2.358-1.062 3.708-2.952 3.708-.702 0-1.278-.198-1.746-.612-.468-.414-.702-.9-.702-1.458v-3.024zm0 10.206v-4.968h.036c.414.576 1.494 1.188 2.664 1.188 1.242 0 2.232-.45 3.006-1.368.774-.918 1.152-2.142 1.152-3.672 0-1.53-.396-2.736-1.188-3.654-.792-.918-1.782-1.386-2.97-1.386-1.242 0-2.25.594-2.736 1.188h-.036v-.918h-1.404v13.59h1.476zM207.988 57v-5.67c0-1.782.522-2.538 1.746-2.538.324 0 .576.054.756.144l.27-1.458-.09-.054a2.384 2.384 0 0 0-.738-.126c-.774 0-1.602.414-1.98 1.188h-.036V47.46h-1.404V57h1.476zm8.191-1.062c-1.674 0-2.88-1.332-2.88-3.708 0-2.376 1.206-3.708 2.88-3.708 1.638 0 2.808 1.386 2.808 3.708s-1.206 3.708-2.808 3.708zm0 1.332c1.242 0 2.25-.45 3.06-1.332.81-.882 1.206-2.124 1.206-3.708 0-1.566-.414-2.79-1.242-3.69-.81-.9-1.818-1.35-3.024-1.35s-2.232.45-3.078 1.35c-.846.9-1.26 2.124-1.26 3.69 0 1.584.414 2.826 1.224 3.708.81.882 1.854 1.332 3.114 1.332zm6.212 3.24c1.314 0 1.998-.648 1.998-2.376V47.46h-1.476v10.638c0 .792-.252 1.008-.81 1.008h-.306v1.404h.594zm2.07-14.976V43.86h-1.674v1.674h1.674zm9.662 8.532c-.126.234-.198.378-.252.45a2.915 2.915 0 0 1-.342.468c-.18.234-.36.396-.522.504a3.695 3.695 0 0 1-1.728.45c-.936 0-1.656-.324-2.16-.954-.486-.63-.738-1.404-.756-2.322h7.164v-.432c0-1.566-.396-2.79-1.188-3.69-.792-.9-1.818-1.35-3.096-1.35s-2.34.468-3.15 1.386c-.81.918-1.206 2.124-1.206 3.654 0 1.53.414 2.754 1.242 3.672.828.918 1.89 1.368 3.186 1.368 1.944 0 3.276-1.044 3.996-2.43l-1.188-.774zm-5.724-2.574c.018-.72.252-1.386.738-2.016.486-.63 1.188-.954 2.106-.954.954 0 1.656.288 2.106.882.45.594.702 1.278.72 2.088h-5.67zm15.824 1.854a3.414 3.414 0 0 1-.81 1.836c-.45.504-1.026.756-1.728.756-1.8 0-2.898-1.404-2.898-3.708 0-2.322 1.152-3.708 2.88-3.708 1.44 0 2.232 1.026 2.52 2.448l1.386-.288c-.162-1.026-.594-1.872-1.314-2.52-.702-.648-1.566-.972-2.592-.972-1.242 0-2.268.45-3.096 1.368-.828.9-1.242 2.124-1.242 3.672 0 1.566.396 2.808 1.206 3.708.81.882 1.854 1.332 3.132 1.332 2.106 0 3.672-1.422 3.978-3.636l-1.422-.288zm4.097.882c0 1.854.756 2.772 2.556 2.772h.792v-1.422h-.72c-.936 0-1.17-.396-1.17-1.53v-5.274h2.34V47.46h-2.358v-2.34h-1.404v2.34h-1.368v1.314h1.332v5.454zm5.249-.468c.216 2.07 1.53 3.51 4.05 3.51 1.206 0 2.124-.27 2.718-.828.612-.558.918-1.206.918-1.962-.018-.774-.252-1.368-.72-1.818-.45-.45-1.296-.864-2.538-1.206-1.17-.342-1.908-.594-2.232-.792-.324-.198-.486-.486-.486-.882 0-.72.702-1.332 1.944-1.332s2.052.612 2.43 1.818l1.278-.342c-.414-1.656-1.62-2.736-3.708-2.736-1.026 0-1.836.27-2.43.792-.594.522-.882 1.134-.882 1.836 0 1.386.846 2.106 3.204 2.754 1.134.306 1.872.594 2.214.828.36.234.54.594.54 1.08 0 .918-.756 1.512-2.268 1.512-1.584 0-2.466-.828-2.646-2.502l-1.386.27zm9.875 3.942l6.48-13.644-1.026-.468-6.48 13.68 1.026.432z" fill="#fff" fill-opacity=".923"/><g id="exclamation-1"><path id="Shape_7" fill-rule="evenodd" clip-rule="evenodd" d="M431.385 50c0 9.176 7.439 16.615 16.615 16.615 9.176 0 16.615-7.439 16.615-16.615 0-9.176-7.439-16.615-16.615-16.615-9.176 0-16.615 7.439-16.615 16.615zm30.461 0c0 7.647-6.199 13.846-13.846 13.846S434.154 57.647 434.154 50 440.353 36.154 448 36.154 461.846 42.353 461.846 50zm-15.231 1.385v-8.308a1.385 1.385 0 0 1 2.77 0v8.308a1.385 1.385 0 0 1-2.77 0zM448 55.539a1.385 1.385 0 1 0 0 2.769 1.385 1.385 0 0 0 0-2.77z" fill="#fff"/></g><g id="checkmark-1" opacity=".01"><g id="icon-circle-check_4"><path id="Shape_8" fill-rule="evenodd" clip-rule="evenodd" d="M448 66.615c-9.176 0-16.615-7.439-16.615-16.615 0-9.176 7.439-16.615 16.615-16.615 9.176 0 16.615 7.439 16.615 16.615 0 9.176-7.439 16.615-16.615 16.615zm0-2.769c7.647 0 13.846-6.199 13.846-13.846S455.647 36.154 448 36.154 434.154 42.353 434.154 50 440.353 63.846 448 63.846zm6.29-18.863l-8.713 8.713-3.752-3.752a1.384 1.384 0 1 0-1.958 1.958l4.731 4.73c.541.542 1.417.542 1.958 0l9.692-9.691a1.384 1.384 0 1 0-1.958-1.959z" fill="#fff"/></g></g></g></g><style>@keyframes spin{0%,to{transform:rotate(0deg)}25%,8%{transform:rotate(60deg)}33%,60%{transform:rotate(240deg)}68%,96%{transform:rotate(180deg)}}@keyframes animate-top-left-in{0%{transform:translate(-5%,-5%)}to{transform:translate(0%,0%)}}@keyframes animate-bottom-right-in{0%{transform:translate(5%,5%)}to{transform:translate(0%,0%)}}@keyframes resolve{0%,to{transform:scale(1)}50%{transform:scale(1.05)}}@keyframes fade-in{0%,to{opacity:0}1%,99%{opacity:1}}@keyframes fade-out{0%,to{opacity:1}1%,99%{opacity:0}}@keyframes turn-green{5%,97%{fill:#57be8c}}#release-1,#release-2,#release-3,#release-4{animation:.3s resolve ease-out;transform-origin:center center}#checkmark-1,#checkmark-2,#checkmark-3,#checkmark-4{animation:5s fade-in ease-out}#exclamation-1,#exclamation-2,#exclamation-3,#exclamation-4{animation:5s fade-out ease-out}#checkmark-2,#exclamation-2,#rectangle-2,#release-2{animation-delay:.5s}#checkmark-3,#exclamation-3,#rectangle-3,#release-3{animation-delay:1s}#checkmark-4,#exclamation-4,#rectangle-4,#release-4{animation-delay:1.5s}</style></svg>